<?xml version="1.0" encoding="UTF-8"?>
<svg width="40px" height="36px" viewBox="0 0 40 36" version="1.1" xmlns="http://www.w3.org/2000/svg" xmlns:xlink="http://www.w3.org/1999/xlink">
    <title>Path</title>
    <g id="Page-1" stroke="none" stroke-width="1" fill="none" fill-rule="evenodd">
        <g id="aaa" transform="translate(-0.000000, -0.000000)" fill="#FFFFFF" fill-rule="nonzero">
            <path d="M23.3633,20.7979 C24.6545,24.7387 25.2657,32.6228 25.4265,35.0314 C25.4541,35.448 25.739,35.7733 26.0951,35.8028 C36.6019,36.655 39.0189,30.9481 39.5221,29.1176 C39.6094,28.795 39.5267,28.4455 39.3061,28.2251 C35.1292,24.0639 29.8126,20.556 28.0848,19.4619 C27.8045,19.2845 27.4553,19.3383 27.237,19.6071 C26.8326,20.1044 25.8768,20.7872 23.6849,20.7119 L23.3242,20.7119 L23.3633,20.7979 Z" id="Path"></path>
            <path d="M26.1099,13.2875 C25.7285,12.7149 24.366,11.0348 20.9151,9.8171 C20.8232,9.7849 20.7473,9.7042 20.7129,9.5967 L17.8938,0.82548 C17.8065,0.55667 18.0086,0.28248 18.2476,0.34162 C20.3062,0.85236 27.7687,3.1453 34.241,10.801 C34.4156,11.008 34.3191,11.3628 34.0733,11.4139 C32.7131,11.6907 29.2254,12.4461 26.443,13.4138 C26.319,13.4541 26.1903,13.4057 26.1099,13.2875 Z" id="Path"></path>
            <path d="M15.4912,11.6046 C15.3694,13.7013 15.9392,15.2846 16.3551,16.1421 C16.5412,16.5265 16.3849,17.0103 16.0288,17.1555 C13.8691,18.0291 7.5255,20.6419 4.9086,22.2548 C4.6374,22.4214 4.3066,22.33 4.132,22.037 C2.7948,19.8032 -2.08297,10.8304 1.8872,4.82519 C2.0481,4.58326 2.3215,4.48649 2.5673,4.58864 C4.2331,5.2795 10.7536,8.0724 15.1649,11.1664 C15.2086,11.196 15.2476,11.2336 15.2844,11.2739 L15.4406,11.4567 L15.4912,11.6046 Z" id="Path"></path>
            <path d="M25.119,17.6174 C25.8498,16.3785 24.9328,14.1553 23.0708,12.6518 C21.2088,11.1483 19.1069,10.9338 18.376,12.1727 C17.6452,13.4117 18.5622,15.6349 20.4242,17.1384 C22.2862,18.6419 24.3881,18.8564 25.119,17.6174 Z" id="Path"></path>
        </g>
    </g>
</svg>