<?xml version="1.0" encoding="utf-8"?>
<!-- Generator: Adobe Illustrator 25.0.1, SVG Export Plug-In . SVG Version: 6.00 Build 0)  -->
<svg version="1.1" id="Layer_1" xmlns="http://www.w3.org/2000/svg" xmlns:xlink="http://www.w3.org/1999/xlink" x="0px" y="0px"
	 viewBox="0 0 1920 900" style="enable-background:new 0 0 1920 900;" xml:space="preserve">
<style type="text/css">
	.st0{clip-path:url(#SVGID_2_);}
	.st1{display:none;fill:#FFFFFF;}
	.st2{display:none;}
	.st3{display:inline;fill:#F5F5F5;}
	.st4{display:none;fill:#26C6DA;}
	.st5{display:none;fill:url(#SVGID_3_);}
	.st6{display:inline;fill:#FFFFFF;}
	.st7{display:inline;fill:url(#SVGID_4_);}
	.st8{display:inline;fill:#2F46CC;}
	.st9{display:inline;fill:url(#SVGID_5_);}
	.st10{display:inline;fill:#4A6ABB;}
	.st11{display:inline;fill:#3C3CA6;}
	.st12{display:inline;fill:#2A2A93;}
	.st13{display:inline;fill:url(#SVGID_6_);}
	.st14{display:inline;fill:#212184;}
	.st15{display:inline;fill:url(#SVGID_7_);}
	.st16{display:inline;fill:url(#SVGID_8_);}
	.st17{display:inline;opacity:0.35;fill:url(#SVGID_9_);enable-background:new    ;}
	.st18{display:inline;opacity:0.5;fill:#FFFFFF;enable-background:new    ;}
	.st19{display:inline;opacity:0.5;fill:url(#SVGID_10_);enable-background:new    ;}
	.st20{display:inline;fill:#5D7EE7;}
	.st21{display:inline;fill:url(#SVGID_11_);}
	.st22{display:inline;fill:#4556ED;}
	.st23{display:inline;opacity:0.2;fill:url(#SVGID_12_);enable-background:new    ;}
	.st24{display:inline;opacity:0.15;fill:url(#SVGID_13_);enable-background:new    ;}
	.st25{display:inline;opacity:0.85;fill:#AFF1FF;enable-background:new    ;}
	.st26{display:inline;opacity:0.25;fill:#AFF1FF;enable-background:new    ;}
	.st27{display:inline;opacity:0.5;fill:#AFF1FF;enable-background:new    ;}
	.st28{display:inline;opacity:0.2;fill:#AFF1FF;enable-background:new    ;}
	.st29{display:inline;fill:url(#SVGID_14_);}
	.st30{display:inline;fill:url(#SVGID_15_);}
	.st31{display:inline;fill:url(#SVGID_16_);}
	.st32{display:inline;}
	.st33{clip-path:url(#SVGID_18_);}
	.st34{opacity:0.12;enable-background:new    ;}
	.st35{fill:url(#SVGID_19_);}
	.st36{fill:#1B134E;}
	.st37{fill:none;stroke:#270D0D;stroke-miterlimit:10;}
	.st38{fill:#262635;}
	.st39{fill:#363649;}
	.st40{fill:#42E8E0;}
	.st41{opacity:0.4;fill:#FFFFFF;enable-background:new    ;}
	.st42{opacity:0.4;fill:#FCFDFF;enable-background:new    ;}
	.st43{fill:#110B35;}
	.st44{opacity:0.2;fill:#F2F2F2;enable-background:new    ;}
	.st45{fill:url(#SVGID_20_);}
	.st46{fill:#C1C1C1;}
	.st47{fill:url(#SVGID_21_);}
	.st48{opacity:0.39;}
	.st49{opacity:0.39;fill:#FFFFFF;enable-background:new    ;}
	.st50{clip-path:url(#SVGID_23_);}
	.st51{fill:url(#SVGID_24_);}
	.st52{fill:#FFFFFF;}
	.st53{fill:url(#SVGID_25_);}
	.st54{clip-path:url(#SVGID_27_);}
	.st55{fill:url(#SVGID_28_);}
	.st56{fill:url(#SVGID_29_);}
	.st57{clip-path:url(#SVGID_31_);}
	.st58{fill:url(#SVGID_32_);}
	.st59{fill:url(#SVGID_33_);}
	.st60{clip-path:url(#SVGID_35_);}
	.st61{fill:url(#SVGID_36_);}
	.st62{fill:url(#SVGID_37_);}
	.st63{fill:#000051;}
	.st64{opacity:5.000000e-02;fill:#FFFFFF;enable-background:new    ;}
	.st65{opacity:0.5;fill:#1A237E;enable-background:new    ;}
	.st66{fill:#1A237E;}
	.st67{fill:#283593;}
	.st68{opacity:0.1;fill:#FFFFFF;enable-background:new    ;}
	.st69{fill:#3949AB;}
	.st70{fill-rule:evenodd;clip-rule:evenodd;fill:#3949AB;}
	.st71{opacity:0.1;fill:#ABEBFF;enable-background:new    ;}
	.st72{clip-path:url(#SVGID_39_);}
	.st73{fill:url(#SVGID_40_);}
	.st74{fill:url(#SVGID_41_);}
	.st75{fill:url(#SVGID_42_);}
	.st76{fill:url(#SVGID_43_);}
	.st77{opacity:0.2;}
	.st78{fill:#E8EAF6;}
	.st79{fill:#EBEBEB;}
	.st80{fill:#DFDFDF;}
	.st81{fill:none;}
	.st82{opacity:0.2;fill:#B8B8B8;enable-background:new    ;}
</style>
<g id="Layer_2_1_">
	<g>
		<g>
			<defs>
				<rect id="SVGID_1_" x="114.5" y="-113" width="1691" height="1524"/>
			</defs>
			<clipPath id="SVGID_2_">
				<use xlink:href="#SVGID_1_"  style="overflow:visible;"/>
			</clipPath>
			<g class="st0">
				<path class="st1" d="M302.4,242v-36.1h9v14l12.4-14h10.3l-12.9,14.7l13.7,21.3h-9.6l-9.6-15.6l-4.3,4.6V242H302.4z M338.8,211.3
					v-6.8h9.8v6.8H338.8z M339.5,242v-19.9h-3.9l0.8-6.7h12.2V242H339.5z M362.4,242.6c-2.9,0-5-0.6-6.3-1.9
					c-1.3-1.3-1.9-3.3-1.9-6.1v-30.3h9v29.4c0,0.9,0.2,1.5,0.5,1.8c0.4,0.3,0.9,0.4,1.6,0.4c1,0,1.9-0.1,2.7-0.4v6.1
					c-0.9,0.3-1.7,0.6-2.6,0.7C364.7,242.5,363.7,242.6,362.4,242.6z M378.2,242.6c-2.9,0-5-0.6-6.3-1.9c-1.3-1.3-1.9-3.3-1.9-6.1
					v-30.3h9v29.4c0,0.9,0.2,1.5,0.5,1.8c0.4,0.3,0.9,0.4,1.6,0.4c1,0,1.9-0.1,2.7-0.4v6.1c-0.9,0.3-1.7,0.6-2.6,0.7
					C380.5,242.5,379.5,242.6,378.2,242.6z M398.8,242.6c-2.4,0-4.6-0.2-6.7-0.6c-2.1-0.3-3.8-0.8-5.3-1.5v-7.7
					c1.6,0.7,3.5,1.3,5.4,1.7c2,0.4,3.9,0.7,5.7,0.7c2.2,0,3.9-0.2,5-0.6c1.1-0.4,1.7-1.3,1.7-2.7c0-0.9-0.3-1.7-0.8-2.2
					c-0.5-0.6-1.4-1-2.6-1.5c-1.2-0.4-2.8-1-4.9-1.6c-2.5-0.7-4.4-1.6-5.9-2.5s-2.5-2.1-3.1-3.4c-0.6-1.3-1-2.9-1-4.8
					c0-3.4,1.2-6.1,3.7-7.9c2.5-1.8,6.1-2.7,10.9-2.7c2.1,0,4.1,0.2,6.1,0.5s3.6,0.7,4.8,1.1v7.7c-1.6-0.6-3.2-1.1-4.9-1.4
					c-1.6-0.3-3.2-0.4-4.7-0.4c-2,0-3.7,0.2-4.9,0.6c-1.2,0.4-1.8,1.2-1.8,2.6c0,0.8,0.2,1.4,0.7,1.9c0.4,0.4,1.2,0.9,2.3,1.2
					c1.1,0.4,2.6,0.8,4.5,1.3c2.9,0.8,5.2,1.7,6.8,2.9c1.6,1.1,2.6,2.4,3.2,3.8c0.6,1.4,0.9,3,0.9,4.8c0,3.2-1.2,5.7-3.7,7.7
					C407.6,241.6,403.8,242.6,398.8,242.6z M422.8,242l-7-26.5h8.8l3.6,15.2l3.8-11.6v-3.6h6.8l4.4,15.2l3.5-15.2h8.8l-7,26.5h-8.2
					l-4.5-13.8l-4.6,13.8L422.8,242L422.8,242z M459.8,211.3v-6.8h9.8v6.8H459.8z M460.6,242v-19.9h-3.9l0.8-6.7h12.2V242H460.6z
					 M486.3,242.6c-3.3,0-5.7-0.8-7.3-2.5c-1.5-1.7-2.3-4-2.3-6.9v-10.8h-3.6v-6.8h3.6v-5.5l9-2.4v8h6.4l-0.4,6.8h-6v10.2
					c0,1.3,0.3,2.2,1,2.7c0.6,0.5,1.6,0.7,2.9,0.7c1.1,0,2.2-0.2,3.3-0.6v6.1C491,242.2,488.9,242.6,486.3,242.6z M510.3,242.6
					c-4.7,0-8.5-1.2-11.1-3.5c-2.7-2.3-4-5.8-4-10.4c0-4.7,1.4-8.1,4.1-10.4c2.8-2.3,6.5-3.4,11.1-3.4c1.9,0,3.6,0.1,5,0.4
					c1.5,0.3,2.9,0.7,4.2,1.3v6.4c-2.1-1-4.5-1.5-7.3-1.5c-2.6,0-4.6,0.5-6,1.6c-1.3,1-2,2.9-2,5.6c0,2.5,0.6,4.3,1.9,5.5
					c1.3,1.1,3.3,1.7,6,1.7c2.7,0,5.2-0.6,7.4-1.7v6.7c-1.3,0.6-2.8,1-4.4,1.3C513.8,242.4,512.1,242.6,510.3,242.6z M524.3,242
					v-37.7h9v13.2c1-0.7,2.3-1.3,3.8-1.8s3.1-0.7,4.8-0.7c3.5,0,6.1,0.8,7.8,2.5s2.5,4.3,2.5,7.7V242h-9v-16.2c0-1.5-0.3-2.6-1-3.2
					c-0.6-0.6-1.8-1-3.4-1c-1,0-2,0.2-3,0.7c-1,0.4-1.8,1-2.5,1.7v18H524.3z M571.5,211.3v-6.8h9.8v6.8H571.5z M572.2,242v-19.9
					h-3.9l0.8-6.7h12.2V242H572.2z M596.8,242.6c-2.1,0-4.1-0.1-6-0.4s-3.4-0.7-4.5-1.1v-6.9c1.3,0.6,2.8,1,4.5,1.3s3.2,0.4,4.6,0.4
					c1.6,0,2.8-0.1,3.5-0.2c0.7-0.1,1.1-0.6,1.1-1.2c0-0.7-0.6-1.3-1.8-1.7s-2.8-0.9-4.9-1.6c-2.4-0.9-4.3-1.8-5.5-3
					s-1.8-2.9-1.8-5.1c0-2.6,1-4.6,2.9-6c2-1.4,5.1-2.1,9.4-2.1c1.7,0,3.3,0.1,5,0.4c1.6,0.3,3,0.6,4,0.9v6.8
					c-1-0.5-2.2-0.8-3.6-1.1s-2.6-0.3-3.6-0.3c-1.4,0-2.6,0.1-3.5,0.3c-0.9,0.1-1.4,0.5-1.4,1.2s0.5,1.2,1.6,1.5
					c1,0.3,2.6,0.7,4.5,1.3c2.1,0.6,3.7,1.3,4.9,2.1c1.2,0.7,2,1.6,2.5,2.6s0.7,2.3,0.7,3.8c0,2.7-1,4.7-3.1,6.1
					C604,241.9,600.9,242.6,596.8,242.6z M634.1,242.6c-1.7,0-3.2-0.3-4.7-0.9c-1.4-0.6-2.6-1.5-3.4-2.7c-0.9-1.3-1.3-2.8-1.3-4.7
					c0-2.7,0.9-4.9,2.7-6.4c1.9-1.6,4.6-2.4,8.3-2.4h7.4v-0.6c0-1.3-0.4-2.3-1.3-2.9c-0.9-0.6-2.6-0.9-5-0.9c-3,0-6,0.5-8.9,1.4
					v-5.8c1.3-0.5,2.9-1,4.8-1.3c1.9-0.3,3.9-0.5,6-0.5c4.1,0,7.3,0.8,9.6,2.5c2.4,1.7,3.5,4.3,3.5,8V242h-7.9l-0.4-2.2
					c-1,0.9-2.2,1.6-3.8,2.1C638.2,242.3,636.3,242.6,634.1,242.6z M636.9,237c1.4,0,2.7-0.2,3.7-0.7s1.9-1.1,2.5-1.8v-3.8h-6.4
					c-2.7,0-4,1.1-4,3.2c0,1,0.3,1.7,1,2.3S635.5,237,636.9,237z M680.7,242.6c-2.4,0-4.6-0.2-6.7-0.6c-2.1-0.3-3.8-0.8-5.3-1.5
					v-7.7c1.6,0.7,3.5,1.3,5.4,1.7c2,0.4,3.9,0.7,5.7,0.7c2.2,0,3.9-0.2,5-0.6c1.1-0.4,1.7-1.3,1.7-2.7c0-0.9-0.3-1.7-0.8-2.2
					c-0.5-0.6-1.4-1-2.6-1.5c-1.2-0.4-2.8-1-4.9-1.6c-2.5-0.7-4.4-1.6-5.9-2.5s-2.5-2.1-3.1-3.4c-0.6-1.3-1-2.9-1-4.8
					c0-3.4,1.2-6.1,3.7-7.9c2.5-1.8,6.1-2.7,10.9-2.7c2.1,0,4.1,0.2,6.1,0.5s3.6,0.7,4.8,1.1v7.7c-1.6-0.6-3.2-1.1-4.9-1.4
					c-1.6-0.3-3.2-0.4-4.7-0.4c-2,0-3.7,0.2-4.9,0.6c-1.2,0.4-1.8,1.2-1.8,2.6c0,0.8,0.2,1.4,0.7,1.9c0.4,0.4,1.2,0.9,2.3,1.2
					c1.1,0.4,2.6,0.8,4.5,1.3c2.9,0.8,5.2,1.7,6.8,2.9c1.6,1.1,2.6,2.4,3.2,3.8c0.6,1.4,0.9,3,0.9,4.8c0,3.2-1.2,5.7-3.7,7.7
					C689.5,241.6,685.8,242.6,680.7,242.6z M700.3,242v-26.5h8.3l0.3,2.4c1.2-0.9,2.5-1.5,4-2.1s3.1-0.8,4.8-0.8
					c1.8,0,3.2,0.3,4.2,0.8s1.8,1.3,2.4,2.2c1.2-0.9,2.6-1.6,4.1-2.2c1.6-0.6,3.4-0.9,5.5-0.9c3.1,0,5.4,0.8,6.8,2.4
					s2.2,4.1,2.2,7.3V242H734v-16.3c0-1.5-0.3-2.5-1-3.1c-0.6-0.7-1.6-1-3-1c-0.9,0-1.7,0.2-2.5,0.6c-0.8,0.3-1.5,0.8-2.1,1.5
					c0.1,0.4,0.1,0.8,0.1,1.2s0.1,0.8,0.1,1.3V242h-8.4v-16.4c0-1.3-0.2-2.4-0.7-3c-0.4-0.7-1.3-1-2.6-1c-0.9,0-1.8,0.2-2.6,0.7
					s-1.6,1-2.2,1.7v18H700.3z M755.9,242.6c-1.7,0-3.2-0.3-4.7-0.9c-1.4-0.6-2.6-1.5-3.4-2.7c-0.9-1.3-1.3-2.8-1.3-4.7
					c0-2.7,0.9-4.9,2.7-6.4c1.9-1.6,4.6-2.4,8.3-2.4h7.4v-0.6c0-1.3-0.4-2.3-1.3-2.9c-0.9-0.6-2.6-0.9-5-0.9c-3,0-6,0.5-8.9,1.4
					v-5.8c1.3-0.5,2.9-1,4.8-1.3c1.9-0.3,3.9-0.5,6-0.5c4.1,0,7.3,0.8,9.6,2.5c2.4,1.7,3.5,4.3,3.5,8V242h-7.9l-0.4-2.2
					c-1,0.9-2.2,1.6-3.8,2.1C760,242.3,758.1,242.6,755.9,242.6z M758.7,237c1.4,0,2.7-0.2,3.7-0.7s1.9-1.1,2.5-1.8v-3.8h-6.4
					c-2.7,0-4,1.1-4,3.2c0,1,0.3,1.7,1,2.3S757.3,237,758.7,237z M779,242v-26.5h8.6l0.3,2.5c1.2-0.7,2.6-1.3,4.3-1.9
					c1.7-0.6,3.4-1,5.2-1.1v6.8c-1,0.1-2.1,0.3-3.2,0.6c-1.2,0.2-2.3,0.5-3.4,0.8c-1,0.3-1.9,0.7-2.7,1.1V242H779z M811.6,242.6
					c-3.3,0-5.7-0.8-7.3-2.5c-1.5-1.7-2.3-4-2.3-6.9v-10.8h-3.6v-6.8h3.6v-5.5l9-2.4v8h6.4l-0.4,6.8h-6v10.2c0,1.3,0.3,2.2,1,2.7
					c0.6,0.5,1.6,0.7,2.9,0.7c1.1,0,2.2-0.2,3.3-0.6v6.1C816.4,242.2,814.2,242.6,811.6,242.6z M844.3,242v-13.3l-12.9-22.8h9.4
					l8.1,15l8.1-15h9.4l-12.9,22.8V242H844.3z M867.8,211.3v-6.8h9.8v6.8H867.8z M868.5,242v-19.9h-3.9l0.8-6.7h12.2V242H868.5z
					 M897.5,242.6c-4.6,0-8.3-1.1-11.1-3.4c-2.8-2.3-4.2-5.8-4.2-10.4c0-4.2,1.2-7.6,3.5-10.1s5.8-3.8,10.4-3.8
					c4.2,0,7.5,1.1,9.8,3.2c2.3,2.2,3.5,5.1,3.5,8.7v4.8h-18.8c0.4,1.8,1.4,3,2.9,3.7s3.6,1,6.2,1c1.5,0,2.9-0.1,4.4-0.4
					c1.5-0.3,2.8-0.6,3.8-1v5.9c-1.3,0.6-2.8,1-4.5,1.3C901.5,242.4,899.6,242.6,897.5,242.6z M890.5,226.4h11v-1.2
					c0-1.3-0.4-2.3-1.2-3.1s-2.1-1.2-4-1.2c-2.2,0-3.7,0.4-4.5,1.3C891,223.2,890.5,224.6,890.5,226.4z M922.1,242.6
					c-2.9,0-5-0.6-6.3-1.9c-1.3-1.3-1.9-3.3-1.9-6.1v-30.3h9v29.4c0,0.9,0.2,1.5,0.5,1.8c0.4,0.3,0.9,0.4,1.6,0.4
					c1,0,1.9-0.1,2.7-0.4v6.1c-0.9,0.3-1.7,0.6-2.6,0.7C924.4,242.5,923.3,242.6,922.1,242.6z M942.3,242.6c-2.6,0-4.8-0.4-6.6-1.2
					s-3.2-2.2-4.2-4c-1-1.9-1.5-4.4-1.5-7.6c0-3.2,0.6-5.9,1.7-8.1c1.1-2.2,2.7-3.9,4.6-5c2-1.2,4.2-1.7,6.8-1.7
					c1.4,0,2.6,0.1,3.7,0.4c1.1,0.3,2.2,0.7,3.1,1.3v-12.4h9V242h-7.8l-0.5-2.2c-1.1,0.9-2.3,1.6-3.6,2.1
					C945.7,242.3,944.1,242.6,942.3,242.6z M944.9,236c2,0,3.7-0.7,5-2v-10.8c-1.3-1.2-2.9-1.7-4.9-1.7c-1.9,0-3.4,0.7-4.4,2.2
					c-1,1.4-1.5,3.4-1.5,6c0,2.5,0.5,4.2,1.4,5C941.6,235.6,943,236,944.9,236z M302.4,326v-36.1h26.2v6.9h-17.2v7.6h15.1v7.1h-15.1
					V326H302.4z M339.5,326.6c-1.7,0-3.2-0.3-4.7-0.9c-1.4-0.6-2.6-1.5-3.4-2.7c-0.9-1.3-1.3-2.8-1.3-4.7c0-2.7,0.9-4.9,2.7-6.4
					c1.9-1.6,4.6-2.4,8.3-2.4h7.4v-0.6c0-1.3-0.4-2.3-1.3-2.9s-2.6-0.9-5-0.9c-3,0-6,0.5-8.9,1.4v-5.8c1.3-0.5,2.9-1,4.8-1.3
					s3.9-0.5,6-0.5c4.1,0,7.3,0.8,9.6,2.5c2.4,1.7,3.5,4.3,3.5,8V326h-7.9l-0.4-2.2c-1,0.9-2.2,1.6-3.8,2.1
					C343.6,326.3,341.8,326.6,339.5,326.6z M342.4,321c1.4,0,2.7-0.2,3.7-0.7s1.9-1.1,2.5-1.8v-3.8h-6.4c-2.7,0-4,1.1-4,3.2
					c0,1,0.3,1.7,1,2.3S341,321,342.4,321z M362.6,326v-26.5h8.6l0.3,2.5c1.2-0.7,2.6-1.3,4.3-1.9c1.7-0.6,3.4-1,5.2-1.1v6.8
					c-1,0.1-2.1,0.3-3.2,0.6c-1.2,0.2-2.3,0.5-3.4,0.8c-1,0.3-1.9,0.7-2.7,1.1V326H362.6z M384.3,326v-26.5h8.3l0.3,2.4
					c1.2-0.9,2.5-1.5,4-2.1s3.1-0.8,4.8-0.8c1.8,0,3.2,0.3,4.2,0.8s1.8,1.3,2.4,2.2c1.2-0.9,2.6-1.6,4.1-2.2
					c1.6-0.6,3.4-0.9,5.5-0.9c3.1,0,5.4,0.8,6.8,2.4c1.5,1.6,2.2,4.1,2.2,7.3V326H418v-16.3c0-1.5-0.3-2.5-1-3.1c-0.6-0.7-1.6-1-3-1
					c-0.9,0-1.7,0.2-2.5,0.6c-0.8,0.3-1.5,0.8-2.1,1.5c0.1,0.4,0.1,0.8,0.1,1.2c0,0.4,0.1,0.8,0.1,1.3V326h-8.4v-16.4
					c0-1.3-0.2-2.4-0.7-3c-0.4-0.7-1.3-1-2.6-1c-0.9,0-1.8,0.2-2.6,0.7c-0.8,0.5-1.6,1-2.2,1.7v18L384.3,326L384.3,326z
					 M434.2,295.3v-6.8h9.8v6.8H434.2z M435,326v-19.9h-3.9l0.8-6.7H444V326H435z M449.7,326v-26.5h8.4l0.3,2.3
					c1.1-0.7,2.4-1.4,4.1-2c1.6-0.6,3.4-0.9,5.3-0.9c3.4,0,5.9,0.8,7.5,2.5c1.6,1.6,2.4,4.2,2.4,7.6v17h-9v-16.3
					c0-1.5-0.3-2.6-1-3.2c-0.6-0.6-1.8-1-3.4-1c-1,0-2,0.2-3,0.7c-1,0.4-1.8,1-2.5,1.7V326H449.7z M494.5,335.9
					c-1.3,0-2.7-0.1-4.1-0.2c-1.5-0.1-2.8-0.3-4.1-0.5c-1.3-0.2-2.4-0.5-3.4-0.8v-6.2c1.5,0.5,3.3,0.9,5.4,1.1
					c2.1,0.3,4,0.4,5.8,0.4c2.3,0,4-0.1,5.1-0.4c1.2-0.2,1.7-0.6,1.7-1.2c0-0.5-0.2-0.9-0.7-1.1c-0.4-0.2-1.3-0.3-2.6-0.3h-7.3
					c-2.4,0-4.3-0.4-5.6-1.3c-1.3-0.9-2-2.1-2-3.8c0-1.1,0.3-2.2,1-3.2s1.7-1.8,3.1-2.2c-1.5-0.8-2.7-1.8-3.5-3s-1.2-2.7-1.2-4.5
					c0-3.4,1.1-5.9,3.3-7.5c2.2-1.6,5.5-2.4,9.8-2.4c0.9,0,1.9,0.1,3,0.2s1.9,0.2,2.5,0.3h10.2l-0.2,5.6h-3.9
					c0.9,0.9,1.4,2.3,1.4,4.1c0,2.6-0.8,4.6-2.5,6.2c-1.6,1.6-4.1,2.4-7.5,2.4c-0.6,0-1.1,0-1.7-0.1c-0.5-0.1-1-0.1-1.6-0.2
					c-1,0.1-1.8,0.3-2.5,0.6c-0.7,0.3-1,0.7-1,1.3c0,0.4,0.2,0.7,0.5,0.9c0.4,0.1,0.9,0.2,1.6,0.2h6.8c2.7,0,4.8,0.6,6.3,1.9
					c1.5,1.2,2.3,3,2.3,5.4C508.8,333.2,504,335.9,494.5,335.9z M495.2,312.8c2,0,3.3-0.3,4.1-1c0.7-0.7,1.1-1.8,1.1-3.4
					s-0.4-2.7-1.2-3.4c-0.7-0.7-2.1-1.1-4-1.1c-1.8,0-3.2,0.4-4,1.1s-1.2,1.8-1.2,3.4c0,1.5,0.4,2.6,1.1,3.3
					C491.9,312.4,493.3,312.8,495.2,312.8z M525.5,326l13.8-36.1h9.7l13.8,36.1h-9.4l-3.2-8.2h-12L535,326H525.5z M539.3,311.2h9.6
					l-4.8-12.5L539.3,311.2z M578.8,335.9c-1.3,0-2.7-0.1-4.1-0.2c-1.5-0.1-2.8-0.3-4.1-0.5s-2.4-0.5-3.4-0.8v-6.2
					c1.5,0.5,3.3,0.9,5.4,1.1c2.1,0.3,4,0.4,5.8,0.4c2.3,0,4-0.1,5.1-0.4c1.2-0.2,1.7-0.6,1.7-1.2c0-0.5-0.2-0.9-0.7-1.1
					c-0.4-0.2-1.3-0.3-2.6-0.3h-7.3c-2.4,0-4.3-0.4-5.6-1.3s-2-2.1-2-3.8c0-1.1,0.3-2.2,1-3.2s1.7-1.8,3.1-2.2
					c-1.5-0.8-2.7-1.8-3.5-3s-1.2-2.7-1.2-4.5c0-3.4,1.1-5.9,3.3-7.5s5.5-2.4,9.8-2.4c0.9,0,1.9,0.1,3,0.2s1.9,0.2,2.5,0.3h10.2
					l-0.2,5.6h-4c0.9,0.9,1.4,2.3,1.4,4.1c0,2.6-0.8,4.6-2.5,6.2c-1.6,1.6-4.1,2.4-7.5,2.4c-0.6,0-1.1,0-1.7-0.1
					c-0.5-0.1-1-0.1-1.6-0.2c-1,0.1-1.8,0.3-2.5,0.6c-0.7,0.3-1,0.7-1,1.3c0,0.4,0.2,0.7,0.5,0.9c0.4,0.1,0.9,0.2,1.6,0.2h6.8
					c2.7,0,4.8,0.6,6.3,1.9c1.5,1.2,2.3,3,2.3,5.4C593.1,333.2,588.4,335.9,578.8,335.9z M579.5,312.8c2,0,3.3-0.3,4.1-1
					c0.7-0.7,1.1-1.8,1.1-3.4s-0.4-2.7-1.2-3.4c-0.7-0.7-2.1-1.1-4-1.1c-1.8,0-3.2,0.4-4,1.1s-1.2,1.8-1.2,3.4
					c0,1.5,0.4,2.6,1.1,3.3C576.2,312.4,577.6,312.8,579.5,312.8z M609.5,335.9c-1.3,0-2.7-0.1-4.1-0.2c-1.5-0.1-2.8-0.3-4.1-0.5
					s-2.4-0.5-3.4-0.8v-6.2c1.5,0.5,3.3,0.9,5.4,1.1c2.1,0.3,4,0.4,5.8,0.4c2.3,0,4-0.1,5.1-0.4c1.2-0.2,1.7-0.6,1.7-1.2
					c0-0.5-0.2-0.9-0.7-1.1c-0.4-0.2-1.3-0.3-2.6-0.3h-7.3c-2.4,0-4.3-0.4-5.6-1.3s-2-2.1-2-3.8c0-1.1,0.3-2.2,1-3.2
					s1.7-1.8,3.1-2.2c-1.5-0.8-2.7-1.8-3.5-3s-1.2-2.7-1.2-4.5c0-3.4,1.1-5.9,3.3-7.5s5.5-2.4,9.8-2.4c0.9,0,1.9,0.1,3,0.2
					s1.9,0.2,2.5,0.3h10.2l-0.2,5.6h-3.9c0.9,0.9,1.4,2.3,1.4,4.1c0,2.6-0.8,4.6-2.5,6.2c-1.6,1.6-4.1,2.4-7.5,2.4
					c-0.6,0-1.1,0-1.7-0.1c-0.5-0.1-1-0.1-1.6-0.2c-1,0.1-1.8,0.3-2.5,0.6c-0.7,0.3-1,0.7-1,1.3c0,0.4,0.2,0.7,0.5,0.9
					c0.4,0.1,0.9,0.2,1.6,0.2h6.8c2.7,0,4.8,0.6,6.3,1.9c1.5,1.2,2.3,3,2.3,5.4C623.9,333.2,619.1,335.9,609.5,335.9z M610.3,312.8
					c2,0,3.3-0.3,4.1-1s1.1-1.8,1.1-3.4s-0.4-2.7-1.2-3.4c-0.7-0.7-2.1-1.1-4-1.1c-1.8,0-3.2,0.4-4,1.1s-1.2,1.8-1.2,3.4
					c0,1.5,0.4,2.6,1.1,3.3C607,312.4,608.3,312.8,610.3,312.8z M628.2,326v-26.5h8.6l0.3,2.5c1.2-0.7,2.6-1.3,4.3-1.9
					s3.4-1,5.2-1.1v6.8c-1,0.1-2.1,0.3-3.2,0.6c-1.2,0.2-2.3,0.5-3.4,0.8c-1,0.3-1.9,0.7-2.7,1.1V326H628.2z M663.1,326.6
					c-4.6,0-8.3-1.1-11.1-3.4s-4.2-5.8-4.2-10.4c0-4.2,1.2-7.6,3.5-10.1s5.8-3.8,10.4-3.8c4.2,0,7.5,1.1,9.8,3.2
					c2.3,2.2,3.5,5.1,3.5,8.7v4.8h-18.8c0.4,1.8,1.4,3,2.9,3.7s3.6,1,6.2,1c1.5,0,2.9-0.1,4.4-0.4s2.8-0.6,3.8-1v5.9
					c-1.3,0.6-2.8,1-4.5,1.3C667.1,326.4,665.2,326.6,663.1,326.6z M656.1,310.4h11v-1.2c0-1.3-0.4-2.3-1.2-3.1
					c-0.8-0.8-2.1-1.2-4-1.2c-2.2,0-3.7,0.4-4.5,1.3C656.5,307.2,656.1,308.6,656.1,310.4z M690.9,335.9c-1.3,0-2.7-0.1-4.1-0.2
					c-1.5-0.1-2.8-0.3-4.1-0.5s-2.4-0.5-3.4-0.8v-6.2c1.5,0.5,3.3,0.9,5.4,1.1c2.1,0.3,4,0.4,5.8,0.4c2.3,0,4-0.1,5.1-0.4
					c1.2-0.2,1.7-0.6,1.7-1.2c0-0.5-0.2-0.9-0.7-1.1c-0.4-0.2-1.3-0.3-2.6-0.3h-7.3c-2.4,0-4.3-0.4-5.6-1.3s-2-2.1-2-3.8
					c0-1.1,0.3-2.2,1-3.2s1.7-1.8,3.1-2.2c-1.5-0.8-2.7-1.8-3.5-3s-1.2-2.7-1.2-4.5c0-3.4,1.1-5.9,3.3-7.5s5.5-2.4,9.8-2.4
					c0.9,0,1.9,0.1,3,0.2s1.9,0.2,2.5,0.3h10.2l-0.2,5.6h-3.9c0.9,0.9,1.4,2.3,1.4,4.1c0,2.6-0.8,4.6-2.5,6.2
					c-1.6,1.6-4.1,2.4-7.5,2.4c-0.6,0-1.1,0-1.7-0.1c-0.5-0.1-1-0.1-1.6-0.2c-1,0.1-1.8,0.3-2.5,0.6c-0.7,0.3-1,0.7-1,1.3
					c0,0.4,0.2,0.7,0.5,0.9c0.4,0.1,0.9,0.2,1.6,0.2h6.8c2.7,0,4.8,0.6,6.3,1.9c1.5,1.2,2.3,3,2.3,5.4
					C705.2,333.2,700.5,335.9,690.9,335.9z M691.6,312.8c2,0,3.3-0.3,4.1-1s1.1-1.8,1.1-3.4s-0.4-2.7-1.2-3.4
					c-0.7-0.7-2.1-1.1-4-1.1c-1.8,0-3.2,0.4-4,1.1s-1.2,1.8-1.2,3.4c0,1.5,0.4,2.6,1.1,3.3C688.3,312.4,689.7,312.8,691.6,312.8z
					 M717.1,326.6c-1.7,0-3.2-0.3-4.7-0.9c-1.4-0.6-2.6-1.5-3.4-2.7c-0.9-1.3-1.3-2.8-1.3-4.7c0-2.7,0.9-4.9,2.7-6.4
					c1.9-1.6,4.6-2.4,8.3-2.4h7.4v-0.6c0-1.3-0.4-2.3-1.3-2.9c-0.9-0.6-2.6-0.9-5-0.9c-3,0-6,0.5-8.9,1.4v-5.8
					c1.3-0.5,2.9-1,4.8-1.3c1.9-0.3,3.9-0.5,6-0.5c4.1,0,7.3,0.8,9.6,2.5c2.4,1.7,3.5,4.3,3.5,8V326h-7.9l-0.4-2.2
					c-1,0.9-2.2,1.6-3.8,2.1C721.2,326.3,719.3,326.6,717.1,326.6z M719.9,321c1.4,0,2.7-0.2,3.7-0.7s1.9-1.1,2.5-1.8v-3.8h-6.4
					c-2.7,0-4,1.1-4,3.2c0,1,0.3,1.7,1,2.3S718.5,321,719.9,321z M751.1,326.6c-3.3,0-5.7-0.8-7.3-2.5c-1.5-1.7-2.3-4-2.3-6.9v-10.8
					h-3.6v-6.8h3.6v-5.5l9-2.4v8h6.4l-0.4,6.8h-6v10.2c0,1.3,0.3,2.2,1,2.7c0.6,0.5,1.6,0.7,2.9,0.7c1.1,0,2.2-0.2,3.3-0.6v6.1
					C755.9,326.2,753.7,326.6,751.1,326.6z M775,326.6c-5.1,0-8.9-1.2-11.3-3.5c-2.4-2.4-3.6-5.8-3.6-10.3c0-4.4,1.2-7.9,3.6-10.2
					c2.5-2.4,6.2-3.6,11.3-3.6s8.9,1.2,11.3,3.6c2.5,2.4,3.7,5.8,3.7,10.2c0,4.5-1.2,7.9-3.6,10.3
					C783.9,325.4,780.1,326.6,775,326.6z M775,319.5c2.1,0,3.6-0.5,4.5-1.6c0.9-1,1.3-2.8,1.3-5.2s-0.4-4.2-1.3-5.2
					c-0.9-1-2.4-1.6-4.5-1.6s-3.5,0.5-4.4,1.6c-0.9,1-1.3,2.8-1.3,5.2s0.4,4.2,1.3,5.2C771.4,319,772.9,319.5,775,319.5z M794.5,326
					v-26.5h8.6l0.3,2.5c1.2-0.7,2.6-1.3,4.3-1.9s3.4-1,5.2-1.1v6.8c-1,0.1-2.1,0.3-3.2,0.6c-1.2,0.2-2.3,0.5-3.4,0.8
					c-1,0.3-1.9,0.7-2.7,1.1V326H794.5z"/>
				<g class="st2">
					<path class="st3" d="M312.5,616h523c4.4,0,8,3.6,8,8v203c0,4.4-3.6,8-8,8h-523c-4.4,0-8-3.6-8-8V624
						C304.5,619.6,308.1,616,312.5,616z"/>
				</g>
				<circle class="st1" cx="550.5" cy="858" r="8"/>
				<circle class="st1" cx="598.5" cy="858" r="8"/>
				<circle class="st4" cx="574.5" cy="858" r="8"/>
				
					<linearGradient id="SVGID_3_" gradientUnits="userSpaceOnUse" x1="574" y1="48" x2="574" y2="267" gradientTransform="matrix(1 0 0 1 0 568)">
					<stop  offset="0" style="stop-color:#FF017B"/>
					<stop  offset="1" style="stop-color:#0237F3"/>
				</linearGradient>
				<path class="st5" d="M312.5,616h523c4.4,0,8,3.6,8,8v203c0,4.4-3.6,8-8,8h-523c-4.4,0-8-3.6-8-8V624
					C304.5,619.6,308.1,616,312.5,616z"/>
				<g class="st2">
					<path class="st6" d="M333.3,675v-20.6h5.2v8l7.1-8h5.9l-7.4,8.4l7.8,12.2h-5.5l-5.5-8.9l-2.4,2.7v6.2L333.3,675L333.3,675z
						 M354.1,657.4v-3.9h5.6v3.9H354.1z M354.5,675v-11.4h-2.2l0.4-3.8h6.9V675H354.5z M367.6,675.3c-1.7,0-2.9-0.4-3.6-1.1
						c-0.7-0.7-1.1-1.9-1.1-3.5v-17.3h5.2v16.8c0,0.5,0.1,0.8,0.3,1c0.2,0.2,0.5,0.3,0.9,0.3c0.6,0,1.1-0.1,1.5-0.2v3.5
						c-0.5,0.2-1,0.3-1.5,0.4C368.9,675.3,368.4,675.3,367.6,675.3z M376.7,675.3c-1.7,0-2.9-0.4-3.6-1.1s-1.1-1.9-1.1-3.5v-17.3
						h5.2v16.8c0,0.5,0.1,0.8,0.3,1c0.2,0.2,0.5,0.3,0.9,0.3c0.6,0,1.1-0.1,1.5-0.2v3.5c-0.5,0.2-1,0.3-1.5,0.4
						C378,675.3,377.4,675.3,376.7,675.3z M388.4,675.3c-1.4,0-2.6-0.1-3.8-0.3c-1.2-0.2-2.2-0.5-3-0.9v-4.4c0.9,0.4,2,0.7,3.1,1
						c1.2,0.3,2.2,0.4,3.3,0.4c1.3,0,2.2-0.1,2.8-0.4c0.6-0.2,1-0.7,1-1.5c0-0.5-0.2-1-0.5-1.3s-0.8-0.6-1.5-0.8
						c-0.7-0.3-1.6-0.6-2.8-0.9c-1.4-0.4-2.5-0.9-3.4-1.4c-0.8-0.5-1.4-1.2-1.8-1.9s-0.5-1.7-0.5-2.8c0-2,0.7-3.5,2.1-4.5
						s3.5-1.6,6.2-1.6c1.2,0,2.4,0.1,3.5,0.3s2,0.4,2.8,0.6v4.4c-0.9-0.4-1.8-0.6-2.8-0.8c-0.9-0.2-1.8-0.3-2.7-0.3
						c-1.2,0-2.1,0.1-2.8,0.3c-0.7,0.2-1.1,0.7-1.1,1.5c0,0.4,0.1,0.8,0.4,1.1s0.7,0.5,1.3,0.7c0.6,0.2,1.5,0.5,2.6,0.8
						c1.7,0.4,3,1,3.9,1.6s1.5,1.3,1.9,2.2c0.3,0.8,0.5,1.7,0.5,2.8c0,1.8-0.7,3.3-2.1,4.4C393.5,674.8,391.3,675.3,388.4,675.3z
						 M402.1,675l-4-15.2h5.1l2,8.7l2.1-6.6v-2.1h3.9l2.5,8.7l2-8.7h5.1l-4,15.2h-4.7l-2.6-7.9l-2.7,7.9L402.1,675L402.1,675z
						 M423.3,657.4v-3.9h5.6v3.9H423.3z M423.7,675v-11.4h-2.2l0.4-3.8h6.9V675H423.7z M438.4,675.3c-1.9,0-3.3-0.5-4.2-1.4
						c-0.9-1-1.3-2.3-1.3-4v-6.2h-2v-3.9h2v-3.2l5.2-1.4v4.5h3.7l-0.2,3.9h-3.5v5.8c0,0.7,0.2,1.2,0.5,1.5c0.4,0.3,0.9,0.4,1.6,0.4
						c0.6,0,1.2-0.1,1.9-0.3v3.5C441.1,675.1,439.9,675.3,438.4,675.3z M452.1,675.3c-2.7,0-4.8-0.7-6.4-2c-1.5-1.3-2.3-3.3-2.3-5.9
						c0-2.7,0.8-4.7,2.4-6s3.7-2,6.4-2c1.1,0,2.1,0.1,2.9,0.3c0.8,0.1,1.6,0.4,2.4,0.8v3.6c-1.2-0.6-2.6-0.9-4.2-0.9
						c-1.5,0-2.6,0.3-3.4,0.9c-0.8,0.6-1.2,1.7-1.2,3.2c0,1.4,0.4,2.5,1.1,3.1s1.9,1,3.5,1s3-0.3,4.3-1v3.8
						c-0.8,0.3-1.6,0.6-2.5,0.7C454.2,675.2,453.2,675.3,452.1,675.3z M460.2,675v-21.6h5.2v7.5c0.6-0.4,1.3-0.8,2.1-1
						c0.9-0.3,1.8-0.4,2.8-0.4c2,0,3.5,0.5,4.4,1.4c1,1,1.4,2.4,1.4,4.4v9.6h-5.2v-9.3c0-0.9-0.2-1.5-0.5-1.9c-0.4-0.4-1-0.5-2-0.5
						c-0.6,0-1.1,0.1-1.7,0.4c-0.6,0.3-1.1,0.6-1.4,1V675H460.2z M485.4,675l7.9-20.6h5.6l7.9,20.6h-5.4l-1.9-4.7h-6.9l-1.8,4.7
						H485.4z M493.3,666.5h5.5l-2.8-7.2L493.3,666.5z M513.4,675.3c-1.8,0-3.2-0.5-4.2-1.5s-1.5-2.5-1.5-4.4v-9.5h5.2v9.2
						c0,0.9,0.2,1.5,0.6,1.9c0.4,0.4,1.1,0.6,1.9,0.6c0.6,0,1.2-0.1,1.8-0.4c0.6-0.3,1-0.6,1.4-1v-10.4h5.2V675H519l-0.2-1.3
						c-0.6,0.5-1.4,0.9-2.2,1.2C515.6,675.2,514.6,675.3,513.4,675.3z M534.9,675.3c-2.7,0-4.8-0.7-6.4-2c-1.5-1.3-2.3-3.3-2.3-5.9
						c0-2.7,0.8-4.7,2.4-6c1.6-1.3,3.7-2,6.4-2c1.1,0,2.1,0.1,2.9,0.3c0.8,0.1,1.6,0.4,2.4,0.8v3.6c-1.2-0.6-2.6-0.9-4.2-0.9
						c-1.5,0-2.6,0.3-3.4,0.9c-0.8,0.6-1.2,1.7-1.2,3.2c0,1.4,0.4,2.5,1.1,3.1c0.7,0.6,1.9,1,3.5,1s3-0.3,4.3-1v3.8
						c-0.8,0.3-1.6,0.6-2.5,0.7C537,675.2,536,675.3,534.9,675.3z M549.2,675.3c-1.9,0-3.3-0.5-4.2-1.4c-0.9-1-1.3-2.3-1.3-4v-6.2
						h-2v-3.9h2v-3.2l5.2-1.4v4.5h3.7l-0.2,3.9h-3.5v5.8c0,0.7,0.2,1.2,0.5,1.5c0.4,0.3,0.9,0.4,1.6,0.4c0.6,0,1.2-0.1,1.9-0.3v3.5
						C552,675.1,550.7,675.3,549.2,675.3z M556,657.4v-3.9h5.6v3.9H556z M556.4,675v-11.4h-2.2l0.4-3.8h6.9V675H556.4z M572.7,675.3
						c-2.9,0-5.1-0.7-6.5-2c-1.4-1.4-2.1-3.3-2.1-5.9c0-2.5,0.7-4.5,2.1-5.9c1.4-1.4,3.6-2,6.5-2s5.1,0.7,6.5,2
						c1.4,1.4,2.1,3.3,2.1,5.9c0,2.6-0.7,4.5-2.1,5.9C577.8,674.6,575.7,675.3,572.7,675.3z M572.7,671.3c1.2,0,2-0.3,2.6-0.9
						c0.5-0.6,0.8-1.6,0.8-3s-0.3-2.4-0.8-3s-1.4-0.9-2.6-0.9c-1.2,0-2,0.3-2.5,0.9c-0.5,0.6-0.8,1.6-0.8,3s0.3,2.4,0.8,3
						C570.7,671,571.5,671.3,572.7,671.3z M583.9,675v-15.2h4.8l0.2,1.3c0.6-0.4,1.4-0.8,2.3-1.1c0.9-0.3,1.9-0.5,3-0.5
						c2,0,3.4,0.5,4.3,1.4c0.9,0.9,1.3,2.4,1.3,4.4v9.7h-5.2v-9.3c0-0.9-0.2-1.5-0.5-1.8c-0.4-0.4-1-0.5-2-0.5
						c-0.6,0-1.1,0.1-1.7,0.4c-0.6,0.3-1.1,0.6-1.4,1V675H583.9z"/>
					<path class="st6" d="M328.6,722l5.9-15.5h4.2l5.9,15.5h-4l-1.4-3.5H334l-1.4,3.5H328.6z M334.5,715.6h4.1l-2.1-5.4L334.5,715.6
						z M348.5,722l-4.5-11.4h4l2.5,7.4l2.5-7.4h4l-4.5,11.4H348.5z M361.6,722.2c-0.7,0-1.4-0.1-2-0.4c-0.6-0.3-1.1-0.6-1.5-1.2
						c-0.4-0.5-0.6-1.2-0.6-2c0-1.2,0.4-2.1,1.2-2.7c0.8-0.7,2-1,3.6-1h3.2v-0.3c0-0.6-0.2-1-0.6-1.2c-0.4-0.3-1.1-0.4-2.2-0.4
						c-1.3,0-2.6,0.2-3.8,0.6v-2.5c0.6-0.2,1.2-0.4,2-0.6c0.8-0.1,1.7-0.2,2.6-0.2c1.8,0,3.1,0.4,4.1,1.1c1,0.7,1.5,1.9,1.5,3.4v7.1
						h-3.4l-0.2-1c-0.4,0.4-1,0.7-1.6,0.9C363.3,722.1,362.5,722.2,361.6,722.2z M362.8,719.9c0.6,0,1.1-0.1,1.6-0.3
						s0.8-0.5,1.1-0.8v-1.6h-2.7c-1.1,0-1.7,0.5-1.7,1.4c0,0.4,0.1,0.7,0.4,1C361.7,719.7,362.2,719.9,362.8,719.9z M372.2,708.8
						v-2.9h4.2v2.9H372.2z M372.5,722v-8.5h-1.7l0.3-2.9h5.2V722H372.5z M382.4,722.2c-1.2,0-2.1-0.3-2.7-0.8s-0.8-1.4-0.8-2.6v-13
						h3.9v12.6c0,0.4,0.1,0.6,0.2,0.8c0.2,0.1,0.4,0.2,0.7,0.2c0.4,0,0.8-0.1,1.2-0.2v2.6c-0.4,0.1-0.7,0.2-1.1,0.3
						C383.3,722.2,382.9,722.2,382.4,722.2z M389.8,722.2c-0.7,0-1.4-0.1-2-0.4c-0.6-0.3-1.1-0.6-1.5-1.2c-0.4-0.5-0.6-1.2-0.6-2
						c0-1.2,0.4-2.1,1.2-2.7c0.8-0.7,2-1,3.6-1h3.2v-0.3c0-0.6-0.2-1-0.6-1.2c-0.4-0.3-1.1-0.4-2.2-0.4c-1.3,0-2.6,0.2-3.8,0.6v-2.5
						c0.6-0.2,1.2-0.4,2-0.6c0.8-0.1,1.7-0.2,2.6-0.2c1.8,0,3.1,0.4,4.1,1.1c1,0.7,1.5,1.9,1.5,3.4v7.1H394l-0.2-1
						c-0.4,0.4-1,0.7-1.6,0.9C391.6,722.1,390.8,722.2,389.8,722.2z M391,719.9c0.6,0,1.1-0.1,1.6-0.3s0.8-0.5,1.1-0.8v-1.6H391
						c-1.1,0-1.7,0.5-1.7,1.4c0,0.4,0.1,0.7,0.4,1C390,719.7,390.4,719.9,391,719.9z M406.8,722.2c-0.8,0-1.4-0.1-2-0.3
						s-1.1-0.5-1.6-0.9l-0.2,1h-3.4v-16.2h3.9v5.3c0.4-0.3,0.9-0.4,1.5-0.6s1.1-0.2,1.7-0.2c1.7,0,3,0.5,3.9,1.4
						c1,0.9,1.4,2.4,1.4,4.4s-0.5,3.6-1.4,4.6C409.7,721.8,408.5,722.2,406.8,722.2z M405.7,719.4c0.9,0,1.5-0.3,1.8-0.8
						c0.4-0.5,0.6-1.3,0.6-2.4c0-1.1-0.2-1.9-0.6-2.4c-0.4-0.4-1-0.7-1.8-0.7c-0.9,0-1.6,0.2-2.2,0.7v4.6
						C404.1,719.1,404.9,719.4,405.7,719.4z M417.6,722.2c-1.2,0-2.1-0.3-2.7-0.8c-0.5-0.5-0.8-1.4-0.8-2.6v-13h3.9v12.6
						c0,0.4,0.1,0.6,0.2,0.8c0.2,0.1,0.4,0.2,0.7,0.2c0.4,0,0.8-0.1,1.2-0.2v2.6c-0.4,0.1-0.7,0.2-1.1,0.3
						C418.5,722.2,418.1,722.2,417.6,722.2z M427.5,722.2c-2,0-3.6-0.5-4.8-1.5c-1.2-1-1.8-2.5-1.8-4.5c0-1.8,0.5-3.2,1.5-4.3
						s2.5-1.6,4.5-1.6c1.8,0,3.2,0.5,4.2,1.4s1.5,2.2,1.5,3.7v2h-8.1c0.2,0.8,0.6,1.3,1.2,1.6c0.7,0.3,1.5,0.4,2.7,0.4
						c0.6,0,1.3-0.1,1.9-0.2c0.7-0.1,1.2-0.3,1.6-0.4v2.5c-0.5,0.3-1.2,0.4-1.9,0.6C429.3,722.2,428.4,722.2,427.5,722.2z
						 M424.5,715.3h4.7v-0.5c0-0.6-0.2-1-0.5-1.3s-0.9-0.5-1.7-0.5c-0.9,0-1.6,0.2-1.9,0.6C424.7,713.9,424.5,714.5,424.5,715.3z
						 M439.7,722v-15.5h3.3l6.6,9.2v-9.2h3.9V722h-3.3l-6.6-9.2v9.2H439.7z M461.9,722.2c-2.2,0-3.8-0.5-4.8-1.5s-1.6-2.5-1.6-4.4
						s0.5-3.4,1.6-4.4s2.7-1.5,4.8-1.5c2.2,0,3.8,0.5,4.8,1.5c1.1,1,1.6,2.5,1.6,4.4s-0.5,3.4-1.6,4.4
						C465.7,721.7,464.1,722.2,461.9,722.2z M461.9,719.2c0.9,0,1.5-0.2,1.9-0.7c0.4-0.4,0.6-1.2,0.6-2.2s-0.2-1.8-0.6-2.2
						s-1-0.7-1.9-0.7s-1.5,0.2-1.9,0.7c-0.4,0.4-0.6,1.2-0.6,2.2s0.2,1.8,0.6,2.2C460.4,719,461,719.2,461.9,719.2z M471.7,722
						l-3-11.4h3.8l1.5,6.5l1.6-5v-1.6h2.9l1.9,6.5l1.5-6.5h3.8l-3,11.4h-3.5l-1.9-5.9l-2,5.9L471.7,722L471.7,722z M492.6,717.8
						l-0.1-7.2v-4.1h3.9v4.1l-0.1,7.2H492.6z M492.3,722v-2.8h4.1v2.8H492.3z"/>
					<path class="st6" d="M330.5,754v-0.9c0.3-0.7,0.7-1.2,1.2-1.8c0.5-0.5,1-1,1.6-1.5c0.4-0.4,0.8-0.7,1.1-0.9
						c0.3-0.3,0.5-0.5,0.7-0.7s0.3-0.4,0.3-0.7c0.1-0.2,0.1-0.5,0.1-0.8c0-0.6-0.2-1-0.5-1.3s-0.9-0.4-1.6-0.4c-0.4,0-0.8,0-1.2,0.1
						c-0.4,0.1-0.8,0.2-1.2,0.4V744c0.4-0.1,0.8-0.2,1.3-0.3s1-0.1,1.5-0.1c1.2,0,2,0.3,2.6,0.8s0.9,1.3,0.9,2.3
						c0,0.5-0.1,0.9-0.3,1.3c-0.2,0.4-0.4,0.7-0.7,1.1c-0.3,0.3-0.6,0.7-1,1c-0.5,0.4-1,0.8-1.4,1.2s-0.8,0.8-1,1.3h4.5v1.3h-6.9
						V754z M342.7,754.2c-2.7,0-4-1-4-2.9c0-0.6,0.2-1.1,0.5-1.6s0.8-0.8,1.4-1c-0.5-0.2-0.9-0.5-1.2-0.9c-0.2-0.4-0.4-0.8-0.4-1.3
						c0-0.9,0.3-1.6,0.9-2.1s1.6-0.8,2.8-0.8c1.3,0,2.3,0.3,2.8,0.8c0.6,0.5,0.9,1.2,0.9,2.1c0,0.5-0.1,0.9-0.4,1.4
						c-0.2,0.4-0.7,0.7-1.2,1c0.7,0.2,1.1,0.5,1.4,0.9s0.4,0.9,0.4,1.5C346.7,753.2,345.4,754.2,342.7,754.2z M343.1,748.3
						c0.6-0.1,1-0.4,1.3-0.6c0.3-0.3,0.4-0.6,0.4-1.2c0-1.1-0.7-1.6-2.1-1.6c-0.7,0-1.2,0.1-1.6,0.4c-0.4,0.3-0.5,0.7-0.5,1.2
						c0,0.8,0.5,1.4,1.4,1.5L343.1,748.3z M342.7,752.8c0.8,0,1.4-0.1,1.8-0.4c0.4-0.3,0.6-0.7,0.6-1.2s-0.1-0.9-0.4-1.1
						c-0.3-0.2-0.7-0.4-1.3-0.5l-1.3-0.3c-0.5,0.1-1,0.3-1.3,0.6s-0.5,0.7-0.5,1.3s0.2,1,0.6,1.3
						C341.3,752.7,341.9,752.8,342.7,752.8z M348.1,750.4V749h6.1v1.4H348.1z M358.5,754.2c-0.3,0-0.7,0-1-0.1
						c-0.4,0-0.7-0.1-1.1-0.2c-0.3-0.1-0.6-0.2-0.8-0.2v-1.5c0.4,0.2,0.9,0.3,1.3,0.4c0.5,0.1,0.9,0.1,1.4,0.1
						c0.8,0,1.4-0.1,1.9-0.4c0.4-0.2,0.6-0.7,0.6-1.3s-0.2-1-0.6-1.2s-0.9-0.4-1.6-0.4H357l0.1-1.3h1.3c1.4,0,2-0.5,2-1.6
						c0-0.5-0.2-0.9-0.5-1.2c-0.4-0.2-0.9-0.4-1.7-0.4c-0.4,0-0.9,0-1.3,0.1s-0.8,0.2-1.2,0.4V744c0.3-0.1,0.7-0.2,1.2-0.3
						s1-0.1,1.5-0.1c1.3,0,2.2,0.3,2.8,0.8c0.6,0.5,0.9,1.2,0.9,2c0,0.5-0.1,1-0.4,1.4c-0.2,0.4-0.6,0.8-1.2,1
						c0.6,0.2,1.1,0.4,1.3,0.9c0.3,0.4,0.4,0.9,0.4,1.5c0,1-0.4,1.8-1.1,2.3C360.7,753.9,359.7,754.2,358.5,754.2z M365.5,754v-8.8
						l-1.7,0.3V744l3.4-0.5V754H365.5z M373,754v-10.3h1.8l3.3,6.7l3.2-6.7h1.8V754h-1.7v-7.5l-2.8,5.7h-1.1l-2.8-5.7v7.5H373z
						 M387.5,754.2c-0.5,0-0.9-0.1-1.3-0.3s-0.7-0.4-1-0.8c-0.2-0.4-0.4-0.8-0.4-1.3c0-0.7,0.2-1.3,0.7-1.7s1.3-0.7,2.3-0.7h2.4
						v-0.3c0-0.4-0.1-0.7-0.2-0.9s-0.3-0.4-0.6-0.5c-0.3-0.1-0.7-0.1-1.3-0.1c-0.9,0-1.7,0.1-2.5,0.4v-1.3c0.3-0.1,0.8-0.3,1.2-0.3
						c0.5-0.1,1-0.1,1.6-0.1c1.1,0,2,0.2,2.5,0.7c0.6,0.4,0.9,1.2,0.9,2.2v4.9h-1.5l-0.1-0.8c-0.3,0.3-0.7,0.5-1.2,0.7
						C388.7,754.1,388.1,754.2,387.5,754.2z M387.9,752.9c0.5,0,1-0.1,1.4-0.3s0.7-0.4,1-0.7v-1.3h-2.4c-0.5,0-0.9,0.1-1.1,0.3
						s-0.3,0.5-0.3,0.9s0.1,0.7,0.4,0.8C387.1,752.8,387.4,752.9,387.9,752.9z M394.8,756.8c-0.6,0-1.1-0.1-1.5-0.2v-1.3
						c0.2,0.1,0.3,0.1,0.5,0.1s0.3,0,0.5,0c0.3,0,0.6-0.1,0.8-0.2c0.2-0.1,0.4-0.3,0.5-0.5c0.2-0.2,0.3-0.5,0.5-0.9l-3.4-7.5h1.8
						l2.4,5.6l2.5-5.6h1.8l-3.1,7.2c-0.3,0.6-0.6,1.2-0.9,1.7s-0.6,0.9-1.1,1.2C395.9,756.7,395.4,756.8,394.8,756.8z M406.1,754
						v-0.9c0.3-0.7,0.7-1.2,1.2-1.8c0.5-0.5,1-1,1.6-1.5c0.4-0.4,0.8-0.7,1.1-0.9c0.3-0.3,0.5-0.5,0.7-0.7s0.3-0.4,0.3-0.7
						c0.1-0.2,0.1-0.5,0.1-0.8c0-0.6-0.2-1-0.5-1.3s-0.9-0.4-1.6-0.4c-0.4,0-0.8,0-1.2,0.1c-0.4,0.1-0.8,0.2-1.2,0.4V744
						c0.4-0.1,0.8-0.2,1.3-0.3s1-0.1,1.5-0.1c1.2,0,2,0.3,2.6,0.8c0.6,0.6,0.9,1.3,0.9,2.3c0,0.5-0.1,0.9-0.3,1.3
						c-0.2,0.4-0.4,0.7-0.7,1.1c-0.3,0.3-0.6,0.7-1,1c-0.5,0.4-1,0.8-1.4,1.2s-0.8,0.8-1,1.3h4.5v1.3h-6.9V754z M418.7,754.3
						c-1.1,0-2-0.2-2.6-0.6c-0.7-0.4-1.1-1-1.5-1.8c-0.3-0.8-0.4-1.8-0.4-2.9c0-1.2,0.1-2.1,0.4-2.9c0.3-0.8,0.8-1.4,1.4-1.9
						c0.7-0.4,1.5-0.6,2.7-0.6c1.1,0,2,0.2,2.6,0.6c0.7,0.4,1.1,1,1.4,1.9c0.3,0.8,0.4,1.8,0.4,2.9c0,1.1-0.1,2.1-0.4,2.9
						c-0.3,0.8-0.8,1.4-1.4,1.8S419.8,754.3,418.7,754.3z M418.7,752.8c1,0,1.7-0.3,2.1-1s0.6-1.6,0.6-2.8c0-1.3-0.2-2.2-0.6-2.9
						s-1.1-1-2.2-1c-1,0-1.8,0.3-2.2,1c-0.4,0.7-0.6,1.7-0.6,2.9s0.2,2.1,0.6,2.8C417,752.5,417.7,752.8,418.7,752.8z M424.6,754
						v-0.9c0.3-0.7,0.7-1.2,1.2-1.8c0.5-0.5,1-1,1.6-1.5c0.4-0.4,0.8-0.7,1.1-0.9c0.3-0.3,0.5-0.5,0.7-0.7s0.3-0.4,0.3-0.7
						c0.1-0.2,0.1-0.5,0.1-0.8c0-0.6-0.2-1-0.5-1.3s-0.9-0.4-1.6-0.4c-0.4,0-0.8,0-1.2,0.1c-0.4,0.1-0.8,0.2-1.2,0.4V744
						c0.4-0.1,0.8-0.2,1.3-0.3s1-0.1,1.5-0.1c1.2,0,2,0.3,2.6,0.8c0.6,0.6,0.9,1.3,0.9,2.3c0,0.5-0.1,0.9-0.3,1.3
						c-0.2,0.4-0.4,0.7-0.7,1.1c-0.3,0.3-0.6,0.7-1,1c-0.5,0.4-1,0.8-1.4,1.2s-0.8,0.8-1,1.3h4.5v1.3h-6.9V754z M434.4,754v-8.8
						l-1.7,0.3V744l3.4-0.5V754H434.4z"/>
					
						<linearGradient id="SVGID_4_" gradientUnits="userSpaceOnUse" x1="750.9791" y1="185.6739" x2="679.1851" y2="132.3619" gradientTransform="matrix(1 0 0 1 0 568)">
						<stop  offset="0" style="stop-color:#564CD8"/>
						<stop  offset="0.1338" style="stop-color:#5256D9"/>
						<stop  offset="0.3597" style="stop-color:#4970DA"/>
						<stop  offset="0.6501" style="stop-color:#399BDD"/>
						<stop  offset="0.9908" style="stop-color:#24D6E0"/>
						<stop  offset="0.9946" style="stop-color:#24D7E0"/>
					</linearGradient>
					<path class="st7" d="M686.9,790.8l89.5-1.9l-1.3-24.5l-2.3-43.9l-0.2-4.5l-0.7-1.5l-4.1-9.5l-6-28l-17-3.8h-0.1l-5.6,21.3
						l-3.2,12.1l-24,18.9L686.9,790.8z"/>
					<path class="st8" d="M736,706.5l6.3,8.7L748,746l-13-26.3l-22.9,5.7L736,706.5z"/>
					
						<linearGradient id="SVGID_5_" gradientUnits="userSpaceOnUse" x1="709.672" y1="198.1" x2="680.879" y2="198.1" gradientTransform="matrix(1 0 0 1 0 568)">
						<stop  offset="0" style="stop-color:#8A96FF"/>
						<stop  offset="0.4811" style="stop-color:#8A96FF"/>
					</linearGradient>
					<path class="st9" d="M680.9,764.4l17.4,4.8l6.1,1.7l5.4-8.3l-20-1.3L680.9,764.4z"/>
					<path class="st10" d="M680.9,764.4l0.8,18.6l18.5,0.6l4.1-12.7L680.9,764.4z"/>
					<path class="st11" d="M704.3,770.9l-10.3-2.8l0.8,10.7l6.4,0.8L704.3,770.9z"/>
					<path class="st8" d="M744.9,673.2l9.1,7.5l7.3,92.8l13.9-9.1l3.8-2.5l-6.1-41.4l-0.9-6.1l-4.1-9.5l-6-28L744.9,673.2z"/>
					<path class="st12" d="M698.1,790.6l2.3-3.5l0.3-0.5l0.1-0.1l0.7-1.1l0.6-0.9l4.5-6.9l20.7-32l1-0.3l16.8-5.1l1.8-0.5l3.1-0.9
						l0.2-0.4l7.4-12.7l6.3-10.8l2.2-8.5l0.4-1.6l0.8-3.1l7-27l1.6-6.4l12.8-8.5l4.2-2.8l10.1-33.3l13.2,4.4l2.7,22.8l0.4,3.7
						l12.6,15.7l4.4,27.7l7.2,6.2v96l-28.4-1.7h-0.7l-20.2-1.2l-17.5-1l-79.2-4.6L698.1,790.6z"/>
					
						<linearGradient id="SVGID_6_" gradientUnits="userSpaceOnUse" x1="799.6352" y1="198.8234" x2="718.261" y2="89.7164" gradientTransform="matrix(1 0 0 1 0 568)">
						<stop  offset="1.080000e-02" style="stop-color:#2E2EA8"/>
						<stop  offset="0.2406" style="stop-color:#3060BF"/>
						<stop  offset="0.6067" style="stop-color:#33AAE1"/>
						<stop  offset="0.8691" style="stop-color:#35D9F7"/>
						<stop  offset="1" style="stop-color:#36EBFF"/>
					</linearGradient>
					<path class="st13" d="M700.8,786.5l135.1,6.2l1.3-8.8l-7.6-38.6l-9.7-32.7l-0.4-44.5l-7.6-9.6l-0.8-28.5l-8.2-6.5l-10.1,33.3
						l-17,11.3l-12,46.6l-13.9,23.9l-22.7,6.9L700.8,786.5z"/>
					<path class="st14" d="M843.5,704v45.6l-5.1-36.2l-1.2-8.4l-1-7.1L843.5,704z"/>
					<path class="st12" d="M695.7,784.5l5.1-0.1l71.1-0.8l39.1-0.4l18.9-1.6c0,0-11-52.5-17-58.2c-5.1-4.8-46.6-18.9-46.6-18.9
						l-0.8,1.3L746.1,736l-24.6,8.2L698,781L695.7,784.5z"/>
					
						<linearGradient id="SVGID_7_" gradientUnits="userSpaceOnUse" x1="765.1536" y1="217.353" x2="705.9306" y2="121.9301" gradientTransform="matrix(1 0 0 1 0 568)">
						<stop  offset="1.080000e-02" style="stop-color:#2B2BA1"/>
						<stop  offset="0.9946" style="stop-color:#32DBED"/>
					</linearGradient>
					<path class="st15" d="M697.9,781l2.8,3.5l1.8,2.3l69.3-3l38.5-1.7l-5.4-33.3l-10.1-7.2l-2.8-17l-26.7-18.5L746,736.3l-24.6,8.2
						L697.9,781z"/>
					<path class="st14" d="M721.5,744.3l29,4.1l11.7,32.4l22.4-1.6l-23.3-35.1l-15.1-8L721.5,744.3z"/>
					<path class="st14" d="M805.1,748.7l6,34.6l23.2-3.5l-11.8-30L805.1,748.7z"/>
					
						<linearGradient id="SVGID_8_" gradientUnits="userSpaceOnUse" x1="831.6495" y1="262.5667" x2="292.2521" y2="208.0999" gradientTransform="matrix(1 0 0 1 0 568)">
						<stop  offset="0" style="stop-color:#4B3DA2"/>
						<stop  offset="0.1858" style="stop-color:#4571BE"/>
						<stop  offset="0.3715" style="stop-color:#3F9DD5"/>
						<stop  offset="0.5495" style="stop-color:#3BBFE7"/>
						<stop  offset="0.7177" style="stop-color:#38D7F4"/>
						<stop  offset="0.8722" style="stop-color:#37E6FC"/>
						<stop  offset="1" style="stop-color:#36EBFF"/>
					</linearGradient>
					<path class="st16" d="M304.5,815.5l42.2-1l0,0l11.3,4.7h-0.4l-0.3,3.5h0.1l4.2,1.3l-0.6-3.6l1.6-0.2l-0.9-6.1l6.9-7.5l13.9,1.3
						l-0.7-3.6l-2-9.8l-1.1-5.5l18.9-6.3l86.9,6.1l72.6,5.1h0.6c0.8,0.1,1.2,0.1,1.2,0.1l15.1-10.1l26.5,1.8l47.9,3.2l0,0l-1-7.2
						l-0.3-2.2l23.2-3.3l20.9-3l14.5,4.4l20.2-1.9l32.2,5l85.4-5.6V834h-539L304.5,815.5L304.5,815.5z"/>
					<path class="st10" d="M575.2,810l31.8,7.7l1,0.2l27.3,8l0.5,0.6l6.9,7.4h57.8l2.5-0.5l-32.4-3.8l-0.8-0.2l-22.8-7.3h-0.2
						l-11.2-0.8l-26.5-7.1L607,814L575.2,810z"/>
					<path class="st11" d="M635.7,821.4v1.2l0.1,3.9l6.9,7.4h2.7l1.4-11.8L635.7,821.4z"/>
					
						<linearGradient id="SVGID_9_" gradientUnits="userSpaceOnUse" x1="681.8317" y1="218.8732" x2="634.3936" y2="205.9621" gradientTransform="matrix(1 0 0 1 0 568)">
						<stop  offset="0" style="stop-color:#000000"/>
						<stop  offset="3.790000e-02" style="stop-color:#101010"/>
						<stop  offset="0.1936" style="stop-color:#4F4F4F"/>
						<stop  offset="0.3477" style="stop-color:#848484"/>
						<stop  offset="0.4966" style="stop-color:#B0B0B0"/>
						<stop  offset="0.6393" style="stop-color:#D3D3D3"/>
						<stop  offset="0.774" style="stop-color:#EBEBEB"/>
						<stop  offset="0.8977" style="stop-color:#FAFAFA"/>
						<stop  offset="1" style="stop-color:#FFFFFF"/>
					</linearGradient>
					<path class="st17" d="M647.2,779.5l0.3,2.2l48.9,16.7c-21.6-12.1-25.8-18.9-26-22.2L647.2,779.5z"/>
					<path class="st11" d="M669.8,829.5l0.3,4.5h30.4l2.5-0.5l-32.4-3.8L669.8,829.5z"/>
					<path class="st11" d="M575.2,810l31.8,7.7l0.1-3.8L575.2,810z"/>
					<path class="st18" d="M304.5,815.5l42.2-1l0,0l11.3,4.7h-0.4l-0.3,3.5h0.1l4.2,1.3l-0.6-3.6l1.6-0.2l-0.9-6.1l6.9-7.5l13.9,1.3
						l-0.7-3.6c1.7,0.7,3.4,1.6,4.2,3.2c2.3,4.6-4.1,9.7-3.1,14.8c3.1,2.5,7.1,3.4,10.7,5.1c2.9,1.4,5.6,3.8,6.4,6.7h-67.7
						c-4.7-3-9.2-6.2-14-8.9c-4.4-2.4-8.8-4-13.6-5.1L304.5,815.5z"/>
					<path class="st10" d="M669.2,788l4.1,1.6l23,8.8l57.1,0.6h0.9l18.6,5.4l7.4,2.2l29.6,8.7l2.5,0.7l31.2,2.9V834h-61.1l-3.7-1.2
						l-2.2-0.7l-23-7.3l-23-7.3l-2.9-0.9l-13.5-4.3l-15.9-2.6l-27.6-4.5l-0.7-0.1l-9.3-1.5l-3.8-9.4l-8.2-5.1l-0.6-0.4l-0.6-9
						L669.2,788z"/>
					<path class="st12" d="M809.9,815.3l2.5,0.7l31.2,2.9V834H814L809.9,815.3L809.9,815.3z"/>
					<path class="st12" d="M696.3,798.4l1.7,11.2l15.9,2.6l13.5,4.3l-1.8-7.7l4.7,8.7l23,7.3V799L696.3,798.4z"/>
					<path class="st12" d="M753.4,799l26.2,0.6l56.4-9.7l-51.1,5.7l-50.9,3.3L753.4,799z"/>
					<path class="st11" d="M656.6,794l-11.6,6.7l-44.5,1.9h47.9l12,0.8L656.6,794z"/>
					<path class="st12" d="M772.9,804.5l3.5,27.6l2.2,0.7l1.6-26.2L772.9,804.5z"/>
					<path class="st11" d="M772.9,804.5l15.3-0.3l33.4-7.5l-32,8.2l-9.3,1.8L772.9,804.5z"/>
					<path class="st11" d="M669.2,787.9L669.2,787.9l0.5,17.1l0.7,0.1l2.7-15.5h0.2l36.4-3.3L669.2,787.9z"/>
					<path class="st10" d="M360.9,820.4l0.6,3.6l26,8.1l6.2,1.9h18.7l-26.1-6.9L360.9,820.4z"/>
					<path class="st11" d="M361.6,814.1l0.9,6.1l13.4-0.8L361.6,814.1z"/>
					<path class="st10" d="M347.7,819.7l9.6,3l0.3-3.5L347.7,819.7z"/>
					<path class="st11" d="M347.7,819.7l9.7,3l0.6-3.6L347.7,819.7z"/>
					<path class="st11" d="M386.5,827.1l1.1,4.9l6.2,1.9h18.7L386.5,827.1z"/>
					<path class="st18" d="M557.7,793.9h-0.6C557.3,793.9,557.5,793.9,557.7,793.9z"/>
					<path class="st18" d="M378.6,789l1.1,5.5c16.2,3.3,38.6,7.8,36.9,6.7c-2.5-1.7-5-8.2-9.9-13c-4.5-4.5,132.8,4.6,150.3,5.7
						l-159.6-11.2L378.6,789z"/>
					<path class="st11" d="M378.6,789l35.3,10.8l37,2.9l58,14.7H532l36.6,9.6l-37.4-7.5l-24,1.3l-58-15.1l-36.9-2.1l-30.1,4.4
						L378.6,789z"/>
					
						<linearGradient id="SVGID_10_" gradientUnits="userSpaceOnUse" x1="600.5" y1="222.7163" x2="484.5" y2="222.7163" gradientTransform="matrix(1 0 0 1 0 568)">
						<stop  offset="0" style="stop-color:#000000"/>
						<stop  offset="3.790000e-02" style="stop-color:#101010"/>
						<stop  offset="0.1936" style="stop-color:#4F4F4F"/>
						<stop  offset="0.3477" style="stop-color:#848484"/>
						<stop  offset="0.4966" style="stop-color:#B0B0B0"/>
						<stop  offset="0.6393" style="stop-color:#D3D3D3"/>
						<stop  offset="0.774" style="stop-color:#EBEBEB"/>
						<stop  offset="0.8977" style="stop-color:#FAFAFA"/>
						<stop  offset="1" style="stop-color:#FFFFFF"/>
					</linearGradient>
					<path class="st19" d="M484.5,788.8c27.7,3,72.9,8,76.1,8.6c3.3,0.6,26.8-7.2,39.9-11.6L574,784l-15.1,10c0,0-0.4,0-1.2-0.1
						h-0.6L484.5,788.8z"/>
					<path class="st20" d="M802.9,623.5l8.2,6.5l5-2.1L802.9,623.5z"/>
					<path class="st8" d="M811.9,658.5l7.6,9.6l12.4,1.9l-12.6-15.7L811.9,658.5z"/>
					<path class="st14" d="M792.1,724.5l2.8,17l26,3.9l-3.4-10.5L792.1,724.5z"/>
					<path class="st14" d="M819.9,712.6l18.8,0.7l-1.3-8.5L819.9,712.6z"/>
					<path class="st12" d="M792.8,656.8l-11.3,44.7l7.1-41.9L792.8,656.8z"/>
					<path class="st8" d="M811.9,658.5l-3,24.4l5.2-21.7L811.9,658.5z"/>
					<path class="st14" d="M829.1,743.8l14.4,10.8v20.5l-8.1,0.1h-0.2l-6.3-31.5L829.1,743.8z"/>
					<path class="st14" d="M824.4,727.5l12.3,9l-11.1-4.6l-4.2,3.8L824.4,727.5z"/>
					<path class="st14" d="M816.1,627.9l-5,2.1l0.8,28.5l-0.1-27.9L816.1,627.9z"/>
					<path class="st14" d="M827,691l-7.4-5.7l-4.4,3.5l4.4-6.9L827,691z"/>
					<path class="st8" d="M746.1,736.1l15.1,8l-10.7,4.2l-29-4.1L746.1,736.1z"/>
					<path class="st14" d="M792.1,724.5l-10.7,18.4l2.5,29.6l-0.2-29.1l9.7-11.3L792.1,724.5z"/>
					<path class="st12" d="M795,741.5l-0.5,21.5l3.2-19.7L795,741.5z"/>
					<path class="st18" d="M793.4,731.9l-9.7,11.3l0.2,29.1l1.3-28.7L793.4,731.9z"/>
					<path class="st18" d="M819.9,712.6l-0.3-27.3l-4.4,3.5l3.7-2.4L819.9,712.6z"/>
					<path class="st18" d="M819.5,668.2l-5.4-6.9l-5.2,21.7l5.3-19L819.5,668.2z"/>
					<path class="st12" d="M775.1,712.6l-1.1,29.6l-2.6-33.2L775.1,712.6z"/>
					<path class="st18" d="M792.1,724.5l-17-11.8l-1.1,29.6l1.7-28.2L792.1,724.5z"/>
					<path class="st12" d="M739.8,746.9l10-3.2l-16.5,2.3l1.7,26.6L739.8,746.9z"/>
					<path class="st18" d="M750.5,748.4l-10.8-1.5l-4.8,25.7l5.7-24.8L750.5,748.4z"/>
					
						<linearGradient id="SVGID_11_" gradientUnits="userSpaceOnUse" x1="736.04" y1="147.95" x2="712.086" y2="147.95" gradientTransform="matrix(1 0 0 1 0 568)">
						<stop  offset="0" style="stop-color:#8A96FF"/>
						<stop  offset="0.4811" style="stop-color:#8A96FF"/>
					</linearGradient>
					<path class="st21" d="M736,706.5l-1,13.2l-22.9,5.7L736,706.5z"/>
					<path class="st22" d="M751.4,677.9l-2.6,36.3l-0.1-38.7L751.4,677.9z"/>
					<path class="st22" d="M726.7,722.2l3.8-9l-7.1,9.8l0.3,17.9L726.7,722.2z"/>
					
						<linearGradient id="SVGID_12_" gradientUnits="userSpaceOnUse" x1="698.252" y1="197.25" x2="680.879" y2="197.25" gradientTransform="matrix(1 0 0 1 0 568)">
						<stop  offset="0" style="stop-color:#000000"/>
						<stop  offset="3.790000e-02" style="stop-color:#101010"/>
						<stop  offset="0.1936" style="stop-color:#4F4F4F"/>
						<stop  offset="0.3477" style="stop-color:#848484"/>
						<stop  offset="0.4966" style="stop-color:#B0B0B0"/>
						<stop  offset="0.6393" style="stop-color:#D3D3D3"/>
						<stop  offset="0.774" style="stop-color:#EBEBEB"/>
						<stop  offset="0.8977" style="stop-color:#FAFAFA"/>
						<stop  offset="1" style="stop-color:#FFFFFF"/>
					</linearGradient>
					<path class="st23" d="M680.9,764.4l17.4,4.8c-6.1-3.2-8.5-7.9-8.5-7.9L680.9,764.4z"/>
					
						<linearGradient id="SVGID_13_" gradientUnits="userSpaceOnUse" x1="750.7513" y1="121.2039" x2="738.1364" y2="113.4419" gradientTransform="matrix(1 0 0 1 0 568)">
						<stop  offset="0" style="stop-color:#000000"/>
						<stop  offset="3.790000e-02" style="stop-color:#101010"/>
						<stop  offset="0.1936" style="stop-color:#4F4F4F"/>
						<stop  offset="0.3477" style="stop-color:#848484"/>
						<stop  offset="0.4966" style="stop-color:#B0B0B0"/>
						<stop  offset="0.6393" style="stop-color:#D3D3D3"/>
						<stop  offset="0.774" style="stop-color:#EBEBEB"/>
						<stop  offset="0.8977" style="stop-color:#FAFAFA"/>
						<stop  offset="1" style="stop-color:#FFFFFF"/>
					</linearGradient>
					<path class="st24" d="M739.2,694.5c2.4-1.3,5-3.2,6.6-6c3.9-6.4,8.2-7.7,8.2-7.7l-9.1-7.6h-0.1L739.2,694.5z"/>
					<path class="st22" d="M744.9,673.2l9.1,7.5l7.9-3.8L744.9,673.2z"/>
					<path class="st25" d="M700.3,716.6c0,0.6,0.5,1.1,1.1,1.1s1.1-0.5,1.1-1.1s-0.5-1.1-1.1-1.1C700.8,715.6,700.3,716,700.3,716.6
						z"/>
					<path class="st25" d="M523,732.3c0,0.6,0.5,1.1,1.1,1.1s1.1-0.5,1.1-1.1s-0.5-1.1-1.1-1.1S523,731.8,523,732.3z"/>
					<path class="st25" d="M533.7,747.4c0,0.6,0.5,1,1.1,1s1.1-0.5,1.1-1c0-0.6-0.5-1.1-1.1-1.1
						C534.2,746.4,533.7,746.9,533.7,747.4z"/>
					<path class="st25" d="M567.1,719.3c0,0.6,0.5,1.1,1.1,1.1s1.1-0.5,1.1-1.1s-0.5-1.1-1.1-1.1
						C567.6,718.3,567.1,718.8,567.1,719.3z"/>
					<path class="st25" d="M678.9,742c0,0.6,0.5,1.1,1.1,1.1s1.1-0.5,1.1-1.1s-0.5-1-1.1-1C679.4,740.9,678.9,741.4,678.9,742z"/>
					<path class="st26" d="M726,699.5c0,0.4,0.4,0.8,0.8,0.8c0.4,0,0.8-0.4,0.8-0.8c0-0.4-0.3-0.8-0.8-0.8S726,699,726,699.5z"/>
					<path class="st26" d="M677.1,738.8c0.4,0,0.8-0.4,0.8-0.8c0-0.4-0.4-0.8-0.8-0.8c-0.4,0-0.8,0.4-0.8,0.8
						C676.4,738.4,676.7,738.8,677.1,738.8z"/>
					<path class="st26" d="M702.2,720.4c0.4,0,0.8-0.4,0.8-0.8c0-0.4-0.4-0.8-0.8-0.8c-0.4,0-0.8,0.4-0.8,0.8
						S701.8,720.4,702.2,720.4z"/>
					<path class="st26" d="M704.4,717.2c0,0.4,0.4,0.8,0.8,0.8c0.4,0,0.8-0.3,0.8-0.8c0-0.4-0.4-0.8-0.8-0.8
						C704.8,716.5,704.4,716.8,704.4,717.2z"/>
					<path class="st27" d="M718.2,666.1c0,0.6,0.5,1.1,1.1,1.1s1.1-0.5,1.1-1.1s-0.5-1-1.1-1S718.2,665.5,718.2,666.1z"/>
					<path class="st25" d="M709.4,667.1c0,0.6,0.5,1,1.1,1s1.1-0.5,1.1-1c0-0.6-0.5-1.1-1.1-1.1S709.4,666.5,709.4,667.1z"/>
					<path class="st27" d="M726.8,675.9c0,0.6,0.5,1.1,1.1,1.1s1.1-0.5,1.1-1.1s-0.5-1.1-1.1-1.1S726.8,675.3,726.8,675.9z"/>
					<path class="st25" d="M702.6,687.5c0,0.6,0.5,1.1,1.1,1.1s1.1-0.5,1.1-1.1s-0.5-1.1-1.1-1.1S702.6,686.9,702.6,687.5z"/>
					<path class="st26" d="M720.1,676.9c0,0.4,0.4,0.8,0.8,0.8c0.4,0,0.8-0.4,0.8-0.8c0-0.4-0.4-0.8-0.8-0.8
						C720.5,676.1,720.1,676.4,720.1,676.9z"/>
					<path class="st26" d="M711.3,685.8c0.4,0,0.8-0.4,0.8-0.8c0-0.4-0.4-0.8-0.8-0.8c-0.4,0-0.8,0.4-0.8,0.8
						C710.5,685.4,710.9,685.8,711.3,685.8z"/>
					<path class="st26" d="M708.7,674c0,0.4,0.3,0.8,0.8,0.8c0.4,0,0.8-0.4,0.8-0.8c0-0.4-0.4-0.8-0.8-0.8
						C709.1,673.2,708.7,673.6,708.7,674z"/>
					<path class="st27" d="M449.9,767.2c0-0.6-0.5-1-1.1-1s-1,0.5-1,1.1s0.5,1,1.1,1C449.5,768.2,449.9,767.7,449.9,767.2z"/>
					<path class="st25" d="M458.6,765.5c0-0.6-0.5-1-1.1-1s-1,0.5-1,1.1s0.5,1,1.1,1C458.2,766.5,458.7,766,458.6,765.5z"/>
					<path class="st27" d="M440.6,758c0-0.6-0.5-1-1.1-1s-1,0.5-1,1.1s0.5,1,1.1,1S440.6,758.6,440.6,758z"/>
					<path class="st25" d="M463.8,744.7c0-0.6-0.5-1-1.1-1s-1,0.5-1,1.1s0.5,1,1.1,1S463.9,745.3,463.8,744.7z"/>
					<path class="st26" d="M447.2,756.5c0-0.4-0.4-0.8-0.8-0.7c-0.4,0-0.8,0.4-0.7,0.8c0,0.4,0.4,0.8,0.8,0.7
						C446.9,757.4,447.2,757,447.2,756.5z"/>
					<path class="st26" d="M456.1,747.7c0-0.4-0.4-0.8-0.8-0.7c-0.4,0-0.8,0.4-0.7,0.8c0,0.4,0.4,0.8,0.8,0.7
						C455.9,748.5,456.2,748.2,456.1,747.7z"/>
					<path class="st26" d="M458.7,758.5c0-0.4-0.4-0.8-0.8-0.7c-0.4,0-0.8,0.4-0.7,0.8c0,0.4,0.4,0.8,0.8,0.7
						C458.5,759.3,458.8,759,458.7,758.5z"/>
					<path class="st27" d="M400.5,750.6c0,0.6,0.5,1,1.1,1s1.1-0.5,1.1-1c0-0.6-0.5-1.1-1.1-1.1C400.9,749.5,400.5,750,400.5,750.6z
						"/>
					<path class="st25" d="M391.6,751.6c0,0.6,0.5,1.1,1.1,1.1s1.1-0.5,1.1-1.1s-0.5-1-1.1-1S391.6,751,391.6,751.6z"/>
					<path class="st27" d="M409.1,760.4c0,0.6,0.5,1,1.1,1s1.1-0.5,1.1-1c0-0.6-0.5-1.1-1.1-1.1
						C409.5,759.4,409.1,759.9,409.1,760.4z"/>
					<path class="st25" d="M384.9,772c0,0.6,0.5,1.1,1.1,1.1s1.1-0.5,1.1-1.1s-0.5-1.1-1.1-1.1S384.9,771.4,384.9,772z"/>
					<path class="st26" d="M403.2,762.2c0.4,0,0.8-0.4,0.8-0.8c0-0.4-0.4-0.8-0.8-0.8s-0.8,0.4-0.8,0.8
						C402.4,761.8,402.7,762.2,403.2,762.2z"/>
					<path class="st26" d="M393.6,770.3c0.4,0,0.8-0.4,0.8-0.8c0-0.4-0.4-0.8-0.8-0.8s-0.8,0.4-0.8,0.8
						C392.8,769.9,393.1,770.3,393.6,770.3z"/>
					<path class="st26" d="M391,758.5c0,0.4,0.4,0.8,0.8,0.8s0.8-0.4,0.8-0.8c0-0.4-0.4-0.8-0.8-0.8
						C391.3,757.8,391,758.1,391,758.5z"/>
					<path class="st27" d="M789.6,634.2c0,0.5,0.4,0.8,0.8,0.8s0.8-0.4,0.8-0.8s-0.4-0.8-0.8-0.8S789.6,633.7,789.6,634.2z"/>
					<path class="st27" d="M834.4,634.8c0,0.6,0.5,1.1,1.1,1.1s1.1-0.5,1.1-1.1s-0.5-1.1-1.1-1.1S834.4,634.2,834.4,634.8z"/>
					<path class="st28" d="M833.6,621.3c0,0.3,0.3,0.6,0.6,0.6c0.4,0,0.6-0.3,0.6-0.6c0-0.4-0.3-0.6-0.6-0.6
						C833.9,620.7,833.6,621,833.6,621.3z"/>
					<path class="st28" d="M829.7,618.2c0,0.4,0.3,0.6,0.6,0.6s0.6-0.3,0.6-0.6c0-0.4-0.3-0.6-0.6-0.6S829.7,617.8,829.7,618.2z"/>
					
						<linearGradient id="SVGID_14_" gradientUnits="userSpaceOnUse" x1="304.5" y1="278.35" x2="350" y2="278.35" gradientTransform="matrix(1 0 0 1 0 568)">
						<stop  offset="0" style="stop-color:#4B3DA2"/>
						<stop  offset="0.1858" style="stop-color:#4571BE"/>
						<stop  offset="0.3715" style="stop-color:#3F9DD5"/>
						<stop  offset="0.5495" style="stop-color:#3BBFE7"/>
						<stop  offset="0.7177" style="stop-color:#38D7F4"/>
						<stop  offset="0.8722" style="stop-color:#37E6FC"/>
						<stop  offset="1" style="stop-color:#36EBFF"/>
					</linearGradient>
					<path class="st29" d="M304.5,834l45.5,24.7L332.2,834H304.5z"/>
					
						<linearGradient id="SVGID_15_" gradientUnits="userSpaceOnUse" x1="363.3772" y1="290.4664" x2="362.9406" y2="265.4615" gradientTransform="matrix(1 0 0 1 0 568)">
						<stop  offset="0" style="stop-color:#4B3DA2"/>
						<stop  offset="0.1858" style="stop-color:#4571BE"/>
						<stop  offset="0.3715" style="stop-color:#3F9DD5"/>
						<stop  offset="0.5495" style="stop-color:#3BBFE7"/>
						<stop  offset="0.7177" style="stop-color:#38D7F4"/>
						<stop  offset="0.8722" style="stop-color:#37E6FC"/>
						<stop  offset="1" style="stop-color:#36EBFF"/>
					</linearGradient>
					<path class="st30" d="M350,858.7l43.8-24.7h-61.7L350,858.7z"/>
					<path class="st18" d="M332.2,834l10.1,14l11-7.6l20.3-0.3l20.2-6.2L332.2,834L332.2,834z"/>
					
						<linearGradient id="SVGID_16_" gradientUnits="userSpaceOnUse" x1="583.2321" y1="325.6309" x2="474.1397" y2="208.4936" gradientTransform="matrix(1 0 0 1 0 568)">
						<stop  offset="0" style="stop-color:#4B3DA2"/>
						<stop  offset="0.1858" style="stop-color:#4571BE"/>
						<stop  offset="0.3715" style="stop-color:#3F9DD5"/>
						<stop  offset="0.5495" style="stop-color:#3BBFE7"/>
						<stop  offset="0.7177" style="stop-color:#38D7F4"/>
						<stop  offset="0.8722" style="stop-color:#37E6FC"/>
						<stop  offset="1" style="stop-color:#36EBFF"/>
					</linearGradient>
					<path class="st31" d="M412.5,834l27,10.4h38L499,841l140.1,0.6l3.7-7.7H412.5V834z"/>
					<path class="st11" d="M350,858.7l2.2,6.3l42.2-24h18.2l24.3,13.8l40.4,0.8L501,848h136.8l1.4-6.4L499,841l-21.5,3.4h-38
						l-27-10.4h-18.7L350,858.7z"/>
					<path class="st11" d="M642.7,834l-3.7,7.7l-1.4,6.4l65.2-14.5L642.7,834z"/>
					<path class="st12" d="M637.7,848l146.9-3.7l35.1,7.2l7,20.4l16.9-38L703,833.4L637.7,848z"/>
				</g>
				<g class="st2">
					<g class="st32">
						<defs>
							
								<rect id="SVGID_17_" x="603.3" y="647.6" transform="matrix(0.9868 -0.1618 0.1618 0.9868 -109.6331 118.9952)" width="145" height="170"/>
						</defs>
						<clipPath id="SVGID_18_">
							<use xlink:href="#SVGID_17_"  style="overflow:visible;"/>
						</clipPath>
						<g class="st33">
							<path class="st34" d="M690.6,812.7c15.2-2.5,27.1-7.5,26.5-11.1s-13.4-4.5-28.7-2c-15.2,2.5-27.1,7.5-26.5,11.1
								C662.5,814.3,675.4,815.2,690.6,812.7z"/>
							
								<linearGradient id="SVGID_19_" gradientUnits="userSpaceOnUse" x1="633.2395" y1="217.973" x2="716.5416" y2="103.101" gradientTransform="matrix(1 0 0 1 0 568)">
								<stop  offset="0" style="stop-color:#BBBDBF"/>
								<stop  offset="0.5832" style="stop-color:#DDDEDF"/>
								<stop  offset="1" style="stop-color:#F1F1F2"/>
							</linearGradient>
							<path class="st35" d="M687.9,805.4c0,0,48.5-4.4,48.1-69.3c0-1.7-0.1-3.4-0.4-5.1c-2.1-14.7-15.8-86.9-73.6-82.2h-0.1
								c-57.9,13.7-46.2,86.8-43.5,101.4c0.3,1.7,0.8,3.3,1.3,5c20.4,61.7,67.8,50.3,67.8,50.3L687.9,805.4z"/>
							<path class="st36" d="M758.3,805.2l-10.1,1.7c0,0-27.1-39.9-65.5-32.1c-38.9,4.9-51.8,51.4-51.8,51.4l-10.1,1.7
								c-14.8-30.1-2.7-67.8-1-72.7c1,2.8-0.1,13.7,60.3,3.8c60.4-9.9,55.8-19.7,56-22.5C739.2,740.5,762.7,771.9,758.3,805.2z"/>
							<path class="st37" d="M678.1,745.6c0,0.1-0.1,0.2-0.2,0.5C677.9,745.8,678,745.6,678.1,745.6z"/>
							<path class="st37" d="M678.1,746c-0.2-0.2-0.3-0.4-0.3-0.4C677.9,745.7,678,745.8,678.1,746z"/>
							<path class="st38" d="M706.1,713.6c2.7,16.3-7,31.4-27.7,34.8c-20.7,3.4-34.7-7.8-37.4-24.1s7-31.4,27.7-34.8
								C689.4,686.1,703.4,697.4,706.1,713.6z"/>
							<path class="st39" d="M672.7,716.2c-13.3,2.2-23.5,10.5-26.6,20.4c6,8.4,19.3,14.2,32.6,12s23.7-12,26.7-21.9
								C699.4,718.4,685.9,714.1,672.7,716.2z"/>
							<path class="st40" d="M664.4,722.5c2.2-0.4,3.3-4.2,2.6-8.6c-0.7-4.4-3.1-7.7-5.2-7.3c-2.2,0.4-3.3,4.2-2.6,8.6
								S662.2,722.9,664.4,722.5z"/>
							<path class="st40" d="M686,719c2.2-0.4,3.3-4.2,2.6-8.6c-0.7-4.4-3.1-7.7-5.2-7.3c-2.2,0.4-3.3,4.2-2.6,8.6
								S683.8,719.4,686,719z"/>
							<path class="st41" d="M688,695.7c0.9-0.2,1.5-1,1.4-2c-0.2-0.9-1-1.6-1.9-1.4c-0.9,0.2-1.5,1-1.4,2
								C686.2,695.2,687.1,695.8,688,695.7z"/>
							<path class="st42" d="M696.4,702.6c-0.5,0-1-0.2-1.3-0.7c-1.3-2.3-4.5-4-4.6-4c-0.7-0.4-1-1.2-0.6-1.9c0.3-0.7,1.2-1,1.9-0.6
								c0.2,0.1,4,2.1,5.8,5.2c0.4,0.7,0.1,1.5-0.5,1.9C696.9,702.5,696.6,702.6,696.4,702.6z"/>
							<path class="st43" d="M630.9,826.1l3.8-2.1c0,0,12.4-39.9,48-49.3C682.7,774.7,646.6,776.3,630.9,826.1z"/>
							<path class="st43" d="M748.3,806.9l-4.3-0.7c0,0-24.5-33.9-61.2-31.4C682.8,774.7,717.6,764.6,748.3,806.9z"/>
							<path class="st44" d="M658,797.9l13.2-2.6c0,0,14.4,6.8,42.5-4.7C713.6,790.7,687.1,811.7,658,797.9z"/>
							
								<linearGradient id="SVGID_20_" gradientUnits="userSpaceOnUse" x1="620.0911" y1="218.5674" x2="609.0797" y2="213.3282" gradientTransform="matrix(1 0 0 1 0 568)">
								<stop  offset="0" style="stop-color:#BBBDBF"/>
								<stop  offset="0.5832" style="stop-color:#DDDEDF"/>
								<stop  offset="1" style="stop-color:#F1F1F2"/>
							</linearGradient>
							<path class="st45" d="M612,775.1l3.9-7l4.7,7.8l-6.9,24.1L612,775.1z"/>
							<path class="st46" d="M615.9,768.1l2.5,7.7l-4.7,24.2l6.9-24.1L615.9,768.1z"/>
							
								<linearGradient id="SVGID_21_" gradientUnits="userSpaceOnUse" x1="745.7078" y1="197.862" x2="754.4683" y2="189.3836" gradientTransform="matrix(1 0 0 1 0 568)">
								<stop  offset="0" style="stop-color:#BBBDBF"/>
								<stop  offset="0.5832" style="stop-color:#DDDEDF"/>
								<stop  offset="1" style="stop-color:#F1F1F2"/>
							</linearGradient>
							<path class="st47" d="M749.8,752.5l-6.4-5.2l-1.5,8.7l14.2,20.6L749.8,752.5z"/>
							<path class="st46" d="M743.4,747.3l0.6,7.9l12.2,21.4L741.9,756L743.4,747.3z"/>
							<g class="st48">
								<path class="st49" d="M685.8,668.2c1.4,2.5,2.8,7.7,3.2,9.3c0.1,0.3,0.3,0.5,0.6,0.4c8.3-0.8,9.6-4.9,9.8-6.2
									c0-0.2-0.1-0.5-0.3-0.6c-3.7-2.3-8.3-4-9.8-4.5c-0.2-0.1-0.5,0-0.6,0.2c-0.3,0.4-0.9,1-2.7,1.2L685.8,668.2L685.8,668.2z"/>
								<path class="st49" d="M687.1,662.8c-0.4-0.3-1.6-1.3-4.5-1.7c-0.1,0-0.1-0.1-0.2-0.1l-3.2-5.6c-0.1-0.2,0-0.4,0.2-0.4
									c1.7,0.1,7.8,0.7,13.7,5c0.2,0.1,0.1,0.4-0.1,0.4c-1,0.4-3.7,1.3-5.8,2.3C687.3,662.8,687.2,662.8,687.1,662.8z"/>
								<path class="st49" d="M678.6,663c0.1,1.4,0.8,2.4,1.2,2.9c0.2,0.2,0.1,0.6-0.1,0.7c-1.6,0.9-6.3,3.4-8.1,4.9
									c-0.2,0.1-0.5,0.1-0.6,0c-1.3-1.3-6.1-6.8-3.7-11.3c0.1-0.2,0.3-0.3,0.5-0.2c1.4,0.2,6.8,1.3,10.6,2.8
									C678.4,662.8,678.5,662.8,678.6,663L678.6,663L678.6,663z"/>
								<path class="st49" d="M686.8,665.8c0.4-0.9-0.5-2.3-2.2-3.1c-1.6-0.8-3.3-0.6-3.7,0.3c-0.4,0.9,0.5,2.3,2.2,3.1
									C684.7,666.9,686.3,666.7,686.8,665.8z"/>
							</g>
						</g>
					</g>
				</g>
				<g class="st2">
					<g class="st32">
						<defs>
							
								<rect id="SVGID_22_" x="750.1" y="770.1" transform="matrix(0.9405 -0.3399 0.3399 0.9405 -226.6239 309.6149)" width="40.9" height="63.2"/>
						</defs>
						<clipPath id="SVGID_23_">
							<use xlink:href="#SVGID_22_"  style="overflow:visible;"/>
						</clipPath>
						<g class="st50">
							
								<linearGradient id="SVGID_24_" gradientUnits="userSpaceOnUse" x1="772.0316" y1="249.8798" x2="779.5709" y2="245.8553" gradientTransform="matrix(1 0 0 1 -2.080474e-05 568)">
								<stop  offset="0" style="stop-color:#D8DEE8"/>
								<stop  offset="1" style="stop-color:#FFFFFF"/>
							</linearGradient>
							<path class="st51" d="M778.7,830.3l-9.9-29.1l3.7-0.6l9.7,28.5c0.4,1.1-0.3,2.2-1.4,2.4C779.8,831.7,779,831.1,778.7,830.3z"
								/>
							<path class="st52" d="M785.2,799.7c4.8-10.2,0.4-22.3-9.8-27c-10.2-4.8-22.4-0.3-27.2,9.8c-4.8,10.2-0.4,22.3,9.8,27.1
								C768.2,814.3,780.3,809.9,785.2,799.7z"/>
							
								<linearGradient id="SVGID_25_" gradientUnits="userSpaceOnUse" x1="746.0305" y1="205.6631" x2="818.2955" y2="266.4831" gradientTransform="matrix(1 0 0 1 -2.080474e-05 568)">
								<stop  offset="0" style="stop-color:#FFC444"/>
								<stop  offset="0.9964" style="stop-color:#F36F56"/>
							</linearGradient>
							<path class="st53" d="M772.8,808.1c9.4-3.4,14.3-13.8,11-23.2s-13.8-14.2-23.2-10.8s-14.3,13.8-11,23.2
								C753,806.6,763.4,811.5,772.8,808.1z"/>
							<path class="st52" d="M757.4,801.4L753,790l3.8-1.5c1.4-0.5,2.5-0.7,3.5-0.4c1,0.2,1.7,0.9,2.1,1.9c0.2,0.5,0.3,1,0.1,1.6
								c-0.1,0.5-0.4,1-0.8,1.4c0.8-0.2,1.4,0,2,0.3c0.6,0.4,1,0.8,1.2,1.5c0.4,1.1,0.4,2.1-0.1,2.9c-0.5,0.8-1.4,1.5-2.8,2.1
								L757.4,801.4z M757.8,795.5l1.3,3.3l2.2-0.8c0.6-0.2,1-0.6,1.2-0.9c0.2-0.4,0.2-0.8,0-1.4c-0.2-0.6-0.5-0.9-1-1.1
								c-0.4-0.2-1-0.1-1.6,0.1L757.8,795.5z M757.1,793.9l1.6-0.6c0.6-0.2,1.1-0.5,1.3-0.9s0.3-0.8,0.1-1.3s-0.5-0.9-1-1
								s-1-0.1-1.7,0.2l-1.5,0.6L757.1,793.9z"/>
							<path class="st52" d="M770.3,796.5l-2.3,0.9l-4.5-11.5l2.3-0.9L770.3,796.5z"/>
							<path class="st52" d="M772.6,795.6l-4.5-11.5l4-1.6c1.4-0.6,2.8-0.6,4,0c1.3,0.5,2.2,1.5,2.7,2.9l0.7,1.9
								c0.6,1.4,0.5,2.7,0,4c-0.6,1.2-1.6,2.1-3,2.7L772.6,795.6z M771.1,785l3.1,7.9l1.7-0.7c0.8-0.3,1.3-0.8,1.5-1.6
								c0.2-0.7,0.2-1.6-0.1-2.5l-0.7-1.9c-0.3-0.9-0.9-1.5-1.5-1.9c-0.7-0.4-1.4-0.4-2.2-0.1L771.1,785z"/>
						</g>
					</g>
				</g>
				<g class="st2">
					<g class="st32">
						<defs>
							
								<rect id="SVGID_26_" x="508" y="773.1" transform="matrix(0.9405 -0.3399 0.3399 0.9405 -242.0527 227.5384)" width="40.9" height="63.2"/>
						</defs>
						<clipPath id="SVGID_27_">
							<use xlink:href="#SVGID_26_"  style="overflow:visible;"/>
						</clipPath>
						<g class="st54">
							
								<linearGradient id="SVGID_28_" gradientUnits="userSpaceOnUse" x1="530.0317" y1="252.8798" x2="537.5709" y2="248.8552" gradientTransform="matrix(1 0 0 1 0 568)">
								<stop  offset="0" style="stop-color:#D8DEE8"/>
								<stop  offset="1" style="stop-color:#FFFFFF"/>
							</linearGradient>
							<path class="st55" d="M536.7,833.3l-9.9-29.1l3.7-0.6l9.7,28.5c0.4,1.1-0.3,2.2-1.4,2.4C537.8,834.7,537,834.1,536.7,833.3z"
								/>
							<path class="st52" d="M543.2,802.7c4.8-10.2,0.4-22.3-9.8-27c-10.2-4.8-22.4-0.3-27.2,9.8c-4.8,10.2-0.4,22.3,9.8,27.1
								C526.2,817.3,538.3,812.9,543.2,802.7z"/>
							
								<linearGradient id="SVGID_29_" gradientUnits="userSpaceOnUse" x1="504.0305" y1="208.6631" x2="576.2955" y2="269.4831" gradientTransform="matrix(1 0 0 1 0 568)">
								<stop  offset="0" style="stop-color:#FFC444"/>
								<stop  offset="0.9964" style="stop-color:#F36F56"/>
							</linearGradient>
							<path class="st56" d="M530.8,811.1c9.4-3.4,14.3-13.8,11-23.2s-13.8-14.2-23.2-10.8c-9.4,3.4-14.3,13.8-11,23.2
								C511,809.6,521.4,814.5,530.8,811.1z"/>
							<path class="st52" d="M515.4,804.4L511,793l3.8-1.5c1.4-0.5,2.5-0.7,3.5-0.4c1,0.2,1.7,0.9,2.1,1.9c0.2,0.5,0.3,1,0.1,1.6
								c-0.1,0.5-0.4,1-0.8,1.4c0.8-0.2,1.4,0,2,0.3c0.6,0.4,1,0.8,1.2,1.5c0.4,1.1,0.4,2.1-0.1,2.9c-0.5,0.8-1.4,1.5-2.8,2.1
								L515.4,804.4z M515.8,798.5l1.3,3.3l2.2-0.8c0.6-0.2,1-0.6,1.2-0.9c0.2-0.4,0.2-0.8,0-1.4c-0.2-0.6-0.5-0.9-1-1.1
								c-0.4-0.2-1-0.1-1.6,0.1L515.8,798.5z M515.1,796.9l1.6-0.6c0.6-0.2,1.1-0.5,1.3-0.9s0.3-0.8,0.1-1.3s-0.5-0.9-1-1
								c-0.4-0.1-1-0.1-1.7,0.2l-1.5,0.6L515.1,796.9z"/>
							<path class="st52" d="M528.3,799.5l-2.3,0.9l-4.5-11.5l2.3-0.9L528.3,799.5z"/>
							<path class="st52" d="M530.6,798.6l-4.5-11.5l4-1.6c1.4-0.6,2.8-0.6,4,0c1.3,0.5,2.2,1.5,2.7,2.9l0.7,1.9
								c0.5,1.4,0.5,2.7,0,4c-0.6,1.2-1.6,2.1-3,2.7L530.6,798.6z M529.1,788l3.1,7.9l1.7-0.7c0.8-0.3,1.3-0.8,1.5-1.6
								c0.2-0.7,0.2-1.6-0.1-2.5l-0.7-1.9c-0.3-0.9-0.8-1.5-1.5-1.9s-1.4-0.4-2.2-0.1L529.1,788z"/>
						</g>
					</g>
				</g>
				<g class="st2">
					<g class="st32">
						<defs>
							
								<rect id="SVGID_30_" x="540.7" y="785.5" transform="matrix(0.3743 -0.9273 0.9273 0.3743 -389.2461 1034.942)" width="63.2" height="40.9"/>
						</defs>
						<clipPath id="SVGID_31_">
							<use xlink:href="#SVGID_30_"  style="overflow:visible;"/>
						</clipPath>
						<g class="st57">
							
								<linearGradient id="SVGID_32_" gradientUnits="userSpaceOnUse" x1="562.607" y1="251.1628" x2="570.9083" y2="253.1956" gradientTransform="matrix(1 0 0 1 4.175268e-05 567.9999)">
								<stop  offset="0" style="stop-color:#D8DEE8"/>
								<stop  offset="1" style="stop-color:#FFFFFF"/>
							</linearGradient>
							<path class="st58" d="M559.3,832.8l12-28.2l3.1,2l-11.8,27.7c-0.4,1-1.7,1.4-2.7,0.8C559.2,834.5,558.9,833.6,559.3,832.8z"
								/>
							<path class="st52" d="M584.5,814.3c10.4-4.4,15.2-16.3,10.8-26.7s-16.5-15.2-26.8-10.8c-10.4,4.4-15.2,16.3-10.8,26.7
								C562.1,813.8,574.2,818.6,584.5,814.3z"/>
							
								<linearGradient id="SVGID_33_" gradientUnits="userSpaceOnUse" x1="572.7228" y1="200.7853" x2="585.9688" y2="294.3043" gradientTransform="matrix(1 0 0 1 4.175268e-05 567.9999)">
								<stop  offset="0" style="stop-color:#FFC444"/>
								<stop  offset="0.9964" style="stop-color:#F36F56"/>
							</linearGradient>
							<path class="st59" d="M569.8,812.3c9.3,3.8,19.9-0.7,23.6-9.9c3.7-9.2-0.8-19.8-10.1-23.6s-19.9,0.7-23.6,9.9
								C555.9,798,560.4,808.5,569.8,812.3z"/>
							<path class="st52" d="M562.7,797.1l4.3-11.5l3.8,1.4c1.4,0.5,2.3,1.2,2.9,2c0.6,0.8,0.7,1.8,0.3,2.8
								c-0.2,0.5-0.5,0.9-0.9,1.3c-0.4,0.3-1,0.5-1.6,0.5c0.7,0.4,1.1,0.9,1.3,1.6c0.2,0.6,0.2,1.3-0.1,1.9c-0.4,1.1-1.1,1.8-2,2.1
								c-1,0.3-2.1,0.2-3.4-0.3L562.7,797.1z M567,792.8l-1.3,3.3l2.2,0.8c0.6,0.2,1.1,0.3,1.6,0.1c0.4-0.1,0.7-0.5,0.9-1
								c0.2-0.6,0.2-1.1,0-1.5s-0.6-0.8-1.3-1L567,792.8z M567.6,791.2l1.6,0.6c0.6,0.2,1.2,0.3,1.6,0.2c0.4-0.1,0.7-0.4,0.9-0.9
								s0.2-1-0.1-1.4c-0.2-0.4-0.7-0.7-1.4-0.9l-1.5-0.6L567.6,791.2z"/>
							<path class="st52" d="M575.6,801.9l-2.3-0.9l4.3-11.5l2.3,0.9L575.6,801.9z"/>
							<path class="st52" d="M577.9,802.8l4.3-11.5l4,1.5c1.4,0.5,2.4,1.4,3,2.7c0.6,1.2,0.6,2.6,0.1,4l-0.7,1.9
								c-0.5,1.4-1.4,2.4-2.7,2.9s-2.6,0.6-4,0L577.9,802.8z M583.9,793.9l-3,8l1.7,0.7c0.8,0.3,1.5,0.2,2.2-0.2s1.2-1,1.5-1.9
								l0.7-1.9c0.3-0.9,0.4-1.7,0.1-2.4c-0.2-0.7-0.8-1.3-1.5-1.5L583.9,793.9z"/>
						</g>
					</g>
				</g>
				<g class="st2">
					<g class="st32">
						<defs>
							
								<rect id="SVGID_34_" x="793.7" y="777.3" transform="matrix(0.7168 -0.6973 0.6973 0.7168 -333.442 796.7981)" width="40.9" height="63.2"/>
						</defs>
						<clipPath id="SVGID_35_">
							<use xlink:href="#SVGID_34_"  style="overflow:visible;"/>
						</clipPath>
						<g class="st60">
							
								<linearGradient id="SVGID_36_" gradientUnits="userSpaceOnUse" x1="822.3067" y1="255.0674" x2="827.5157" y2="248.2959" gradientTransform="matrix(1 0 0 1 0 568.0001)">
								<stop  offset="0" style="stop-color:#D8DEE8"/>
								<stop  offset="1" style="stop-color:#FFFFFF"/>
							</linearGradient>
							<path class="st61" d="M833.5,831.6l-21-22.4l3.1-2.1l20.6,22c0.8,0.8,0.6,2.1-0.3,2.8C835.1,832.4,834.1,832.3,833.5,831.6z"
								/>
							<path class="st52" d="M826.8,801.1c0.2-11.3-8.8-20.5-20.1-20.6s-20.6,8.9-20.8,20.2s8.8,20.5,20.1,20.6
								C817.3,821.4,826.6,812.3,826.8,801.1z"/>
							
								<linearGradient id="SVGID_37_" gradientUnits="userSpaceOnUse" x1="780.36" y1="225.5325" x2="871.269" y2="251.1665" gradientTransform="matrix(1 0 0 1 0 568.0001)">
								<stop  offset="0" style="stop-color:#FFC444"/>
								<stop  offset="0.9964" style="stop-color:#F36F56"/>
							</linearGradient>
							<path class="st62" d="M818.9,813.8c7.2-7,7.4-18.5,0.4-25.6c-7-7.2-18.4-7.3-25.6-0.3c-7.2,7-7.4,18.5-0.4,25.6
								C800.3,820.7,811.8,820.8,818.9,813.8z"/>
							<path class="st52" d="M802.2,814.1l-8.8-8.6l2.8-2.9c1-1,2-1.7,3-1.8c1-0.2,1.9,0.1,2.7,0.9c0.4,0.4,0.7,0.8,0.8,1.4
								c0.1,0.5,0,1.1-0.2,1.6c0.6-0.5,1.3-0.6,1.9-0.5c0.7,0.1,1.2,0.4,1.7,0.9c0.8,0.8,1.2,1.7,1.1,2.7c-0.1,1-0.7,2-1.7,3
								L802.2,814.1z M800.1,808.5l2.5,2.5l1.6-1.6c0.5-0.5,0.7-0.9,0.8-1.4c0-0.5-0.1-0.9-0.5-1.3c-0.4-0.4-0.9-0.6-1.3-0.6
								c-0.5,0-0.9,0.3-1.4,0.8L800.1,808.5z M798.8,807.3l1.2-1.2c0.5-0.5,0.7-0.9,0.8-1.4c0.1-0.4-0.1-0.9-0.5-1.2
								c-0.4-0.4-0.8-0.6-1.3-0.5c-0.4,0.1-0.9,0.4-1.4,0.9l-1.1,1.1L798.8,807.3z"/>
							<path class="st52" d="M811.9,804.3l-1.7,1.8l-8.8-8.6l1.7-1.8L811.9,804.3z"/>
							<path class="st52" d="M813.6,802.5l-8.8-8.6l3-3.1c1.1-1.1,2.3-1.6,3.7-1.7c1.4,0,2.6,0.5,3.7,1.5l1.5,1.4
								c1.1,1.1,1.6,2.3,1.6,3.6c0,1.4-0.5,2.6-1.6,3.7L813.6,802.5z M807.9,793.4l6.1,6l1.3-1.3c0.6-0.6,0.8-1.3,0.7-2
								s-0.5-1.5-1.1-2.2l-1.5-1.4c-0.7-0.7-1.4-1-2.2-1.1s-1.5,0.2-2,0.8L807.9,793.4z"/>
						</g>
					</g>
				</g>
			</g>
		</g>
	</g>
	<path class="st63" d="M1939.4-98H0v998h1939.4V-98z"/>
	<path class="st64" d="M-102.9,537.5c0,0,525,121.6,697,70.7c148.2-43.9,513.8-36.9,658.6,0s702.2-26.2,702.2-26.2v-74.6
		c0,0-503.5,69.1-622.3,44.3c-118.7-24.8-492.7-8.6-627.1,3.5c-134.4,12-625.5-41.3-725.3-61.7L-102.9,537.5z"/>
	<path class="st65" d="M772.6,648.8c-4.1,0-8.2,0.3-12.2,0.9C740.6,609,698.9,581,650.7,581c-27.5,0-52.8,9.1-73.2,24.4
		c-13.2-32-44.6-54.6-81.4-54.6c-1.9,0-3.9,0.1-5.8,0.2c-30.7-37-77-60.5-128.8-60.5c-92.3,0-167.2,74.9-167.2,167.2
		s74.9,167.2,167.2,167.2h411c48.6,0,88-39.4,88-88C860.6,688.2,821.2,648.8,772.6,648.8z"/>
	<path class="st65" d="M415.7,687.2c-4.1,0-8.2,0.3-12.2,0.9c-19.8-40.7-61.5-68.7-109.7-68.7c-27.5,0-52.8,9.1-73.2,24.4
		c-13.2-32-44.6-54.6-81.4-54.6c-1.9,0-3.9,0.1-5.8,0.2c-30.7-37-77-60.5-128.8-60.5c-92.3,0-167.2,74.9-167.2,167.2
		S-87.7,863.2,4.6,863.2h411c48.6,0,88-39.4,88-88C503.7,726.6,464.3,687.2,415.7,687.2z"/>
	<path class="st65" d="M1620.6,522.8c-6.8,0-13.5,0.5-20.1,1.5c-30.2-31.7-74.2-51.6-123.3-51.6c-76.2,0-140.2,48.1-159,113.4
		c-52.1,8.1-93.1,49.8-100.2,102.2c-6.9-2-14.1-3-21.7-3c-43.5,0-78.8,35.3-78.8,78.8s35.3,78.8,78.8,78.8h565.3v-179
		C1761.7,585.9,1698.5,522.8,1620.6,522.8z"/>
	<path class="st65" d="M2010.6,628.7c-6.8,0-13.5,0.5-20.1,1.5c-30.2-31.7-74.2-51.6-123.3-51.6c-76.2,0-140.2,48.1-159,113.4
		c-52.1,8.1-93.1,49.8-100.2,102.2c-6.9-2-14.1-3-21.7-3c-43.5,0-78.8,35.3-78.8,78.8s35.3,78.8,78.8,78.8h565.3v-179
		C2151.6,691.9,2088.5,628.7,2010.6,628.7z"/>
	<path class="st66" d="M1179.6,694c-0.7,0-1.5,0-2.2,0.1c-5.2-20-19.2-36.5-37.6-45.1c-20.4-40.6-66-68.9-119.1-68.9
		c-48.7,0-91.2,23.9-113.6,59.2c-21.4,1.4-39.3,15.3-46.6,34.5c-4.7-0.8-9.6-1.2-14.5-1.2c-45.9,0-83.2,35.6-83.2,79.5
		c0,3.5,0.3,6.9,0.7,10.3l-0.7,0.4v68.8h416.8c38,0,68.8-30.8,68.8-68.8C1248.3,724.8,1217.5,694,1179.6,694z"/>
	<path class="st67" d="M1698.7,604l-1.6-3.2l2.5,0.7l-5.3-10l1.8,0.4l-4.8-8l-4.8,8.3l1.8-0.2l-4.7,9.4c-17.9-2.6-41.2-4.9-71-4.5
		l-5-9.4l1.8,0.4l-4.8-8l-4.8,8.3l1.8-0.2l-4.6,9.2c-49.7,2-115.5,11.2-201.8,35.7l-6-11.8l2.1,0.5l-5.4-9.5l-5.6,9.9l2.1-0.2
		l-5.7,11.9l3.3-1.1l-3.8,8.6c-46.8,21.3-87.6,45.7-128.1,66.3l-5.9-11.5l2.1,0.5l-5.4-9.5l-5.5,9.9l2.1-0.2l-5.7,11.9l3.4-1.1
		l-4.3,9.5c-1.5,0.7-3,1.4-4.5,2.1l-3.9-7.6l2.1,0.5l-5.5-9.5l-5.5,9.9l2.1-0.2l-5.7,11.9l3.4-1.1l-1.1,2.4
		c-17.9,7.7-36.1,14.3-55.1,19.2l-2.2-4.6l2.8,0.8l-6-11.9l2.1,0.5l-5.5-9.5l-5.5,9.9l2.1-0.2l-5.7,11.9l3.4-1.1l-3.7,8.3
		c-18.8,3.6-38.5,5.4-59.5,4.9c-61.9-1.5-150-15.6-241.2-40l-3-6.5l2.8,0.8l-6-11.9l2.1,0.5l-5.4-9.5l-5.5,9.9l2.1-0.2l-5.5,11.7
		c-30.3-8.5-60.7-18.2-90.4-28.9l-1.6-3.5l2.8,0.8l-6-11.9l2.1,0.5l-5.5-9.5l-5.5,9.9l2.1-0.2l-3.9,8.1c-2.1-0.8-4.2-1.6-6.2-2.3
		l-2.1-4.4l2.8,0.8l-6-11.9l2.1,0.5l-5.4-9.5l-5.5,9.9l2.1-0.2l-4,8.5c-43.8-16.6-98.3-28.9-141.9-37.1l-2.6-5.6l2.8,0.8l-6-11.9
		l2.1,0.5l-5.5-9.5l-5.5,9.9l2.1-0.2l-5.6,11.9l3.4-1.1l-1,2.3c-52.8-5.9-99-9.3-138.5-11.3l-2.2-4.5l2.5,0.7l-5.3-10l1.8,0.4
		l-4.8-8l-4.8,8.3l1.8-0.2l-4.9,10l2.9-0.9l-1.6,3.5c-34.1-1.4-62.7-1.6-85.7-1.2l-1.3-2.6l2.5,0.7l-5.3-10l1.8,0.4l-4.8-8l-4.8,8.3
		l1.8-0.2l-4.9,10l2.9-0.9l-1.2,2.5c-4.4,0.1-8.6,0.3-12.6,0.4l-2.8-5.8l2.5,0.7l-5.3-10l1.8,0.4l-4.8-8l-4.8,8.3l1.8-0.2l-4.9,10
		l2.9-0.9l-2.9,6.2C231,614.7-19.7,616-19.7,616v283.9l1959.1,42.8V650.5C1934.2,649.6,1706.7,605.5,1698.7,604z M820.4,709.5
		c-0.7-0.2-1.5-0.4-2.2-0.6l3-1L820.4,709.5z M1246.4,708.8l-0.7-1.4l2.2,0.6C1247.4,708.3,1246.9,708.6,1246.4,708.8z M1393.4,634
		l-0.7-1.6l2.6,0.8C1394.7,633.5,1394,633.8,1393.4,634z M1611.2,597c-0.2,0-0.4,0-0.5,0l-0.1-0.2L1611.2,597z M1599.8,597.2
		L1599.8,597.2c-0.2,0.1-0.3,0.1-0.5,0.1L1599.8,597.2z M1686.4,601.2l-0.3,0.7c-0.4-0.1-0.9-0.1-1.3-0.2L1686.4,601.2z"/>
	<path class="st68" d="M504.7,638.9C504.7,638.9,504.8,638.9,504.7,638.9C504.7,638.9,504.7,638.8,504.7,638.9c-0.6-5.7-3-6.7-3-6.7
		c0.5,2.6,2.1,5.3,2.8,6.3c-3.5-4-5.8-3.6-5.8-3.6C500.7,637,504,638.6,504.7,638.9L504.7,638.9L504.7,638.9z"/>
	<path class="st68" d="M489.8,683.3c0.1,0,0.1,0,0.1,0S489.9,683.3,489.8,683.3c-0.6-5.7-3-6.7-3-6.7c0.5,2.6,2.1,5.3,2.8,6.3
		c-3.5-4-5.8-3.6-5.8-3.6C485.8,681.4,489.2,683,489.8,683.3C489.9,683.4,489.9,683.4,489.8,683.3L489.8,683.3z"/>
	<path class="st68" d="M585.3,680C585.4,680,585.4,680,585.3,680C585.4,680,585.3,679.9,585.3,680c-0.6-5.7-3-6.7-3-6.7
		c0.5,2.6,2.1,5.3,2.8,6.3c-3.5-4-5.8-3.6-5.8-3.6C581.3,678.1,584.7,679.7,585.3,680C585.3,680,585.4,680,585.3,680L585.3,680z"/>
	<path class="st68" d="M540.9,714C540.9,714.1,541,714.1,540.9,714L540.9,714c-0.6-5.7-3-6.7-3-6.7c0.5,2.6,2.1,5.3,2.8,6.3
		c-3.5-4-5.8-3.6-5.8-3.6C536.9,712.2,540.2,713.7,540.9,714C540.9,714.1,540.9,714.1,540.9,714C540.9,714.1,540.9,714.1,540.9,714z
		"/>
	<path class="st68" d="M642.4,743.3C642.5,743.3,642.5,743.3,642.4,743.3C642.5,743.3,642.5,743.2,642.4,743.3c-0.6-5.7-3-6.7-3-6.7
		c0.5,2.6,2.1,5.3,2.8,6.3c-3.5-4-5.8-3.6-5.8-3.6C638.5,741.4,641.8,743,642.4,743.3C642.5,743.3,642.5,743.3,642.4,743.3
		C642.5,743.3,642.5,743.3,642.4,743.3z"/>
	<path class="st68" d="M742.3,769.6C742.4,769.6,742.4,769.6,742.3,769.6C742.4,769.6,742.3,769.6,742.3,769.6c-0.6-5.7-3-6.7-3-6.7
		c0.5,2.6,2.1,5.3,2.8,6.3c-3.5-4-5.8-3.6-5.8-3.6C738.3,767.7,741.6,769.3,742.3,769.6C742.3,769.6,742.3,769.7,742.3,769.6
		L742.3,769.6z"/>
	<path class="st68" d="M672.5,724.8C672.6,724.8,672.6,724.8,672.5,724.8L672.5,724.8c-0.6-5.7-3-6.7-3-6.7c0.5,2.6,2.1,5.3,2.8,6.3
		c-3.5-4-5.8-3.6-5.8-3.6C668.5,723,671.8,724.5,672.5,724.8C672.5,724.9,672.5,724.9,672.5,724.8L672.5,724.8z"/>
	<path class="st68" d="M758.3,729.1C758.4,729.1,758.4,729.1,758.3,729.1C758.4,729.1,758.3,729.1,758.3,729.1c-0.6-5.7-3-6.7-3-6.7
		c0.5,2.6,2.1,5.3,2.8,6.3c-3.5-4-5.8-3.6-5.8-3.6C754.3,727.3,757.7,728.8,758.3,729.1C758.3,729.2,758.4,729.2,758.3,729.1
		C758.3,729.2,758.3,729.2,758.3,729.1z"/>
	<path class="st68" d="M821.1,729.1C821.2,729.2,821.2,729.2,821.1,729.1C821.2,729.1,821.1,729.1,821.1,729.1c-0.6-5.7-3-6.7-3-6.7
		c0.5,2.6,2.1,5.3,2.8,6.3c-3.5-4-5.8-3.6-5.8-3.6C817.1,727.3,820.5,728.8,821.1,729.1C821.1,729.2,821.2,729.2,821.1,729.1
		C821.1,729.2,821.1,729.2,821.1,729.1z"/>
	<path class="st68" d="M869.9,785.2C869.9,785.2,870,785.2,869.9,785.2C869.9,785.2,869.9,785.1,869.9,785.2c-0.6-5.7-3-6.7-3-6.7
		c0.5,2.6,2.1,5.3,2.8,6.3c-3.5-4-5.8-3.6-5.8-3.6C865.9,783.3,869.2,784.9,869.9,785.2L869.9,785.2L869.9,785.2z"/>
	<path class="st68" d="M969.8,773.1C969.7,773.1,969.7,773.1,969.8,773.1C969.7,773.1,969.8,773,969.8,773.1c0.6-5.7,3-6.7,3-6.7
		c-0.5,2.6-2.1,5.3-2.8,6.3c3.5-4,5.8-3.6,5.8-3.6C973.8,771.2,970.5,772.8,969.8,773.1L969.8,773.1L969.8,773.1z"/>
	<path class="st68" d="M1002.5,807C1002.4,807,1002.4,807,1002.5,807C1002.5,807,1002.5,807,1002.5,807c0.6-5.7,3-6.7,3-6.7
		c-0.5,2.6-2.1,5.3-2.8,6.3c3.5-4,5.8-3.6,5.8-3.6C1006.5,805.1,1003.2,806.7,1002.5,807C1002.5,807.1,1002.5,807.1,1002.5,807
		L1002.5,807z"/>
	<path class="st68" d="M1077.9,781.8C1077.8,781.8,1077.8,781.9,1077.9,781.8C1077.8,781.8,1077.9,781.8,1077.9,781.8
		c0.6-5.7,3-6.7,3-6.7c-0.5,2.6-2.1,5.3-2.8,6.3c3.5-4,5.8-3.6,5.8-3.6C1081.9,779.9,1078.5,781.5,1077.9,781.8
		C1077.9,781.9,1077.8,781.9,1077.9,781.8C1077.9,781.9,1077.9,781.8,1077.9,781.8z"/>
	<path class="st68" d="M1447.8,657.6C1447.7,657.6,1447.7,657.6,1447.8,657.6C1447.7,657.6,1447.8,657.5,1447.8,657.6
		c0.6-5.7,3-6.7,3-6.7c-0.5,2.6-2.1,5.3-2.8,6.3c3.5-4,5.8-3.6,5.8-3.6C1451.8,655.7,1448.4,657.3,1447.8,657.6L1447.8,657.6
		L1447.8,657.6z"/>
	<path class="st68" d="M1462.7,624.6C1462.6,624.6,1462.6,624.6,1462.7,624.6C1462.6,624.6,1462.6,624.6,1462.7,624.6
		c0.6-5.7,3-6.7,3-6.7c-0.5,2.6-2.1,5.3-2.8,6.3c3.5-4,5.8-3.6,5.8-3.6C1466.7,622.7,1463.3,624.3,1462.7,624.6
		C1462.6,624.6,1462.6,624.7,1462.7,624.6L1462.7,624.6z"/>
	<path class="st68" d="M1354.3,677.9C1354.3,677.9,1354.2,677.9,1354.3,677.9C1354.3,677.9,1354.3,677.8,1354.3,677.9
		c0.6-5.7,3-6.7,3-6.7c-0.5,2.6-2.1,5.3-2.8,6.3c3.5-4,5.8-3.6,5.8-3.6C1358.3,676,1355,677.6,1354.3,677.9L1354.3,677.9
		L1354.3,677.9z"/>
	<path class="st68" d="M1403.5,708.8C1403.4,708.8,1403.4,708.8,1403.5,708.8C1403.4,708.8,1403.4,708.7,1403.5,708.8
		c0.6-5.7,3-6.7,3-6.7c-0.5,2.6-2.1,5.3-2.8,6.3c3.4-4,5.8-3.6,5.8-3.6C1407.4,706.9,1404.1,708.5,1403.5,708.8
		C1403.4,708.8,1403.4,708.8,1403.5,708.8L1403.5,708.8z"/>
	<path class="st68" d="M1253.8,758C1253.7,758,1253.7,758,1253.8,758C1253.7,758,1253.8,758,1253.8,758c0.6-5.7,3-6.7,3-6.7
		c-0.5,2.6-2.1,5.3-2.8,6.3c3.4-4,5.8-3.6,5.8-3.6C1257.8,756.2,1254.5,757.7,1253.8,758C1253.8,758.1,1253.8,758.1,1253.8,758
		C1253.8,758.1,1253.8,758,1253.8,758z"/>
	<path class="st68" d="M1260,719.6C1259.9,719.6,1259.9,719.6,1260,719.6C1259.9,719.6,1259.9,719.5,1260,719.6c0.6-5.7,3-6.7,3-6.7
		c-0.5,2.6-2.1,5.3-2.8,6.3c3.5-4,5.8-3.6,5.8-3.6C1264,717.7,1260.6,719.3,1260,719.6C1259.9,719.6,1259.9,719.6,1260,719.6
		L1260,719.6z"/>
	<path class="st68" d="M1309.3,726.3C1309.3,726.3,1309.2,726.3,1309.3,726.3C1309.3,726.3,1309.3,726.2,1309.3,726.3
		c0.6-5.7,3-6.7,3-6.7c-0.5,2.6-2.1,5.3-2.8,6.3c3.5-4,5.8-3.6,5.8-3.6C1313.3,724.4,1310,726,1309.3,726.3L1309.3,726.3
		L1309.3,726.3z"/>
	<path class="st68" d="M1164.3,773.1C1164.2,773.1,1164.2,773.1,1164.3,773.1C1164.2,773.1,1164.3,773,1164.3,773.1
		c0.6-5.7,3-6.7,3-6.7c-0.5,2.6-2.1,5.3-2.8,6.3c3.5-4,5.8-3.6,5.8-3.6C1168.3,771.2,1165,772.8,1164.3,773.1L1164.3,773.1
		L1164.3,773.1z"/>
	<path class="st68" d="M1190.5,751.3C1190.4,751.3,1190.4,751.3,1190.5,751.3C1190.4,751.3,1190.4,751.3,1190.5,751.3
		c0.6-5.7,3-6.7,3-6.7c-0.5,2.6-2.1,5.3-2.8,6.3c3.5-4,5.8-3.6,5.8-3.6C1194.4,749.4,1191.1,751,1190.5,751.3
		C1190.4,751.4,1190.4,751.4,1190.5,751.3C1190.4,751.3,1190.5,751.3,1190.5,751.3z"/>
	<path class="st68" d="M660.5,676.6C660.6,676.6,660.6,676.6,660.5,676.6C660.6,676.6,660.5,676.5,660.5,676.6c-0.6-5.7-3-6.7-3-6.7
		c0.5,2.6,2.1,5.3,2.8,6.3c-3.5-4-5.8-3.6-5.8-3.6C656.5,674.7,659.9,676.3,660.5,676.6C660.5,676.6,660.6,676.6,660.5,676.6
		L660.5,676.6z"/>
	<path class="st69" d="M239.6,632.2l-11.3,19.4l4.2-0.4L221,674.6l6.9-2.2l-9.6,20.6h45.3l-10.4-21.4l5.8,1.7l-12.4-23.4l4.3,1
		L239.6,632.2z"/>
	<path class="st69" d="M58.4,623.9L47,643.3l4.2-0.4l-11.5,23.4l6.9-2.2L37,684.7h45.3l-10.4-21.4l5.8,1.7l-12.4-23.4l4.3,1
		L58.4,623.9z"/>
	<path class="st69" d="M1852.3,659.9l-11.3,19.4l4.2-0.4l-11.5,23.4l6.9-2.2l-9.6,20.6h45.3l-10.4-21.4l5.8,1.7l-12.4-23.4l4.3,1
		L1852.3,659.9z"/>
	<path class="st69" d="M1829.7,659.9l-11.3,19.4l4.2-0.4l-11.5,23.4l6.9-2.2l-9.6,20.6h45.3l-10.4-21.4l5.8,1.7l-12.4-23.4l4.3,1
		L1829.7,659.9z"/>
	<path class="st69" d="M1308,712.9l-11.3,19.4l4.2-0.4l-11.5,23.4l6.9-2.2l-9.6,20.6h45.3l-10.4-21.4l5.8,1.6l-12.4-23.3l4.3,1
		L1308,712.9z"/>
	<path class="st69" d="M1344.5,691l-13.2,22.5l4.8-0.5l-13.4,27.1l8-2.6l-11.2,23.9h52.6l-12.1-24.9l6.7,1.9l-14.4-27.1l5,1.2
		L1344.5,691z"/>
	<path class="st70" d="M262.3,642.9L251,662.3l4.2-0.4l-11.5,23.4l6.9-2.2l-2.1,4.5c-17.3-2.5-275.8-3.8-275.8-3.8l3.1,234.3h766.9
		h-0.1H1472h490.2l-3.1-201.7c0,0-257.7,0-286.3,0.5l-2-4.2l6.7,1.9l-14.3-27.1l5,1.2l-12.9-21.7l-13.2,22.6l4.9-0.5l-13.4,27.1
		l8-2.5l-1.9,4c-9.8,0.3-20.4,0.6-31.5,1l-2.9-5.9l6.7,1.9l-14.3-27.1l5,1.2l-12.9-21.7l-13.2,22.6l4.9-0.5l-13.4,27.1l8-2.5l-3,6.3
		c-31.9,1.4-67.2,3.3-103.9,6c-2.7,0.2-5.3,0.4-7.9,0.6c-5.2,0.4-10.1,0.7-14.9,1.1l-2.1-4.2l6.7,1.9l-14.4-27.1l5,1.2l-12.9-21.7
		l-13.2,22.5l4.9-0.5L1407,727l8-2.6l-2.9,6.1c-55.1,5.5-111.6,16.5-289.3,60.6l-6-11.3l3.3,0.8L1111,766l-8.7,15l3.2-0.3l-8.3,16.7
		c-21.5,5.8-42.7,12-63.7,18.6c-16.2,0-32.7-0.3-49.2-1l-2.1-4.4l4.5,1.3l-9.6-18l3.3,0.8l-8.6-14.4l-8.7,15l3.2-0.3l-8.9,18
		l5.3-1.7l-1.2,2.6c-1.6-0.1-3.2-0.2-4.8-0.3l-5.5-10.4l3.3,0.8l-8.6-14.4l-8.7,15l3.2-0.3l-3.9,7.9
		c-72.2-5.9-145.9-18.6-217.6-39.4c-30.9-9-73.5-18.4-120.9-27.7l-6.6-13.5l5.8,1.7l-12.4-23.4l4.3,1L578,692.1l-11.3,19.4l4.2-0.4
		l-11.5,23.4l6.9-2.2l-2.8,6c-14-2.6-28.3-5.2-42.7-7.8L517,723l5.8,1.7l-12.4-23.4l4.3,1l-11.1-18.7L492.3,703l4.2-0.4l-10.7,21.7
		c-24.7-4.2-49.4-8.3-73.1-12.1l-5.1-10.4l5.8,1.6L401,680l4.3,1L394,662.6L382.7,682l4.2-0.4L375.4,705l6.9-2.2l-2.1,4.5
		c-38.1-6-72.5-11.1-99.6-15.1l-4.8-9.9l5.8,1.7l-12.4-23.4l4.3,1L262.3,642.9z M491.7,723.9l-0.7,1.5c-0.9-0.1-1.7-0.3-2.6-0.4
		L491.7,723.9z"/>
	<path class="st68" d="M586.9,805.4C587,805.4,587,805.5,586.9,805.4c0,0,0,0-0.1-0.1c-1-8.5-4.5-10-4.5-10c0.8,3.9,3.2,8.1,4.2,9.6
		c-5.2-6.1-8.9-5.5-8.9-5.5C580.8,802.5,585.8,804.9,586.9,805.4L586.9,805.4L586.9,805.4z"/>
	<path class="st68" d="M728.1,870.3C728.2,870.3,728.2,870.4,728.1,870.3c0,0,0,0-0.1-0.1c-1-8.5-4.5-10-4.5-10
		c0.8,3.9,3.2,8.1,4.2,9.6c-5.2-6.1-8.9-5.5-8.9-5.5C722,867.4,727,869.8,728.1,870.3C728.1,870.3,728.1,870.4,728.1,870.3
		L728.1,870.3z"/>
	<path class="st68" d="M789.7,844.3C789.8,844.3,789.8,844.4,789.7,844.3c0,0,0,0-0.1-0.1c-1-8.5-4.5-10-4.5-10
		c0.8,3.9,3.2,8.1,4.2,9.6c-5.2-6.1-8.9-5.5-8.9-5.5C783.6,841.4,788.7,843.8,789.7,844.3L789.7,844.3L789.7,844.3z"/>
	<path class="st68" d="M874.5,855C874.6,855,874.6,855.1,874.5,855c0,0,0,0-0.1-0.1c-1-8.5-4.5-10-4.5-10c0.8,3.9,3.2,8.1,4.2,9.6
		c-5.2-6.1-8.9-5.5-8.9-5.5C868.4,852.1,873.5,854.5,874.5,855L874.5,855L874.5,855z"/>
	<path class="st68" d="M503.1,855c0.1,0,0.1,0.1,0.1,0.1c-0.1-0.1-0.1-0.1-0.2-0.2c-1-8.5-4.5-10-4.5-10c0.8,3.9,3.2,8.1,4.2,9.6
		c-5.2-6.1-8.9-5.5-8.9-5.5C497,852.1,502.1,854.5,503.1,855L503.1,855L503.1,855z"/>
	<path class="st68" d="M263.4,801.6c0.1,0,0.1,0.1,0.1,0.1c-0.1-0.1-0.1-0.1-0.2-0.2c-1-8.5-4.5-10-4.5-10c0.8,3.9,3.2,8.1,4.2,9.6
		c-5.2-6.1-8.9-5.5-8.9-5.5C257.3,798.7,262.3,801.1,263.4,801.6C263.4,801.6,263.4,801.7,263.4,801.6L263.4,801.6z"/>
	<path class="st68" d="M361.4,860.1c0.1,0,0.1,0.1,0.1,0.1c-0.1-0.1-0.1-0.1-0.2-0.2c-1-8.5-4.5-10-4.5-10c0.8,3.9,3.2,8.1,4.2,9.6
		c-5.2-6.1-8.9-5.5-8.9-5.5C355.3,857.2,360.3,859.6,361.4,860.1L361.4,860.1L361.4,860.1z"/>
	<path class="st68" d="M436.4,810.5c0.1,0,0.1,0.1,0.1,0.1c-0.1-0.1-0.1-0.1-0.2-0.2c-1-8.5-4.5-10-4.5-10c0.8,3.9,3.2,8.1,4.2,9.6
		c-5.2-6.1-8.9-5.5-8.9-5.5C430.3,807.6,435.3,810,436.4,810.5C436.4,810.5,436.4,810.6,436.4,810.5L436.4,810.5z"/>
	<path class="st68" d="M514,756.4C514.1,756.4,514.1,756.5,514,756.4c0,0,0,0-0.1-0.1c-1-8.5-4.5-10-4.5-10c0.8,3.9,3.2,8.1,4.2,9.6
		c-5.2-6.1-8.9-5.5-8.9-5.5C507.9,753.5,513,755.9,514,756.4L514,756.4L514,756.4z"/>
	<path class="st68" d="M356.7,745c0.1,0,0.1,0.1,0.1,0.1c-0.1-0.1-0.1-0.1-0.2-0.2c-1-8.5-4.5-10-4.5-10c0.8,3.9,3.2,8.1,4.2,9.6
		c-5.2-6.1-8.9-5.5-8.9-5.5C350.6,742.1,355.6,744.5,356.7,745L356.7,745L356.7,745z"/>
	<path class="st68" d="M695.2,794.5C695.3,794.5,695.3,794.6,695.2,794.5c0,0,0,0-0.1-0.1c-1-8.5-4.5-10-4.5-10
		c0.8,3.9,3.2,8.1,4.2,9.6c-5.2-6.1-8.9-5.5-8.9-5.5C689.1,791.6,694.2,794,695.2,794.5L695.2,794.5L695.2,794.5z"/>
	<path class="st68" d="M586.9,875.4C587,875.4,587,875.5,586.9,875.4c0,0,0,0-0.1-0.1c-1-8.5-4.5-10-4.5-10c0.8,3.9,3.2,8.1,4.2,9.6
		c-5.2-6.1-8.9-5.5-8.9-5.5C580.8,872.5,585.8,874.9,586.9,875.4L586.9,875.4L586.9,875.4z"/>
	<path class="st68" d="M1208.7,849.4C1208.6,849.4,1208.6,849.5,1208.7,849.4c0,0,0,0,0.1-0.1c1-8.5,4.5-10,4.5-10
		c-0.8,3.9-3.2,8.1-4.2,9.6c5.2-6.1,8.9-5.5,8.9-5.5C1214.9,846.5,1209.8,848.9,1208.7,849.4
		C1208.8,849.4,1208.7,849.4,1208.7,849.4L1208.7,849.4z"/>
	<path class="st68" d="M1069.2,825C1069.1,825,1069.1,825.1,1069.2,825c0,0,0,0,0.1-0.1c1-8.5,4.5-10,4.5-10
		c-0.8,3.9-3.2,8.1-4.2,9.6c5.2-6.1,8.9-5.5,8.9-5.5C1075.3,822.2,1070.2,824.6,1069.2,825C1069.2,825.1,1069.2,825.1,1069.2,825
		C1069.2,825.1,1069.2,825.1,1069.2,825z"/>
	<path class="st68" d="M1106.6,864.7C1106.5,864.7,1106.5,864.8,1106.6,864.7c0,0,0,0,0.1-0.1c1-8.5,4.5-10,4.5-10
		c-0.8,3.9-3.2,8.1-4.2,9.6c5.2-6.1,8.9-5.5,8.9-5.5C1112.7,861.8,1107.7,864.2,1106.6,864.7
		C1106.7,864.7,1106.6,864.8,1106.6,864.7L1106.6,864.7z"/>
	<path class="st68" d="M985.7,886.3C985.6,886.3,985.6,886.4,985.7,886.3c0,0,0,0,0.1-0.1c1-8.5,4.5-10,4.5-10
		c-0.8,3.9-3.2,8.1-4.2,9.6c5.2-6.1,8.9-5.5,8.9-5.5C991.8,883.5,986.8,885.9,985.7,886.3C985.7,886.4,985.7,886.4,985.7,886.3
		C985.7,886.4,985.7,886.4,985.7,886.3z"/>
	<path class="st68" d="M1355.9,859.6C1355.8,859.6,1355.8,859.7,1355.9,859.6c0,0,0,0,0.1-0.1c0.9-8.5,4.5-10,4.5-10
		c-0.8,3.9-3.2,8.1-4.2,9.6c5.2-6.1,8.9-5.5,8.9-5.5C1362,856.7,1356.9,859.1,1355.9,859.6L1355.9,859.6L1355.9,859.6z"/>
	<path class="st68" d="M1549.5,812.1C1549.4,812.1,1549.4,812.2,1549.5,812.1c0,0,0,0,0.1-0.1c1-8.5,4.5-10,4.5-10
		c-0.8,3.9-3.2,8.1-4.2,9.6c5.2-6.1,8.9-5.5,8.9-5.5C1555.7,809.2,1550.6,811.6,1549.5,812.1
		C1549.6,812.2,1549.5,812.2,1549.5,812.1C1549.5,812.2,1549.5,812.1,1549.5,812.1z"/>
	<path class="st68" d="M1626.5,768C1626.4,768,1626.4,768.1,1626.5,768c0,0,0,0,0.1-0.1c1-8.5,4.5-10,4.5-10
		c-0.8,3.9-3.2,8.1-4.2,9.6c5.2-6.1,8.9-5.5,8.9-5.5C1632.6,765.1,1627.5,767.5,1626.5,768L1626.5,768L1626.5,768z"/>
	<path class="st68" d="M1451.5,874.9C1451.4,874.9,1451.4,875,1451.5,874.9c0,0,0,0,0.1-0.1c0.9-8.5,4.5-10,4.5-10
		c-0.8,3.9-3.2,8.1-4.2,9.6c5.2-6.1,8.9-5.5,8.9-5.5C1457.6,872,1452.5,874.4,1451.5,874.9C1451.5,874.9,1451.5,875,1451.5,874.9
		L1451.5,874.9z"/>
	<path class="st68" d="M1626.5,869.8C1626.4,869.8,1626.4,869.9,1626.5,869.8c0,0,0,0,0.1-0.1c1-8.5,4.5-10,4.5-10
		c-0.8,3.9-3.2,8.1-4.2,9.6c5.2-6.1,8.9-5.5,8.9-5.5C1632.6,866.9,1627.5,869.3,1626.5,869.8L1626.5,869.8L1626.5,869.8z"/>
	<path class="st68" d="M1405,771.3C1404.9,771.3,1404.9,771.4,1405,771.3c0,0,0,0,0.1-0.1c1-8.5,4.5-10,4.5-10
		c-0.8,3.9-3.2,8.1-4.2,9.6c5.2-6.1,8.9-5.5,8.9-5.5C1411.1,768.5,1406.1,770.9,1405,771.3C1405,771.4,1405,771.4,1405,771.3
		C1405,771.4,1405,771.4,1405,771.3z"/>
	<path class="st68" d="M1249.2,790.3C1249.1,790.3,1249.1,790.4,1249.2,790.3c0,0,0,0,0.1-0.1c1-8.5,4.5-10,4.5-10
		c-0.8,3.9-3.2,8.1-4.2,9.6c5.2-6.1,8.9-5.5,8.9-5.5C1255.3,787.4,1250.2,789.8,1249.2,790.3L1249.2,790.3L1249.2,790.3z"/>
	<path class="st71" d="M534.7,91.2c0,4-3.3,7.3-7.3,7.3s-7.3-3.3-7.3-7.3s3.3-7.3,7.3-7.3C531.5,83.9,534.7,87.1,534.7,91.2z"/>
	<path class="st71" d="M851-3c0,4-3.3,7.3-7.3,7.3S836.4,1,836.4-3s3.3-7.3,7.3-7.3S851-7,851-3z"/>
	<path class="st71" d="M1429.7,113.1c0,4-3.3,7.3-7.3,7.3s-7.3-3.3-7.3-7.3s3.3-7.3,7.3-7.3S1429.7,109,1429.7,113.1z"/>
	<path class="st71" d="M1643,473.5c0,4-3.3,7.3-7.3,7.3s-7.3-3.3-7.3-7.3s3.3-7.3,7.3-7.3C1639.8,466.2,1643,469.4,1643,473.5z"/>
	<path class="st71" d="M1293.9,206.5c0,4-3.3,7.3-7.3,7.3s-7.3-3.3-7.3-7.3s3.3-7.3,7.3-7.3S1293.9,202.5,1293.9,206.5z"/>
	<path class="st71" d="M1618.2,189.2c0,4-3.3,7.3-7.3,7.3s-7.3-3.3-7.3-7.3s3.3-7.3,7.3-7.3C1614.9,181.9,1618.2,185.2,1618.2,189.2
		z"/>
	<path class="st71" d="M1792.8,378.8c0,4-3.3,7.3-7.3,7.3s-7.3-3.3-7.3-7.3s3.3-7.3,7.3-7.3C1789.6,371.5,1792.8,374.8,1792.8,378.8
		z"/>
	<path class="st71" d="M1792.8,132.6c0,4-3.3,7.3-7.3,7.3s-7.3-3.3-7.3-7.3s3.3-7.3,7.3-7.3C1789.6,125.3,1792.8,128.6,1792.8,132.6
		z"/>
	<path class="st71" d="M679.9,404.2c0,4-3.3,7.3-7.3,7.3s-7.3-3.3-7.3-7.3s3.3-7.3,7.3-7.3C676.6,396.9,679.9,400.2,679.9,404.2z"/>
	<path class="st71" d="M843.6,522.8c0,4-3.3,7.3-7.3,7.3s-7.3-3.3-7.3-7.3s3.3-7.3,7.3-7.3C840.4,515.4,843.6,518.7,843.6,522.8z"/>
	<path class="st71" d="M1064.1,537.3c0,4-3.3,7.3-7.3,7.3s-7.3-3.3-7.3-7.3s3.3-7.3,7.3-7.3C1060.8,530,1064.1,533.3,1064.1,537.3z"
		/>
	<path class="st71" d="M1256.3,494.5c0,4-3.3,7.3-7.3,7.3s-7.3-3.3-7.3-7.3s3.3-7.3,7.3-7.3S1256.3,490.5,1256.3,494.5z"/>
	<path class="st71" d="M1473,355.6c0,4-3.3,7.3-7.3,7.3s-7.3-3.3-7.3-7.3s3.3-7.3,7.3-7.3C1469.7,348.3,1473,351.6,1473,355.6z"/>
	<path class="st71" d="M661.7,501.8c0,4-3.3,7.3-7.3,7.3s-7.3-3.3-7.3-7.3s3.3-7.3,7.3-7.3C658.5,494.5,661.7,497.8,661.7,501.8z"/>
	<path class="st71" d="M643.7,230.8c0,4-3.3,7.3-7.3,7.3s-7.3-3.3-7.3-7.3s3.3-7.3,7.3-7.3S643.7,226.7,643.7,230.8z"/>
	<path class="st71" d="M354.8,219.9c0,4-3.3,7.3-7.3,7.3s-7.3-3.3-7.3-7.3s3.3-7.3,7.3-7.3C351.5,212.6,354.8,215.8,354.8,219.9z"/>
	<path class="st71" d="M270.8,58.3c0,4-3.3,7.3-7.3,7.3s-7.3-3.3-7.3-7.3s3.3-7.3,7.3-7.3C267.6,51,270.8,54.3,270.8,58.3z"/>
	<path class="st71" d="M443.8,329.5c0,4-3.3,7.3-7.3,7.3s-7.3-3.3-7.3-7.3s3.3-7.3,7.3-7.3S443.8,325.4,443.8,329.5z"/>
	<path class="st71" d="M293.5,433.9c0,4-3.3,7.3-7.3,7.3s-7.3-3.3-7.3-7.3s3.3-7.3,7.3-7.3S293.5,429.8,293.5,433.9z"/>
	<path class="st71" d="M519.9,426.6c0,4-3.3,7.3-7.3,7.3s-7.3-3.3-7.3-7.3s3.3-7.3,7.3-7.3C516.6,419.3,519.9,422.6,519.9,426.6z"/>
	<path class="st71" d="M1286.6,380.4c0,4-3.3,7.3-7.3,7.3s-7.3-3.3-7.3-7.3s3.3-7.3,7.3-7.3S1286.6,376.4,1286.6,380.4z"/>
	<path class="st52" d="M1109.8,102c0,16.3-6.7,18.2-6.7,18.2s6.7,1.8,6.7,18.2c0-16.3,6.7-18.2,6.7-18.2S1109.8,118.3,1109.8,102z"
		/>
	<path class="st52" d="M1625.2,425.8c0,16.3-6.7,18.2-6.7,18.2s6.7,1.8,6.7,18.2c0-16.3,6.7-18.2,6.7-18.2
		S1625.2,442.2,1625.2,425.8z"/>
	<path class="st52" d="M293,476.4c0,16.3-6.7,18.2-6.7,18.2s6.7,1.8,6.7,18.2c0-16.3,6.7-18.2,6.7-18.2S293,492.7,293,476.4z"/>
	<path class="st52" d="M601.9-30.1c0,24.4-10,27.1-10,27.1s10,2.7,10,27.1c0-24.4,10-27.1,10-27.1S601.9-5.7,601.9-30.1z"/>
	<path class="st52" d="M1293.9-30.1c0,24.4-10,27.1-10,27.1s10,2.7,10,27.1c0-24.4,10-27.1,10-27.1S1293.9-5.7,1293.9-30.1z"/>
	<path class="st52" d="M1647.8,18.7c0,24.4-10,27.1-10,27.1s10,2.7,10,27.1c0-24.4,10-27.1,10-27.1S1647.8,43.1,1647.8,18.7z"/>
	<path class="st52" d="M1087.5,482c0,24.4-10,27.1-10,27.1s10,2.7,10,27.1c0-24.4,10-27.1,10-27.1S1087.5,506.4,1087.5,482z"/>
	<path class="st52" d="M387.2,105.5c0,24.4-10,27.1-10,27.1s10,2.7,10,27.1c0-24.4,10-27.1,10-27.1S387.2,129.9,387.2,105.5z"/>
	<path class="st52" d="M144.9,295c0,24.4-10,27.1-10,27.1s10,2.7,10,27.1c0-24.4,10-27.1,10-27.1S144.9,319.4,144.9,295z"/>
	<path class="st52" d="M762.5,120c0,24.4-10,27.1-10,27.1s10,2.7,10,27.1c0-24.4,10-27.1,10-27.1S762.5,144.4,762.5,120z"/>
	<path class="st52" d="M1884.9,144.8c0,24.4-10,27.1-10,27.1s10,2.7,10,27.1c0-24.4,10-27.1,10-27.1S1884.9,169.2,1884.9,144.8z"/>
	<path class="st52" d="M1293.9,419.3c0,24.4-10,27.1-10,27.1s10,2.7,10,27.1c0-24.4,10-27.1,10-27.1S1293.9,443.6,1293.9,419.3z"/>
	<path class="st52" d="M1499.1,201.4c0,24.4-10,27.1-10,27.1s10,2.7,10,27.1c0-24.4,10-27.1,10-27.1S1499.1,225.7,1499.1,201.4z"/>
	<g>
		<g>
			<defs>
				<rect id="SVGID_38_" x="1167.5" y="577" width="204" height="238"/>
			</defs>
			<clipPath id="SVGID_39_">
				<use xlink:href="#SVGID_38_"  style="overflow:visible;"/>
			</clipPath>
			<g class="st72">
				<path class="st34" d="M1271.8,810c21.7,0,39.4-4.2,39.4-9.3s-17.6-9.3-39.4-9.3c-21.7,0-39.4,4.2-39.4,9.3
					S1250.1,810,1271.8,810z"/>
				
					<linearGradient id="SVGID_40_" gradientUnits="userSpaceOnUse" x1="1198.6949" y1="192.4607" x2="1339.7837" y2="51.967" gradientTransform="matrix(1 0 0 1 0 568)">
					<stop  offset="0" style="stop-color:#BBBDBF"/>
					<stop  offset="0.5832" style="stop-color:#DDDEDF"/>
					<stop  offset="1" style="stop-color:#F1F1F2"/>
				</linearGradient>
				<path class="st73" d="M1269.8,799.3c0,0,68.3,4.9,82.6-84.9c0.4-2.4,0.6-4.8,0.7-7.2c0.5-20.7-2.2-123.6-83.4-130.2h-0.2
					c-83.5,5.8-83.9,109.5-83.5,130.2c0.1,2.4,0.3,4.8,0.7,7.2c14.3,89.8,82.7,84.9,82.7,84.9H1269.8z"/>
				<path class="st36" d="M1367.5,815h-14.4c0,0-28.5-61.3-83.6-59.2c-55.1-2-83.6,59.2-83.6,59.2h-14.4
					c-13.7-45,11.7-94.3,15.1-100.6c0.7,4.1-3.2,18.9,82.9,18.9s81.9-14.6,82.8-18.3C1355.7,721.3,1381.2,770,1367.5,815z"/>
				<path class="st37" d="M1269.7,714.4c-0.1,0.1-0.2,0.3-0.3,0.6C1269.5,714.7,1269.6,714.5,1269.7,714.4z"/>
				<path class="st37" d="M1269.7,715.1c-0.2-0.3-0.3-0.5-0.3-0.6C1269.4,714.5,1269.5,714.7,1269.7,715.1z"/>
				<path class="st38" d="M1315.9,676.7c0,23.1-16.8,41.8-46.4,41.8c-29.5,0-46.4-18.7-46.4-41.8s16.8-41.8,46.4-41.8
					C1299,634.8,1315.9,653.6,1315.9,676.7z"/>
				<path class="st39" d="M1268.9,672.7c-18.9,0-35.1,9.2-41.5,22.2c6.5,13,23.6,24,42.5,24s35.6-11.3,42.1-24.3
					C1305.5,681.7,1287.8,672.7,1268.9,672.7z"/>
				<path class="st40" d="M1256,679.5c3.1,0,5.6-5.1,5.6-11.3s-2.5-11.3-5.6-11.3s-5.6,5.1-5.6,11.3S1252.9,679.5,1256,679.5z"/>
				<path class="st40" d="M1286.7,679.5c3.1,0,5.6-5.1,5.6-11.3s-2.5-11.3-5.6-11.3s-5.6,5.1-5.6,11.3
					C1281.1,674.5,1283.6,679.5,1286.7,679.5z"/>
				<path class="st41" d="M1294.8,647.7c1.3,0,2.4-1.1,2.4-2.4c0-1.3-1.1-2.4-2.4-2.4s-2.4,1.1-2.4,2.4
					C1292.5,646.7,1293.5,647.7,1294.8,647.7z"/>
				<path class="st42" d="M1305,659.2c-0.7-0.1-1.3-0.6-1.6-1.3c-1.3-3.5-5.4-6.6-5.4-6.6c-0.9-0.6-1.1-1.9-0.4-2.8
					c0.6-0.9,1.9-1.1,2.8-0.4c0.2,0.1,5.2,3.8,6.8,8.4c0.4,1-0.1,2.2-1.2,2.5C1305.6,659.2,1305.3,659.2,1305,659.2z"/>
				<path class="st43" d="M1185.9,815l5.8-2c0,0,26.3-52.3,77.8-57.3C1269.5,755.8,1219,749.7,1185.9,815z"/>
				<path class="st43" d="M1353.3,815l-5.8-2c0,0-26.3-52.3-77.8-57.3C1269.7,755.8,1320.2,749.7,1353.3,815z"/>
				<path class="st44" d="M1229.8,782.2l19-0.6c0,0,18.4,12.7,60,3.2C1308.8,784.8,1267.2,807.8,1229.8,782.2z"/>
				
					<linearGradient id="SVGID_41_" gradientUnits="userSpaceOnUse" x1="1179.8519" y1="189.9577" x2="1165.8035" y2="180.1624" gradientTransform="matrix(1 0 0 1 0 568)">
					<stop  offset="0" style="stop-color:#BBBDBF"/>
					<stop  offset="0.5832" style="stop-color:#DDDEDF"/>
					<stop  offset="1" style="stop-color:#F1F1F2"/>
				</linearGradient>
				<path class="st74" d="M1171.3,740.3l7-8.8l4.7,11.8l-15.1,31.7L1171.3,740.3z"/>
				<path class="st46" d="M1178.3,731.5l1.6,11.3l-12,32.3l15.1-31.7L1178.3,731.5z"/>
				
					<linearGradient id="SVGID_42_" gradientUnits="userSpaceOnUse" x1="1359.0208" y1="189.817" x2="1373.0792" y2="180.0161" gradientTransform="matrix(1 0 0 1 0 568)">
					<stop  offset="0" style="stop-color:#BBBDBF"/>
					<stop  offset="0.5832" style="stop-color:#DDDEDF"/>
					<stop  offset="1" style="stop-color:#F1F1F2"/>
				</linearGradient>
				<path class="st75" d="M1367.7,740.3l-7.7-8.7l-4.1,11.7L1371,775L1367.7,740.3z"/>
				<path class="st46" d="M1360,731.6l-1,11.1l12,32.3l-15.1-31.7L1360,731.6z"/>
				<g class="st48">
					<path class="st49" d="M1298,609.2c1.4,3.8,2.1,11.3,2.3,13.6c0,0.4,0.3,0.7,0.8,0.7c11.7,0.8,14.4-4.6,15-6.4
						c0.1-0.3,0-0.6-0.2-0.9c-4.7-4-10.6-7.3-12.5-8.4c-0.3-0.2-0.7-0.1-0.9,0.1c-0.4,0.5-1.5,1.1-4,1.1L1298,609.2L1298,609.2z"/>
					<path class="st49" d="M1301.1,602c-0.4-0.5-2-2.2-5.8-3.3c-0.1,0-0.2-0.1-0.2-0.2l-3.2-8.4c-0.1-0.3,0.1-0.5,0.4-0.5
						c2.3,0.5,10.6,2.7,17.9,10c0.2,0.2,0.1,0.5-0.2,0.6c-1.5,0.3-5.4,1-8.5,1.9C1301.3,602.2,1301.2,602.2,1301.1,602z"/>
					<path class="st49" d="M1289.2,600.4c-0.1,2,0.5,3.5,1,4.3c0.2,0.4,0,0.8-0.4,1c-2.4,0.8-9.5,3.3-12.4,4.9
						c-0.3,0.2-0.7,0.1-0.9-0.2c-1.5-2.1-6.9-10.7-2.5-16.5c0.2-0.2,0.5-0.3,0.8-0.2c1.9,0.7,9.1,3.3,14.1,6.3l0.1,0.1l0.2,0.2
						L1289.2,600.4z"/>
					<path class="st49" d="M1299.9,606.2c0.8-1.2-0.2-3.3-2.3-4.8c-2.1-1.4-4.4-1.6-5.2-0.5c-0.8,1.2,0.2,3.3,2.3,4.8
						C1296.8,607.2,1299.1,607.4,1299.9,606.2z"/>
				</g>
			</g>
		</g>
	</g>
	
		<radialGradient id="SVGID_43_" cx="1322.4122" cy="-250.486" r="1" gradientTransform="matrix(1.203216e-14 196.5 -196.5 1.203216e-14 -47813.5039 -259563.5)" gradientUnits="userSpaceOnUse">
		<stop  offset="0" style="stop-color:#C4C4C4"/>
		<stop  offset="1" style="stop-color:#C4C4C4;stop-opacity:0"/>
	</radialGradient>
	<circle class="st76" cx="1407" cy="290.5" r="196.5"/>
	<path class="st71" d="M104.3,462.2c0,4-3.3,7.3-7.3,7.3s-7.3-3.3-7.3-7.3s3.3-7.3,7.3-7.3C101.1,454.9,104.3,458.1,104.3,462.2z"/>
	<path class="st71" d="M185.2,166.3c0,4-3.3,7.3-7.3,7.3s-7.3-3.3-7.3-7.3s3.3-7.3,7.3-7.3S185.2,162.3,185.2,166.3z"/>
	<path class="st71" d="M44.2,222.1c0,4-3.3,7.3-7.3,7.3s-7.3-3.3-7.3-7.3s3.3-7.3,7.3-7.3C41,214.8,44.2,218.1,44.2,222.1z"/>
</g>
<g id="Layer_1_1_">
	<g class="st77">
		<path class="st78" d="M1420.9,371.9c20.7,54.1,30.5,162.3,33.1,195.4c0.4,5.7,5,10.2,10.7,10.6c168.3,11.7,207.1-66.6,215.1-91.8
			c1.4-4.4,0.1-9.2-3.5-12.2c-66.9-57.1-152.1-105.3-179.8-120.3c-4.5-2.4-10.1-1.7-13.6,2c-6.5,6.8-21.8,16.2-56.9,15.2h-5.8
			L1420.9,371.9z"/>
		<path class="st78" d="M1464.9,268.9c-6.1-7.9-27.9-30.9-83.2-47.6c-1.5-0.4-2.7-1.5-3.2-3l-45.2-120.4c-1.4-3.7,1.8-7.5,5.7-6.6
			c33,7,152.6,38.5,256.3,143.6c2.8,2.8,1.3,7.7-2.7,8.4c-21.8,3.8-77.7,14.2-122.3,27.4C1468.3,271.1,1466.2,270.5,1464.9,268.9z"
			/>
		<path class="st78" d="M1294.8,245.8c-2,28.8,7.2,50.5,13.8,62.3c3,5.3,0.5,11.9-5.2,13.9c-34.6,12-136.2,47.9-178.2,70
			c-4.3,2.3-9.6,1-12.4-3c-21.4-30.7-99.6-153.8-36-236.2c2.6-3.3,7-4.6,10.9-3.2c26.7,9.5,131.2,47.8,201.8,90.3
			c0.7,0.4,1.3,0.9,1.9,1.5l2.5,2.5L1294.8,245.8z"/>
		<path class="st78" d="M1449,328.3c11.7-17-3-47.5-32.8-68.2c-29.8-20.6-63.5-23.6-75.2-6.6s3,47.5,32.8,68.2
			C1403.6,342.3,1437.3,345.3,1449,328.3z"/>
	</g>
	<path class="st52" d="M1488.9,367.5c50.8-50.8,50.8-133.2,0-184s-133.2-50.8-184,0s-50.8,133.2,0,184
		C1355.7,418.3,1438,418.3,1488.9,367.5z"/>
	<path class="st79" d="M1419.2,364.6c10.2-8.5,11.5-23.7,3-33.9c-8.5-10.2-23.7-11.5-33.9-3c-10.2,8.5-11.5,23.7-3,33.9
		C1393.8,371.8,1409,373.1,1419.2,364.6z"/>
	<path class="st80" d="M1381.5,348.4c0-13.3,10.8-24,24-24c7,0,13.2,3,17.6,7.7c-4.4-6-11.4-10-19.5-10c-13.3,0-24,10.8-24,24
		c0,6.3,2.5,12,6.4,16.3C1383.2,358.6,1381.5,353.7,1381.5,348.4z"/>
	<path class="st79" d="M1353.8,254.5c1.2-18.3-12.7-34-31-35.2s-34,12.7-35.2,31s12.7,34,31,35.2
		C1336.9,286.6,1352.6,272.7,1353.8,254.5z"/>
	<path class="st80" d="M1290.1,255.5c0-18.3,14.8-33.2,33.2-33.2c9.6,0,18.2,4.1,24.3,10.6c-6-8.3-15.8-13.7-26.8-13.7
		c-18.3,0-33.2,14.8-33.2,33.2c0,8.7,3.4,16.6,8.9,22.5C1292.4,269.4,1290.1,262.7,1290.1,255.5z"/>
	<path class="st79" d="M1464.6,220.4c7.8,0,14.1-6.3,14.1-14.1s-6.3-14.1-14.1-14.1c-7.8,0-14.1,6.3-14.1,14.1
		S1456.8,220.4,1464.6,220.4z"/>
	<path class="st80" d="M1451.6,207.6c0-7.8,6.3-14.1,14.1-14.1c4.1,0,7.8,1.8,10.3,4.5c-2.6-3.5-6.7-5.8-11.4-5.8
		c-7.8,0-14.1,6.3-14.1,14.1c0,3.7,1.4,7.1,3.8,9.6C1452.6,213.5,1451.6,210.7,1451.6,207.6z"/>
	<path class="st79" d="M1400.3,183.5c2.2-9.4-3.6-18.9-13-21.1c-9.4-2.2-18.9,3.6-21.1,13s3.6,18.9,13,21.1
		C1388.7,198.7,1398.1,192.9,1400.3,183.5z"/>
	<path class="st80" d="M1367.1,181.1c0-9.7,7.9-17.5,17.5-17.5c5.1,0,9.6,2.2,12.8,5.6c-3.2-4.4-8.3-7.2-14.2-7.2
		c-9.7,0-17.5,7.9-17.5,17.5c0,4.6,1.8,8.8,4.7,11.9C1368.4,188.5,1367.1,184.9,1367.1,181.1z"/>
	<path class="st79" d="M1409,174.5c-4.5,0-8.2-3.7-8.2-8.2s3.7-8.2,8.2-8.2s8.2,3.7,8.2,8.2S1413.5,174.5,1409,174.5z"/>
	<path class="st80" d="M1401.5,167.1c0-4.5,3.7-8.2,8.2-8.2c2.4,0,4.5,1,6,2.6c-1.5-2.1-3.9-3.4-6.6-3.4c-4.5,0-8.2,3.7-8.2,8.2
		c0,2.1,0.8,4.1,2.2,5.6C1402,170.5,1401.5,168.9,1401.5,167.1z"/>
	<path class="st79" d="M1279.3,283.7c-4.5,0-8.2-3.7-8.2-8.2s3.7-8.2,8.2-8.2s8.2,3.7,8.2,8.2
		C1287.5,280.1,1283.9,283.7,1279.3,283.7z"/>
	<path class="st80" d="M1271.8,276.3c0-4.5,3.7-8.2,8.2-8.2c2.4,0,4.5,1,6,2.6c-1.5-2.1-3.9-3.4-6.6-3.4c-4.5,0-8.2,3.7-8.2,8.2
		c0,2.1,0.8,4.1,2.2,5.6C1272.3,279.8,1271.8,278.1,1271.8,276.3z"/>
	<path class="st79" d="M1324.9,215.9c-2.3,0-4.1-1.8-4.1-4.1s1.8-4.1,4.1-4.1c2.3,0,4.1,1.8,4.1,4.1
		C1329,214,1327.2,215.9,1324.9,215.9z"/>
	<path class="st80" d="M1321.2,212.1c0-2.3,1.8-4.1,4.1-4.1c1.2,0,2.3,0.5,3,1.3c-0.7-1-2-1.7-3.3-1.7c-2.3,0-4.1,1.8-4.1,4.1
		c0,1.1,0.4,2.1,1.1,2.8C1321.4,213.9,1321.2,213,1321.2,212.1z"/>
	<path class="st79" d="M1296.2,291.9c-2.3,0-4.1-1.8-4.1-4.1c0-2.3,1.8-4.1,4.1-4.1s4.1,1.8,4.1,4.1
		C1300.3,290.1,1298.4,291.9,1296.2,291.9z"/>
	<path class="st80" d="M1292.4,288.2c0-2.3,1.8-4.1,4.1-4.1c1.2,0,2.3,0.5,3,1.3c-0.7-1-2-1.7-3.3-1.7c-2.3,0-4.1,1.8-4.1,4.1
		c0,1.1,0.4,2.1,1.1,2.8C1292.7,289.9,1292.4,289.1,1292.4,288.2z"/>
	<path class="st79" d="M1436,343.3c-2.3,0-4.1-1.8-4.1-4.1c0-2.3,1.8-4.1,4.1-4.1c2.3,0,4.1,1.8,4.1,4.1
		C1440.1,341.4,1438.2,343.3,1436,343.3z"/>
	<path class="st81" d="M1432.2,339.5c0-2.3,1.8-4.1,4.1-4.1c1.2,0,2.3,0.5,3,1.3c-0.7-1-2-1.7-3.3-1.7c-2.3,0-4.1,1.8-4.1,4.1
		c0,1.1,0.4,2.1,1.1,2.8C1432.5,341.3,1432.2,340.4,1432.2,339.5z"/>
	<path class="st79" d="M1463.3,230.3c-2.3,0-4.1-1.8-4.1-4.1s1.8-4.1,4.1-4.1s4.1,1.8,4.1,4.1
		C1467.3,228.5,1465.5,230.3,1463.3,230.3z"/>
	<path class="st80" d="M1459.5,226.6c0-2.3,1.8-4.1,4.1-4.1c1.2,0,2.3,0.5,3,1.3c-0.7-1-2-1.7-3.3-1.7c-2.3,0-4.1,1.8-4.1,4.1
		c0,1.1,0.4,2.1,1.1,2.8C1459.8,228.3,1459.5,227.5,1459.5,226.6z"/>
	<path class="st79" d="M1503.1,263.7c-4.5,0-8.2-3.7-8.2-8.2c0-4.5,3.7-8.2,8.2-8.2s8.2,3.7,8.2,8.2
		C1511.3,260.1,1507.6,263.7,1503.1,263.7z"/>
	<path class="st80" d="M1495.5,256.3c0-4.5,3.7-8.2,8.2-8.2c2.4,0,4.5,1,6,2.6c-1.5-2.1-3.9-3.4-6.6-3.4c-4.5,0-8.2,3.7-8.2,8.2
		c0,2.1,0.8,4.1,2.2,5.6C1496.1,259.7,1495.5,258.1,1495.5,256.3z"/>
	<path class="st79" d="M1450.5,381.4c-4.5,0-8.2-3.7-8.2-8.2s3.7-8.2,8.2-8.2s8.2,3.7,8.2,8.2C1458.7,377.8,1455,381.4,1450.5,381.4
		z"/>
	<path class="st80" d="M1442.9,374c0-4.5,3.7-8.2,8.2-8.2c2.4,0,4.5,1,6,2.6c-1.5-2.1-3.9-3.4-6.6-3.4c-4.5,0-8.2,3.7-8.2,8.2
		c0,2.1,0.8,4.1,2.2,5.6C1443.5,377.4,1442.9,375.8,1442.9,374z"/>
	<path class="st79" d="M1437.3,329.8c7.3,0,13.2-5.9,13.2-13.2s-5.9-13.2-13.2-13.2c-7.3,0-13.2,5.9-13.2,13.2
		S1429.9,329.8,1437.3,329.8z"/>
	<path class="st80" d="M1425,317.8c0-7.3,5.9-13.2,13.2-13.2c3.8,0,7.3,1.6,9.7,4.3c-2.4-3.3-6.3-5.5-10.7-5.5
		c-7.3,0-13.2,5.9-13.2,13.2c0,3.5,1.3,6.6,3.5,9C1426,323.3,1425,320.7,1425,317.8z"/>
	<path class="st79" d="M1355.6,365c7.3,0,13.2-5.9,13.2-13.2s-5.9-13.2-13.2-13.2s-13.2,5.9-13.2,13.2S1348.3,365,1355.6,365z"/>
	<path class="st80" d="M1343.4,353c0-7.3,5.9-13.2,13.2-13.2c3.8,0,7.3,1.6,9.7,4.3c-2.4-3.3-6.3-5.5-10.7-5.5
		c-7.3,0-13.2,5.9-13.2,13.2c0,3.5,1.3,6.6,3.5,9C1344.3,358.6,1343.4,355.9,1343.4,353z"/>
	<path class="st82" d="M1368.1,355.5c-34-0.2-65.4-11-91.1-29.3c19.7,46.5,65.6,79.2,119.3,79.4c71.9,0.3,130.4-57.7,130.7-129.5
		c0.1-12.9-1.8-25.3-5.2-37.1C1503.2,306.5,1441.4,355.9,1368.1,355.5z"/>
	<path class="st82" d="M1378.9,378.9c-32.2-0.2-62.1-9.9-87-26.5c23.6,32.1,61.5,53,104.3,53.2c70.8,0.3,128.6-55.9,130.6-126.3
		C1503.4,338,1445.9,379.2,1378.9,378.9z"/>
</g>
</svg>
