<svg width="683" height="286" viewBox="0 0 683 286" fill="none" xmlns="http://www.w3.org/2000/svg">
<path d="M341.969 592.206C341.969 592.206 570.22 608.759 618.189 307.203C619.466 299.241 620.195 291.201 620.404 283.135C622.019 213.533 613.16 -131.85 341.396 -154H340.718C61.5542 -134.399 60.095 213.533 61.7105 283.135C61.8929 291.201 62.6485 299.241 63.9253 307.203C111.894 608.759 340.458 592.18 340.458 592.18L341.969 592.206Z" fill="url(#paint0_linear)"/>
<path d="M496.066 180.559C496.066 258.096 439.759 320.867 341.006 320.867C242.254 320.867 185.999 258.096 185.999 180.559C185.999 103.021 242.254 40.0932 341.006 40.0932C439.759 40.0932 496.066 103.021 496.066 180.559Z" fill="#262635"/>
<path d="M339.004 167.21C275.766 167.21 221.778 198.162 200.151 241.805C221.778 285.447 279.101 322.416 342.339 322.416C405.577 322.416 461.415 284.607 483.042 240.964C461.441 197.348 402.216 167.21 339.004 167.21Z" fill="#363649"/>
<path d="M295.745 190.129C306.005 190.129 314.323 173.154 314.323 152.214C314.323 131.274 306.005 114.299 295.745 114.299C285.484 114.299 277.167 131.274 277.167 152.214C277.167 173.154 285.484 190.129 295.745 190.129Z" fill="#42E8E0"/>
<path d="M398.512 190.123C408.773 190.123 417.09 173.148 417.09 152.208C417.09 131.269 408.773 114.294 398.512 114.294C388.252 114.294 379.934 131.269 379.934 152.208C379.934 173.148 388.252 190.123 398.512 190.123Z" fill="#42E8E0"/>
<path opacity="0.4" d="M425.686 83.499C430.06 83.499 433.607 79.9228 433.607 75.5114C433.607 71.1 430.06 67.5238 425.686 67.5238C421.311 67.5238 417.765 71.1 417.765 75.5114C417.765 79.9228 421.311 83.499 425.686 83.499Z" fill="white"/>
<path opacity="0.4" d="M459.559 121.835C457.187 121.519 455.103 119.917 454.217 117.499C449.97 105.728 436.16 95.5073 436.03 95.4022C433.086 93.2476 432.408 89.0699 434.545 86.1009C436.681 83.1056 440.824 82.4487 443.769 84.6032C444.472 85.1024 460.992 97.294 466.646 112.954C467.897 116.422 466.125 120.232 462.685 121.493C461.643 121.861 460.575 121.966 459.559 121.835Z" fill="#FCFDFF"/>
<g opacity="0.39">
<path opacity="0.39" d="M436.268 -45.7982C441.088 -33.16 443.381 -7.83098 443.981 -0.106171C444.085 1.23385 445.153 2.28484 446.482 2.36366C485.696 5.09625 494.738 -13.2173 496.614 -19.1029C496.952 -20.1276 496.64 -21.2574 495.806 -21.9669C480.224 -35.3145 460.37 -46.5864 453.908 -50.1072C452.866 -50.6853 451.563 -50.5014 450.755 -49.6343C449.244 -48.0315 445.674 -45.8507 437.493 -46.0872H436.138L436.268 -45.7982Z" fill="white"/>
</g>
<defs>
<linearGradient id="paint0_linear" x1="105.15" y1="462.918" x2="578.804" y2="-6.79049" gradientUnits="userSpaceOnUse">
<stop stop-color="#BBBDBF"/>
<stop offset="0.5832" stop-color="#DDDEDF"/>
<stop offset="1" stop-color="#F1F1F2"/>
</linearGradient>
</defs>
</svg>
