<svg width="32" height="33" viewBox="0 0 32 33" fill="none" xmlns="http://www.w3.org/2000/svg">
<path d="M28.125 0.75C29.0391 0.75 29.8125 1.10156 30.5156 1.73438C31.1484 2.4375 31.5 3.21094 31.5 4.125V28.875C31.5 29.8594 31.1484 30.6328 30.5156 31.2656C29.8125 31.9688 29.0391 32.25 28.125 32.25H3.375C2.39062 32.25 1.61719 31.9688 0.984375 31.2656C0.28125 30.6328 0 29.8594 0 28.875V4.125C0 3.21094 0.28125 2.4375 0.984375 1.73438C1.61719 1.10156 2.39062 0.75 3.375 0.75H28.125ZM24.6797 11.9297C25.5234 11.2969 26.2969 10.5234 27 9.53906C26.0859 9.96094 25.1719 10.1719 24.3281 10.2422C25.3125 9.67969 25.9453 8.83594 26.3672 7.71094C25.3828 8.27344 24.3984 8.69531 23.4141 8.83594C22.5 7.85156 21.375 7.35938 20.1094 7.35938C19.125 7.35938 18.2812 7.64062 17.5078 8.13281C16.7344 8.69531 16.1719 9.39844 15.8203 10.2422C15.3984 11.0859 15.3281 12.0703 15.6094 13.0547C13.6406 12.9844 11.8828 12.4922 10.2656 11.6484C8.57812 10.8047 7.17188 9.60938 6.04688 8.20312C5.625 8.90625 5.41406 9.67969 5.41406 10.5234C5.41406 11.3672 5.55469 12.0703 5.97656 12.7734C6.32812 13.4766 6.82031 13.9688 7.52344 14.3906C6.75 14.3906 6.04688 14.1797 5.41406 13.7578V13.8281C5.41406 14.9531 5.76562 15.9375 6.46875 16.7812C7.17188 17.625 8.01562 18.1875 9.14062 18.3984C8.4375 18.5391 7.73438 18.6094 7.03125 18.4688C7.3125 19.4531 7.80469 20.2266 8.64844 20.7891C9.42188 21.3516 10.3359 21.6328 11.3203 21.6328C9.63281 22.9688 7.73438 23.6016 5.625 23.6016H4.5C6.60938 25.0078 9 25.6406 11.6016 25.6406C14.2734 25.6406 16.6641 25.0078 18.7734 23.6016C20.6016 22.4062 22.0781 20.7188 23.2031 18.6094C24.1875 16.6406 24.6797 14.6016 24.6797 12.4922V11.9297Z" fill="white"/>
</svg>
