<?xml version="1.0" encoding="utf-8"?>
<!-- Generator: Adobe Illustrator 26.0.1, SVG Export Plug-In . SVG Version: 6.00 Build 0)  -->
<svg version="1.1" id="Layer_1" xmlns="http://www.w3.org/2000/svg" xmlns:xlink="http://www.w3.org/1999/xlink" x="0px" y="0px"
	 viewBox="0 0 1920 1080" style="enable-background:new 0 0 1920 1080;" xml:space="preserve">
<style type="text/css">
	.st0{fill:#00A86B;}
	.st1{fill:#50C878;}
	.st2{enable-background:new    ;}
</style>
<g>
	<g>
		<rect x="523.8" y="331.9" class="st0" width="89.9" height="227"/>
		<rect x="134.1" y="520.2" class="st1" width="89.9" height="227"/>
		<path class="st0" d="M373.9,317.6c-132.4,0-239.8,108-239.8,241.2S241.5,800,373.9,800s239.8-108,239.8-241.2
			S506.4,317.6,373.9,317.6z M373.9,709.6c-82.8,0-149.9-67.5-149.9-150.7s67.1-150.7,149.9-150.7s149.9,67.5,149.9,150.7
			S456.7,709.6,373.9,709.6z"/>
		<path class="st1" d="M373.9,279c-132.4,0-239.8,108-239.8,241.2s107.4,241.2,239.8,241.2s239.8-108,239.8-241.2
			S506.4,279,373.9,279z M373.9,670.9c-82.8,0-149.9-67.5-149.9-150.7s67.1-150.7,149.9-150.7s149.9,67.5,149.9,150.7
			S456.7,670.9,373.9,670.9z"/>
	</g>
	<g class="st2">
		<path d="M893.2,421.3c16.7,7.6,29.6,18.3,38.6,32.2c9,13.9,13.5,30.3,13.5,49.4c0,18.8-4.5,35.2-13.5,49.2
			c-9,14-21.9,24.7-38.6,32.2c-16.7,7.4-36.4,11.2-59.1,11.2h-51.6v70.6h-59.2V410h110.8C856.8,410,876.5,413.7,893.2,421.3z
			 M871.5,535.6c9.3-7.7,13.9-18.6,13.9-32.7c0-14.4-4.6-25.4-13.9-33.1c-9.3-7.7-22.8-11.5-40.6-11.5h-48.3v88.8h48.3
			C848.7,547.1,862.2,543.2,871.5,535.6z"/>
	</g>
	<g class="st2">
		<path d="M1156.7,419.5c17.6,9.3,31.2,22.9,41,41c9.7,18,14.6,39.9,14.6,65.4v140H1153v-61.4h-117v61.4h-58.5v-140
			c0-25.6,4.9-47.4,14.6-65.4c9.7-18,23.4-31.7,41-41c17.5-9.3,38.1-13.9,61.8-13.9C1118.5,405.6,1139.1,410.2,1156.7,419.5z
			 M1153,556.9v-36.6c0-21.2-5.2-37.2-15.7-48.1c-10.5-10.8-24.7-16.3-42.8-16.3c-18.3,0-32.6,5.4-43,16.3
			c-10.4,10.8-15.5,26.9-15.5,48.1v36.6H1153z"/>
	</g>
	<g class="st2">
		<path d="M1477.7,410v175.9c0,38.5-10.7,68.1-32.2,88.7c-21.5,20.6-51.1,30.9-88.8,30.9c-21.7,0-41.6-3-59.6-9
			c-18-6-33.4-14.4-46.1-25.4l23-43.9c23.2,18.8,50.2,28.2,81.2,28.2c21.4,0,37.4-5.4,47.7-16.3c10.4-10.8,15.5-27.6,15.5-50.3V573
			c-17.1,21-41.2,31.4-72.4,31.4c-32.4,0-57.3-9.2-74.8-27.6c-17.4-18.4-26.1-44.9-26.1-79.5V410h59.2v83.7c0,20,4.8,35.1,14.3,45.3
			c9.5,10.2,22.9,15.4,40.2,15.4c18.3,0,32.8-5.4,43.5-16.1c10.7-10.7,16.1-26.9,16.1-48.6V410H1477.7z"/>
	</g>
	<g class="st2">
		<path d="M1514.2,410h116.3c27.8,0,52.3,5.3,73.7,15.9c21.3,10.6,37.9,25.5,49.7,44.8c11.8,19.3,17.7,41.7,17.7,67.3
			c0,25.6-5.9,48-17.7,67.3c-11.8,19.3-28.4,34.2-49.7,44.8c-21.3,10.6-45.9,15.9-73.7,15.9h-116.3V410z M1627.6,617.3
			c25.6,0,46-7.1,61.2-21.4c15.2-14.3,22.9-33.6,22.9-58c0-24.4-7.6-43.7-22.9-58c-15.2-14.3-35.6-21.4-61.2-21.4h-54.1v158.7
			H1627.6z"/>
	</g>
</g>
</svg>
