<svg width="50" height="43" viewBox="0 0 50 43" fill="none" xmlns="http://www.w3.org/2000/svg">
<path d="M3.30185 21.4897C3.30185 21.4897 2.26594 35.8332 21.1376 38.8477C21.6358 38.9279 22.139 38.9737 22.6438 38.9868C26.9995 39.0884 48.6139 38.5317 50 21.4537L50 21.4111C48.7734 3.86808 26.9995 3.77639 22.6438 3.87791C22.139 3.88937 21.6358 3.93685 21.1376 4.01709C2.26594 7.03152 3.30349 21.3947 3.30349 21.3947L3.30185 21.4897Z" fill="url(#paint0_linear_456_778)"/>
<path d="M-3.99835e-05 42.016L-3.98514e-05 38.9934C-3.98514e-05 38.9934 12.8715 33.0005 12.4457 21.4291C12.8732 9.85762 -3.83159e-05 3.86477 -3.83159e-05 3.86477L-3.81839e-05 0.843788C9.44976 -2.02983 19.8138 3.29988 21.1375 4.01542C20.2824 4.16278 17.1632 3.34245 17.1632 21.4291C17.1632 39.5157 20.2216 38.6413 21.0174 38.828C19.6938 39.5435 9.4514 44.8896 -3.99835e-05 42.016Z" fill="#1B134E"/>
<path d="M21.1294 21.4665C21.1114 21.4567 21.0655 21.4322 20.9967 21.3947C21.0655 21.4241 21.1114 21.4534 21.1294 21.4665Z" stroke="#270D0D" stroke-miterlimit="10"/>
<path d="M20.9967 21.4665C21.0655 21.429 21.1114 21.4045 21.1294 21.3947C21.1114 21.4077 21.0655 21.4371 20.9967 21.4665Z" stroke="#270D0D" stroke-miterlimit="10"/>
<path d="M29.0631 31.1733C24.2107 31.1733 20.2825 27.6349 20.2825 21.4292C20.2825 15.2235 24.2107 11.6883 29.0631 11.6883C33.9154 11.6883 37.8535 15.2235 37.8535 21.4292C37.8535 27.6349 33.9154 31.1733 29.0631 31.1733Z" fill="#262635"/>
<path d="M29.8984 21.3032C29.8984 17.3292 27.9615 13.9366 25.2303 12.5775C22.4991 13.9366 20.1856 17.5388 20.1856 21.5128C20.1856 25.4867 22.5517 28.9956 25.2829 30.3547C28.0124 28.9973 29.8984 25.2755 29.8984 21.3032Z" fill="#363649"/>
<path d="M28.4633 18.5849C28.4633 19.2297 29.5256 19.7524 30.836 19.7524C32.1464 19.7524 33.2087 19.2297 33.2087 18.5849C33.2087 17.9402 32.1464 17.4175 30.836 17.4175C29.5256 17.4175 28.4633 17.9402 28.4633 18.5849Z" fill="#42E8E0"/>
<path d="M28.4645 25.0429C28.4645 25.6877 29.5268 26.2104 30.8372 26.2104C32.1477 26.2104 33.21 25.6877 33.21 25.0429C33.21 24.3981 32.1477 23.8754 30.8372 23.8754C29.5268 23.8754 28.4645 24.3981 28.4645 25.0429Z" fill="#42E8E0"/>
<path opacity="0.4" d="M35.1372 26.7506C35.1372 27.0255 35.361 27.2484 35.6371 27.2484C35.9132 27.2484 36.137 27.0255 36.137 26.7506C36.137 26.4757 35.9132 26.2529 35.6371 26.2529C35.361 26.2529 35.1372 26.4757 35.1372 26.7506Z" fill="white"/>
<path opacity="0.4" d="M32.738 28.8791C32.7577 28.7301 32.858 28.5991 33.0093 28.5435C33.7459 28.2766 34.3856 27.4088 34.3922 27.4006C34.527 27.2155 34.7884 27.173 34.9742 27.3072C35.1617 27.4415 35.2028 27.7019 35.068 27.8869C35.0367 27.9311 34.2738 28.9692 33.2938 29.3245C33.0767 29.4031 32.8383 29.2918 32.7594 29.0756C32.7363 29.0101 32.7298 28.943 32.738 28.8791Z" fill="#FCFDFF"/>
<path d="M1.04904e-05 3.86464L0.414371 5.08122C0.414371 5.08122 11.4082 10.6123 12.4473 21.4306C12.4473 21.4306 13.72 10.8154 1.04904e-05 3.86464Z" fill="#110B35"/>
<path d="M3.04687e-06 39.0308L0.414365 37.8142C0.414365 37.8142 11.4082 32.2831 12.4473 21.4649C12.4473 21.4665 13.72 32.0817 3.04687e-06 39.0308Z" fill="#110B35"/>
<path opacity="0.2" d="M6.88638 13.098L7.00806 17.0834C7.00806 17.0834 4.34922 20.9542 6.34376 29.6897C6.34211 29.6897 1.51445 20.9542 6.88638 13.098Z" fill="#F2F2F2"/>
<path d="M15.6966 0.797965L17.5481 2.27489L15.0586 3.26388L8.39592 0.0938869L15.6966 0.797965Z" fill="url(#paint1_linear_456_778)"/>
<path d="M17.5481 2.27489L15.1836 2.62038L8.39592 0.0938869L15.0586 3.26388L17.5481 2.27489Z" fill="#C1C1C1"/>
<path d="M15.6966 42.0522L17.5168 40.441L15.0586 39.5863L8.3959 42.7562L15.6966 42.0522Z" fill="url(#paint2_linear_456_778)"/>
<path d="M17.5168 40.441L15.1836 40.2281L8.3959 42.7562L15.0586 39.5863L17.5168 40.441Z" fill="#C1C1C1"/>
<g opacity="0.39">
<path opacity="0.39" d="M43.2288 27.4152C42.4379 27.7181 40.8527 27.8622 40.3693 27.8999C40.2855 27.9064 40.2197 27.9736 40.2148 28.0571C40.0438 30.5213 41.1898 31.0895 41.5582 31.2074C41.6223 31.2287 41.693 31.209 41.7374 31.1566C42.5727 30.1775 43.2781 28.9298 43.4984 28.5237C43.5346 28.4582 43.5231 28.3764 43.4688 28.3256C43.3685 28.2306 43.2321 28.0063 43.2468 27.4922L43.2468 27.407L43.2288 27.4152Z" fill="white"/>
<path opacity="0.39" d="M44.7382 28.0589C44.8533 27.9689 45.1904 27.6496 45.4354 26.8407C45.442 26.8194 45.4584 26.8014 45.4798 26.7932L47.2425 26.1317C47.2968 26.1104 47.351 26.1579 47.3395 26.2152C47.2376 26.6983 46.7755 28.4486 45.2381 29.9665C45.197 30.0074 45.1246 29.9845 45.1148 29.9272C45.0589 29.6079 44.9076 28.7892 44.7136 28.1375C44.7037 28.1081 44.7136 28.0786 44.7382 28.0589Z" fill="white"/>
<path opacity="0.39" d="M45.0752 25.568C44.6543 25.5402 44.3353 25.6728 44.1643 25.7711C44.087 25.8153 43.99 25.7776 43.9604 25.6941C43.7845 25.1882 43.2599 23.6998 42.936 23.0857C42.9031 23.0219 42.9212 22.9449 42.9804 22.904C43.4293 22.5896 45.2315 21.4467 46.4384 22.3768C46.4877 22.4144 46.5058 22.4783 46.4861 22.5356C46.3479 22.9269 45.7856 24.4562 45.164 25.4911C45.1575 25.5009 45.1509 25.5107 45.1427 25.5189L45.1065 25.5549L45.0752 25.568Z" fill="white"/>
<path opacity="0.39" d="M43.8683 27.826C44.1166 27.9979 44.5638 27.7818 44.8664 27.3462C45.1689 26.909 45.2117 26.4162 44.9634 26.2443C44.7151 26.0723 44.2678 26.2885 43.9653 26.724C43.6611 27.1612 43.6183 27.6541 43.8683 27.826Z" fill="white"/>
</g>
<defs>
<linearGradient id="paint0_linear_456_778" x1="11.3928" y1="6.60772" x2="40.9106" y2="36.2501" gradientUnits="userSpaceOnUse">
<stop stop-color="#BBBDBF"/>
<stop offset="0.5832" stop-color="#DDDEDF"/>
<stop offset="1" stop-color="#F1F1F2"/>
</linearGradient>
<linearGradient id="paint1_linear_456_778" x1="11.9812" y1="2.5933" x2="14.0389" y2="-0.357891" gradientUnits="userSpaceOnUse">
<stop stop-color="#BBBDBF"/>
<stop offset="0.5832" stop-color="#DDDEDF"/>
<stop offset="1" stop-color="#F1F1F2"/>
</linearGradient>
<linearGradient id="paint2_linear_456_778" x1="12.0018" y1="40.2421" x2="14.0596" y2="43.1933" gradientUnits="userSpaceOnUse">
<stop stop-color="#BBBDBF"/>
<stop offset="0.5832" stop-color="#DDDEDF"/>
<stop offset="1" stop-color="#F1F1F2"/>
</linearGradient>
</defs>
</svg>
