<?xml version="1.0" encoding="utf-8"?>
<!-- Generator: Adobe Illustrator 25.0.1, SVG Export Plug-In . SVG Version: 6.00 Build 0)  -->
<svg version="1.1" id="Layer_1" xmlns="http://www.w3.org/2000/svg" xmlns:xlink="http://www.w3.org/1999/xlink" x="0px" y="0px"
	 viewBox="0 0 339 110.7" style="enable-background:new 0 0 339 110.7;" xml:space="preserve">
<style type="text/css">
	.st0{opacity:0.5;clip-path:url(#SVGID_2_);}
	.st1{fill:white;}
	.st2{fill:none;stroke:white;stroke-width:0.5;}
</style>
<g>
	<defs>
		<rect id="SVGID_1_" x="169.9" y="44.4" width="91.9" height="65.4"/>
	</defs>
	<clipPath id="SVGID_2_">
		<use xlink:href="#SVGID_1_"  style="overflow:visible;"/>
	</clipPath>
	<g class="st0">
		<path class="st1" d="M207.9,44.4c-1.1,0-1.9,0.9-1.9,1.9v61.5c0,1.1,0.9,1.9,1.9,1.9c1.1,0,1.9-0.9,1.9-1.9V46.3
			C209.9,45.3,209,44.4,207.9,44.4z M201.3,49c-1.1,0-1.9,0.9-1.9,1.9v49.7c0,1.1,0.9,1.9,1.9,1.9c1.1,0,1.9-0.9,1.9-1.9V51
			C203.2,49.9,202.4,49,201.3,49z M194.7,56.2c-1.1,0-1.9,0.9-1.9,1.9v34.4c0,1.1,0.9,1.9,1.9,1.9c1.1,0,1.9-0.9,1.9-1.9V58.1
			C196.6,57.1,195.8,56.2,194.7,56.2z M188.1,61.1c-1.1,0-1.9,0.9-1.9,1.9v25c0,1.1,0.9,1.9,1.9,1.9S190,89,190,88V63
			C190,62,189.1,61.1,188.1,61.1z M214.5,56.2c-1.1,0-1.9,0.9-1.9,1.9v35.2c0,1.1,0.9,1.9,1.9,1.9c1.1,0,1.9-0.9,1.9-1.9V58.1
			C216.5,57.1,215.6,56.2,214.5,56.2z M221.1,50c-1.1,0-1.9,0.9-1.9,1.9V105c0,1.1,0.9,1.9,1.9,1.9c1.1,0,1.9-0.9,1.9-1.9V52
			C223.1,50.9,222.2,50,221.1,50z M227.8,61.1c-1.1,0-1.9,0.9-1.9,1.9v25c0,1.1,0.9,1.9,1.9,1.9s1.9-0.9,1.9-1.9V63
			C229.7,62,228.8,61.1,227.8,61.1z M234.9,61.1c-1.1,0-1.9,0.9-1.9,1.9v25c0,1.1,0.9,1.9,1.9,1.9s1.9-0.9,1.9-1.9V63
			C236.8,62,236,61.1,234.9,61.1z M242.2,67.6c-1.1,0-1.9,0.9-1.9,1.9V83c0,1.1,0.9,1.9,1.9,1.9c1.1,0,1.9-0.9,1.9-1.9V69.5
			C244.1,68.4,243.2,67.6,242.2,67.6z M180.6,72.5c-1.5,0-2.8,1.3-2.8,2.8s1.3,2.8,2.8,2.8s2.8-1.3,2.8-2.8S182.2,72.5,180.6,72.5z
			 M172.7,72.5c-1.5,0-2.8,1.3-2.8,2.8s1.3,2.8,2.8,2.8s2.8-1.3,2.8-2.8S174.2,72.5,172.7,72.5z M259,72.5c-1.5,0-2.8,1.3-2.8,2.8
			s1.3,2.8,2.8,2.8s2.8-1.3,2.8-2.8S260.5,72.5,259,72.5z M251,72.5c-1.5,0-2.8,1.3-2.8,2.8s1.3,2.8,2.8,2.8s2.8-1.3,2.8-2.8
			S252.6,72.5,251,72.5z"/>
	</g>
</g>
<path class="st2" d="M9.3,18.6h100l57.5,53.5"/>
<path class="st2" d="M264.4,74.6l63.5-50"/>
</svg>
