<svg width="88" height="68" viewBox="0 0 88 68" fill="none" xmlns="http://www.w3.org/2000/svg">
<path d="M51.6214 39.1384C54.5193 46.675 55.8909 61.7535 56.2518 66.3598C56.3137 67.1567 56.9531 67.7787 57.7523 67.8353C81.3326 69.4649 86.7571 58.5507 87.8864 55.0497C88.0823 54.4328 87.8967 53.7644 87.4017 53.3429C78.0273 45.3846 66.0954 38.6757 62.2178 36.5833C61.5887 36.244 60.8049 36.3468 60.3151 36.8609C59.4075 37.812 57.2625 39.1178 52.3432 38.9739H51.5337L51.6214 39.1384Z" fill="#FAFAFA"/>
<path d="M57.7885 24.7745C56.9326 23.6794 53.8748 20.4663 46.1299 18.1375C45.9236 18.0758 45.7535 17.9215 45.6761 17.7159L39.3492 0.940911C39.1533 0.426813 39.607 -0.0975658 40.1433 0.0155356C44.7635 0.99232 61.5115 5.37757 76.0371 20.0191C76.429 20.4149 76.2124 21.0935 75.6607 21.1912C72.6081 21.7207 64.7806 23.1653 58.5362 25.0161C58.2578 25.0932 57.969 25.0007 57.7885 24.7745Z" fill="#FAFAFA"/>
<path d="M33.9557 21.5561C33.6824 25.566 34.9612 28.594 35.8945 30.234C36.3122 30.9692 35.9615 31.8946 35.1623 32.1722C30.3153 33.843 16.0784 38.84 10.2053 41.9246C9.59681 42.2433 8.85429 42.0685 8.4624 41.5082C5.46137 37.236 -5.4857 20.0755 3.42458 8.59052C3.78553 8.12783 4.39915 7.94275 4.95088 8.13811C8.68928 9.45934 23.3232 14.8008 33.2235 20.7181C33.3215 20.7746 33.4091 20.8466 33.4916 20.9237L33.8423 21.2733L33.9557 21.5561Z" fill="#FAFAFA"/>
<path d="M55.5643 33.0558C57.2045 30.6864 55.1464 26.4345 50.9676 23.5591C46.7887 20.6836 42.0713 20.2734 40.4311 22.6429C38.7909 25.0123 40.849 29.2641 45.0279 32.1396C49.2068 35.0151 53.9241 35.4253 55.5643 33.0558Z" fill="#FAFAFA"/>
</svg>
