<svg width="216" height="60" viewBox="0 0 216 60" fill="none" xmlns="http://www.w3.org/2000/svg">
<path d="M37.309 32.7313C38.856 36.7373 39.5881 44.7521 39.7808 47.2005C39.8139 47.6241 40.1552 47.9547 40.5818 47.9848C53.1694 48.851 56.0652 43.0497 56.668 41.1888C56.7726 40.8609 56.6735 40.5056 56.4092 40.2815C51.405 36.0514 45.0355 32.4854 42.9656 31.3732C42.6298 31.1928 42.2114 31.2475 41.9499 31.5207C41.4654 32.0263 40.3203 32.7204 37.6944 32.6439H37.2622L37.309 32.7313Z" fill="#FAFAFA"/>
<path d="M40.6011 25.0963C40.1442 24.5143 38.5119 22.8064 34.3775 21.5685C34.2674 21.5357 34.1766 21.4537 34.1353 21.3444L30.7578 12.4279C30.6532 12.1546 30.8955 11.8759 31.1817 11.936C33.6481 12.4552 42.5885 14.7861 50.3425 22.5686C50.5517 22.779 50.4361 23.1397 50.1416 23.1917C48.5121 23.4731 44.3336 24.241 41.0002 25.2247C40.8516 25.2657 40.6975 25.2165 40.6011 25.0963Z" fill="#FAFAFA"/>
<path d="M27.8787 23.3856C27.7328 25.5171 28.4155 27.1266 28.9137 27.9983C29.1366 28.3891 28.9495 28.8809 28.5228 29.0285C25.9354 29.9166 18.3355 32.5727 15.2003 34.2123C14.8755 34.3817 14.4791 34.2888 14.2699 33.9909C12.6679 31.7201 6.82413 22.5986 11.5806 16.494C11.7733 16.248 12.1009 16.1497 12.3954 16.2535C14.391 16.9558 22.2029 19.795 27.4878 22.9402C27.5401 22.9703 27.5869 23.0085 27.631 23.0495L27.8182 23.2353L27.8787 23.3856Z" fill="#FAFAFA"/>
<path d="M39.4138 29.4982C40.2894 28.2388 39.1908 25.9788 36.96 24.4504C34.7292 22.9219 32.2111 22.7039 31.3355 23.9633C30.4599 25.2228 31.5585 27.4828 33.7893 29.0112C36.0201 30.5396 38.5383 30.7577 39.4138 29.4982Z" fill="#FAFAFA"/>
<path d="M73.0375 27.3979L70.8093 29.8569V35.8333H65.3779V13.1728H70.8093V23.1646L72.6971 20.2854L77.5559 13.1728H84.2716L76.6584 23.1957L84.2716 35.8333H77.8344L73.0375 27.3979Z" fill="#FAFAFA"/>
<path d="M90.9099 35.8333H85.6797V18.9936H90.9099V35.8333ZM85.3702 14.6514C85.3702 13.9043 85.6384 13.2921 86.1749 12.8149C86.7113 12.3376 87.4076 12.0989 88.2638 12.0989C89.1201 12.0989 89.8164 12.3376 90.3528 12.8149C90.8892 13.2921 91.1575 13.9043 91.1575 14.6514C91.1575 15.3984 90.8892 16.0106 90.3528 16.4879C89.8164 16.9651 89.1201 17.2038 88.2638 17.2038C87.4076 17.2038 86.7113 16.9651 86.1749 16.4879C85.6384 16.0106 85.3702 15.3984 85.3702 14.6514Z" fill="#FAFAFA"/>
<path d="M99.6372 35.8333H94.407V11.9277H99.6372V35.8333Z" fill="#FAFAFA"/>
<path d="M108.364 35.8333H103.134V11.9277H108.364V35.8333Z" fill="#FAFAFA"/>
<path d="M123.451 29.8102C123.451 29.0113 123.168 28.3888 122.6 27.9426C122.043 27.4965 121.058 27.0347 119.645 26.5575C118.232 26.0802 117.076 25.6185 116.179 25.1723C113.259 23.7301 111.8 21.7483 111.8 19.227C111.8 17.9716 112.161 16.8666 112.883 15.912C113.615 14.9471 114.647 14.2 115.978 13.6709C117.308 13.1313 118.804 12.8615 120.465 12.8615C122.085 12.8615 123.534 13.1521 124.813 13.7331C126.103 14.3141 127.103 15.1442 127.815 16.2233C128.527 17.292 128.883 18.5163 128.883 19.8963H123.467C123.467 18.9728 123.183 18.2569 122.616 17.7485C122.059 17.2401 121.301 16.9859 120.341 16.9859C119.372 16.9859 118.603 17.2038 118.036 17.6396C117.479 18.065 117.2 18.6097 117.2 19.2737C117.2 19.8548 117.51 20.3839 118.128 20.8612C118.747 21.3281 119.836 21.8158 121.393 22.3242C122.951 22.8222 124.23 23.3617 125.231 23.9428C127.666 25.3539 128.883 27.2993 128.883 29.7791C128.883 31.7609 128.14 33.3172 126.655 34.4482C125.169 35.5791 123.132 36.1446 120.542 36.1446C118.716 36.1446 117.061 35.8178 115.575 35.1641C114.1 34.5001 112.986 33.5974 112.233 32.456C111.49 31.3043 111.119 29.9814 111.119 28.4873H116.566C116.566 29.7013 116.875 30.5988 117.494 31.1798C118.123 31.7505 119.139 32.0358 120.542 32.0358C121.44 32.0358 122.147 31.8439 122.662 31.46C123.188 31.0657 123.451 30.5158 123.451 29.8102Z" fill="#FAFAFA"/>
<path d="M145.889 28.9231L147.575 18.9936H152.573L148.628 35.8333H144.217L141.448 25.8415L138.662 35.8333H134.252L130.306 18.9936H135.305L136.96 29.1566L139.622 18.9936H143.258L145.889 28.9231Z" fill="#FAFAFA"/>
<path d="M159.954 35.8333H154.724V18.9936H159.954V35.8333ZM154.415 14.6514C154.415 13.9043 154.683 13.2921 155.219 12.8149C155.756 12.3376 156.452 12.0989 157.308 12.0989C158.165 12.0989 158.861 12.3376 159.397 12.8149C159.934 13.2921 160.202 13.9043 160.202 14.6514C160.202 15.3984 159.934 16.0106 159.397 16.4879C158.861 16.9651 158.165 17.2038 157.308 17.2038C156.452 17.2038 155.756 16.9651 155.219 16.4879C154.683 16.0106 154.415 15.3984 154.415 14.6514Z" fill="#FAFAFA"/>
<path d="M169.254 14.807V18.9936H172.009V22.6354H169.254V30.3394C169.254 30.9723 169.368 31.4133 169.595 31.6623C169.822 31.9113 170.27 32.0358 170.941 32.0358C171.457 32.0358 171.89 32.0047 172.241 31.9424V35.6933C171.302 35.9942 170.322 36.1446 169.301 36.1446C167.506 36.1446 166.18 35.7192 165.324 34.8684C164.468 34.0176 164.04 32.7258 164.04 30.9931V22.6354H161.904V18.9936H164.04V14.807H169.254Z" fill="#FAFAFA"/>
<path d="M181.154 32.0981C181.886 32.0981 182.453 31.9009 182.856 31.5067C183.258 31.102 183.454 30.5417 183.444 29.8258H188.334C188.334 31.6727 187.673 33.1875 186.353 34.3704C185.043 35.5532 183.351 36.1446 181.277 36.1446C178.843 36.1446 176.924 35.3768 175.521 33.8412C174.118 32.3056 173.417 30.1786 173.417 27.4601V27.2423C173.417 25.5406 173.726 24.0414 174.345 22.7444C174.974 21.4371 175.877 20.4358 177.053 19.7406C178.229 19.0351 179.622 18.6823 181.231 18.6823C183.408 18.6823 185.136 19.2893 186.415 20.5032C187.694 21.7172 188.334 23.3617 188.334 25.4369H183.444C183.444 24.5653 183.232 23.8961 182.809 23.4292C182.386 22.9623 181.819 22.7288 181.107 22.7288C179.756 22.7288 178.967 23.5952 178.74 25.3279C178.668 25.8779 178.631 26.6353 178.631 27.6002C178.631 29.2915 178.833 30.4639 179.235 31.1176C179.637 31.7712 180.277 32.0981 181.154 32.0981Z" fill="#FAFAFA"/>
<path d="M195.637 20.799C196.751 19.3879 198.175 18.6823 199.908 18.6823C201.755 18.6823 203.147 19.2322 204.086 20.332C205.025 21.4319 205.504 23.0557 205.525 25.2034V35.8333H200.295V25.3279C200.295 24.4356 200.114 23.782 199.753 23.3669C199.392 22.9415 198.778 22.7288 197.912 22.7288C196.839 22.7288 196.081 23.0712 195.637 23.756V35.8333H190.423V11.9277H195.637V20.799Z" fill="#FAFAFA"/>
<path d="M66.1737 47.3495C66.4296 47.3495 66.6271 47.4229 66.7663 47.5697C66.9055 47.7128 66.9751 47.8935 66.9751 48.1119C66.9751 48.3265 66.9055 48.5053 66.7663 48.6484C66.6271 48.7877 66.4296 48.8574 66.1737 48.8574C65.9291 48.8574 65.7354 48.7877 65.5924 48.6484C65.4494 48.5091 65.3779 48.3303 65.3779 48.1119C65.3779 47.8935 65.4475 47.7128 65.5868 47.5697C65.726 47.4229 65.9216 47.3495 66.1737 47.3495Z" fill="white"/>
<path d="M73.4147 45.3107H70.1074V48.7953H68.6796V40.5724H73.9001V41.7245H70.1074V44.1699H73.4147V45.3107Z" fill="white"/>
<path d="M76.3608 48.7953H74.9893V42.6846H76.3608V48.7953ZM74.9047 41.0976C74.9047 40.8867 74.9705 40.7117 75.1022 40.5724C75.2377 40.4331 75.4296 40.3634 75.6779 40.3634C75.9262 40.3634 76.1181 40.4331 76.2536 40.5724C76.389 40.7117 76.4567 40.8867 76.4567 41.0976C76.4567 41.3047 76.389 41.4779 76.2536 41.6172C76.1181 41.7527 75.9262 41.8205 75.6779 41.8205C75.4296 41.8205 75.2377 41.7527 75.1022 41.6172C74.9705 41.4779 74.9047 41.3047 74.9047 41.0976Z" fill="white"/>
<path d="M79.1319 42.6846L79.1714 43.3905C79.6229 42.8446 80.2155 42.5716 80.9492 42.5716C82.221 42.5716 82.8681 43.3001 82.8907 44.7572V48.7953H81.5192V44.8363C81.5192 44.4485 81.4346 44.1623 81.2653 43.9779C81.0997 43.7896 80.8269 43.6955 80.4469 43.6955C79.8938 43.6955 79.4818 43.9459 79.2109 44.4466V48.7953H77.8395V42.6846H79.1319Z" fill="white"/>
<path d="M87.9419 48.7953C87.8817 48.6785 87.829 48.4884 87.7839 48.2248C87.3474 48.6804 86.8131 48.9082 86.181 48.9082C85.5677 48.9082 85.0673 48.7331 84.6798 48.383C84.2922 48.0328 84.0985 47.5998 84.0985 47.084C84.0985 46.4327 84.3393 45.9338 84.8209 45.5874C85.3062 45.2373 85.9985 45.0622 86.8978 45.0622H87.7387V44.6612C87.7387 44.345 87.6503 44.0927 87.4735 43.9044C87.2966 43.7124 87.0276 43.6164 86.6664 43.6164C86.3541 43.6164 86.0983 43.6955 85.8988 43.8536C85.6994 44.008 85.5997 44.2056 85.5997 44.4466H84.2283C84.2283 44.1115 84.3393 43.799 84.5613 43.5091C84.7832 43.2154 85.0842 42.9858 85.4643 42.8201C85.848 42.6544 86.2751 42.5716 86.7454 42.5716C87.4603 42.5716 88.0303 42.7523 88.4555 43.1138C88.8807 43.4715 89.0989 43.976 89.1102 44.6273V47.3834C89.1102 47.9331 89.1873 48.3717 89.3416 48.6992V48.7953H87.9419ZM86.435 47.8069C86.7059 47.8069 86.9599 47.741 87.1969 47.6093C87.4377 47.4775 87.6183 47.3005 87.7387 47.0784V45.9263H86.9994C86.4914 45.9263 86.1095 46.0148 85.8537 46.1917C85.5978 46.3687 85.4699 46.619 85.4699 46.9428C85.4699 47.2064 85.5564 47.4172 85.7295 47.5754C85.9064 47.7297 86.1415 47.8069 86.435 47.8069Z" fill="white"/>
<path d="M91.8192 42.6846L91.8587 43.3905C92.3102 42.8446 92.9028 42.5716 93.6365 42.5716C94.9082 42.5716 95.5554 43.3001 95.578 44.7572V48.7953H94.2065V44.8363C94.2065 44.4485 94.1219 44.1623 93.9526 43.9779C93.787 43.7896 93.5142 43.6955 93.1342 43.6955C92.5811 43.6955 92.1691 43.9459 91.8982 44.4466V48.7953H90.5268V42.6846H91.8192Z" fill="white"/>
<path d="M99.4891 47.8126C99.8315 47.8126 100.116 47.7128 100.341 47.5132C100.567 47.3137 100.688 47.0671 100.703 46.7734H101.995C101.98 47.1537 101.861 47.5095 101.639 47.8408C101.417 48.1684 101.116 48.4282 100.736 48.6202C100.356 48.8122 99.9463 48.9082 99.5061 48.9082C98.652 48.9082 97.9747 48.6315 97.4743 48.078C96.9739 47.5245 96.7237 46.7602 96.7237 45.7851V45.6439C96.7237 44.7139 96.972 43.9703 97.4687 43.4131C97.9653 42.8521 98.6426 42.5716 99.5004 42.5716C100.227 42.5716 100.817 42.7843 101.273 43.2098C101.732 43.6315 101.972 44.1868 101.995 44.8758H100.703C100.688 44.5257 100.567 44.2376 100.341 44.0117C100.119 43.7858 99.8353 43.6729 99.4891 43.6729C99.0452 43.6729 98.7028 43.8348 98.462 44.1586C98.2212 44.4786 98.0989 44.9662 98.0951 45.6213V45.8416C98.0951 46.5042 98.2136 46.9993 98.4507 47.3269C98.6915 47.6507 99.0376 47.8126 99.4891 47.8126Z" fill="white"/>
<path d="M105.72 48.9082C104.851 48.9082 104.145 48.6352 103.603 48.0893C103.065 47.5396 102.796 46.8092 102.796 45.898V45.7286C102.796 45.1187 102.913 44.5746 103.146 44.0965C103.383 43.6145 103.714 43.2399 104.14 42.9726C104.565 42.7053 105.039 42.5716 105.562 42.5716C106.393 42.5716 107.035 42.837 107.486 43.3679C107.942 43.8988 108.169 44.6499 108.169 45.6213V46.1748H104.179C104.221 46.6793 104.388 47.0784 104.681 47.3721C104.979 47.6657 105.351 47.8126 105.799 47.8126C106.427 47.8126 106.939 47.5584 107.334 47.0501L108.073 47.7561C107.829 48.1213 107.501 48.4056 107.091 48.6089C106.685 48.8084 106.228 48.9082 105.72 48.9082ZM105.556 43.6729C105.18 43.6729 104.875 43.8047 104.642 44.0682C104.412 44.3318 104.266 44.6989 104.202 45.1695H106.815V45.0678C106.785 44.6085 106.662 44.2621 106.448 44.0287C106.233 43.7915 105.936 43.6729 105.556 43.6729Z" fill="white"/>
</svg>
