<?xml version="1.0" encoding="utf-8"?>
<!-- Generator: Adobe Illustrator 25.0.1, SVG Export Plug-In . SVG Version: 6.00 Build 0)  -->
<svg version="1.1" id="Layer_1" xmlns="http://www.w3.org/2000/svg" xmlns:xlink="http://www.w3.org/1999/xlink" x="0px" y="0px"
	 viewBox="0 0 1440 900" style="enable-background:new 0 0 1440 900;" xml:space="preserve">
<style type="text/css">
	.st0{clip-path:url(#SVGID_2_);}
	.st1{fill:#000051;}
	.st2{opacity:5.000000e-02;fill:#FFFFFF;enable-background:new    ;}
	.st3{opacity:0.5;fill:#1A237E;enable-background:new    ;}
	.st4{fill:#1A237E;}
	.st5{fill:#283593;}
	.st6{opacity:0.1;fill:#FFFFFF;enable-background:new    ;}
	.st7{fill:#3949AB;}
	.st8{fill-rule:evenodd;clip-rule:evenodd;fill:#3949AB;}
	.st9{opacity:0.1;fill:#ABEBFF;enable-background:new    ;}
	.st10{fill:#FFFFFF;}
	.st11{clip-path:url(#SVGID_4_);}
	.st12{opacity:0.12;enable-background:new    ;}
	.st13{fill:url(#SVGID_5_);}
	.st14{fill:#1B134E;}
	.st15{fill:none;stroke:#270D0D;stroke-miterlimit:10;}
	.st16{fill:#262635;}
	.st17{fill:#363649;}
	.st18{fill:#42E8E0;}
	.st19{opacity:0.4;fill:#FFFFFF;enable-background:new    ;}
	.st20{opacity:0.4;fill:#FCFDFF;enable-background:new    ;}
	.st21{fill:#110B35;}
	.st22{opacity:0.2;fill:#F2F2F2;enable-background:new    ;}
	.st23{fill:url(#SVGID_6_);}
	.st24{fill:#C1C1C1;}
	.st25{fill:url(#SVGID_7_);}
	.st26{opacity:0.39;}
	.st27{opacity:0.39;fill:#FFFFFF;enable-background:new    ;}
	.st28{fill:url(#SVGID_8_);}
	.st29{display:none;fill:#FFFFFF;}
	.st30{display:none;}
	.st31{display:inline;fill:#F5F5F5;}
	.st32{display:none;fill:#26C6DA;}
	.st33{display:none;fill:url(#SVGID_9_);}
	.st34{fill:#F5F5F5;filter:url(#Adobe_OpacityMaskFilter);}
	.st35{display:none;mask:url(#mask0_1_);}
	.st36{display:inline;fill:#FFFFFF;}
	.st37{display:inline;fill:url(#SVGID_10_);}
	.st38{display:inline;fill:#2F46CC;}
	.st39{display:inline;fill:url(#SVGID_11_);}
	.st40{display:inline;fill:#4A6ABB;}
	.st41{display:inline;fill:#3C3CA6;}
	.st42{display:inline;fill:#2A2A93;}
	.st43{display:inline;fill:url(#SVGID_12_);}
	.st44{display:inline;fill:#212184;}
	.st45{display:inline;fill:url(#SVGID_13_);}
	.st46{display:inline;fill:url(#SVGID_14_);}
	.st47{display:inline;opacity:0.35;fill:url(#SVGID_15_);enable-background:new    ;}
	.st48{display:inline;opacity:0.5;fill:#FFFFFF;enable-background:new    ;}
	.st49{display:inline;opacity:0.5;fill:url(#SVGID_16_);enable-background:new    ;}
	.st50{display:inline;fill:#5D7EE7;}
	.st51{display:inline;fill:url(#SVGID_17_);}
	.st52{display:inline;fill:#4556ED;}
	.st53{display:inline;opacity:0.2;fill:url(#SVGID_18_);enable-background:new    ;}
	.st54{display:inline;opacity:0.15;fill:url(#SVGID_19_);enable-background:new    ;}
	.st55{display:inline;opacity:0.85;fill:#AFF1FF;enable-background:new    ;}
	.st56{display:inline;opacity:0.25;fill:#AFF1FF;enable-background:new    ;}
	.st57{display:inline;opacity:0.5;fill:#AFF1FF;enable-background:new    ;}
	.st58{display:inline;opacity:0.2;fill:#AFF1FF;enable-background:new    ;}
	.st59{display:inline;fill:url(#SVGID_20_);}
	.st60{display:inline;fill:url(#SVGID_21_);}
	.st61{display:inline;fill:url(#SVGID_22_);}
	.st62{display:inline;}
	.st63{display:inline;clip-path:url(#SVGID_24_);}
	.st64{fill:url(#SVGID_25_);}
	.st65{fill:url(#SVGID_26_);}
	.st66{fill:url(#SVGID_27_);}
	.st67{display:inline;clip-path:url(#SVGID_29_);}
	.st68{fill:url(#SVGID_30_);}
	.st69{fill:url(#SVGID_31_);}
	.st70{display:inline;clip-path:url(#SVGID_33_);}
	.st71{fill:url(#SVGID_34_);}
	.st72{fill:url(#SVGID_35_);}
	.st73{display:inline;clip-path:url(#SVGID_37_);}
	.st74{fill:url(#SVGID_38_);}
	.st75{fill:url(#SVGID_39_);}
	.st76{display:inline;clip-path:url(#SVGID_41_);}
	.st77{fill:url(#SVGID_42_);}
	.st78{fill:url(#SVGID_43_);}
	.st79{opacity:0.2;}
	.st80{fill:#E8EAF6;}
	.st81{fill:#EBEBEB;}
	.st82{fill:#DFDFDF;}
	.st83{opacity:0.2;fill:#B8B8B8;enable-background:new    ;}
</style>
<g>
	<defs>
		<rect id="SVGID_1_" x="-125.5" y="-113" width="1691" height="1524"/>
	</defs>
	<clipPath id="SVGID_2_">
		<use xlink:href="#SVGID_1_"  style="overflow:visible;"/>
	</clipPath>
	<g class="st0">
		<path class="st1" d="M1478.3-98H-18.9v998h1497.2V-98z"/>
		<path class="st2" d="M-125.5,593.3c0,0,307.7,65.8,479.6,14.9c148.2-43.9,513.8-36.9,658.6,0c144.8,36.9,552.8,0.4,552.8,0.4V534
			c0,0-354.2,42.5-472.9,17.7c-118.7-24.8-492.7-8.6-627.1,3.5c-134.4,12-408.1,14.5-507.9-5.9L-125.5,593.3z"/>
		<path class="st3" d="M532.6,648.8c-4.1,0-8.2,0.3-12.2,0.9c-19.8-40.7-61.5-68.7-109.7-68.7c-27.5,0-52.8,9.1-73.2,24.4
			c-13.2-32-44.6-54.6-81.4-54.6c-1.9,0-3.9,0.1-5.8,0.2c-30.7-37-77-60.5-128.8-60.5c-92.3,0-167.2,74.9-167.2,167.2
			s74.9,167.2,167.2,167.2h411c48.6,0,88-39.4,88-88C620.6,688.2,581.2,648.8,532.6,648.8z"/>
		<path class="st3" d="M1380.6,522.8c-6.8,0-13.5,0.5-20.1,1.5c-30.2-31.7-74.2-51.6-123.3-51.6c-76.2,0-140.2,48.1-159,113.4
			c-52.1,8.1-93.1,49.8-100.2,102.2c-6.9-2-14.1-3-21.7-3c-43.5,0-78.8,35.3-78.8,78.8c0,43.5,35.3,78.8,78.8,78.8h565.3V663.9
			C1521.7,585.9,1458.5,522.8,1380.6,522.8z"/>
		<path class="st4" d="M939.6,694c-0.7,0-1.5,0-2.2,0.1c-5.2-20-19.2-36.5-37.6-45.1c-20.4-40.6-66-68.9-119.1-68.9
			c-48.7,0-91.2,23.9-113.6,59.2c-21.4,1.4-39.3,15.3-46.6,34.5c-4.7-0.8-9.6-1.2-14.5-1.2c-45.9,0-83.2,35.6-83.2,79.5
			c0,3.5,0.3,6.9,0.7,10.3l-0.7,0.4v68.8h416.8c38,0,68.8-30.8,68.8-68.8C1008.3,724.8,977.5,694,939.6,694z"/>
		<path class="st5" d="M1458.7,604l-1.6-3.2l2.5,0.7l-5.3-10l1.8,0.4l-4.8-8l-4.8,8.3l1.8-0.2l-4.7,9.4c-17.9-2.6-41.2-4.9-71-4.5
			l-5-9.4l1.8,0.4l-4.8-8l-4.8,8.3l1.8-0.2l-4.6,9.2c-49.7,2-115.5,11.2-201.8,35.7l-6-11.8l2.1,0.5l-5.4-9.5l-5.6,9.9l2.1-0.2
			l-5.7,11.9l3.3-1.1l-3.8,8.6c-46.8,21.3-87.6,45.7-128.1,66.3l-5.8-11.5l2.1,0.5l-5.4-9.5l-5.5,9.9l2.1-0.2l-5.6,11.9l3.4-1.1
			l-4.3,9.5c-1.5,0.7-3,1.4-4.5,2.1l-3.9-7.6l2.1,0.5l-5.5-9.5l-5.5,9.9l2.1-0.2l-5.7,11.9l3.4-1.1l-1.1,2.4
			c-17.9,7.7-36.1,14.3-55.1,19.2l-2.2-4.6l2.8,0.8l-6-11.9l2.1,0.5l-5.5-9.5l-5.5,9.9l2.1-0.2l-5.7,11.9l3.4-1.1l-3.7,8.3
			c-18.8,3.6-38.5,5.4-59.5,4.9c-61.9-1.5-150-15.6-241.2-40l-3-6.5l2.8,0.8l-6-11.9l2.1,0.5l-5.4-9.5l-5.5,9.9l2.1-0.2l-5.5,11.7
			c-30.3-8.5-60.7-18.2-90.4-28.9l-1.6-3.5l2.8,0.8l-6-11.9l2.1,0.5l-5.4-9.5l-5.6,9.9l2.1-0.2l-3.9,8.1c-2.1-0.8-4.2-1.6-6.2-2.3
			l-2.1-4.4l2.8,0.8l-6-11.9l2.1,0.5l-5.5-9.5l-5.5,9.9l2.1-0.2l-4,8.5c-43.8-16.6-98.3-28.9-141.9-37.1l-2.6-5.6l2.8,0.8l-6-11.9
			l2.1,0.5l-5.4-9.5l-5.6,9.9l2.1-0.2l-5.6,11.9l3.4-1.1l-1,2.3c-52.8-5.9-99-9.3-138.5-11.3l-2.2-4.5l2.5,0.7l-5.3-10l1.8,0.4
			l-4.8-8l-4.8,8.3l1.8-0.2l-4.9,10l2.9-0.9l-1.6,3.5c-34.1-1.4-62.7-1.6-85.7-1.2l-1.3-2.6l2.5,0.7l-5.3-10l1.8,0.4l-4.8-8
			l-4.8,8.3l1.8-0.2l-4.9,10l2.9-0.9l-1.2,2.5c-4.4,0.1-8.6,0.3-12.6,0.4l-2.8-5.8l2.5,0.7l-5.3-10l1.8,0.4l-4.8-8l-4.8,8.3l1.8-0.2
			l-4.9,10l2.9-0.9l-2.9,6.2C-9,614.7-18.9,616-18.9,616v283.9l1497.2,0V607.7C1473.1,606.8,1466.7,605.5,1458.7,604z M580.4,709.5
			c-0.7-0.2-1.5-0.4-2.2-0.6l3-1L580.4,709.5z M1006.4,708.8l-0.7-1.4l2.2,0.6C1007.4,708.3,1006.9,708.6,1006.4,708.8z M1153.4,634
			l-0.7-1.6l2.6,0.8C1154.7,633.5,1154,633.8,1153.4,634z M1371.2,597c-0.2,0-0.4,0-0.5,0l-0.1-0.2L1371.2,597z M1359.8,597.2
			l-0.1,0.1c-0.1,0-0.2,0-0.4,0L1359.8,597.2z M1446.4,601.2l-0.3,0.7c-0.4-0.1-0.9-0.1-1.3-0.2L1446.4,601.2z"/>
		<path class="st6" d="M264.7,638.9C264.7,638.9,264.8,638.9,264.7,638.9C264.7,638.9,264.7,638.8,264.7,638.9c-0.6-5.7-3-6.7-3-6.7
			c0.5,2.6,2.1,5.3,2.8,6.3c-3.5-4-5.8-3.6-5.8-3.6C260.7,637,264,638.6,264.7,638.9C264.7,638.9,264.7,638.9,264.7,638.9
			C264.7,638.9,264.7,638.9,264.7,638.9z"/>
		<path class="st6" d="M249.8,683.3c0.1,0,0.1,0,0.1,0C249.9,683.3,249.9,683.3,249.8,683.3c-0.6-5.7-3-6.7-3-6.7
			c0.5,2.6,2.1,5.3,2.8,6.3c-3.5-4-5.8-3.6-5.8-3.6C245.8,681.4,249.2,683,249.8,683.3C249.9,683.4,249.9,683.4,249.8,683.3
			C249.8,683.3,249.8,683.3,249.8,683.3z"/>
		<path class="st6" d="M345.3,680c0.1,0,0.1,0,0.1,0C345.4,680,345.3,679.9,345.3,680c-0.6-5.7-3-6.7-3-6.7c0.5,2.6,2.1,5.3,2.8,6.3
			c-3.5-4-5.8-3.6-5.8-3.6C341.3,678.1,344.7,679.7,345.3,680C345.3,680,345.4,680,345.3,680C345.3,680,345.3,680,345.3,680z"/>
		<path class="st6" d="M300.9,714c0.1,0,0.1,0,0.1,0C300.9,714,300.9,714,300.9,714c-0.6-5.7-3-6.7-3-6.7c0.5,2.6,2.1,5.3,2.8,6.3
			c-3.5-4-5.8-3.6-5.8-3.6C296.9,712.2,300.2,713.7,300.9,714C300.9,714.1,300.9,714.1,300.9,714C300.9,714.1,300.9,714.1,300.9,714
			z"/>
		<path class="st6" d="M402.4,743.3C402.5,743.3,402.5,743.3,402.4,743.3C402.5,743.3,402.5,743.2,402.4,743.3c-0.6-5.7-3-6.7-3-6.7
			c0.5,2.6,2.1,5.3,2.8,6.3c-3.5-4-5.8-3.6-5.8-3.6C398.5,741.4,401.8,743,402.4,743.3C402.5,743.3,402.5,743.3,402.4,743.3
			C402.5,743.3,402.5,743.3,402.4,743.3z"/>
		<path class="st6" d="M502.3,769.6c0.1,0,0.1,0,0.1,0C502.4,769.6,502.3,769.6,502.3,769.6c-0.6-5.7-3-6.7-3-6.7
			c0.5,2.6,2.1,5.3,2.8,6.3c-3.5-4-5.8-3.6-5.8-3.6C498.3,767.7,501.6,769.3,502.3,769.6C502.3,769.6,502.3,769.7,502.3,769.6
			C502.3,769.6,502.3,769.6,502.3,769.6z"/>
		<path class="st6" d="M432.5,724.8c0.1,0,0.1,0,0.1,0C432.6,724.8,432.5,724.8,432.5,724.8c-0.6-5.7-3-6.7-3-6.7
			c0.5,2.6,2.1,5.3,2.8,6.3c-3.5-4-5.8-3.6-5.8-3.6C428.5,723,431.8,724.5,432.5,724.8C432.5,724.9,432.5,724.9,432.5,724.8
			C432.5,724.8,432.5,724.8,432.5,724.8z"/>
		<path class="st6" d="M518.3,729.1c0.1,0,0.1,0,0.1,0C518.4,729.1,518.3,729.1,518.3,729.1c-0.6-5.7-3-6.7-3-6.7
			c0.5,2.6,2.1,5.3,2.8,6.3c-3.5-4-5.8-3.6-5.8-3.6C514.3,727.3,517.7,728.8,518.3,729.1C518.3,729.2,518.4,729.2,518.3,729.1
			C518.3,729.2,518.3,729.2,518.3,729.1z"/>
		<path class="st6" d="M581.1,729.1C581.2,729.2,581.2,729.2,581.1,729.1C581.2,729.1,581.1,729.1,581.1,729.1c-0.6-5.7-3-6.7-3-6.7
			c0.5,2.6,2.1,5.3,2.8,6.3c-3.5-4-5.8-3.6-5.8-3.6C577.1,727.3,580.5,728.8,581.1,729.1C581.1,729.2,581.2,729.2,581.1,729.1
			C581.1,729.2,581.1,729.2,581.1,729.1z"/>
		<path class="st6" d="M629.9,785.2C629.9,785.2,630,785.2,629.9,785.2C629.9,785.2,629.9,785.1,629.9,785.2c-0.6-5.7-3-6.7-3-6.7
			c0.5,2.6,2.1,5.3,2.8,6.3c-3.5-4-5.8-3.6-5.8-3.6C625.9,783.3,629.2,784.9,629.9,785.2C629.9,785.2,629.9,785.2,629.9,785.2
			C629.9,785.2,629.9,785.2,629.9,785.2z"/>
		<path class="st6" d="M729.8,773.1C729.7,773.1,729.7,773.1,729.8,773.1C729.7,773.1,729.8,773,729.8,773.1c0.6-5.7,3-6.7,3-6.7
			c-0.5,2.6-2.1,5.3-2.8,6.3c3.5-4,5.8-3.6,5.8-3.6C733.8,771.2,730.5,772.8,729.8,773.1C729.8,773.1,729.8,773.1,729.8,773.1
			C729.8,773.1,729.8,773.1,729.8,773.1z"/>
		<path class="st6" d="M762.5,807c-0.1,0-0.1,0-0.1,0C762.5,807,762.5,807,762.5,807c0.6-5.7,3-6.7,3-6.7c-0.5,2.6-2.1,5.3-2.8,6.3
			c3.5-4,5.8-3.6,5.8-3.6C766.5,805.1,763.2,806.7,762.5,807C762.5,807.1,762.5,807.1,762.5,807C762.5,807,762.5,807,762.5,807z"/>
		<path class="st6" d="M837.9,781.8C837.8,781.8,837.8,781.9,837.9,781.8C837.8,781.8,837.9,781.8,837.9,781.8c0.6-5.7,3-6.7,3-6.7
			c-0.5,2.6-2.1,5.3-2.8,6.3c3.5-4,5.8-3.6,5.8-3.6C841.9,779.9,838.5,781.5,837.9,781.8C837.9,781.9,837.8,781.9,837.9,781.8
			C837.9,781.9,837.9,781.8,837.9,781.8z"/>
		<path class="st6" d="M1207.8,657.6c-0.1,0-0.1,0-0.1,0C1207.7,657.6,1207.8,657.5,1207.8,657.6c0.6-5.7,3-6.7,3-6.7
			c-0.5,2.6-2.1,5.3-2.8,6.3c3.5-4,5.8-3.6,5.8-3.6C1211.8,655.7,1208.4,657.3,1207.8,657.6C1207.8,657.6,1207.8,657.6,1207.8,657.6
			C1207.8,657.6,1207.8,657.6,1207.8,657.6z"/>
		<path class="st6" d="M1222.7,624.6C1222.6,624.6,1222.6,624.6,1222.7,624.6C1222.6,624.6,1222.6,624.6,1222.7,624.6
			c0.6-5.7,3-6.7,3-6.7c-0.5,2.6-2.1,5.3-2.8,6.3c3.5-4,5.8-3.6,5.8-3.6C1226.7,622.7,1223.3,624.3,1222.7,624.6
			C1222.6,624.6,1222.6,624.7,1222.7,624.6C1222.7,624.6,1222.7,624.6,1222.7,624.6z"/>
		<path class="st6" d="M1114.3,677.9C1114.3,677.9,1114.2,677.9,1114.3,677.9C1114.3,677.9,1114.3,677.8,1114.3,677.9
			c0.6-5.7,3-6.7,3-6.7c-0.5,2.6-2.1,5.3-2.8,6.3c3.5-4,5.8-3.6,5.8-3.6C1118.3,676,1115,677.6,1114.3,677.9
			C1114.3,677.9,1114.3,677.9,1114.3,677.9C1114.3,677.9,1114.3,677.9,1114.3,677.9z"/>
		<path class="st6" d="M1163.5,708.8C1163.4,708.8,1163.4,708.8,1163.5,708.8C1163.4,708.8,1163.4,708.7,1163.5,708.8
			c0.6-5.7,3-6.7,3-6.7c-0.5,2.6-2.1,5.3-2.8,6.3c3.4-4,5.8-3.6,5.8-3.6C1167.4,706.9,1164.1,708.5,1163.5,708.8
			C1163.4,708.8,1163.4,708.8,1163.5,708.8C1163.5,708.8,1163.5,708.8,1163.5,708.8z"/>
		<path class="st6" d="M1013.8,758C1013.7,758.1,1013.7,758.1,1013.8,758C1013.7,758,1013.8,758,1013.8,758c0.6-5.7,3-6.7,3-6.7
			c-0.5,2.6-2.1,5.3-2.8,6.3c3.4-4,5.8-3.6,5.8-3.6C1017.8,756.2,1014.5,757.7,1013.8,758C1013.8,758.1,1013.8,758.1,1013.8,758
			C1013.8,758.1,1013.8,758,1013.8,758z"/>
		<path class="st6" d="M1020,719.6C1019.9,719.6,1019.9,719.6,1020,719.6C1019.9,719.6,1020,719.5,1020,719.6c0.6-5.7,3-6.7,3-6.7
			c-0.5,2.6-2.1,5.3-2.8,6.3c3.5-4,5.8-3.6,5.8-3.6C1024,717.7,1020.6,719.3,1020,719.6C1020,719.6,1019.9,719.6,1020,719.6
			C1020,719.6,1020,719.6,1020,719.6z"/>
		<path class="st6" d="M1069.3,726.3C1069.3,726.3,1069.2,726.3,1069.3,726.3C1069.3,726.3,1069.3,726.2,1069.3,726.3
			c0.6-5.7,3-6.7,3-6.7c-0.5,2.6-2.1,5.3-2.8,6.3c3.5-4,5.8-3.6,5.8-3.6C1073.3,724.4,1070,726,1069.3,726.3
			C1069.3,726.3,1069.3,726.3,1069.3,726.3C1069.3,726.3,1069.3,726.3,1069.3,726.3z"/>
		<path class="st6" d="M924.3,773.1C924.2,773.1,924.2,773.1,924.3,773.1C924.2,773.1,924.3,773,924.3,773.1c0.6-5.7,3-6.7,3-6.7
			c-0.5,2.6-2.1,5.3-2.8,6.3c3.5-4,5.8-3.6,5.8-3.6C928.3,771.2,925,772.8,924.3,773.1C924.3,773.1,924.3,773.1,924.3,773.1
			C924.3,773.1,924.3,773.1,924.3,773.1z"/>
		<path class="st6" d="M950.5,751.3C950.4,751.3,950.4,751.4,950.5,751.3C950.4,751.3,950.4,751.3,950.5,751.3c0.6-5.7,3-6.7,3-6.7
			c-0.5,2.6-2.1,5.3-2.8,6.3c3.5-4,5.8-3.6,5.8-3.6C954.4,749.4,951.1,751,950.5,751.3C950.4,751.4,950.4,751.4,950.5,751.3
			C950.4,751.3,950.5,751.3,950.5,751.3z"/>
		<path class="st6" d="M420.5,676.6c0.1,0,0.1,0,0.1,0C420.6,676.6,420.5,676.5,420.5,676.6c-0.6-5.7-3-6.7-3-6.7
			c0.5,2.6,2.1,5.3,2.8,6.3c-3.5-4-5.8-3.6-5.8-3.6C416.5,674.7,419.9,676.3,420.5,676.6C420.5,676.6,420.6,676.6,420.5,676.6
			C420.5,676.6,420.5,676.6,420.5,676.6z"/>
		<path class="st7" d="M-0.4,632.2l-11.3,19.4l4.2-0.4l-11.5,23.4l6.9-2.2l-9.6,20.6h45.3l-10.4-21.4l5.8,1.7L6.5,649.8l4.3,1
			L-0.4,632.2z"/>
		<path class="st7" d="M1068,712.9l-11.3,19.4l4.2-0.4l-11.5,23.4l6.9-2.2l-9.6,20.6h45.3l-10.4-21.4l5.8,1.6l-12.4-23.3l4.3,1
			L1068,712.9z"/>
		<path class="st7" d="M1104.5,691l-13.2,22.5l4.8-0.5l-13.4,27.1l8-2.6l-11.2,23.9h52.6l-12.1-24.9l6.7,1.9l-14.4-27.1l5,1.2
			L1104.5,691z"/>
		<path class="st8" d="M22.3,642.9l-11.3,19.4l4.2-0.4L3.6,685.3l6.9-2.2l-2.1,4.5c-17.3-2.5-27.3-3.8-27.3-3.8V900h518.4
			c0,0-0.1,0-0.1,0h729.4h249.5V716.2c0,0-17,0-45.6,0.5l-2-4.2l6.7,1.9l-14.3-27.1l5,1.2l-12.9-21.7l-13.2,22.6l4.9-0.5l-13.4,27.1
			l8-2.5l-1.9,4c-9.8,0.3-20.4,0.6-31.5,1l-2.9-5.9l6.7,1.9l-14.3-27.1l5,1.2l-12.9-21.7l-13.2,22.6l4.9-0.5l-13.4,27.1l8-2.5
			l-3,6.3c-31.9,1.4-67.2,3.3-103.9,6c-2.7,0.2-5.3,0.4-7.9,0.6c-5.2,0.4-10.1,0.7-14.9,1.1l-2.1-4.2l6.7,1.9l-14.4-27.1l5,1.2
			l-12.9-21.7l-13.2,22.5l4.9-0.5l-13.4,27.1l8-2.6l-2.9,6.1c-55.1,5.5-111.6,16.5-289.3,60.6l-6-11.3l3.3,0.8L871,766l-8.7,15
			l3.2-0.3l-8.3,16.7c-21.5,5.8-42.7,12-63.7,18.6c-16.2,0-32.7-0.3-49.2-1l-2.1-4.4l4.5,1.3l-9.6-18l3.3,0.8l-8.6-14.4l-8.7,15
			l3.2-0.3l-8.9,18l5.3-1.7l-1.2,2.6c-1.6-0.1-3.2-0.2-4.8-0.3l-5.5-10.4l3.3,0.8l-8.6-14.4l-8.7,15l3.2-0.3l-3.9,7.9
			c-72.2-5.9-145.9-18.6-217.6-39.4c-30.9-9-73.5-18.4-120.9-27.7l-6.6-13.5l5.8,1.7l-12.4-23.4l4.3,1L338,692.1l-11.3,19.4l4.2-0.4
			l-11.5,23.4l6.9-2.2l-2.8,6c-14-2.6-28.3-5.2-42.7-7.8L277,723l5.8,1.7l-12.4-23.4l4.3,1l-11.1-18.7l-11.3,19.4l4.2-0.4
			l-10.7,21.7c-24.7-4.2-49.4-8.3-73.1-12.1l-5.1-10.4l5.8,1.6l-12.4-23.4l4.3,1L154,662.6L142.7,682l4.2-0.4l-11.5,23.4l6.9-2.2
			l-2.1,4.5c-38.1-6-72.5-11.1-99.6-15.1l-4.8-9.9l5.8,1.7l-12.4-23.4l4.3,1L22.3,642.9z M251.7,723.9l-0.7,1.5
			c-0.9-0.1-1.7-0.3-2.6-0.4L251.7,723.9z"/>
		<path class="st6" d="M346.9,805.4c0.1,0,0.1,0.1,0.1,0.1c-0.1-0.1-0.1-0.1-0.2-0.2c-1-8.5-4.5-10-4.5-10c0.8,3.9,3.2,8.1,4.2,9.6
			c-5.2-6.1-8.9-5.5-8.9-5.5C340.8,802.5,345.8,804.9,346.9,805.4C346.9,805.4,346.9,805.4,346.9,805.4
			C346.9,805.4,346.9,805.4,346.9,805.4z"/>
		<path class="st6" d="M488.1,870.3c0.1,0,0.1,0.1,0.1,0.1c-0.1-0.1-0.1-0.1-0.2-0.2c-1-8.5-4.5-10-4.5-10c0.8,3.9,3.2,8.1,4.2,9.6
			c-5.2-6.1-8.9-5.5-8.9-5.5C482,867.4,487,869.8,488.1,870.3C488.1,870.3,488.1,870.4,488.1,870.3
			C488.1,870.3,488.1,870.3,488.1,870.3z"/>
		<path class="st6" d="M549.7,844.3c0.1,0,0.1,0.1,0.1,0.1c-0.1-0.1-0.1-0.1-0.2-0.2c-1-8.5-4.5-10-4.5-10c0.8,3.9,3.2,8.1,4.2,9.6
			c-5.2-6.1-8.9-5.5-8.9-5.5C543.6,841.4,548.7,843.8,549.7,844.3C549.7,844.3,549.7,844.3,549.7,844.3
			C549.7,844.3,549.7,844.3,549.7,844.3z"/>
		<path class="st6" d="M634.5,855c0.1,0,0.1,0.1,0.1,0.1c-0.1-0.1-0.1-0.1-0.2-0.2c-1-8.5-4.5-10-4.5-10c0.8,3.9,3.2,8.1,4.2,9.6
			c-5.2-6.1-8.9-5.5-8.9-5.5C628.4,852.1,633.5,854.5,634.5,855C634.5,855,634.5,855,634.5,855C634.5,855,634.5,855,634.5,855z"/>
		<path class="st6" d="M263.1,855c0.1,0,0.1,0.1,0.1,0.1c-0.1-0.1-0.1-0.1-0.2-0.2c-1-8.5-4.5-10-4.5-10c0.8,3.9,3.2,8.1,4.2,9.6
			c-5.2-6.1-8.9-5.5-8.9-5.5C257,852.1,262.1,854.5,263.1,855C263.1,855,263.1,855,263.1,855C263.1,855,263.1,855,263.1,855z"/>
		<path class="st6" d="M23.4,801.6c0.1,0,0.1,0.1,0.1,0.1c-0.1-0.1-0.1-0.1-0.2-0.2c-1-8.5-4.5-10-4.5-10c0.8,3.9,3.2,8.1,4.2,9.6
			c-5.2-6.1-8.9-5.5-8.9-5.5C17.3,798.7,22.3,801.1,23.4,801.6C23.4,801.6,23.4,801.7,23.4,801.6C23.4,801.6,23.4,801.6,23.4,801.6z
			"/>
		<path class="st6" d="M121.4,860.1c0.1,0,0.1,0.1,0.1,0.1c-0.1-0.1-0.1-0.1-0.2-0.2c-1-8.5-4.5-10-4.5-10c0.8,3.9,3.2,8.1,4.2,9.6
			c-5.2-6.1-8.9-5.5-8.9-5.5C115.3,857.2,120.3,859.6,121.4,860.1C121.4,860.1,121.4,860.1,121.4,860.1
			C121.4,860.1,121.4,860.1,121.4,860.1z"/>
		<path class="st6" d="M196.4,810.5c0.1,0,0.1,0.1,0.1,0.1c-0.1-0.1-0.1-0.1-0.2-0.2c-1-8.5-4.5-10-4.5-10c0.8,3.9,3.2,8.1,4.2,9.6
			c-5.2-6.1-8.9-5.5-8.9-5.5C190.3,807.6,195.3,810,196.4,810.5C196.4,810.5,196.4,810.6,196.4,810.5
			C196.4,810.5,196.4,810.5,196.4,810.5z"/>
		<path class="st6" d="M274,756.4c0.1,0,0.1,0.1,0.1,0.1c-0.1-0.1-0.1-0.1-0.2-0.2c-1-8.5-4.5-10-4.5-10c0.8,3.9,3.2,8.1,4.2,9.6
			c-5.2-6.1-8.9-5.5-8.9-5.5C267.9,753.5,273,755.9,274,756.4C274,756.4,274,756.4,274,756.4C274,756.4,274,756.4,274,756.4z"/>
		<path class="st6" d="M116.7,745c0.1,0,0.1,0.1,0.1,0.1c-0.1-0.1-0.1-0.1-0.2-0.2c-1-8.5-4.5-10-4.5-10c0.8,3.9,3.2,8.1,4.2,9.6
			c-5.2-6.1-8.9-5.5-8.9-5.5C110.6,742.1,115.6,744.5,116.7,745C116.7,745,116.7,745,116.7,745C116.7,745,116.7,745,116.7,745z"/>
		<path class="st6" d="M455.2,794.5c0.1,0,0.1,0.1,0.1,0.1c-0.1-0.1-0.1-0.1-0.2-0.2c-1-8.5-4.5-10-4.5-10c0.8,3.9,3.2,8.1,4.2,9.6
			c-5.2-6.1-8.9-5.5-8.9-5.5C449.1,791.6,454.2,794,455.2,794.5C455.2,794.5,455.2,794.5,455.2,794.5
			C455.2,794.5,455.2,794.5,455.2,794.5z"/>
		<path class="st6" d="M346.9,875.4c0.1,0,0.1,0.1,0.1,0.1c-0.1-0.1-0.1-0.1-0.2-0.2c-1-8.5-4.5-10-4.5-10c0.8,3.9,3.2,8.1,4.2,9.6
			c-5.2-6.1-8.9-5.5-8.9-5.5C340.8,872.5,345.8,874.9,346.9,875.4C346.9,875.4,346.9,875.4,346.9,875.4
			C346.9,875.4,346.9,875.4,346.9,875.4z"/>
		<path class="st6" d="M968.7,849.4c-0.1,0-0.1,0.1-0.1,0.1c0.1-0.1,0.1-0.1,0.2-0.2c1-8.5,4.5-10,4.5-10c-0.8,3.9-3.2,8.1-4.2,9.6
			c5.2-6.1,8.9-5.5,8.9-5.5C974.9,846.5,969.8,848.9,968.7,849.4C968.8,849.4,968.7,849.4,968.7,849.4
			C968.7,849.4,968.7,849.4,968.7,849.4z"/>
		<path class="st6" d="M829.2,825c-0.1,0-0.1,0.1-0.1,0.1c0.1-0.1,0.1-0.1,0.2-0.2c1-8.5,4.5-10,4.5-10c-0.8,3.9-3.2,8.1-4.2,9.6
			c5.2-6.1,8.9-5.5,8.9-5.5C835.3,822.2,830.2,824.6,829.2,825C829.2,825.1,829.2,825.1,829.2,825
			C829.2,825.1,829.2,825.1,829.2,825z"/>
		<path class="st6" d="M866.6,864.7c-0.1,0-0.1,0.1-0.1,0.1c0.1-0.1,0.1-0.1,0.2-0.2c1-8.5,4.5-10,4.5-10c-0.8,3.9-3.2,8.1-4.2,9.6
			c5.2-6.1,8.9-5.5,8.9-5.5C872.7,861.8,867.7,864.2,866.6,864.7C866.7,864.7,866.6,864.8,866.6,864.7
			C866.6,864.7,866.6,864.7,866.6,864.7z"/>
		<path class="st6" d="M745.7,886.3c-0.1,0-0.1,0.1-0.1,0.1c0.1-0.1,0.1-0.1,0.2-0.2c1-8.5,4.5-10,4.5-10c-0.8,3.9-3.2,8.1-4.2,9.6
			c5.2-6.1,8.9-5.5,8.9-5.5C751.8,883.5,746.8,885.9,745.7,886.3C745.7,886.4,745.7,886.4,745.7,886.3
			C745.7,886.4,745.7,886.4,745.7,886.3z"/>
		<path class="st6" d="M1115.9,859.6c-0.1,0-0.1,0.1-0.1,0.1c0.1-0.1,0.1-0.1,0.2-0.2c0.9-8.5,4.5-10,4.5-10
			c-0.8,3.9-3.2,8.1-4.2,9.6c5.2-6.1,8.9-5.5,8.9-5.5C1122,856.7,1116.9,859.1,1115.9,859.6C1115.9,859.6,1115.9,859.6,1115.9,859.6
			C1115.9,859.6,1115.9,859.6,1115.9,859.6z"/>
		<path class="st6" d="M1309.5,812.1c-0.1,0-0.1,0.1-0.1,0.1c0.1-0.1,0.1-0.1,0.2-0.2c1-8.5,4.5-10,4.5-10c-0.8,3.9-3.2,8.1-4.2,9.6
			c5.2-6.1,8.9-5.5,8.9-5.5C1315.7,809.2,1310.6,811.6,1309.5,812.1C1309.6,812.2,1309.5,812.2,1309.5,812.1
			C1309.5,812.2,1309.5,812.1,1309.5,812.1z"/>
		<path class="st6" d="M1386.5,768c-0.1,0-0.1,0.1-0.1,0.1c0.1-0.1,0.1-0.1,0.2-0.2c1-8.5,4.5-10,4.5-10c-0.8,3.9-3.2,8.1-4.2,9.6
			c5.2-6.1,8.9-5.5,8.9-5.5C1392.6,765.1,1387.5,767.5,1386.5,768C1386.5,768,1386.5,768,1386.5,768
			C1386.5,768,1386.5,768,1386.5,768z"/>
		<path class="st6" d="M1211.5,874.9c-0.1,0-0.1,0.1-0.1,0.1c0.1-0.1,0.1-0.1,0.2-0.2c0.9-8.5,4.5-10,4.5-10
			c-0.8,3.9-3.2,8.1-4.2,9.6c5.2-6.1,8.9-5.5,8.9-5.5C1217.6,872,1212.5,874.4,1211.5,874.9C1211.5,874.9,1211.5,875,1211.5,874.9
			C1211.5,874.9,1211.5,874.9,1211.5,874.9z"/>
		<path class="st6" d="M1386.5,869.8c-0.1,0-0.1,0.1-0.1,0.1c0.1-0.1,0.1-0.1,0.2-0.2c1-8.5,4.5-10,4.5-10c-0.8,3.9-3.2,8.1-4.2,9.6
			c5.2-6.1,8.9-5.5,8.9-5.5C1392.6,866.9,1387.5,869.3,1386.5,869.8C1386.5,869.8,1386.5,869.8,1386.5,869.8
			C1386.5,869.8,1386.5,869.8,1386.5,869.8z"/>
		<path class="st6" d="M1165,771.3c-0.1,0-0.1,0.1-0.1,0.1c0.1-0.1,0.1-0.1,0.2-0.2c1-8.5,4.5-10,4.5-10c-0.8,3.9-3.2,8.1-4.2,9.6
			c5.2-6.1,8.9-5.5,8.9-5.5C1171.1,768.5,1166.1,770.9,1165,771.3C1165,771.4,1165,771.4,1165,771.3
			C1165,771.4,1165,771.4,1165,771.3z"/>
		<path class="st6" d="M1009.2,790.3c-0.1,0-0.1,0.1-0.1,0.1c0.1-0.1,0.1-0.1,0.2-0.2c1-8.5,4.5-10,4.5-10c-0.8,3.9-3.2,8.1-4.2,9.6
			c5.2-6.1,8.9-5.5,8.9-5.5C1015.3,787.4,1010.2,789.8,1009.2,790.3C1009.2,790.3,1009.2,790.3,1009.2,790.3
			C1009.2,790.3,1009.2,790.3,1009.2,790.3z"/>
		<path class="st9" d="M294.7,91.2c0,4-3.3,7.3-7.3,7.3c-4,0-7.3-3.3-7.3-7.3c0-4,3.3-7.3,7.3-7.3C291.5,83.9,294.7,87.1,294.7,91.2
			z"/>
		<path class="st9" d="M611-3c0,4-3.3,7.3-7.3,7.3c-4,0-7.3-3.3-7.3-7.3s3.3-7.3,7.3-7.3C607.7-10.3,611-7,611-3z"/>
		<path class="st9" d="M1189.7,113.1c0,4-3.3,7.3-7.3,7.3s-7.3-3.3-7.3-7.3s3.3-7.3,7.3-7.3S1189.7,109,1189.7,113.1z"/>
		<path class="st9" d="M1403,473.5c0,4-3.3,7.3-7.3,7.3s-7.3-3.3-7.3-7.3c0-4,3.3-7.3,7.3-7.3C1399.8,466.2,1403,469.4,1403,473.5z"
			/>
		<path class="st9" d="M1053.9,206.5c0,4-3.3,7.3-7.3,7.3c-4,0-7.3-3.3-7.3-7.3s3.3-7.3,7.3-7.3
			C1050.6,199.2,1053.9,202.5,1053.9,206.5z"/>
		<path class="st9" d="M1378.2,189.2c0,4-3.3,7.3-7.3,7.3c-4,0-7.3-3.3-7.3-7.3s3.3-7.3,7.3-7.3
			C1374.9,181.9,1378.2,185.2,1378.2,189.2z"/>
		<path class="st9" d="M439.9,404.2c0,4-3.3,7.3-7.3,7.3c-4,0-7.3-3.3-7.3-7.3c0-4,3.3-7.3,7.3-7.3
			C436.6,396.9,439.9,400.2,439.9,404.2z"/>
		<path class="st9" d="M603.6,522.8c0,4-3.3,7.3-7.3,7.3c-4,0-7.3-3.3-7.3-7.3c0-4,3.3-7.3,7.3-7.3
			C600.4,515.4,603.6,518.7,603.6,522.8z"/>
		<path class="st9" d="M824.1,537.3c0,4-3.3,7.3-7.3,7.3c-4,0-7.3-3.3-7.3-7.3c0-4,3.3-7.3,7.3-7.3
			C820.8,530,824.1,533.3,824.1,537.3z"/>
		<path class="st9" d="M1016.3,494.5c0,4-3.3,7.3-7.3,7.3c-4,0-7.3-3.3-7.3-7.3c0-4,3.3-7.3,7.3-7.3
			C1013,487.2,1016.3,490.5,1016.3,494.5z"/>
		<path class="st9" d="M1233,355.6c0,4-3.3,7.3-7.3,7.3c-4,0-7.3-3.3-7.3-7.3s3.3-7.3,7.3-7.3C1229.7,348.3,1233,351.6,1233,355.6z"
			/>
		<path class="st9" d="M421.7,501.8c0,4-3.3,7.3-7.3,7.3c-4,0-7.3-3.3-7.3-7.3c0-4,3.3-7.3,7.3-7.3
			C418.5,494.5,421.7,497.8,421.7,501.8z"/>
		<path class="st9" d="M403.7,230.8c0,4-3.3,7.3-7.3,7.3c-4,0-7.3-3.3-7.3-7.3s3.3-7.3,7.3-7.3C400.4,223.5,403.7,226.7,403.7,230.8
			z"/>
		<path class="st9" d="M114.8,219.9c0,4-3.3,7.3-7.3,7.3c-4,0-7.3-3.3-7.3-7.3s3.3-7.3,7.3-7.3C111.5,212.6,114.8,215.8,114.8,219.9
			z"/>
		<path class="st9" d="M30.8,58.3c0,4-3.3,7.3-7.3,7.3c-4,0-7.3-3.3-7.3-7.3c0-4,3.3-7.3,7.3-7.3C27.6,51,30.8,54.3,30.8,58.3z"/>
		<path class="st9" d="M203.8,329.5c0,4-3.3,7.3-7.3,7.3c-4,0-7.3-3.3-7.3-7.3c0-4,3.3-7.3,7.3-7.3
			C200.5,322.2,203.8,325.4,203.8,329.5z"/>
		<path class="st9" d="M53.5,433.9c0,4-3.3,7.3-7.3,7.3s-7.3-3.3-7.3-7.3c0-4,3.3-7.3,7.3-7.3C50.2,426.6,53.5,429.8,53.5,433.9z"/>
		<path class="st9" d="M279.9,426.6c0,4-3.3,7.3-7.3,7.3c-4,0-7.3-3.3-7.3-7.3c0-4,3.3-7.3,7.3-7.3
			C276.6,419.3,279.9,422.6,279.9,426.6z"/>
		<path class="st9" d="M1046.6,380.4c0,4-3.3,7.3-7.3,7.3s-7.3-3.3-7.3-7.3c0-4,3.3-7.3,7.3-7.3S1046.6,376.4,1046.6,380.4z"/>
		<path class="st10" d="M869.8,102c0,16.3-6.7,18.2-6.7,18.2s6.7,1.8,6.7,18.2c0-16.3,6.7-18.2,6.7-18.2S869.8,118.3,869.8,102z"/>
		<path class="st10" d="M1385.2,425.8c0,16.3-6.7,18.2-6.7,18.2s6.7,1.8,6.7,18.2c0-16.3,6.7-18.2,6.7-18.2
			S1385.2,442.2,1385.2,425.8z"/>
		<path class="st10" d="M53,476.4c0,16.3-6.7,18.2-6.7,18.2s6.7,1.8,6.7,18.2c0-16.3,6.7-18.2,6.7-18.2S53,492.7,53,476.4z"/>
		<path class="st10" d="M361.9-30.1c0,24.4-10,27.1-10,27.1s10,2.7,10,27.1c0-24.4,10-27.1,10-27.1S361.9-5.7,361.9-30.1z"/>
		<path class="st10" d="M1053.9-30.1c0,24.4-10,27.1-10,27.1s10,2.7,10,27.1c0-24.4,10-27.1,10-27.1S1053.9-5.7,1053.9-30.1z"/>
		<path class="st10" d="M1407.8,18.7c0,24.4-10,27.1-10,27.1s10,2.7,10,27.1c0-24.4,10-27.1,10-27.1S1407.8,43.1,1407.8,18.7z"/>
		<path class="st10" d="M847.5,482c0,24.4-10,27.1-10,27.1s10,2.7,10,27.1c0-24.4,10-27.1,10-27.1S847.5,506.4,847.5,482z"/>
		<path class="st10" d="M147.2,105.5c0,24.4-10,27.1-10,27.1s10,2.7,10,27.1c0-24.4,10-27.1,10-27.1S147.2,129.9,147.2,105.5z"/>
		<path class="st10" d="M522.5,120c0,24.4-10,27.1-10,27.1s10,2.7,10,27.1c0-24.4,10-27.1,10-27.1S522.5,144.4,522.5,120z"/>
		<path class="st10" d="M1053.9,419.3c0,24.4-10,27.1-10,27.1s10,2.7,10,27.1c0-24.4,10-27.1,10-27.1S1053.9,443.6,1053.9,419.3z"/>
		<path class="st10" d="M1259.1,201.4c0,24.4-10,27.1-10,27.1s10,2.7,10,27.1c0-24.4,10-27.1,10-27.1S1259.1,225.7,1259.1,201.4z"/>
		<g>
			<defs>
				<rect id="SVGID_3_" x="927.5" y="577" width="204" height="238"/>
			</defs>
			<clipPath id="SVGID_4_">
				<use xlink:href="#SVGID_3_"  style="overflow:visible;"/>
			</clipPath>
			<g class="st11">
				<path class="st12" d="M1031.8,810c21.7,0,39.4-4.2,39.4-9.3s-17.6-9.3-39.4-9.3c-21.7,0-39.4,4.2-39.4,9.3
					S1010.1,810,1031.8,810z"/>
				
					<linearGradient id="SVGID_5_" gradientUnits="userSpaceOnUse" x1="958.6448" y1="649.4291" x2="1099.743" y2="789.9323" gradientTransform="matrix(1 0 0 -1 0 1409.8898)">
					<stop  offset="0" style="stop-color:#BBBDBF"/>
					<stop  offset="0.5832" style="stop-color:#DDDEDF"/>
					<stop  offset="1" style="stop-color:#F1F1F2"/>
				</linearGradient>
				<path class="st13" d="M1029.8,799.3c0,0,68.3,4.9,82.6-84.9c0.4-2.4,0.6-4.8,0.7-7.2c0.5-20.7-2.2-123.6-83.4-130.2h-0.2
					c-83.5,5.8-83.9,109.5-83.5,130.2c0.1,2.4,0.3,4.8,0.7,7.2c14.3,89.8,82.7,84.9,82.7,84.9L1029.8,799.3z"/>
				<path class="st14" d="M1127.5,815h-14.4c0,0-28.5-61.3-83.6-59.2c-55.1-2-83.6,59.2-83.6,59.2h-14.4
					c-13.7-45,11.7-94.3,15.1-100.6c0.7,4.1-3.2,18.9,82.9,18.9c86.1,0,81.9-14.6,82.8-18.3C1115.7,721.3,1141.2,770,1127.5,815z"/>
				<path class="st15" d="M1029.7,714.4c-0.1,0.1-0.2,0.3-0.3,0.6C1029.5,714.7,1029.6,714.5,1029.7,714.4z"/>
				<path class="st15" d="M1029.7,715.1c-0.2-0.3-0.3-0.5-0.3-0.6C1029.4,714.5,1029.5,714.7,1029.7,715.1z"/>
				<path class="st16" d="M1075.9,676.7c0,23.1-16.8,41.8-46.4,41.8c-29.5,0-46.4-18.7-46.4-41.8c0-23.1,16.8-41.8,46.4-41.8
					C1059,634.8,1075.9,653.6,1075.9,676.7z"/>
				<path class="st17" d="M1028.9,672.7c-18.9,0-35.1,9.2-41.5,22.2c6.5,13,23.6,24,42.5,24c18.9,0,35.6-11.3,42.1-24.3
					C1065.5,681.7,1047.8,672.7,1028.9,672.7z"/>
				<path class="st18" d="M1016,679.5c3.1,0,5.6-5.1,5.6-11.3s-2.5-11.3-5.6-11.3s-5.6,5.1-5.6,11.3S1012.9,679.5,1016,679.5z"/>
				<path class="st18" d="M1046.7,679.5c3.1,0,5.6-5.1,5.6-11.3c0-6.2-2.5-11.3-5.6-11.3c-3.1,0-5.6,5.1-5.6,11.3
					C1041.1,674.5,1043.6,679.5,1046.7,679.5z"/>
				<path class="st19" d="M1054.8,647.7c1.3,0,2.4-1.1,2.4-2.4c0-1.3-1.1-2.4-2.4-2.4c-1.3,0-2.4,1.1-2.4,2.4
					C1052.5,646.7,1053.5,647.7,1054.8,647.7z"/>
				<path class="st20" d="M1065,659.2c-0.7-0.1-1.3-0.6-1.6-1.3c-1.3-3.5-5.4-6.6-5.4-6.6c-0.9-0.6-1.1-1.9-0.4-2.8
					c0.6-0.9,1.9-1.1,2.8-0.4c0.2,0.1,5.2,3.8,6.8,8.4c0.4,1-0.1,2.2-1.2,2.5C1065.6,659.2,1065.3,659.2,1065,659.2z"/>
				<path class="st21" d="M945.9,815l5.8-2c0,0,26.3-52.3,77.8-57.3C1029.5,755.8,979,749.7,945.9,815z"/>
				<path class="st21" d="M1113.3,815l-5.8-2c0,0-26.3-52.3-77.8-57.3C1029.7,755.8,1080.2,749.7,1113.3,815z"/>
				<path class="st22" d="M989.8,782.2l19-0.6c0,0,18.4,12.7,60,3.2C1068.8,784.8,1027.2,807.8,989.8,782.2z"/>
				
					<linearGradient id="SVGID_6_" gradientUnits="userSpaceOnUse" x1="939.8616" y1="651.9461" x2="925.8132" y2="661.7414" gradientTransform="matrix(1 0 0 -1 0 1409.8898)">
					<stop  offset="0" style="stop-color:#BBBDBF"/>
					<stop  offset="0.5832" style="stop-color:#DDDEDF"/>
					<stop  offset="1" style="stop-color:#F1F1F2"/>
				</linearGradient>
				<path class="st23" d="M931.3,740.3l7-8.8l4.7,11.8L927.9,775L931.3,740.3z"/>
				<path class="st24" d="M938.3,731.5l1.6,11.3l-12,32.3l15.1-31.7L938.3,731.5z"/>
				
					<linearGradient id="SVGID_7_" gradientUnits="userSpaceOnUse" x1="1119.0338" y1="652.0468" x2="1133.0826" y2="661.841" gradientTransform="matrix(1 0 0 -1 0 1409.8898)">
					<stop  offset="0" style="stop-color:#BBBDBF"/>
					<stop  offset="0.5832" style="stop-color:#DDDEDF"/>
					<stop  offset="1" style="stop-color:#F1F1F2"/>
				</linearGradient>
				<path class="st25" d="M1127.7,740.3l-7.7-8.7l-4.1,11.7L1131,775L1127.7,740.3z"/>
				<path class="st24" d="M1120,731.6l-1,11.1l12,32.3l-15.1-31.7L1120,731.6z"/>
				<g class="st26">
					<path class="st27" d="M1058,609.2c1.4,3.8,2.1,11.3,2.3,13.6c0,0.4,0.3,0.7,0.8,0.7c11.7,0.8,14.4-4.6,15-6.4
						c0.1-0.3,0-0.6-0.2-0.9c-4.7-4-10.6-7.3-12.5-8.4c-0.3-0.2-0.7-0.1-0.9,0.1c-0.4,0.5-1.5,1.1-4,1.1L1058,609.2L1058,609.2z"/>
					<path class="st27" d="M1061.1,602c-0.4-0.5-2-2.2-5.8-3.3c-0.1,0-0.2-0.1-0.2-0.2l-3.2-8.4c-0.1-0.3,0.1-0.5,0.4-0.5
						c2.3,0.5,10.6,2.7,17.9,10c0.2,0.2,0.1,0.5-0.2,0.6c-1.5,0.3-5.4,1-8.5,1.9C1061.3,602.2,1061.2,602.2,1061.1,602z"/>
					<path class="st27" d="M1049.2,600.4c-0.1,2,0.5,3.5,1,4.3c0.2,0.4,0,0.8-0.4,1c-2.4,0.8-9.5,3.3-12.4,4.9
						c-0.3,0.2-0.7,0.1-0.9-0.2c-1.5-2.1-6.9-10.7-2.5-16.5c0.2-0.2,0.5-0.3,0.8-0.2c1.9,0.7,9.1,3.3,14.1,6.3c0,0,0.1,0.1,0.1,0.1
						l0.2,0.2L1049.2,600.4z"/>
					<path class="st27" d="M1059.9,606.2c0.8-1.2-0.2-3.3-2.3-4.8c-2.1-1.4-4.4-1.6-5.2-0.5c-0.8,1.2,0.2,3.3,2.3,4.8
						C1056.8,607.2,1059.1,607.4,1059.9,606.2z"/>
				</g>
			</g>
		</g>
		
			<radialGradient id="SVGID_8_" cx="420.5547" cy="1123.7448" r="1" gradientTransform="matrix(1.203216e-14 196.5 196.5 -1.203216e-14 -219648.8438 -82348.5)" gradientUnits="userSpaceOnUse">
			<stop  offset="0" style="stop-color:#C4C4C4"/>
			<stop  offset="1" style="stop-color:#C4C4C4;stop-opacity:0"/>
		</radialGradient>
		<circle class="st28" cx="1167" cy="290.5" r="196.5"/>
		<path class="st29" d="M62.4,242v-36.1h9v14l12.4-14h10.3l-12.9,14.7L94.9,242h-9.6l-9.6-15.6l-4.3,4.6V242H62.4z M98.8,211.3v-6.8
			h9.8v6.8H98.8z M99.5,242v-19.9h-3.9l0.8-6.7h12.2V242H99.5z M122.4,242.6c-2.9,0-5-0.6-6.3-1.9c-1.3-1.3-1.9-3.3-1.9-6.1v-30.3h9
			v29.4c0,0.9,0.2,1.5,0.5,1.8c0.4,0.3,0.9,0.4,1.6,0.4c1,0,1.9-0.1,2.7-0.4v6.1c-0.9,0.3-1.7,0.6-2.6,0.7
			C124.7,242.5,123.7,242.6,122.4,242.6z M138.2,242.6c-2.9,0-5-0.6-6.3-1.9c-1.3-1.3-1.9-3.3-1.9-6.1v-30.3h9v29.4
			c0,0.9,0.2,1.5,0.5,1.8c0.4,0.3,0.9,0.4,1.6,0.4c1,0,1.9-0.1,2.7-0.4v6.1c-0.9,0.3-1.7,0.6-2.6,0.7
			C140.5,242.5,139.5,242.6,138.2,242.6z M158.8,242.6c-2.4,0-4.6-0.2-6.7-0.6c-2.1-0.3-3.8-0.8-5.3-1.5v-7.7
			c1.6,0.7,3.5,1.3,5.4,1.7c2,0.4,3.9,0.7,5.7,0.7c2.2,0,3.9-0.2,5-0.6c1.1-0.4,1.7-1.3,1.7-2.7c0-0.9-0.3-1.7-0.8-2.2
			c-0.5-0.6-1.4-1-2.6-1.5c-1.2-0.4-2.8-1-4.9-1.6c-2.5-0.7-4.4-1.6-5.9-2.5c-1.5-0.9-2.5-2.1-3.1-3.4c-0.6-1.3-1-2.9-1-4.8
			c0-3.4,1.2-6.1,3.7-7.9c2.5-1.8,6.1-2.7,10.9-2.7c2.1,0,4.1,0.2,6.1,0.5c2,0.3,3.6,0.7,4.8,1.1v7.7c-1.6-0.6-3.2-1.1-4.9-1.4
			c-1.6-0.3-3.2-0.4-4.7-0.4c-2,0-3.7,0.2-4.9,0.6c-1.2,0.4-1.8,1.2-1.8,2.6c0,0.8,0.2,1.4,0.7,1.9c0.4,0.4,1.2,0.9,2.3,1.2
			c1.1,0.4,2.6,0.8,4.5,1.3c2.9,0.8,5.2,1.7,6.8,2.9c1.6,1.1,2.6,2.4,3.2,3.8c0.6,1.4,0.9,3,0.9,4.8c0,3.2-1.2,5.7-3.7,7.7
			C167.6,241.6,163.8,242.6,158.8,242.6z M182.8,242l-7-26.5h8.8l3.6,15.2l3.8-11.6v-3.6h6.8l4.4,15.2l3.5-15.2h8.8l-7,26.5h-8.2
			l-4.5-13.8l-4.6,13.8H182.8z M219.8,211.3v-6.8h9.8v6.8H219.8z M220.6,242v-19.9h-3.9l0.8-6.7h12.2V242H220.6z M246.3,242.6
			c-3.3,0-5.7-0.8-7.3-2.5c-1.5-1.7-2.3-4-2.3-6.9v-10.8h-3.6v-6.8h3.6v-5.5l9-2.4v8h6.4l-0.4,6.8h-6v10.2c0,1.3,0.3,2.2,1,2.7
			c0.6,0.5,1.6,0.7,2.9,0.7c1.1,0,2.2-0.2,3.3-0.6v6.1C251.1,242.2,248.9,242.6,246.3,242.6z M270.3,242.6c-4.7,0-8.5-1.2-11.1-3.5
			c-2.7-2.3-4-5.8-4-10.4c0-4.7,1.4-8.1,4.1-10.4c2.8-2.3,6.5-3.4,11.1-3.4c1.9,0,3.6,0.1,5,0.4c1.5,0.3,2.9,0.7,4.2,1.3v6.4
			c-2.1-1-4.5-1.5-7.3-1.5c-2.6,0-4.6,0.5-6,1.6c-1.3,1-2,2.9-2,5.6c0,2.5,0.6,4.3,1.9,5.5c1.3,1.1,3.3,1.7,6,1.7
			c2.7,0,5.2-0.6,7.4-1.7v6.7c-1.3,0.6-2.8,1-4.4,1.3C273.8,242.4,272.1,242.6,270.3,242.6z M284.3,242v-37.7h9v13.2
			c1-0.7,2.3-1.3,3.8-1.8c1.5-0.5,3.1-0.7,4.8-0.7c3.5,0,6.1,0.8,7.8,2.5c1.7,1.7,2.5,4.3,2.5,7.7V242h-9v-16.2c0-1.5-0.3-2.6-1-3.2
			c-0.6-0.6-1.8-1-3.4-1c-1,0-2,0.2-3,0.7c-1,0.4-1.8,1-2.5,1.7V242H284.3z M331.5,211.3v-6.8h9.8v6.8H331.5z M332.2,242v-19.9h-3.9
			l0.8-6.7h12.2V242H332.2z M356.8,242.6c-2.1,0-4.1-0.1-6-0.4s-3.4-0.7-4.5-1.1v-6.9c1.3,0.6,2.8,1,4.5,1.3
			c1.7,0.3,3.2,0.4,4.6,0.4c1.6,0,2.8-0.1,3.5-0.2c0.7-0.1,1.1-0.6,1.1-1.2c0-0.7-0.6-1.3-1.8-1.7c-1.2-0.4-2.8-0.9-4.9-1.6
			c-2.4-0.9-4.3-1.8-5.5-3c-1.2-1.2-1.8-2.9-1.8-5.1c0-2.6,1-4.6,2.9-6c2-1.4,5.1-2.1,9.4-2.1c1.7,0,3.3,0.1,5,0.4
			c1.6,0.3,3,0.6,4,0.9v6.8c-1-0.5-2.2-0.8-3.6-1.1s-2.6-0.3-3.6-0.3c-1.4,0-2.6,0.1-3.5,0.3c-0.9,0.1-1.4,0.5-1.4,1.2
			c0,0.7,0.5,1.2,1.6,1.5c1,0.3,2.6,0.7,4.5,1.3c2.1,0.6,3.7,1.3,4.9,2.1c1.2,0.7,2,1.6,2.5,2.6c0.5,1,0.7,2.3,0.7,3.8
			c0,2.7-1,4.7-3.1,6.1C364,241.9,360.9,242.6,356.8,242.6z M394.1,242.6c-1.7,0-3.2-0.3-4.7-0.9c-1.4-0.6-2.6-1.5-3.4-2.7
			c-0.9-1.3-1.3-2.8-1.3-4.7c0-2.7,0.9-4.9,2.7-6.4c1.9-1.6,4.6-2.4,8.3-2.4h7.4v-0.6c0-1.3-0.4-2.3-1.3-2.9c-0.9-0.6-2.6-0.9-5-0.9
			c-3,0-6,0.5-8.9,1.4v-5.8c1.3-0.5,2.9-1,4.8-1.3c1.9-0.3,3.9-0.5,6-0.5c4.1,0,7.3,0.8,9.6,2.5c2.4,1.7,3.5,4.3,3.5,8V242h-7.9
			l-0.4-2.2c-1,0.9-2.2,1.6-3.8,2.1C398.2,242.3,396.3,242.6,394.1,242.6z M396.9,237c1.4,0,2.7-0.2,3.7-0.7c1-0.5,1.9-1.1,2.5-1.8
			v-3.8h-6.4c-2.7,0-4,1.1-4,3.2c0,1,0.3,1.7,1,2.3S395.5,237,396.9,237z M440.7,242.6c-2.4,0-4.6-0.2-6.7-0.6
			c-2.1-0.3-3.8-0.8-5.3-1.5v-7.7c1.6,0.7,3.5,1.3,5.4,1.7c2,0.4,3.9,0.7,5.7,0.7c2.2,0,3.9-0.2,5-0.6c1.1-0.4,1.7-1.3,1.7-2.7
			c0-0.9-0.3-1.7-0.8-2.2c-0.5-0.6-1.4-1-2.6-1.5c-1.2-0.4-2.8-1-4.9-1.6c-2.5-0.7-4.4-1.6-5.9-2.5c-1.5-0.9-2.5-2.1-3.1-3.4
			c-0.6-1.3-1-2.9-1-4.8c0-3.4,1.2-6.1,3.7-7.9c2.5-1.8,6.1-2.7,10.9-2.7c2.1,0,4.1,0.2,6.1,0.5c2,0.3,3.6,0.7,4.8,1.1v7.7
			c-1.6-0.6-3.2-1.1-4.9-1.4c-1.6-0.3-3.2-0.4-4.7-0.4c-2,0-3.7,0.2-4.9,0.6c-1.2,0.4-1.8,1.2-1.8,2.6c0,0.8,0.2,1.4,0.7,1.9
			c0.4,0.4,1.2,0.9,2.3,1.2c1.1,0.4,2.6,0.8,4.5,1.3c2.9,0.8,5.2,1.7,6.8,2.9c1.6,1.1,2.6,2.4,3.2,3.8c0.6,1.4,0.9,3,0.9,4.8
			c0,3.2-1.2,5.7-3.7,7.7C449.5,241.6,445.8,242.6,440.7,242.6z M460.3,242v-26.5h8.3l0.3,2.4c1.2-0.9,2.5-1.5,4-2.1
			c1.5-0.6,3.1-0.8,4.8-0.8c1.8,0,3.2,0.3,4.2,0.8c1,0.5,1.8,1.3,2.4,2.2c1.2-0.9,2.6-1.6,4.1-2.2c1.6-0.6,3.4-0.9,5.5-0.9
			c3.1,0,5.4,0.8,6.8,2.4s2.2,4.1,2.2,7.3V242H494v-16.3c0-1.5-0.3-2.5-1-3.1c-0.6-0.7-1.6-1-3-1c-0.9,0-1.7,0.2-2.5,0.6
			c-0.8,0.3-1.5,0.8-2.1,1.5c0.1,0.4,0.1,0.8,0.1,1.2c0,0.4,0.1,0.8,0.1,1.3V242h-8.4v-16.4c0-1.3-0.2-2.4-0.7-3
			c-0.4-0.7-1.3-1-2.6-1c-0.9,0-1.8,0.2-2.6,0.7c-0.8,0.5-1.6,1-2.2,1.7v18H460.3z M515.9,242.6c-1.7,0-3.2-0.3-4.7-0.9
			c-1.4-0.6-2.6-1.5-3.4-2.7c-0.9-1.3-1.3-2.8-1.3-4.7c0-2.7,0.9-4.9,2.7-6.4c1.9-1.6,4.6-2.4,8.3-2.4h7.4v-0.6
			c0-1.3-0.4-2.3-1.3-2.9c-0.9-0.6-2.6-0.9-5-0.9c-3,0-6,0.5-8.9,1.4v-5.8c1.3-0.5,2.9-1,4.8-1.3c1.9-0.3,3.9-0.5,6-0.5
			c4.1,0,7.3,0.8,9.6,2.5c2.4,1.7,3.5,4.3,3.5,8V242h-7.9l-0.4-2.2c-1,0.9-2.2,1.6-3.8,2.1C520,242.3,518.1,242.6,515.9,242.6z
			 M518.7,237c1.4,0,2.7-0.2,3.7-0.7c1-0.5,1.9-1.1,2.5-1.8v-3.8h-6.4c-2.7,0-4,1.1-4,3.2c0,1,0.3,1.7,1,2.3S517.3,237,518.7,237z
			 M539,242v-26.5h8.6l0.3,2.5c1.2-0.7,2.6-1.3,4.3-1.9c1.7-0.6,3.4-1,5.2-1.1v6.8c-1,0.1-2.1,0.3-3.2,0.6c-1.2,0.2-2.3,0.5-3.4,0.8
			c-1,0.3-1.9,0.7-2.7,1.1V242H539z M571.6,242.6c-3.3,0-5.7-0.8-7.3-2.5c-1.5-1.7-2.3-4-2.3-6.9v-10.8h-3.6v-6.8h3.6v-5.5l9-2.4v8
			h6.4l-0.4,6.8h-6v10.2c0,1.3,0.3,2.2,1,2.7c0.6,0.5,1.6,0.7,2.9,0.7c1.1,0,2.2-0.2,3.3-0.6v6.1
			C576.4,242.2,574.2,242.6,571.6,242.6z M604.3,242v-13.3l-12.9-22.8h9.4l8.1,15l8.1-15h9.4l-12.9,22.8V242H604.3z M627.8,211.3
			v-6.8h9.8v6.8H627.8z M628.5,242v-19.9h-3.9l0.8-6.7h12.2V242H628.5z M657.5,242.6c-4.6,0-8.3-1.1-11.1-3.4
			c-2.8-2.3-4.2-5.8-4.2-10.4c0-4.2,1.2-7.6,3.5-10.1c2.3-2.5,5.8-3.8,10.4-3.8c4.2,0,7.5,1.1,9.8,3.2c2.3,2.2,3.5,5.1,3.5,8.7v4.8
			h-18.8c0.4,1.8,1.4,3,2.9,3.7c1.5,0.7,3.6,1,6.2,1c1.5,0,2.9-0.1,4.4-0.4c1.5-0.3,2.8-0.6,3.8-1v5.9c-1.3,0.6-2.8,1-4.5,1.3
			C661.5,242.4,659.6,242.6,657.5,242.6z M650.5,226.4h11v-1.2c0-1.3-0.4-2.3-1.2-3.1c-0.8-0.8-2.1-1.2-4-1.2
			c-2.2,0-3.7,0.4-4.5,1.3C651,223.2,650.5,224.6,650.5,226.4z M682.1,242.6c-2.9,0-5-0.6-6.3-1.9c-1.3-1.3-1.9-3.3-1.9-6.1v-30.3h9
			v29.4c0,0.9,0.2,1.5,0.5,1.8c0.4,0.3,0.9,0.4,1.6,0.4c1,0,1.9-0.1,2.7-0.4v6.1c-0.9,0.3-1.7,0.6-2.6,0.7
			C684.4,242.5,683.3,242.6,682.1,242.6z M702.3,242.6c-2.6,0-4.8-0.4-6.6-1.2c-1.8-0.8-3.2-2.2-4.2-4c-1-1.9-1.5-4.4-1.5-7.6
			c0-3.2,0.6-5.9,1.7-8.1c1.1-2.2,2.7-3.9,4.6-5c2-1.2,4.2-1.7,6.8-1.7c1.4,0,2.6,0.1,3.7,0.4c1.1,0.3,2.2,0.7,3.1,1.3v-12.4h9V242
			h-7.8l-0.5-2.2c-1.1,0.9-2.3,1.6-3.6,2.1C705.7,242.3,704.1,242.6,702.3,242.6z M704.9,236c2,0,3.7-0.7,5-2v-10.8
			c-1.3-1.2-2.9-1.7-4.9-1.7c-1.9,0-3.4,0.7-4.4,2.2c-1,1.4-1.5,3.4-1.5,6c0,2.5,0.5,4.2,1.4,5C701.6,235.6,703,236,704.9,236z
			 M62.4,326v-36.1h26.2v6.9H71.4v7.6h15.1v7.1H71.4V326H62.4z M99.5,326.6c-1.7,0-3.2-0.3-4.7-0.9c-1.4-0.6-2.6-1.5-3.4-2.7
			c-0.9-1.3-1.3-2.8-1.3-4.7c0-2.7,0.9-4.9,2.7-6.4c1.9-1.6,4.6-2.4,8.3-2.4h7.4v-0.6c0-1.3-0.4-2.3-1.3-2.9c-0.9-0.6-2.6-0.9-5-0.9
			c-3,0-6,0.5-8.9,1.4v-5.8c1.3-0.5,2.9-1,4.8-1.3c1.9-0.3,3.9-0.5,6-0.5c4.1,0,7.3,0.8,9.6,2.5c2.4,1.7,3.5,4.3,3.5,8V326h-7.9
			l-0.4-2.2c-1,0.9-2.2,1.6-3.8,2.1C103.6,326.3,101.8,326.6,99.5,326.6z M102.4,321c1.4,0,2.7-0.2,3.7-0.7c1-0.5,1.9-1.1,2.5-1.8
			v-3.8h-6.4c-2.7,0-4,1.1-4,3.2c0,1,0.3,1.7,1,2.3C99.9,320.7,101,321,102.4,321z M122.6,326v-26.5h8.6l0.3,2.5
			c1.2-0.7,2.6-1.3,4.3-1.9c1.7-0.6,3.4-1,5.2-1.1v6.8c-1,0.1-2.1,0.3-3.2,0.6c-1.2,0.2-2.3,0.5-3.4,0.8c-1,0.3-1.9,0.7-2.7,1.1V326
			H122.6z M144.3,326v-26.5h8.3l0.3,2.4c1.2-0.9,2.5-1.5,4-2.1c1.5-0.6,3.1-0.8,4.8-0.8c1.8,0,3.2,0.3,4.2,0.8
			c1,0.5,1.8,1.3,2.4,2.2c1.2-0.9,2.6-1.6,4.1-2.2c1.6-0.6,3.4-0.9,5.5-0.9c3.1,0,5.4,0.8,6.8,2.4c1.5,1.6,2.2,4.1,2.2,7.3V326h-8.9
			v-16.3c0-1.5-0.3-2.5-1-3.1c-0.6-0.7-1.6-1-3-1c-0.9,0-1.7,0.2-2.5,0.6c-0.8,0.3-1.5,0.8-2.1,1.5c0.1,0.4,0.1,0.8,0.1,1.2
			c0,0.4,0.1,0.8,0.1,1.3V326h-8.4v-16.4c0-1.3-0.2-2.4-0.7-3c-0.4-0.7-1.3-1-2.6-1c-0.9,0-1.8,0.2-2.6,0.7c-0.8,0.5-1.6,1-2.2,1.7
			v18H144.3z M194.2,295.3v-6.8h9.8v6.8H194.2z M195,326v-19.9h-3.9l0.8-6.7H204V326H195z M209.7,326v-26.5h8.4l0.3,2.3
			c1.1-0.7,2.4-1.4,4.1-2c1.6-0.6,3.4-0.9,5.3-0.9c3.4,0,5.9,0.8,7.5,2.5c1.6,1.6,2.4,4.2,2.4,7.6v17h-9v-16.3c0-1.5-0.3-2.6-1-3.2
			c-0.6-0.6-1.8-1-3.4-1c-1,0-2,0.2-3,0.7c-1,0.4-1.8,1-2.5,1.7V326H209.7z M254.5,335.9c-1.3,0-2.7-0.1-4.1-0.2
			c-1.5-0.1-2.8-0.3-4.1-0.5c-1.3-0.2-2.4-0.5-3.4-0.8v-6.2c1.5,0.5,3.3,0.9,5.4,1.1c2.1,0.3,4,0.4,5.8,0.4c2.3,0,4-0.1,5.1-0.4
			c1.2-0.2,1.7-0.6,1.7-1.2c0-0.5-0.2-0.9-0.7-1.1c-0.4-0.2-1.3-0.3-2.6-0.3h-7.3c-2.4,0-4.3-0.4-5.6-1.3c-1.3-0.9-2-2.1-2-3.8
			c0-1.1,0.3-2.2,1-3.2c0.7-1,1.7-1.8,3.1-2.2c-1.5-0.8-2.7-1.8-3.5-3c-0.8-1.2-1.2-2.7-1.2-4.5c0-3.4,1.1-5.9,3.3-7.5
			c2.2-1.6,5.5-2.4,9.8-2.4c0.9,0,1.9,0.1,3,0.2c1.1,0.1,1.9,0.2,2.5,0.3h10.2l-0.2,5.6h-3.9c0.9,0.9,1.4,2.3,1.4,4.1
			c0,2.6-0.8,4.6-2.5,6.2c-1.6,1.6-4.1,2.4-7.5,2.4c-0.6,0-1.1,0-1.7-0.1c-0.5-0.1-1-0.1-1.6-0.2c-1,0.1-1.8,0.3-2.5,0.6
			c-0.7,0.3-1,0.7-1,1.3c0,0.4,0.2,0.7,0.5,0.9c0.4,0.1,0.9,0.2,1.6,0.2h6.8c2.7,0,4.8,0.6,6.3,1.9c1.5,1.2,2.3,3,2.3,5.4
			C268.8,333.2,264,335.9,254.5,335.9z M255.2,312.8c2,0,3.3-0.3,4.1-1c0.7-0.7,1.1-1.8,1.1-3.4c0-1.6-0.4-2.7-1.2-3.4
			c-0.7-0.7-2.1-1.1-4-1.1c-1.8,0-3.2,0.4-4,1.1c-0.8,0.7-1.2,1.8-1.2,3.4c0,1.5,0.4,2.6,1.1,3.3
			C251.9,312.4,253.3,312.8,255.2,312.8z M285.5,326l13.8-36.1h9.7l13.8,36.1h-9.4l-3.2-8.2h-12l-3.2,8.2H285.5z M299.3,311.2h9.6
			l-4.8-12.5L299.3,311.2z M338.8,335.9c-1.3,0-2.7-0.1-4.1-0.2s-2.8-0.3-4.1-0.5c-1.3-0.2-2.4-0.5-3.4-0.8v-6.2
			c1.5,0.5,3.3,0.9,5.4,1.1c2.1,0.3,4,0.4,5.8,0.4c2.3,0,4-0.1,5.1-0.4c1.2-0.2,1.7-0.6,1.7-1.2c0-0.5-0.2-0.9-0.7-1.1
			c-0.4-0.2-1.3-0.3-2.6-0.3h-7.3c-2.4,0-4.3-0.4-5.6-1.3c-1.3-0.9-2-2.1-2-3.8c0-1.1,0.3-2.2,1-3.2c0.7-1,1.7-1.8,3.1-2.2
			c-1.5-0.8-2.7-1.8-3.5-3s-1.2-2.7-1.2-4.5c0-3.4,1.1-5.9,3.3-7.5c2.2-1.6,5.5-2.4,9.8-2.4c0.9,0,1.9,0.1,3,0.2
			c1.1,0.1,1.9,0.2,2.5,0.3h10.2l-0.2,5.6H351c0.9,0.9,1.4,2.3,1.4,4.1c0,2.6-0.8,4.6-2.5,6.2c-1.6,1.6-4.1,2.4-7.5,2.4
			c-0.6,0-1.1,0-1.7-0.1c-0.5-0.1-1-0.1-1.6-0.2c-1,0.1-1.8,0.3-2.5,0.6c-0.7,0.3-1,0.7-1,1.3c0,0.4,0.2,0.7,0.5,0.9
			c0.4,0.1,0.9,0.2,1.6,0.2h6.8c2.7,0,4.8,0.6,6.3,1.9c1.5,1.2,2.3,3,2.3,5.4C353.1,333.2,348.4,335.9,338.8,335.9z M339.5,312.8
			c2,0,3.3-0.3,4.1-1c0.7-0.7,1.1-1.8,1.1-3.4c0-1.6-0.4-2.7-1.2-3.4c-0.7-0.7-2.1-1.1-4-1.1c-1.8,0-3.2,0.4-4,1.1
			c-0.8,0.7-1.2,1.8-1.2,3.4c0,1.5,0.4,2.6,1.1,3.3C336.2,312.4,337.6,312.8,339.5,312.8z M369.5,335.9c-1.3,0-2.7-0.1-4.1-0.2
			c-1.5-0.1-2.8-0.3-4.1-0.5s-2.4-0.5-3.4-0.8v-6.2c1.5,0.5,3.3,0.9,5.4,1.1c2.1,0.3,4,0.4,5.8,0.4c2.3,0,4-0.1,5.1-0.4
			c1.2-0.2,1.7-0.6,1.7-1.2c0-0.5-0.2-0.9-0.7-1.1c-0.4-0.2-1.3-0.3-2.6-0.3h-7.3c-2.4,0-4.3-0.4-5.6-1.3c-1.3-0.9-2-2.1-2-3.8
			c0-1.1,0.3-2.2,1-3.2c0.7-1,1.7-1.8,3.1-2.2c-1.5-0.8-2.7-1.8-3.5-3c-0.8-1.2-1.2-2.7-1.2-4.5c0-3.4,1.1-5.9,3.3-7.5
			c2.2-1.6,5.5-2.4,9.8-2.4c0.9,0,1.9,0.1,3,0.2c1.1,0.1,1.9,0.2,2.5,0.3h10.2l-0.2,5.6h-3.9c0.9,0.9,1.4,2.3,1.4,4.1
			c0,2.6-0.8,4.6-2.5,6.2c-1.6,1.6-4.1,2.4-7.5,2.4c-0.6,0-1.1,0-1.7-0.1c-0.5-0.1-1-0.1-1.6-0.2c-1,0.1-1.8,0.3-2.5,0.6
			c-0.7,0.3-1,0.7-1,1.3c0,0.4,0.2,0.7,0.5,0.9c0.4,0.1,0.9,0.2,1.6,0.2h6.8c2.7,0,4.8,0.6,6.3,1.9c1.5,1.2,2.3,3,2.3,5.4
			C383.9,333.2,379.1,335.9,369.5,335.9z M370.3,312.8c2,0,3.3-0.3,4.1-1c0.7-0.7,1.1-1.8,1.1-3.4c0-1.6-0.4-2.7-1.2-3.4
			c-0.7-0.7-2.1-1.1-4-1.1c-1.8,0-3.2,0.4-4,1.1c-0.8,0.7-1.2,1.8-1.2,3.4c0,1.5,0.4,2.6,1.1,3.3C367,312.4,368.3,312.8,370.3,312.8
			z M388.2,326v-26.5h8.6l0.3,2.5c1.2-0.7,2.6-1.3,4.3-1.9c1.7-0.6,3.4-1,5.2-1.1v6.8c-1,0.1-2.1,0.3-3.2,0.6
			c-1.2,0.2-2.3,0.5-3.4,0.8c-1,0.3-1.9,0.7-2.7,1.1V326H388.2z M423.1,326.6c-4.6,0-8.3-1.1-11.1-3.4c-2.8-2.3-4.2-5.8-4.2-10.4
			c0-4.2,1.2-7.6,3.5-10.1c2.3-2.5,5.8-3.8,10.4-3.8c4.2,0,7.5,1.1,9.8,3.2c2.3,2.2,3.5,5.1,3.5,8.7v4.8h-18.8
			c0.4,1.8,1.4,3,2.9,3.7c1.5,0.7,3.6,1,6.2,1c1.5,0,2.9-0.1,4.4-0.4c1.5-0.3,2.8-0.6,3.8-1v5.9c-1.3,0.6-2.8,1-4.5,1.3
			C427.1,326.4,425.2,326.6,423.1,326.6z M416.1,310.4h11v-1.2c0-1.3-0.4-2.3-1.2-3.1c-0.8-0.8-2.1-1.2-4-1.2
			c-2.2,0-3.7,0.4-4.5,1.3C416.5,307.2,416.1,308.6,416.1,310.4z M450.9,335.9c-1.3,0-2.7-0.1-4.1-0.2c-1.5-0.1-2.8-0.3-4.1-0.5
			s-2.4-0.5-3.4-0.8v-6.2c1.5,0.5,3.3,0.9,5.4,1.1c2.1,0.3,4,0.4,5.8,0.4c2.3,0,4-0.1,5.1-0.4c1.2-0.2,1.7-0.6,1.7-1.2
			c0-0.5-0.2-0.9-0.7-1.1c-0.4-0.2-1.3-0.3-2.6-0.3h-7.3c-2.4,0-4.3-0.4-5.6-1.3c-1.3-0.9-2-2.1-2-3.8c0-1.1,0.3-2.2,1-3.2
			c0.7-1,1.7-1.8,3.1-2.2c-1.5-0.8-2.7-1.8-3.5-3c-0.8-1.2-1.2-2.7-1.2-4.5c0-3.4,1.1-5.9,3.3-7.5c2.2-1.6,5.5-2.4,9.8-2.4
			c0.9,0,1.9,0.1,3,0.2c1.1,0.1,1.9,0.2,2.5,0.3h10.2l-0.2,5.6h-3.9c0.9,0.9,1.4,2.3,1.4,4.1c0,2.6-0.8,4.6-2.5,6.2
			c-1.6,1.6-4.1,2.4-7.5,2.4c-0.6,0-1.1,0-1.7-0.1c-0.5-0.1-1-0.1-1.6-0.2c-1,0.1-1.8,0.3-2.5,0.6c-0.7,0.3-1,0.7-1,1.3
			c0,0.4,0.2,0.7,0.5,0.9c0.4,0.1,0.9,0.2,1.6,0.2h6.8c2.7,0,4.8,0.6,6.3,1.9c1.5,1.2,2.3,3,2.3,5.4
			C465.2,333.2,460.5,335.9,450.9,335.9z M451.6,312.8c2,0,3.3-0.3,4.1-1c0.7-0.7,1.1-1.8,1.1-3.4c0-1.6-0.4-2.7-1.2-3.4
			c-0.7-0.7-2.1-1.1-4-1.1c-1.8,0-3.2,0.4-4,1.1c-0.8,0.7-1.2,1.8-1.2,3.4c0,1.5,0.4,2.6,1.1,3.3
			C448.3,312.4,449.7,312.8,451.6,312.8z M477.1,326.6c-1.7,0-3.2-0.3-4.7-0.9c-1.4-0.6-2.6-1.5-3.4-2.7c-0.9-1.3-1.3-2.8-1.3-4.7
			c0-2.7,0.9-4.9,2.7-6.4c1.9-1.6,4.6-2.4,8.3-2.4h7.4v-0.6c0-1.3-0.4-2.3-1.3-2.9c-0.9-0.6-2.6-0.9-5-0.9c-3,0-6,0.5-8.9,1.4v-5.8
			c1.3-0.5,2.9-1,4.8-1.3c1.9-0.3,3.9-0.5,6-0.5c4.1,0,7.3,0.8,9.6,2.5c2.4,1.7,3.5,4.3,3.5,8V326h-7.9l-0.4-2.2
			c-1,0.9-2.2,1.6-3.8,2.1C481.2,326.3,479.3,326.6,477.1,326.6z M479.9,321c1.4,0,2.7-0.2,3.7-0.7c1-0.5,1.9-1.1,2.5-1.8v-3.8h-6.4
			c-2.7,0-4,1.1-4,3.2c0,1,0.3,1.7,1,2.3S478.5,321,479.9,321z M511.1,326.6c-3.3,0-5.7-0.8-7.3-2.5c-1.5-1.7-2.3-4-2.3-6.9v-10.8
			h-3.6v-6.8h3.6v-5.5l9-2.4v8h6.4l-0.4,6.8h-6v10.2c0,1.3,0.3,2.2,1,2.7c0.6,0.5,1.6,0.7,2.9,0.7c1.1,0,2.2-0.2,3.3-0.6v6.1
			C515.9,326.2,513.7,326.6,511.1,326.6z M535,326.6c-5.1,0-8.9-1.2-11.3-3.5c-2.4-2.4-3.6-5.8-3.6-10.3c0-4.4,1.2-7.9,3.6-10.2
			c2.5-2.4,6.2-3.6,11.3-3.6c5.1,0,8.9,1.2,11.3,3.6c2.5,2.4,3.7,5.8,3.7,10.2c0,4.5-1.2,7.9-3.6,10.3
			C543.9,325.4,540.1,326.6,535,326.6z M535,319.5c2.1,0,3.6-0.5,4.5-1.6c0.9-1,1.3-2.8,1.3-5.2s-0.4-4.2-1.3-5.2
			c-0.9-1-2.4-1.6-4.5-1.6c-2.1,0-3.5,0.5-4.4,1.6c-0.9,1-1.3,2.8-1.3,5.2s0.4,4.2,1.3,5.2C531.4,319,532.9,319.5,535,319.5z
			 M554.5,326v-26.5h8.6l0.3,2.5c1.2-0.7,2.6-1.3,4.3-1.9c1.7-0.6,3.4-1,5.2-1.1v6.8c-1,0.1-2.1,0.3-3.2,0.6
			c-1.2,0.2-2.3,0.5-3.4,0.8c-1,0.3-1.9,0.7-2.7,1.1V326H554.5z"/>
		<g class="st30">
			<path class="st31" d="M72.5,616h523c4.4,0,8,3.6,8,8v203c0,4.4-3.6,8-8,8h-523c-4.4,0-8-3.6-8-8V624
				C64.5,619.6,68.1,616,72.5,616z"/>
		</g>
		<circle class="st29" cx="310.5" cy="858" r="8"/>
		<circle class="st29" cx="358.5" cy="858" r="8"/>
		<circle class="st32" cx="334.5" cy="858" r="8"/>
		
			<linearGradient id="SVGID_9_" gradientUnits="userSpaceOnUse" x1="334" y1="793.8898" x2="334" y2="574.8898" gradientTransform="matrix(1 0 0 -1 0 1409.8898)">
			<stop  offset="0" style="stop-color:#FF017B"/>
			<stop  offset="1" style="stop-color:#0237F3"/>
		</linearGradient>
		<path class="st33" d="M72.5,616h523c4.4,0,8,3.6,8,8v203c0,4.4-3.6,8-8,8h-523c-4.4,0-8-3.6-8-8V624C64.5,619.6,68.1,616,72.5,616
			z"/>
		<defs>
			<filter id="Adobe_OpacityMaskFilter" filterUnits="userSpaceOnUse" x="64.5" y="617.5" width="539" height="254.4">
				<feColorMatrix  type="matrix" values="1 0 0 0 0  0 1 0 0 0  0 0 1 0 0  0 0 0 1 0"/>
			</filter>
		</defs>
		<mask maskUnits="userSpaceOnUse" x="64.5" y="617.5" width="539" height="254.4" id="mask0_1_">
			<path class="st34" d="M72.5,616h523c4.4,0,8,3.6,8,8v203c0,4.4-3.6,8-8,8h-523c-4.4,0-8-3.6-8-8V624
				C64.5,619.6,68.1,616,72.5,616z"/>
		</mask>
		<g class="st35">
			<path class="st36" d="M93.3,675v-20.6h5.2v8l7.1-8h5.9l-7.4,8.4l7.8,12.2h-5.5l-5.5-8.9l-2.4,2.7v6.2H93.3z M114.1,657.4v-3.9
				h5.6v3.9H114.1z M114.5,675v-11.4h-2.2l0.4-3.8h6.9V675H114.5z M127.6,675.3c-1.7,0-2.9-0.4-3.6-1.1c-0.7-0.7-1.1-1.9-1.1-3.5
				v-17.3h5.2v16.8c0,0.5,0.1,0.8,0.3,1c0.2,0.2,0.5,0.3,0.9,0.3c0.6,0,1.1-0.1,1.5-0.2v3.5c-0.5,0.2-1,0.3-1.5,0.4
				C128.9,675.3,128.4,675.3,127.6,675.3z M136.7,675.3c-1.7,0-2.9-0.4-3.6-1.1s-1.1-1.9-1.1-3.5v-17.3h5.2v16.8
				c0,0.5,0.1,0.8,0.3,1c0.2,0.2,0.5,0.3,0.9,0.3c0.6,0,1.1-0.1,1.5-0.2v3.5c-0.5,0.2-1,0.3-1.5,0.4
				C138,675.3,137.4,675.3,136.7,675.3z M148.4,675.3c-1.4,0-2.6-0.1-3.8-0.3c-1.2-0.2-2.2-0.5-3-0.9v-4.4c0.9,0.4,2,0.7,3.1,1
				c1.2,0.3,2.2,0.4,3.3,0.4c1.3,0,2.2-0.1,2.8-0.4c0.6-0.2,1-0.7,1-1.5c0-0.5-0.2-1-0.5-1.3c-0.3-0.3-0.8-0.6-1.5-0.8
				c-0.7-0.3-1.6-0.6-2.8-0.9c-1.4-0.4-2.5-0.9-3.4-1.4c-0.8-0.5-1.4-1.2-1.8-1.9c-0.4-0.7-0.5-1.7-0.5-2.8c0-2,0.7-3.5,2.1-4.5
				c1.4-1,3.5-1.6,6.2-1.6c1.2,0,2.4,0.1,3.5,0.3c1.1,0.2,2,0.4,2.8,0.6v4.4c-0.9-0.4-1.8-0.6-2.8-0.8c-0.9-0.2-1.8-0.3-2.7-0.3
				c-1.2,0-2.1,0.1-2.8,0.3c-0.7,0.2-1.1,0.7-1.1,1.5c0,0.4,0.1,0.8,0.4,1.1c0.3,0.3,0.7,0.5,1.3,0.7c0.6,0.2,1.5,0.5,2.6,0.8
				c1.7,0.4,3,1,3.9,1.6c0.9,0.6,1.5,1.3,1.9,2.2c0.3,0.8,0.5,1.7,0.5,2.8c0,1.8-0.7,3.3-2.1,4.4
				C153.5,674.8,151.3,675.3,148.4,675.3z M162.1,675l-4-15.2h5.1l2,8.7l2.1-6.6v-2.1h3.9l2.5,8.7l2-8.7h5.1l-4,15.2h-4.7l-2.6-7.9
				l-2.7,7.9H162.1z M183.3,657.4v-3.9h5.6v3.9H183.3z M183.7,675v-11.4h-2.2l0.4-3.8h6.9V675H183.7z M198.4,675.3
				c-1.9,0-3.3-0.5-4.2-1.4c-0.9-1-1.3-2.3-1.3-4v-6.2h-2v-3.9h2v-3.2l5.2-1.4v4.5h3.7l-0.2,3.9h-3.5v5.8c0,0.7,0.2,1.2,0.5,1.5
				c0.4,0.3,0.9,0.4,1.6,0.4c0.6,0,1.2-0.1,1.9-0.3v3.5C201.1,675.1,199.9,675.3,198.4,675.3z M212.1,675.3c-2.7,0-4.8-0.7-6.4-2
				c-1.5-1.3-2.3-3.3-2.3-5.9c0-2.7,0.8-4.7,2.4-6c1.6-1.3,3.7-2,6.4-2c1.1,0,2.1,0.1,2.9,0.3c0.8,0.1,1.6,0.4,2.4,0.8v3.6
				c-1.2-0.6-2.6-0.9-4.2-0.9c-1.5,0-2.6,0.3-3.4,0.9c-0.8,0.6-1.2,1.7-1.2,3.2c0,1.4,0.4,2.5,1.1,3.1c0.7,0.6,1.9,1,3.5,1
				c1.6,0,3-0.3,4.3-1v3.8c-0.8,0.3-1.6,0.6-2.5,0.7C214.2,675.2,213.2,675.3,212.1,675.3z M220.2,675v-21.6h5.2v7.5
				c0.6-0.4,1.3-0.8,2.1-1c0.9-0.3,1.8-0.4,2.8-0.4c2,0,3.5,0.5,4.4,1.4c1,1,1.4,2.4,1.4,4.4v9.6h-5.2v-9.3c0-0.9-0.2-1.5-0.5-1.9
				c-0.4-0.4-1-0.5-2-0.5c-0.6,0-1.1,0.1-1.7,0.4c-0.6,0.3-1.1,0.6-1.4,1V675H220.2z M245.4,675l7.9-20.6h5.6l7.9,20.6h-5.4
				l-1.9-4.7h-6.9l-1.8,4.7H245.4z M253.3,666.5h5.5l-2.8-7.2L253.3,666.5z M273.4,675.3c-1.8,0-3.2-0.5-4.2-1.5
				c-1-1-1.5-2.5-1.5-4.4v-9.5h5.2v9.2c0,0.9,0.2,1.5,0.6,1.9c0.4,0.4,1.1,0.6,1.9,0.6c0.6,0,1.2-0.1,1.8-0.4c0.6-0.3,1-0.6,1.4-1
				v-10.4h5.2V675h-4.8l-0.2-1.3c-0.6,0.5-1.4,0.9-2.2,1.2C275.6,675.2,274.6,675.3,273.4,675.3z M294.9,675.3c-2.7,0-4.8-0.7-6.4-2
				c-1.5-1.3-2.3-3.3-2.3-5.9c0-2.7,0.8-4.7,2.4-6c1.6-1.3,3.7-2,6.4-2c1.1,0,2.1,0.1,2.9,0.3c0.8,0.1,1.6,0.4,2.4,0.8v3.6
				c-1.2-0.6-2.6-0.9-4.2-0.9c-1.5,0-2.6,0.3-3.4,0.9c-0.8,0.6-1.2,1.7-1.2,3.2c0,1.4,0.4,2.5,1.1,3.1c0.7,0.6,1.9,1,3.5,1
				c1.6,0,3-0.3,4.3-1v3.8c-0.8,0.3-1.6,0.6-2.5,0.7C297,675.2,296,675.3,294.9,675.3z M309.2,675.3c-1.9,0-3.3-0.5-4.2-1.4
				c-0.9-1-1.3-2.3-1.3-4v-6.2h-2v-3.9h2v-3.2l5.2-1.4v4.5h3.7l-0.2,3.9h-3.5v5.8c0,0.7,0.2,1.2,0.5,1.5c0.4,0.3,0.9,0.4,1.6,0.4
				c0.6,0,1.2-0.1,1.9-0.3v3.5C312,675.1,310.7,675.3,309.2,675.3z M316,657.4v-3.9h5.6v3.9H316z M316.4,675v-11.4h-2.2l0.4-3.8h6.9
				V675H316.4z M332.7,675.3c-2.9,0-5.1-0.7-6.5-2c-1.4-1.4-2.1-3.3-2.1-5.9c0-2.5,0.7-4.5,2.1-5.9c1.4-1.4,3.6-2,6.5-2
				c2.9,0,5.1,0.7,6.5,2c1.4,1.4,2.1,3.3,2.1,5.9c0,2.6-0.7,4.5-2.1,5.9C337.8,674.6,335.7,675.3,332.7,675.3z M332.7,671.3
				c1.2,0,2-0.3,2.6-0.9c0.5-0.6,0.8-1.6,0.8-3c0-1.4-0.3-2.4-0.8-3s-1.4-0.9-2.6-0.9c-1.2,0-2,0.3-2.5,0.9c-0.5,0.6-0.8,1.6-0.8,3
				c0,1.4,0.3,2.4,0.8,3C330.7,671,331.5,671.3,332.7,671.3z M343.9,675v-15.2h4.8l0.2,1.3c0.6-0.4,1.4-0.8,2.3-1.1
				c0.9-0.3,1.9-0.5,3-0.5c2,0,3.4,0.5,4.3,1.4c0.9,0.9,1.3,2.4,1.3,4.4v9.7h-5.2v-9.3c0-0.9-0.2-1.5-0.5-1.8c-0.4-0.4-1-0.5-2-0.5
				c-0.6,0-1.1,0.1-1.7,0.4c-0.6,0.3-1.1,0.6-1.4,1V675H343.9z"/>
			<path class="st36" d="M88.6,722l5.9-15.5h4.2l5.9,15.5h-4l-1.4-3.5H94l-1.4,3.5H88.6z M94.5,715.6h4.1l-2.1-5.4L94.5,715.6z
				 M108.5,722l-4.5-11.4h4l2.5,7.4l2.5-7.4h4l-4.5,11.4H108.5z M121.6,722.2c-0.7,0-1.4-0.1-2-0.4c-0.6-0.3-1.1-0.6-1.5-1.2
				c-0.4-0.5-0.6-1.2-0.6-2c0-1.2,0.4-2.1,1.2-2.7c0.8-0.7,2-1,3.6-1h3.2v-0.3c0-0.6-0.2-1-0.6-1.2c-0.4-0.3-1.1-0.4-2.2-0.4
				c-1.3,0-2.6,0.2-3.8,0.6v-2.5c0.6-0.2,1.2-0.4,2-0.6c0.8-0.1,1.7-0.2,2.6-0.2c1.8,0,3.1,0.4,4.1,1.1c1,0.7,1.5,1.9,1.5,3.4v7.1
				h-3.4l-0.2-1c-0.4,0.4-1,0.7-1.6,0.9C123.3,722.1,122.5,722.2,121.6,722.2z M122.8,719.9c0.6,0,1.1-0.1,1.6-0.3s0.8-0.5,1.1-0.8
				v-1.6h-2.7c-1.1,0-1.7,0.5-1.7,1.4c0,0.4,0.1,0.7,0.4,1C121.7,719.7,122.2,719.9,122.8,719.9z M132.2,708.8v-2.9h4.2v2.9H132.2z
				 M132.5,722v-8.5h-1.7l0.3-2.9h5.2V722H132.5z M142.4,722.2c-1.2,0-2.1-0.3-2.7-0.8c-0.5-0.5-0.8-1.4-0.8-2.6v-13h3.9v12.6
				c0,0.4,0.1,0.6,0.2,0.8c0.2,0.1,0.4,0.2,0.7,0.2c0.4,0,0.8-0.1,1.2-0.2v2.6c-0.4,0.1-0.7,0.2-1.1,0.3
				C143.3,722.2,142.9,722.2,142.4,722.2z M149.8,722.2c-0.7,0-1.4-0.1-2-0.4c-0.6-0.3-1.1-0.6-1.5-1.2c-0.4-0.5-0.6-1.2-0.6-2
				c0-1.2,0.4-2.1,1.2-2.7c0.8-0.7,2-1,3.6-1h3.2v-0.3c0-0.6-0.2-1-0.6-1.2c-0.4-0.3-1.1-0.4-2.2-0.4c-1.3,0-2.6,0.2-3.8,0.6v-2.5
				c0.6-0.2,1.2-0.4,2-0.6c0.8-0.1,1.7-0.2,2.6-0.2c1.8,0,3.1,0.4,4.1,1.1c1,0.7,1.5,1.9,1.5,3.4v7.1H154l-0.2-1
				c-0.4,0.4-1,0.7-1.6,0.9C151.6,722.1,150.8,722.2,149.8,722.2z M151,719.9c0.6,0,1.1-0.1,1.6-0.3s0.8-0.5,1.1-0.8v-1.6H151
				c-1.1,0-1.7,0.5-1.7,1.4c0,0.4,0.1,0.7,0.4,1C150,719.7,150.4,719.9,151,719.9z M166.8,722.2c-0.8,0-1.4-0.1-2-0.3
				c-0.6-0.2-1.1-0.5-1.6-0.9l-0.2,1h-3.4v-16.2h3.9v5.3c0.4-0.3,0.9-0.4,1.5-0.6c0.5-0.1,1.1-0.2,1.7-0.2c1.7,0,3,0.5,3.9,1.4
				c1,0.9,1.4,2.4,1.4,4.4s-0.5,3.6-1.4,4.6C169.7,721.8,168.5,722.2,166.8,722.2z M165.7,719.4c0.9,0,1.5-0.3,1.8-0.8
				c0.4-0.5,0.6-1.3,0.6-2.4c0-1.1-0.2-1.9-0.6-2.4c-0.4-0.4-1-0.7-1.8-0.7c-0.9,0-1.6,0.2-2.2,0.7v4.6
				C164.1,719.1,164.9,719.4,165.7,719.4z M177.6,722.2c-1.2,0-2.1-0.3-2.7-0.8c-0.5-0.5-0.8-1.4-0.8-2.6v-13h3.9v12.6
				c0,0.4,0.1,0.6,0.2,0.8c0.2,0.1,0.4,0.2,0.7,0.2c0.4,0,0.8-0.1,1.2-0.2v2.6c-0.4,0.1-0.7,0.2-1.1,0.3
				C178.5,722.2,178.1,722.2,177.6,722.2z M187.5,722.2c-2,0-3.6-0.5-4.8-1.5c-1.2-1-1.8-2.5-1.8-4.5c0-1.8,0.5-3.2,1.5-4.3
				c1-1.1,2.5-1.6,4.5-1.6c1.8,0,3.2,0.5,4.2,1.4c1,0.9,1.5,2.2,1.5,3.7v2h-8.1c0.2,0.8,0.6,1.3,1.2,1.6c0.7,0.3,1.5,0.4,2.7,0.4
				c0.6,0,1.3-0.1,1.9-0.2c0.7-0.1,1.2-0.3,1.6-0.4v2.5c-0.5,0.3-1.2,0.4-1.9,0.6C189.3,722.2,188.4,722.2,187.5,722.2z
				 M184.5,715.3h4.7v-0.5c0-0.6-0.2-1-0.5-1.3c-0.3-0.3-0.9-0.5-1.7-0.5c-0.9,0-1.6,0.2-1.9,0.6
				C184.7,713.9,184.5,714.5,184.5,715.3z M199.7,722v-15.5h3.3l6.6,9.2v-9.2h3.9V722h-3.3l-6.6-9.2v9.2H199.7z M221.9,722.2
				c-2.2,0-3.8-0.5-4.8-1.5c-1-1-1.6-2.5-1.6-4.4c0-1.9,0.5-3.4,1.6-4.4c1.1-1,2.7-1.5,4.8-1.5c2.2,0,3.8,0.5,4.8,1.5
				c1.1,1,1.6,2.5,1.6,4.4c0,1.9-0.5,3.4-1.6,4.4C225.7,721.7,224.1,722.2,221.9,722.2z M221.9,719.2c0.9,0,1.5-0.2,1.9-0.7
				s0.6-1.2,0.6-2.2c0-1-0.2-1.8-0.6-2.2s-1-0.7-1.9-0.7c-0.9,0-1.5,0.2-1.9,0.7s-0.6,1.2-0.6,2.2c0,1,0.2,1.8,0.6,2.2
				S221,719.2,221.9,719.2z M231.7,722l-3-11.4h3.8l1.5,6.5l1.6-5v-1.6h2.9l1.9,6.5l1.5-6.5h3.8l-3,11.4h-3.5l-1.9-5.9l-2,5.9H231.7
				z M252.6,717.8l-0.1-7.2v-4.1h3.9v4.1l-0.1,7.2H252.6z M252.3,722v-2.8h4.1v2.8H252.3z"/>
			<path class="st36" d="M90.5,754v-0.9c0.3-0.7,0.7-1.2,1.2-1.8c0.5-0.5,1-1,1.6-1.5c0.4-0.4,0.8-0.7,1.1-0.9
				c0.3-0.3,0.5-0.5,0.7-0.7c0.2-0.2,0.3-0.4,0.3-0.7c0.1-0.2,0.1-0.5,0.1-0.8c0-0.6-0.2-1-0.5-1.3c-0.3-0.3-0.9-0.4-1.6-0.4
				c-0.4,0-0.8,0-1.2,0.1c-0.4,0.1-0.8,0.2-1.2,0.4V744c0.4-0.1,0.8-0.2,1.3-0.3c0.5-0.1,1-0.1,1.5-0.1c1.2,0,2,0.3,2.6,0.8
				s0.9,1.3,0.9,2.3c0,0.5-0.1,0.9-0.3,1.3c-0.2,0.4-0.4,0.7-0.7,1.1c-0.3,0.3-0.6,0.7-1,1c-0.5,0.4-1,0.8-1.4,1.2
				c-0.4,0.4-0.8,0.8-1,1.3h4.5v1.3H90.5z M102.7,754.2c-2.7,0-4-1-4-2.9c0-0.6,0.2-1.1,0.5-1.6c0.3-0.5,0.8-0.8,1.4-1
				c-0.5-0.2-0.9-0.5-1.2-0.9c-0.2-0.4-0.4-0.8-0.4-1.3c0-0.9,0.3-1.6,0.9-2.1c0.6-0.5,1.6-0.8,2.8-0.8c1.3,0,2.3,0.3,2.8,0.8
				c0.6,0.5,0.9,1.2,0.9,2.1c0,0.5-0.1,0.9-0.4,1.4c-0.2,0.4-0.7,0.7-1.2,1c0.7,0.2,1.1,0.5,1.4,0.9c0.3,0.4,0.4,0.9,0.4,1.5
				C106.7,753.2,105.4,754.2,102.7,754.2z M103.1,748.3c0.6-0.1,1-0.4,1.3-0.6c0.3-0.3,0.4-0.6,0.4-1.2c0-1.1-0.7-1.6-2.1-1.6
				c-0.7,0-1.2,0.1-1.6,0.4c-0.4,0.3-0.5,0.7-0.5,1.2c0,0.8,0.5,1.4,1.4,1.5L103.1,748.3z M102.7,752.8c0.8,0,1.4-0.1,1.8-0.4
				c0.4-0.3,0.6-0.7,0.6-1.2c0-0.5-0.1-0.9-0.4-1.1c-0.3-0.2-0.7-0.4-1.3-0.5l-1.3-0.3c-0.5,0.1-1,0.3-1.3,0.6
				c-0.3,0.3-0.5,0.7-0.5,1.3c0,0.6,0.2,1,0.6,1.3C101.3,752.7,101.9,752.8,102.7,752.8z M108.1,750.4V749h6.1v1.4H108.1z
				 M118.5,754.2c-0.3,0-0.7,0-1-0.1c-0.4,0-0.7-0.1-1.1-0.2c-0.3-0.1-0.6-0.2-0.8-0.2v-1.5c0.4,0.2,0.9,0.3,1.3,0.4
				c0.5,0.1,0.9,0.1,1.4,0.1c0.8,0,1.4-0.1,1.9-0.4c0.4-0.2,0.6-0.7,0.6-1.3c0-0.6-0.2-1-0.6-1.2c-0.4-0.2-0.9-0.4-1.6-0.4H117
				l0.1-1.3h1.3c1.4,0,2-0.5,2-1.6c0-0.5-0.2-0.9-0.5-1.2c-0.4-0.2-0.9-0.4-1.7-0.4c-0.4,0-0.9,0-1.3,0.1c-0.4,0.1-0.8,0.2-1.2,0.4
				V744c0.3-0.1,0.7-0.2,1.2-0.3s1-0.1,1.5-0.1c1.3,0,2.2,0.3,2.8,0.8c0.6,0.5,0.9,1.2,0.9,2c0,0.5-0.1,1-0.4,1.4
				c-0.2,0.4-0.6,0.8-1.2,1c0.6,0.2,1.1,0.4,1.3,0.9c0.3,0.4,0.4,0.9,0.4,1.5c0,1-0.4,1.8-1.1,2.3
				C120.7,753.9,119.7,754.2,118.5,754.2z M125.5,754v-8.8l-1.7,0.3v-1.5l3.4-0.5V754H125.5z M133,754v-10.3h1.8l3.3,6.7l3.2-6.7
				h1.8V754h-1.7v-7.5l-2.8,5.7h-1.1l-2.8-5.7v7.5H133z M147.5,754.2c-0.5,0-0.9-0.1-1.3-0.3c-0.4-0.2-0.7-0.4-1-0.8
				c-0.2-0.4-0.4-0.8-0.4-1.3c0-0.7,0.2-1.3,0.7-1.7c0.5-0.4,1.3-0.7,2.3-0.7h2.4v-0.3c0-0.4-0.1-0.7-0.2-0.9
				c-0.1-0.2-0.3-0.4-0.6-0.5c-0.3-0.1-0.7-0.1-1.3-0.1c-0.9,0-1.7,0.1-2.5,0.4v-1.3c0.3-0.1,0.8-0.3,1.2-0.3c0.5-0.1,1-0.1,1.6-0.1
				c1.1,0,2,0.2,2.5,0.7c0.6,0.4,0.9,1.2,0.9,2.2v4.9h-1.5l-0.1-0.8c-0.3,0.3-0.7,0.5-1.2,0.7C148.7,754.1,148.1,754.2,147.5,754.2z
				 M147.9,752.9c0.5,0,1-0.1,1.4-0.3c0.4-0.2,0.7-0.4,1-0.7v-1.3h-2.4c-0.5,0-0.9,0.1-1.1,0.3c-0.2,0.2-0.3,0.5-0.3,0.9
				c0,0.4,0.1,0.7,0.4,0.8C147.1,752.8,147.4,752.9,147.9,752.9z M154.8,756.8c-0.6,0-1.1-0.1-1.5-0.2v-1.3c0.2,0.1,0.3,0.1,0.5,0.1
				c0.2,0,0.3,0,0.5,0c0.3,0,0.6-0.1,0.8-0.2c0.2-0.1,0.4-0.3,0.5-0.5c0.2-0.2,0.3-0.5,0.5-0.9l-3.4-7.5h1.8l2.4,5.6l2.5-5.6h1.8
				l-3.1,7.2c-0.3,0.6-0.6,1.2-0.9,1.7c-0.3,0.5-0.6,0.9-1.1,1.2C155.9,756.7,155.4,756.8,154.8,756.8z M166.1,754v-0.9
				c0.3-0.7,0.7-1.2,1.2-1.8c0.5-0.5,1-1,1.6-1.5c0.4-0.4,0.8-0.7,1.1-0.9c0.3-0.3,0.5-0.5,0.7-0.7s0.3-0.4,0.3-0.7
				c0.1-0.2,0.1-0.5,0.1-0.8c0-0.6-0.2-1-0.5-1.3c-0.3-0.3-0.9-0.4-1.6-0.4c-0.4,0-0.8,0-1.2,0.1c-0.4,0.1-0.8,0.2-1.2,0.4V744
				c0.4-0.1,0.8-0.2,1.3-0.3c0.5-0.1,1-0.1,1.5-0.1c1.2,0,2,0.3,2.6,0.8c0.6,0.6,0.9,1.3,0.9,2.3c0,0.5-0.1,0.9-0.3,1.3
				c-0.2,0.4-0.4,0.7-0.7,1.1c-0.3,0.3-0.6,0.7-1,1c-0.5,0.4-1,0.8-1.4,1.2c-0.4,0.4-0.8,0.8-1,1.3h4.5v1.3H166.1z M178.7,754.3
				c-1.1,0-2-0.2-2.6-0.6c-0.7-0.4-1.1-1-1.5-1.8c-0.3-0.8-0.4-1.8-0.4-2.9c0-1.2,0.1-2.1,0.4-2.9c0.3-0.8,0.8-1.4,1.4-1.9
				c0.7-0.4,1.5-0.6,2.7-0.6c1.1,0,2,0.2,2.6,0.6c0.7,0.4,1.1,1,1.4,1.9c0.3,0.8,0.4,1.8,0.4,2.9c0,1.1-0.1,2.1-0.4,2.9
				c-0.3,0.8-0.8,1.4-1.4,1.8C180.7,754.1,179.8,754.3,178.7,754.3z M178.7,752.8c1,0,1.7-0.3,2.1-1c0.4-0.7,0.6-1.6,0.6-2.8
				c0-1.3-0.2-2.2-0.6-2.9c-0.4-0.7-1.1-1-2.2-1c-1,0-1.8,0.3-2.2,1c-0.4,0.7-0.6,1.7-0.6,2.9c0,1.2,0.2,2.1,0.6,2.8
				C177,752.5,177.7,752.8,178.7,752.8z M184.6,754v-0.9c0.3-0.7,0.7-1.2,1.2-1.8c0.5-0.5,1-1,1.6-1.5c0.4-0.4,0.8-0.7,1.1-0.9
				c0.3-0.3,0.5-0.5,0.7-0.7c0.2-0.2,0.3-0.4,0.3-0.7c0.1-0.2,0.1-0.5,0.1-0.8c0-0.6-0.2-1-0.5-1.3c-0.3-0.3-0.9-0.4-1.6-0.4
				c-0.4,0-0.8,0-1.2,0.1c-0.4,0.1-0.8,0.2-1.2,0.4V744c0.4-0.1,0.8-0.2,1.3-0.3c0.5-0.1,1-0.1,1.5-0.1c1.2,0,2,0.3,2.6,0.8
				c0.6,0.6,0.9,1.3,0.9,2.3c0,0.5-0.1,0.9-0.3,1.3c-0.2,0.4-0.4,0.7-0.7,1.1c-0.3,0.3-0.6,0.7-1,1c-0.5,0.4-1,0.8-1.4,1.2
				c-0.4,0.4-0.8,0.8-1,1.3h4.5v1.3H184.6z M194.4,754v-8.8l-1.7,0.3v-1.5l3.4-0.5V754H194.4z"/>
			
				<linearGradient id="SVGID_10_" gradientUnits="userSpaceOnUse" x1="510.9853" y1="656.2242" x2="439.1913" y2="709.5362" gradientTransform="matrix(1 0 0 -1 0 1409.8898)">
				<stop  offset="0" style="stop-color:#564CD8"/>
				<stop  offset="0.1338" style="stop-color:#5256D9"/>
				<stop  offset="0.3597" style="stop-color:#4970DA"/>
				<stop  offset="0.6501" style="stop-color:#399BDD"/>
				<stop  offset="0.9908" style="stop-color:#24D6E0"/>
				<stop  offset="0.9946" style="stop-color:#24D7E0"/>
			</linearGradient>
			<path class="st37" d="M446.9,790.8l89.5-1.9l-1.3-24.5l-2.3-43.9l-0.2-4.5l-0.7-1.5l-4.1-9.5l-6-28l-17-3.8l-0.1,0l-5.6,21.3
				l-3.2,12.1l-24,18.9L446.9,790.8z"/>
			<path class="st38" d="M496,706.5l6.3,8.7l5.7,30.8l-13-26.3l-22.9,5.7L496,706.5z"/>
			
				<linearGradient id="SVGID_11_" gradientUnits="userSpaceOnUse" x1="469.672" y1="643.7413" x2="440.879" y2="643.7413" gradientTransform="matrix(1 0 0 -1 0 1409.8898)">
				<stop  offset="0" style="stop-color:#8A96FF"/>
				<stop  offset="0.4811" style="stop-color:#8A96FF"/>
			</linearGradient>
			<path class="st39" d="M440.9,764.4l17.4,4.8l6.1,1.7l5.4-8.3l-20-1.3L440.9,764.4z"/>
			<path class="st40" d="M440.9,764.4l0.8,18.6l18.5,0.6l4.1-12.7L440.9,764.4z"/>
			<path class="st41" d="M464.3,770.9l-10.3-2.8l0.8,10.7l6.4,0.8L464.3,770.9z"/>
			<path class="st38" d="M504.9,673.2l9.1,7.5l7.3,92.8l13.9-9.1l3.8-2.5l-6.1-41.4l-0.9-6.1l-4.1-9.5l-6-28L504.9,673.2z"/>
			<path class="st42" d="M458.1,790.6l2.3-3.5l0.3-0.5l0.1-0.1l0.7-1.1l0.6-0.9l4.5-6.9l20.7-32l1-0.3l16.8-5.1l1.8-0.5l3.1-0.9
				l0.2-0.4l7.4-12.7l6.3-10.8l2.2-8.5l0.4-1.6l0.8-3.1l7-27l1.6-6.4l12.8-8.5l4.2-2.8l10.1-33.3l13.2,4.4l2.7,22.8l0.4,3.7
				l12.6,15.7l4.4,27.7l7.2,6.2v96l-28.4-1.7l-0.7,0l-20.2-1.2l-17.5-1l-79.2-4.6L458.1,790.6z"/>
			
				<linearGradient id="SVGID_12_" gradientUnits="userSpaceOnUse" x1="559.6193" y1="643.0545" x2="478.2452" y2="752.1615" gradientTransform="matrix(1 0 0 -1 0 1409.8898)">
				<stop  offset="1.080000e-02" style="stop-color:#2E2EA8"/>
				<stop  offset="0.2406" style="stop-color:#3060BF"/>
				<stop  offset="0.6067" style="stop-color:#33AAE1"/>
				<stop  offset="0.8691" style="stop-color:#35D9F7"/>
				<stop  offset="1" style="stop-color:#36EBFF"/>
			</linearGradient>
			<path class="st43" d="M460.8,786.5l135.1,6.2l1.3-8.8l-7.6-38.6l-9.7-32.7l-0.4-44.5l-7.6-9.6l-0.8-28.5l-8.2-6.5l-10.1,33.3
				l-17,11.3l-12,46.6l-13.9,23.9l-22.7,6.9L460.8,786.5z"/>
			<path class="st44" d="M603.5,704v45.6l-5.1-36.2l-1.2-8.4l-1-7.1L603.5,704z"/>
			<path class="st42" d="M455.7,784.5l5.1-0.1l71.1-0.8l39.1-0.4l18.9-1.6c0,0-11-52.5-17-58.2c-5.1-4.8-46.6-18.9-46.6-18.9
				l-0.8,1.3l-19.4,30.2l-24.6,8.2L458,781L455.7,784.5z"/>
			
				<linearGradient id="SVGID_13_" gradientUnits="userSpaceOnUse" x1="525.2446" y1="624.5932" x2="466.0216" y2="720.0162" gradientTransform="matrix(1 0 0 -1 0 1409.8898)">
				<stop  offset="1.080000e-02" style="stop-color:#2B2BA1"/>
				<stop  offset="0.9946" style="stop-color:#32DBED"/>
			</linearGradient>
			<path class="st45" d="M457.9,781l2.8,3.5l1.8,2.3l69.3-3l38.5-1.7l-5.4-33.3l-10.1-7.2l-2.8-17l-26.7-18.5l-19.3,30.2l-24.6,8.2
				L457.9,781z"/>
			<path class="st44" d="M481.5,744.3l29,4.1l11.7,32.4l22.4-1.6l-23.3-35.1l-15.1-8L481.5,744.3z"/>
			<path class="st44" d="M565.1,748.7l6,34.6l23.2-3.5l-11.8-30L565.1,748.7z"/>
			
				<linearGradient id="SVGID_14_" gradientUnits="userSpaceOnUse" x1="591.6482" y1="579.3101" x2="52.2507" y2="633.777" gradientTransform="matrix(1 0 0 -1 0 1409.8898)">
				<stop  offset="0" style="stop-color:#4B3DA2"/>
				<stop  offset="0.1858" style="stop-color:#4571BE"/>
				<stop  offset="0.3715" style="stop-color:#3F9DD5"/>
				<stop  offset="0.5495" style="stop-color:#3BBFE7"/>
				<stop  offset="0.7177" style="stop-color:#38D7F4"/>
				<stop  offset="0.8722" style="stop-color:#37E6FC"/>
				<stop  offset="1" style="stop-color:#36EBFF"/>
			</linearGradient>
			<path class="st46" d="M64.5,815.5l42.2-1h0l11.3,4.7l-0.4,0l-0.3,3.5l0.1,0l4.2,1.3l-0.6-3.6l1.6-0.2l-0.9-6.1l6.9-7.5l13.9,1.3
				l-0.7-3.6l-2-9.8l-1.1-5.5l18.9-6.3l86.9,6.1l72.6,5.1l0.6,0c0.8,0.1,1.2,0.1,1.2,0.1l15.1-10.1l26.5,1.8l47.9,3.2l0,0l-1-7.2
				l-0.3-2.2l23.2-3.3l20.9-3l14.5,4.4l20.2-1.9l32.2,5l85.4-5.6V834h-539V815.5z"/>
			<path class="st40" d="M335.2,810l31.8,7.7l1,0.2l27.3,8l0.5,0.6l6.9,7.4h57.8l2.5-0.5l-32.4-3.8l-0.8-0.2l-22.8-7.3l-0.2,0
				l-11.2-0.8l-26.5-7.1L367,814L335.2,810z"/>
			<path class="st41" d="M395.7,821.4l0,1.2l0.1,3.9l6.9,7.4h2.7l1.4-11.8L395.7,821.4z"/>
			
				<linearGradient id="SVGID_15_" gradientUnits="userSpaceOnUse" x1="441.827" y1="622.9996" x2="394.389" y2="635.9106" gradientTransform="matrix(1 0 0 -1 0 1409.8898)">
				<stop  offset="0" style="stop-color:#000000"/>
				<stop  offset="3.790000e-02" style="stop-color:#101010"/>
				<stop  offset="0.1936" style="stop-color:#4F4F4F"/>
				<stop  offset="0.3477" style="stop-color:#848484"/>
				<stop  offset="0.4966" style="stop-color:#B0B0B0"/>
				<stop  offset="0.6393" style="stop-color:#D3D3D3"/>
				<stop  offset="0.774" style="stop-color:#EBEBEB"/>
				<stop  offset="0.8977" style="stop-color:#FAFAFA"/>
				<stop  offset="1" style="stop-color:#FFFFFF"/>
			</linearGradient>
			<path class="st47" d="M407.2,779.5l0.3,2.2l48.9,16.7c-21.6-12.1-25.8-18.9-26-22.2L407.2,779.5z"/>
			<path class="st41" d="M429.8,829.5l0.3,4.5h30.4l2.5-0.5l-32.4-3.8L429.8,829.5z"/>
			<path class="st41" d="M335.2,810l31.8,7.7l0.1-3.8L335.2,810z"/>
			<path class="st48" d="M64.5,815.5l42.2-1h0l11.3,4.7l-0.4,0l-0.3,3.5l0.1,0l4.2,1.3l-0.6-3.6l1.6-0.2l-0.9-6.1l6.9-7.5l13.9,1.3
				l-0.7-3.6c1.7,0.7,3.4,1.6,4.2,3.2c2.3,4.6-4.1,9.7-3.1,14.8c3.1,2.5,7.1,3.4,10.7,5.1c2.9,1.4,5.6,3.8,6.4,6.7H92.2
				c-4.7-3-9.2-6.2-14-8.9c-4.4-2.4-8.8-4-13.6-5.1L64.5,815.5z"/>
			<path class="st40" d="M429.2,788l4.1,1.6l23,8.8l57.1,0.6l0.9,0l18.6,5.4l7.4,2.2l29.6,8.7l2.5,0.7l31.2,2.9V834h-61.1l-3.7-1.2
				l-2.2-0.7l-23-7.3l-23-7.3l-2.9-0.9l-13.5-4.3l-15.9-2.6l-27.6-4.5l-0.7-0.1l-9.3-1.5l-3.8-9.4l-8.2-5.1l-0.6-0.4l-0.6-9
				L429.2,788z"/>
			<path class="st42" d="M569.9,815.3l2.5,0.7l31.2,2.9V834H574L569.9,815.3L569.9,815.3z"/>
			<path class="st42" d="M456.3,798.4l1.7,11.2l15.9,2.6l13.5,4.3l-1.8-7.7l4.7,8.7l23,7.3V799L456.3,798.4z"/>
			<path class="st42" d="M513.4,799l26.2,0.6l56.4-9.7l-51.1,5.7l-50.9,3.3L513.4,799z"/>
			<path class="st41" d="M416.6,794l-11.6,6.7l-44.5,1.9h47.9l12,0.8L416.6,794z"/>
			<path class="st42" d="M532.9,804.5l3.5,27.6l2.2,0.7l1.6-26.2L532.9,804.5z"/>
			<path class="st41" d="M532.9,804.5l15.3-0.3l33.4-7.5l-32,8.2l-9.3,1.8L532.9,804.5z"/>
			<path class="st41" d="M429.2,787.9L429.2,787.9l0.5,17.1l0.7,0.1l2.7-15.5l0.2,0l36.4-3.3L429.2,787.9z"/>
			<path class="st40" d="M120.9,820.4l0.6,3.6l26,8.1l6.2,1.9h18.7l-26.1-6.9L120.9,820.4z"/>
			<path class="st41" d="M121.6,814.1l0.9,6.1l13.4-0.8L121.6,814.1z"/>
			<path class="st40" d="M107.7,819.7l9.6,3l0.3-3.5L107.7,819.7z"/>
			<path class="st41" d="M107.7,819.7l9.7,3l0.6-3.6L107.7,819.7z"/>
			<path class="st41" d="M146.5,827.1l1.1,4.9l6.2,1.9h18.7L146.5,827.1z"/>
			<path class="st48" d="M317.7,793.9l-0.6,0C317.3,793.9,317.5,793.9,317.7,793.9z"/>
			<path class="st48" d="M138.6,789l1.1,5.5c16.2,3.3,38.6,7.8,36.9,6.7c-2.5-1.7-5-8.2-9.9-13c-4.5-4.5,132.8,4.6,150.3,5.7
				l-159.6-11.2L138.6,789z"/>
			<path class="st41" d="M138.6,789l35.3,10.8l37,2.9l58,14.7H292l36.6,9.6l-37.4-7.5l-24,1.3l-58-15.1l-36.9-2.1l-30.1,4.4
				L138.6,789z"/>
			
				<linearGradient id="SVGID_16_" gradientUnits="userSpaceOnUse" x1="360.499" y1="619.2383" x2="244.458" y2="619.2383" gradientTransform="matrix(1 0 0 -1 0 1409.8898)">
				<stop  offset="0" style="stop-color:#000000"/>
				<stop  offset="3.790000e-02" style="stop-color:#101010"/>
				<stop  offset="0.1936" style="stop-color:#4F4F4F"/>
				<stop  offset="0.3477" style="stop-color:#848484"/>
				<stop  offset="0.4966" style="stop-color:#B0B0B0"/>
				<stop  offset="0.6393" style="stop-color:#D3D3D3"/>
				<stop  offset="0.774" style="stop-color:#EBEBEB"/>
				<stop  offset="0.8977" style="stop-color:#FAFAFA"/>
				<stop  offset="1" style="stop-color:#FFFFFF"/>
			</linearGradient>
			<path class="st49" d="M244.5,788.8c27.7,3,72.9,8,76.1,8.6c3.3,0.6,26.8-7.2,39.9-11.6l-26.5-1.8L318.9,794c0,0-0.4,0-1.2-0.1
				l-0.6,0L244.5,788.8z"/>
			<path class="st50" d="M562.9,623.5l8.2,6.5l5-2.1L562.9,623.5z"/>
			<path class="st38" d="M571.9,658.5l7.6,9.6l12.4,1.9l-12.6-15.7L571.9,658.5z"/>
			<path class="st44" d="M552.1,724.5l2.8,17l26,3.9l-3.4-10.5L552.1,724.5z"/>
			<path class="st44" d="M579.9,712.6l18.8,0.7l-1.3-8.5L579.9,712.6z"/>
			<path class="st42" d="M552.8,656.8l-11.3,44.7l7.1-41.9L552.8,656.8z"/>
			<path class="st38" d="M571.9,658.5l-3,24.4l5.2-21.7L571.9,658.5z"/>
			<path class="st44" d="M589.1,743.8l14.4,10.8v20.5l-8.1,0.1h-0.2l-6.3-31.5L589.1,743.8z"/>
			<path class="st44" d="M584.4,727.5l12.3,9l-11.1-4.6l-4.2,3.8L584.4,727.5z"/>
			<path class="st44" d="M576.1,627.9l-5,2.1l0.8,28.5l-0.1-27.9L576.1,627.9z"/>
			<path class="st44" d="M587,691l-7.4-5.7l-4.4,3.5l4.4-6.9L587,691z"/>
			<path class="st38" d="M506.1,736.1l15.1,8l-10.7,4.2l-29-4.1L506.1,736.1z"/>
			<path class="st44" d="M552.1,724.5l-10.7,18.4l2.5,29.6l-0.2-29.1l9.7-11.3L552.1,724.5z"/>
			<path class="st42" d="M555,741.5l-0.5,21.5l3.2-19.7L555,741.5z"/>
			<path class="st48" d="M553.4,731.9l-9.7,11.3l0.2,29.1l1.3-28.7L553.4,731.9z"/>
			<path class="st48" d="M579.9,712.6l-0.3-27.3l-4.4,3.5l3.7-2.4L579.9,712.6z"/>
			<path class="st48" d="M579.5,668.2l-5.4-6.9l-5.2,21.7l5.3-19L579.5,668.2z"/>
			<path class="st42" d="M535.1,712.6l-1.1,29.6l-2.6-33.2L535.1,712.6z"/>
			<path class="st48" d="M552.1,724.5l-17-11.8l-1.1,29.6l1.7-28.2L552.1,724.5z"/>
			<path class="st42" d="M499.8,746.9l10-3.2l-16.5,2.3l1.7,26.6L499.8,746.9z"/>
			<path class="st48" d="M510.5,748.4l-10.8-1.5l-4.8,25.7l5.7-24.8L510.5,748.4z"/>
			
				<linearGradient id="SVGID_17_" gradientUnits="userSpaceOnUse" x1="496.04" y1="693.9108" x2="472.086" y2="693.9108" gradientTransform="matrix(1 0 0 -1 0 1409.8898)">
				<stop  offset="0" style="stop-color:#8A96FF"/>
				<stop  offset="0.4811" style="stop-color:#8A96FF"/>
			</linearGradient>
			<path class="st51" d="M496,706.5l-1,13.2l-22.9,5.7L496,706.5z"/>
			<path class="st52" d="M511.4,677.9l-2.6,36.3l-0.1-38.7L511.4,677.9z"/>
			<path class="st52" d="M486.7,722.2l3.8-9l-7.1,9.8l0.3,17.9L486.7,722.2z"/>
			
				<linearGradient id="SVGID_18_" gradientUnits="userSpaceOnUse" x1="458.252" y1="644.5798" x2="440.879" y2="644.5798" gradientTransform="matrix(1 0 0 -1 0 1409.8898)">
				<stop  offset="0" style="stop-color:#000000"/>
				<stop  offset="3.790000e-02" style="stop-color:#101010"/>
				<stop  offset="0.1936" style="stop-color:#4F4F4F"/>
				<stop  offset="0.3477" style="stop-color:#848484"/>
				<stop  offset="0.4966" style="stop-color:#B0B0B0"/>
				<stop  offset="0.6393" style="stop-color:#D3D3D3"/>
				<stop  offset="0.774" style="stop-color:#EBEBEB"/>
				<stop  offset="0.8977" style="stop-color:#FAFAFA"/>
				<stop  offset="1" style="stop-color:#FFFFFF"/>
			</linearGradient>
			<path class="st53" d="M440.9,764.4l17.4,4.8c-6.1-3.2-8.5-7.9-8.5-7.9L440.9,764.4z"/>
			
				<linearGradient id="SVGID_19_" gradientUnits="userSpaceOnUse" x1="510.766" y1="720.7097" x2="498.151" y2="728.4717" gradientTransform="matrix(1 0 0 -1 0 1409.8898)">
				<stop  offset="0" style="stop-color:#000000"/>
				<stop  offset="3.790000e-02" style="stop-color:#101010"/>
				<stop  offset="0.1936" style="stop-color:#4F4F4F"/>
				<stop  offset="0.3477" style="stop-color:#848484"/>
				<stop  offset="0.4966" style="stop-color:#B0B0B0"/>
				<stop  offset="0.6393" style="stop-color:#D3D3D3"/>
				<stop  offset="0.774" style="stop-color:#EBEBEB"/>
				<stop  offset="0.8977" style="stop-color:#FAFAFA"/>
				<stop  offset="1" style="stop-color:#FFFFFF"/>
			</linearGradient>
			<path class="st54" d="M499.2,694.5c2.4-1.3,5-3.2,6.6-6c3.9-6.4,8.2-7.7,8.2-7.7l-9.1-7.6l-0.1,0L499.2,694.5z"/>
			<path class="st52" d="M504.9,673.2l9.1,7.5l7.9-3.8L504.9,673.2z"/>
			<path class="st55" d="M460.3,716.6c0,0.6,0.5,1.1,1.1,1.1c0.6,0,1.1-0.5,1.1-1.1c0-0.6-0.5-1.1-1.1-1.1
				C460.8,715.6,460.3,716,460.3,716.6z"/>
			<path class="st55" d="M283,732.3c0,0.6,0.5,1.1,1.1,1.1s1.1-0.5,1.1-1.1c0-0.6-0.5-1.1-1.1-1.1S283,731.8,283,732.3z"/>
			<path class="st55" d="M293.7,747.4c0,0.6,0.5,1,1.1,1c0.6,0,1.1-0.5,1.1-1c0-0.6-0.5-1.1-1.1-1.1
				C294.1,746.4,293.7,746.9,293.7,747.4z"/>
			<path class="st55" d="M327.1,719.3c0,0.6,0.5,1.1,1.1,1.1s1.1-0.5,1.1-1.1c0-0.6-0.5-1.1-1.1-1.1
				C327.6,718.3,327.1,718.8,327.1,719.3z"/>
			<path class="st55" d="M438.9,742c0,0.6,0.5,1.1,1.1,1.1s1.1-0.5,1.1-1.1c0-0.6-0.5-1-1.1-1C439.4,740.9,438.9,741.4,438.9,742z"
				/>
			<path class="st56" d="M486,699.5c0,0.4,0.4,0.8,0.8,0.8c0.4,0,0.8-0.4,0.8-0.8c0-0.4-0.3-0.8-0.8-0.8
				C486.3,698.7,486,699,486,699.5z"/>
			<path class="st56" d="M437.1,738.8c0.4,0,0.8-0.4,0.8-0.8c0-0.4-0.4-0.8-0.8-0.8c-0.4,0-0.8,0.4-0.8,0.8
				C436.4,738.4,436.7,738.8,437.1,738.8z"/>
			<path class="st56" d="M462.2,720.4c0.4,0,0.8-0.4,0.8-0.8c0-0.4-0.4-0.8-0.8-0.8s-0.8,0.4-0.8,0.8
				C461.4,720,461.8,720.4,462.2,720.4z"/>
			<path class="st56" d="M464.4,717.2c0,0.4,0.4,0.8,0.8,0.8c0.4,0,0.8-0.3,0.8-0.8c0-0.4-0.4-0.8-0.8-0.8
				C464.8,716.5,464.4,716.8,464.4,717.2z"/>
			<path class="st57" d="M478.2,666.1c0,0.6,0.5,1.1,1.1,1.1s1.1-0.5,1.1-1.1c0-0.6-0.5-1-1.1-1S478.2,665.5,478.2,666.1z"/>
			<path class="st55" d="M469.4,667.1c0,0.6,0.5,1,1.1,1s1.1-0.5,1.1-1c0-0.6-0.5-1.1-1.1-1.1S469.4,666.5,469.4,667.1z"/>
			<path class="st57" d="M486.8,675.9c0,0.6,0.5,1.1,1.1,1.1s1.1-0.5,1.1-1.1c0-0.6-0.5-1.1-1.1-1.1S486.8,675.3,486.8,675.9z"/>
			<path class="st55" d="M462.6,687.5c0,0.6,0.5,1.1,1.1,1.1c0.6,0,1.1-0.5,1.1-1.1c0-0.6-0.5-1.1-1.1-1.1
				C463.1,686.4,462.6,686.9,462.6,687.5z"/>
			<path class="st56" d="M480.1,676.9c0,0.4,0.4,0.8,0.8,0.8c0.4,0,0.8-0.4,0.8-0.8c0-0.4-0.4-0.8-0.8-0.8
				C480.5,676.1,480.1,676.4,480.1,676.9z"/>
			<path class="st56" d="M471.3,685.8c0.4,0,0.8-0.4,0.8-0.8c0-0.4-0.4-0.8-0.8-0.8s-0.8,0.4-0.8,0.8
				C470.5,685.4,470.9,685.8,471.3,685.8z"/>
			<path class="st56" d="M468.7,674c0,0.4,0.4,0.8,0.8,0.8s0.8-0.4,0.8-0.8c0-0.4-0.4-0.8-0.8-0.8S468.7,673.6,468.7,674z"/>
			<path class="st57" d="M209.9,767.2c0-0.6-0.5-1-1.1-1c-0.6,0-1,0.5-1,1.1c0,0.6,0.5,1,1.1,1C209.5,768.2,209.9,767.7,209.9,767.2
				z"/>
			<path class="st55" d="M218.6,765.5c0-0.6-0.5-1-1.1-1c-0.6,0-1,0.5-1,1.1c0,0.6,0.5,1,1.1,1C218.2,766.5,218.7,766,218.6,765.5z"
				/>
			<path class="st57" d="M200.6,758c0-0.6-0.5-1-1.1-1c-0.6,0-1,0.5-1,1.1c0,0.6,0.5,1,1.1,1C200.2,759.1,200.6,758.6,200.6,758z"/>
			<path class="st55" d="M223.8,744.7c0-0.6-0.5-1-1.1-1c-0.6,0-1,0.5-1,1.1c0,0.6,0.5,1,1.1,1C223.4,745.8,223.9,745.3,223.8,744.7
				z"/>
			<path class="st56" d="M207.2,756.5c0-0.4-0.4-0.8-0.8-0.7c-0.4,0-0.8,0.4-0.7,0.8c0,0.4,0.4,0.8,0.8,0.7
				C206.9,757.4,207.2,757,207.2,756.5z"/>
			<path class="st56" d="M216.1,747.7c0-0.4-0.4-0.8-0.8-0.7c-0.4,0-0.8,0.4-0.7,0.8c0,0.4,0.4,0.8,0.8,0.7
				C215.9,748.5,216.2,748.2,216.1,747.7z"/>
			<path class="st56" d="M218.7,758.5c0-0.4-0.4-0.8-0.8-0.7c-0.4,0-0.8,0.4-0.7,0.8c0,0.4,0.4,0.8,0.8,0.7
				C218.5,759.3,218.8,759,218.7,758.5z"/>
			<path class="st57" d="M160.5,750.6c0,0.6,0.5,1,1.1,1c0.6,0,1.1-0.5,1.1-1c0-0.6-0.5-1.1-1.1-1.1
				C160.9,749.5,160.5,750,160.5,750.6z"/>
			<path class="st55" d="M151.6,751.6c0,0.6,0.5,1.1,1.1,1.1c0.6,0,1.1-0.5,1.1-1.1c0-0.6-0.5-1-1.1-1
				C152.1,750.6,151.6,751,151.6,751.6z"/>
			<path class="st57" d="M169.1,760.4c0,0.6,0.5,1,1.1,1c0.6,0,1.1-0.5,1.1-1c0-0.6-0.5-1.1-1.1-1.1
				C169.5,759.4,169.1,759.9,169.1,760.4z"/>
			<path class="st55" d="M144.9,772c0,0.6,0.5,1.1,1.1,1.1c0.6,0,1.1-0.5,1.1-1.1c0-0.6-0.5-1.1-1.1-1.1
				C145.4,770.9,144.9,771.4,144.9,772z"/>
			<path class="st56" d="M163.2,762.2c0.4,0,0.8-0.4,0.8-0.8c0-0.4-0.4-0.8-0.8-0.8s-0.8,0.4-0.8,0.8
				C162.4,761.8,162.7,762.2,163.2,762.2z"/>
			<path class="st56" d="M153.6,770.3c0.4,0,0.8-0.4,0.8-0.8c0-0.4-0.4-0.8-0.8-0.8s-0.8,0.4-0.8,0.8
				C152.8,769.9,153.1,770.3,153.6,770.3z"/>
			<path class="st56" d="M151,758.5c0,0.4,0.4,0.8,0.8,0.8c0.4,0,0.8-0.4,0.8-0.8c0-0.4-0.3-0.8-0.8-0.8
				C151.3,757.8,151,758.1,151,758.5z"/>
			<path class="st57" d="M549.6,634.2c0,0.5,0.4,0.8,0.8,0.8s0.8-0.4,0.8-0.8s-0.4-0.8-0.8-0.8S549.6,633.7,549.6,634.2z"/>
			<path class="st57" d="M594.4,634.8c0,0.6,0.5,1.1,1.1,1.1s1.1-0.5,1.1-1.1c0-0.6-0.5-1.1-1.1-1.1S594.4,634.2,594.4,634.8z"/>
			<path class="st58" d="M593.6,621.3c0,0.3,0.3,0.6,0.6,0.6c0.4,0,0.6-0.3,0.6-0.6c0-0.4-0.3-0.6-0.6-0.6
				C593.9,620.7,593.6,621,593.6,621.3z"/>
			<path class="st58" d="M589.7,618.2c0,0.4,0.3,0.6,0.6,0.6s0.6-0.3,0.6-0.6c0-0.4-0.3-0.6-0.6-0.6S589.7,617.8,589.7,618.2z"/>
			
				<linearGradient id="SVGID_20_" gradientUnits="userSpaceOnUse" x1="64.5" y1="563.5392" x2="110.008" y2="563.5392" gradientTransform="matrix(1 0 0 -1 0 1409.8898)">
				<stop  offset="0" style="stop-color:#4B3DA2"/>
				<stop  offset="0.1858" style="stop-color:#4571BE"/>
				<stop  offset="0.3715" style="stop-color:#3F9DD5"/>
				<stop  offset="0.5495" style="stop-color:#3BBFE7"/>
				<stop  offset="0.7177" style="stop-color:#38D7F4"/>
				<stop  offset="0.8722" style="stop-color:#37E6FC"/>
				<stop  offset="1" style="stop-color:#36EBFF"/>
			</linearGradient>
			<path class="st59" d="M64.5,834l45.5,24.7L92.2,834H64.5z"/>
			
				<linearGradient id="SVGID_21_" gradientUnits="userSpaceOnUse" x1="123.4157" y1="551.4139" x2="122.9788" y2="576.4371" gradientTransform="matrix(1 0 0 -1 0 1409.8898)">
				<stop  offset="0" style="stop-color:#4B3DA2"/>
				<stop  offset="0.1858" style="stop-color:#4571BE"/>
				<stop  offset="0.3715" style="stop-color:#3F9DD5"/>
				<stop  offset="0.5495" style="stop-color:#3BBFE7"/>
				<stop  offset="0.7177" style="stop-color:#38D7F4"/>
				<stop  offset="0.8722" style="stop-color:#37E6FC"/>
				<stop  offset="1" style="stop-color:#36EBFF"/>
			</linearGradient>
			<path class="st60" d="M110,858.7l43.8-24.7H92.2L110,858.7z"/>
			<path class="st48" d="M92.2,834l10.1,14l11-7.6l20.3-0.3l20.2-6.2H92.2z"/>
			
				<linearGradient id="SVGID_22_" gradientUnits="userSpaceOnUse" x1="343.2045" y1="516.2206" x2="234.1666" y2="633.2994" gradientTransform="matrix(1 0 0 -1 0 1409.8898)">
				<stop  offset="0" style="stop-color:#4B3DA2"/>
				<stop  offset="0.1858" style="stop-color:#4571BE"/>
				<stop  offset="0.3715" style="stop-color:#3F9DD5"/>
				<stop  offset="0.5495" style="stop-color:#3BBFE7"/>
				<stop  offset="0.7177" style="stop-color:#38D7F4"/>
				<stop  offset="0.8722" style="stop-color:#37E6FC"/>
				<stop  offset="1" style="stop-color:#36EBFF"/>
			</linearGradient>
			<path class="st61" d="M172.5,834l27,10.4h38L259,841l140.1,0.6l3.7-7.7H172.5z"/>
			<path class="st41" d="M110,858.7l2.2,6.3l42.2-24h18.2l24.3,13.8l40.4,0.8l23.7-7.6h136.8l1.4-6.4L259,841l-21.5,3.4h-38
				l-27-10.4h-18.7L110,858.7z"/>
			<path class="st41" d="M402.7,834l-3.7,7.7l-1.4,6.4l65.2-14.5L402.7,834z"/>
			<path class="st42" d="M397.7,848l146.9-3.7l35.1,7.2l7,20.4l16.9-38l-140.6-0.5L397.7,848z"/>
		</g>
		<g class="st30">
			<defs>
				
					<rect id="SVGID_23_" x="363.3" y="647.6" transform="matrix(0.9868 -0.1618 0.1618 0.9868 -112.8103 80.179)" width="145" height="170"/>
			</defs>
			<clipPath id="SVGID_24_" class="st62">
				<use xlink:href="#SVGID_23_"  style="overflow:visible;"/>
			</clipPath>
			<g class="st63">
				<path class="st12" d="M450.6,812.7c15.2-2.5,27.1-7.5,26.5-11.1c-0.6-3.6-13.4-4.5-28.7-2c-15.2,2.5-27.1,7.5-26.5,11.1
					C422.5,814.3,435.4,815.2,450.6,812.7z"/>
				
					<linearGradient id="SVGID_25_" gradientUnits="userSpaceOnUse" x1="393.2613" y1="623.901" x2="476.5524" y2="738.7579" gradientTransform="matrix(1 0 0 -1 0 1409.8898)">
					<stop  offset="0" style="stop-color:#BBBDBF"/>
					<stop  offset="0.5832" style="stop-color:#DDDEDF"/>
					<stop  offset="1" style="stop-color:#F1F1F2"/>
				</linearGradient>
				<path class="st64" d="M447.9,805.4c0,0,48.5-4.4,48.1-69.3c0-1.7-0.1-3.4-0.4-5.1c-2.1-14.7-15.8-86.9-73.6-82.2l-0.1,0
					c-57.9,13.7-46.2,86.8-43.5,101.4c0.3,1.7,0.8,3.3,1.3,5c20.4,61.7,67.8,50.3,67.8,50.3L447.9,805.4z"/>
				<path class="st14" d="M518.3,805.2l-10.1,1.7c0,0-27.1-39.9-65.5-32.1c-38.9,4.9-51.8,51.4-51.8,51.4l-10.1,1.7
					c-14.8-30.1-2.7-67.8-1-72.7c1,2.8-0.1,13.7,60.3,3.8c60.4-9.9,55.8-19.7,56-22.5C499.2,740.5,522.7,771.9,518.3,805.2z"/>
				<path class="st15" d="M438.1,745.6c0,0.1-0.1,0.2-0.2,0.5C437.9,745.8,438,745.6,438.1,745.6z"/>
				<path class="st15" d="M438.1,746c-0.2-0.2-0.3-0.4-0.3-0.4C437.9,745.7,438,745.8,438.1,746z"/>
				<path class="st16" d="M466.1,713.6c2.7,16.3-7,31.4-27.7,34.8c-20.7,3.4-34.7-7.8-37.4-24.1c-2.7-16.3,7-31.4,27.7-34.8
					C449.4,686.1,463.4,697.4,466.1,713.6z"/>
				<path class="st17" d="M432.7,716.2c-13.3,2.2-23.5,10.5-26.6,20.4c6,8.4,19.3,14.2,32.6,12c13.3-2.2,23.7-12,26.7-21.9
					C459.4,718.4,445.9,714.1,432.7,716.2z"/>
				<path class="st18" d="M424.4,722.5c2.2-0.4,3.3-4.2,2.6-8.6c-0.7-4.4-3.1-7.7-5.2-7.3c-2.2,0.4-3.3,4.2-2.6,8.6
					C419.9,719.6,422.2,722.9,424.4,722.5z"/>
				<path class="st18" d="M446,719c2.2-0.4,3.3-4.2,2.6-8.6c-0.7-4.4-3.1-7.7-5.2-7.3c-2.2,0.4-3.3,4.2-2.6,8.6
					C441.5,716.1,443.8,719.4,446,719z"/>
				<path class="st19" d="M448,695.7c0.9-0.2,1.5-1,1.4-2s-1-1.6-1.9-1.4c-0.9,0.2-1.5,1-1.4,2C446.2,695.2,447.1,695.8,448,695.7z"
					/>
				<path class="st20" d="M456.4,702.6c-0.5,0-1-0.2-1.3-0.7c-1.3-2.3-4.5-4-4.6-4c-0.7-0.4-1-1.2-0.6-1.9c0.3-0.7,1.2-1,1.9-0.6
					c0.2,0.1,4,2.1,5.8,5.2c0.4,0.7,0.1,1.5-0.5,1.9C456.9,702.5,456.6,702.6,456.4,702.6z"/>
				<path class="st21" d="M390.9,826.1l3.8-2.1c0,0,12.4-39.9,48-49.3C442.7,774.7,406.6,776.3,390.9,826.1z"/>
				<path class="st21" d="M508.3,806.9l-4.3-0.7c0,0-24.5-33.9-61.2-31.4C442.8,774.7,477.6,764.6,508.3,806.9z"/>
				<path class="st22" d="M418,797.9l13.2-2.6c0,0,14.4,6.8,42.5-4.7C473.6,790.7,447.1,811.7,418,797.9z"/>
				
					<linearGradient id="SVGID_26_" gradientUnits="userSpaceOnUse" x1="380.0976" y1="623.3286" x2="369.0861" y2="628.5678" gradientTransform="matrix(1 0 0 -1 0 1409.8898)">
					<stop  offset="0" style="stop-color:#BBBDBF"/>
					<stop  offset="0.5832" style="stop-color:#DDDEDF"/>
					<stop  offset="1" style="stop-color:#F1F1F2"/>
				</linearGradient>
				<path class="st65" d="M372,775.1l3.9-7l4.7,7.8l-6.9,24.1L372,775.1z"/>
				<path class="st24" d="M375.9,768.1l2.5,7.7l-4.7,24.2l6.9-24.1L375.9,768.1z"/>
				
					<linearGradient id="SVGID_27_" gradientUnits="userSpaceOnUse" x1="505.7286" y1="644.0034" x2="514.4891" y2="652.4819" gradientTransform="matrix(1 0 0 -1 0 1409.8898)">
					<stop  offset="0" style="stop-color:#BBBDBF"/>
					<stop  offset="0.5832" style="stop-color:#DDDEDF"/>
					<stop  offset="1" style="stop-color:#F1F1F2"/>
				</linearGradient>
				<path class="st66" d="M509.8,752.5l-6.4-5.2l-1.5,8.7l14.2,20.6L509.8,752.5z"/>
				<path class="st24" d="M503.4,747.3l0.6,7.9l12.2,21.4L501.9,756L503.4,747.3z"/>
				<g class="st26">
					<path class="st27" d="M445.8,668.2c1.4,2.5,2.8,7.7,3.2,9.3c0.1,0.3,0.3,0.5,0.6,0.4c8.3-0.8,9.6-4.9,9.8-6.2
						c0-0.2-0.1-0.5-0.3-0.6c-3.7-2.3-8.3-4-9.8-4.5c-0.2-0.1-0.5,0-0.6,0.2c-0.3,0.4-0.9,1-2.7,1.2L445.8,668.2L445.8,668.2z"/>
					<path class="st27" d="M447.1,662.8c-0.4-0.3-1.6-1.3-4.5-1.7c-0.1,0-0.1-0.1-0.2-0.1l-3.2-5.6c-0.1-0.2,0-0.4,0.2-0.4
						c1.7,0.1,7.8,0.7,13.7,5c0.2,0.1,0.1,0.4-0.1,0.4c-1,0.4-3.7,1.3-5.8,2.3C447.3,662.8,447.2,662.8,447.1,662.8z"/>
					<path class="st27" d="M438.6,663c0.1,1.4,0.8,2.4,1.2,2.9c0.2,0.2,0.1,0.6-0.1,0.7c-1.6,0.9-6.3,3.4-8.1,4.9
						c-0.2,0.1-0.5,0.1-0.6,0c-1.3-1.3-6.1-6.8-3.7-11.3c0.1-0.2,0.3-0.3,0.5-0.2c1.4,0.2,6.8,1.3,10.6,2.8c0,0,0.1,0,0.1,0.1
						L438.6,663L438.6,663z"/>
					<path class="st27" d="M446.8,665.8c0.4-0.9-0.5-2.3-2.2-3.1c-1.6-0.8-3.3-0.6-3.7,0.3c-0.4,0.9,0.5,2.3,2.2,3.1
						C444.7,666.9,446.3,666.7,446.8,665.8z"/>
				</g>
			</g>
		</g>
		<g class="st30">
			<defs>
				
					<rect id="SVGID_28_" x="510" y="770.1" transform="matrix(0.9405 -0.3399 0.3399 0.9405 -240.8884 228.0264)" width="40.9" height="63.2"/>
			</defs>
			<clipPath id="SVGID_29_" class="st62">
				<use xlink:href="#SVGID_28_"  style="overflow:visible;"/>
			</clipPath>
			<g class="st67">
				
					<linearGradient id="SVGID_30_" gradientUnits="userSpaceOnUse" x1="532.0325" y1="592.0084" x2="539.5717" y2="596.0329" gradientTransform="matrix(1 0 0 -1 -1.223217e-05 1409.8898)">
					<stop  offset="0" style="stop-color:#D8DEE8"/>
					<stop  offset="1" style="stop-color:#FFFFFF"/>
				</linearGradient>
				<path class="st68" d="M538.7,830.3l-9.9-29.1l3.7-0.6l9.7,28.5c0.4,1.1-0.3,2.2-1.4,2.4C539.8,831.7,539,831.1,538.7,830.3z"/>
				<path class="st10" d="M545.2,799.7c4.8-10.2,0.4-22.3-9.8-27c-10.2-4.8-22.4-0.3-27.2,9.8c-4.8,10.2-0.4,22.3,9.8,27.1
					C528.2,814.3,540.3,809.9,545.2,799.7z"/>
				
					<linearGradient id="SVGID_31_" gradientUnits="userSpaceOnUse" x1="506.0028" y1="636.1938" x2="578.2678" y2="575.3738" gradientTransform="matrix(1 0 0 -1 -1.223217e-05 1409.8898)">
					<stop  offset="0" style="stop-color:#FFC444"/>
					<stop  offset="0.9964" style="stop-color:#F36F56"/>
				</linearGradient>
				<path class="st69" d="M532.8,808.1c9.4-3.4,14.3-13.8,11-23.2s-13.8-14.2-23.2-10.8c-9.4,3.4-14.3,13.8-11,23.2
					C513,806.6,523.4,811.5,532.8,808.1z"/>
				<path class="st10" d="M517.4,801.4L513,790l3.8-1.5c1.4-0.5,2.5-0.7,3.5-0.4c1,0.2,1.7,0.9,2.1,1.9c0.2,0.5,0.3,1,0.1,1.6
					c-0.1,0.5-0.4,1-0.8,1.4c0.8-0.2,1.4,0,2,0.3c0.6,0.4,1,0.8,1.2,1.5c0.4,1.1,0.4,2.1-0.1,2.9c-0.5,0.8-1.4,1.5-2.8,2.1
					L517.4,801.4z M517.8,795.5l1.3,3.3l2.2-0.8c0.6-0.2,1-0.6,1.2-0.9c0.2-0.4,0.2-0.8,0-1.4c-0.2-0.6-0.5-0.9-1-1.1
					c-0.4-0.2-1-0.1-1.6,0.1L517.8,795.5z M517.1,793.9l1.6-0.6c0.6-0.2,1.1-0.5,1.3-0.9c0.2-0.4,0.3-0.8,0.1-1.3
					c-0.2-0.5-0.5-0.9-1-1s-1-0.1-1.7,0.2l-1.5,0.6L517.1,793.9z"/>
				<path class="st10" d="M530.3,796.5l-2.3,0.9l-4.5-11.5l2.3-0.9L530.3,796.5z"/>
				<path class="st10" d="M532.6,795.6l-4.5-11.5l4-1.6c1.4-0.6,2.8-0.6,4,0c1.3,0.5,2.2,1.5,2.7,2.9l0.7,1.9c0.6,1.4,0.5,2.7,0,4
					c-0.6,1.2-1.6,2.1-3,2.7L532.6,795.6z M531.1,785l3.1,7.9l1.7-0.7c0.8-0.3,1.3-0.8,1.5-1.6c0.2-0.7,0.2-1.6-0.1-2.5l-0.7-1.9
					c-0.3-0.9-0.9-1.5-1.5-1.9c-0.7-0.4-1.4-0.4-2.2-0.1L531.1,785z"/>
			</g>
		</g>
		<g class="st30">
			<defs>
				
					<rect id="SVGID_32_" x="268" y="773.1" transform="matrix(0.9405 -0.3399 0.3399 0.9405 -256.3148 145.9534)" width="40.9" height="63.2"/>
			</defs>
			<clipPath id="SVGID_33_" class="st62">
				<use xlink:href="#SVGID_32_"  style="overflow:visible;"/>
			</clipPath>
			<g class="st70">
				
					<linearGradient id="SVGID_34_" gradientUnits="userSpaceOnUse" x1="290.0324" y1="589.0084" x2="297.5717" y2="593.033" gradientTransform="matrix(1 0 0 -1 -1.484261e-05 1409.8898)">
					<stop  offset="0" style="stop-color:#D8DEE8"/>
					<stop  offset="1" style="stop-color:#FFFFFF"/>
				</linearGradient>
				<path class="st71" d="M296.7,833.3l-9.9-29.1l3.7-0.6l9.7,28.5c0.4,1.1-0.3,2.2-1.4,2.4C297.8,834.7,297,834.1,296.7,833.3z"/>
				<path class="st10" d="M303.2,802.7c4.8-10.2,0.4-22.3-9.8-27c-10.2-4.8-22.4-0.3-27.2,9.8c-4.8,10.2-0.4,22.3,9.8,27.1
					C286.2,817.3,298.3,812.9,303.2,802.7z"/>
				
					<linearGradient id="SVGID_35_" gradientUnits="userSpaceOnUse" x1="264.0028" y1="633.1938" x2="336.2678" y2="572.3738" gradientTransform="matrix(1 0 0 -1 -1.484261e-05 1409.8898)">
					<stop  offset="0" style="stop-color:#FFC444"/>
					<stop  offset="0.9964" style="stop-color:#F36F56"/>
				</linearGradient>
				<path class="st72" d="M290.8,811.1c9.4-3.4,14.3-13.8,11-23.2c-3.4-9.4-13.8-14.2-23.2-10.8c-9.4,3.4-14.3,13.8-11,23.2
					C271,809.6,281.4,814.5,290.8,811.1z"/>
				<path class="st10" d="M275.4,804.4L271,793l3.8-1.5c1.4-0.5,2.5-0.7,3.5-0.4c1,0.2,1.7,0.9,2.1,1.9c0.2,0.5,0.3,1,0.1,1.6
					c-0.1,0.5-0.4,1-0.8,1.4c0.8-0.2,1.4,0,2,0.3c0.6,0.4,1,0.8,1.2,1.5c0.4,1.1,0.4,2.1-0.1,2.9c-0.5,0.8-1.4,1.5-2.8,2.1
					L275.4,804.4z M275.8,798.5l1.3,3.3l2.1-0.8c0.6-0.2,1-0.6,1.2-0.9c0.2-0.4,0.2-0.8,0-1.4c-0.2-0.6-0.5-0.9-1-1.1
					c-0.4-0.2-1-0.1-1.6,0.1L275.8,798.5z M275.1,796.9l1.6-0.6c0.6-0.2,1.1-0.5,1.3-0.9c0.2-0.4,0.3-0.8,0.1-1.3
					c-0.2-0.5-0.5-0.9-1-1c-0.4-0.1-1-0.1-1.7,0.2l-1.5,0.6L275.1,796.9z"/>
				<path class="st10" d="M288.3,799.5l-2.3,0.9l-4.5-11.5l2.3-0.9L288.3,799.5z"/>
				<path class="st10" d="M290.6,798.6l-4.5-11.5l4-1.6c1.4-0.6,2.8-0.6,4,0c1.3,0.5,2.2,1.5,2.7,2.9l0.7,1.9c0.5,1.4,0.5,2.7,0,4
					c-0.6,1.2-1.6,2.1-3,2.7L290.6,798.6z M289.1,788l3.1,7.9l1.7-0.7c0.8-0.3,1.3-0.8,1.5-1.6c0.2-0.7,0.2-1.6-0.1-2.5l-0.7-1.9
					c-0.3-0.9-0.9-1.5-1.5-1.9s-1.4-0.4-2.2-0.1L289.1,788z"/>
			</g>
		</g>
		<g class="st30">
			<defs>
				
					<rect id="SVGID_36_" x="300.7" y="785.5" transform="matrix(0.3743 -0.9273 0.9273 0.3743 -539.4385 812.3868)" width="63.2" height="40.9"/>
			</defs>
			<clipPath id="SVGID_37_" class="st62">
				<use xlink:href="#SVGID_36_"  style="overflow:visible;"/>
			</clipPath>
			<g class="st73">
				
					<linearGradient id="SVGID_38_" gradientUnits="userSpaceOnUse" x1="322.6311" y1="590.826" x2="330.9325" y2="588.7932" gradientTransform="matrix(1 0 0 -1 1.404999e-05 1409.8898)">
					<stop  offset="0" style="stop-color:#D8DEE8"/>
					<stop  offset="1" style="stop-color:#FFFFFF"/>
				</linearGradient>
				<path class="st74" d="M319.3,832.8l12-28.2l3.1,2l-11.8,27.7c-0.4,1-1.7,1.4-2.7,0.8C319.2,834.5,318.9,833.6,319.3,832.8z"/>
				<path class="st10" d="M344.5,814.3c10.4-4.4,15.2-16.3,10.8-26.7s-16.5-15.2-26.8-10.8c-10.4,4.4-15.2,16.3-10.8,26.7
					C322.1,813.8,334.2,818.6,344.5,814.3z"/>
				
					<linearGradient id="SVGID_39_" gradientUnits="userSpaceOnUse" x1="332.7249" y1="641.1048" x2="345.9709" y2="547.5858" gradientTransform="matrix(1 0 0 -1 1.404999e-05 1409.8898)">
					<stop  offset="0" style="stop-color:#FFC444"/>
					<stop  offset="0.9964" style="stop-color:#F36F56"/>
				</linearGradient>
				<path class="st75" d="M329.8,812.3c9.3,3.8,19.9-0.7,23.6-9.9c3.7-9.2-0.8-19.8-10.1-23.6c-9.3-3.8-19.9,0.7-23.6,9.9
					C315.9,798,320.4,808.5,329.8,812.3z"/>
				<path class="st10" d="M322.7,797.1l4.3-11.5l3.8,1.4c1.4,0.5,2.3,1.2,2.9,2c0.6,0.8,0.6,1.8,0.3,2.8c-0.2,0.5-0.5,0.9-0.9,1.3
					c-0.4,0.3-1,0.5-1.6,0.5c0.7,0.4,1.1,0.9,1.3,1.6c0.2,0.6,0.2,1.3-0.1,1.9c-0.4,1.1-1.1,1.8-2,2.1c-1,0.3-2.1,0.2-3.4-0.3
					L322.7,797.1z M327,792.8l-1.3,3.3l2.2,0.8c0.6,0.2,1.1,0.3,1.6,0.1c0.4-0.1,0.7-0.5,0.9-1c0.2-0.6,0.2-1.1,0-1.5
					c-0.2-0.4-0.6-0.8-1.3-1L327,792.8z M327.6,791.2l1.6,0.6c0.6,0.2,1.2,0.3,1.6,0.2c0.4-0.1,0.7-0.4,0.9-0.9
					c0.2-0.5,0.2-1-0.1-1.4c-0.2-0.4-0.7-0.7-1.4-0.9l-1.5-0.6L327.6,791.2z"/>
				<path class="st10" d="M335.6,801.9l-2.3-0.9l4.3-11.5l2.3,0.9L335.6,801.9z"/>
				<path class="st10" d="M337.9,802.8l4.3-11.5l4,1.5c1.4,0.5,2.4,1.4,3,2.7c0.6,1.2,0.6,2.6,0.1,4l-0.7,1.9
					c-0.5,1.4-1.4,2.4-2.7,2.9c-1.3,0.5-2.6,0.6-4,0L337.9,802.8z M343.9,793.9l-3,8l1.7,0.7c0.8,0.3,1.5,0.2,2.2-0.2
					c0.7-0.4,1.2-1,1.5-1.9l0.7-1.9c0.3-0.9,0.4-1.7,0.1-2.4c-0.2-0.7-0.8-1.3-1.5-1.5L343.9,793.9z"/>
			</g>
		</g>
		<g class="st30">
			<defs>
				
					<rect id="SVGID_40_" x="553.7" y="777.3" transform="matrix(0.7168 -0.6973 0.6973 0.7168 -401.4189 629.4266)" width="40.9" height="63.2"/>
			</defs>
			<clipPath id="SVGID_41_" class="st62">
				<use xlink:href="#SVGID_40_"  style="overflow:visible;"/>
			</clipPath>
			<g class="st76">
				
					<linearGradient id="SVGID_42_" gradientUnits="userSpaceOnUse" x1="582.2889" y1="586.8361" x2="587.4994" y2="593.6096" gradientTransform="matrix(1 0 0 -1 5.471989e-06 1409.8898)">
					<stop  offset="0" style="stop-color:#D8DEE8"/>
					<stop  offset="1" style="stop-color:#FFFFFF"/>
				</linearGradient>
				<path class="st77" d="M593.5,831.6l-21-22.4l3.1-2.1l20.6,22c0.8,0.8,0.6,2.1-0.3,2.8C595.1,832.4,594.1,832.3,593.5,831.6z"/>
				<path class="st10" d="M586.8,801.1c0.2-11.3-8.8-20.5-20.1-20.6c-11.3-0.1-20.6,8.9-20.8,20.2c-0.2,11.3,8.8,20.5,20.1,20.6
					C577.3,821.4,586.6,812.3,586.8,801.1z"/>
				
					<linearGradient id="SVGID_43_" gradientUnits="userSpaceOnUse" x1="540.3629" y1="616.3677" x2="631.2719" y2="590.7337" gradientTransform="matrix(1 0 0 -1 5.471989e-06 1409.8898)">
					<stop  offset="0" style="stop-color:#FFC444"/>
					<stop  offset="0.9964" style="stop-color:#F36F56"/>
				</linearGradient>
				<path class="st78" d="M578.9,813.8c7.2-7,7.4-18.5,0.4-25.6c-7-7.2-18.4-7.3-25.6-0.3c-7.2,7-7.4,18.5-0.4,25.6
					C560.3,820.7,571.8,820.8,578.9,813.8z"/>
				<path class="st10" d="M562.2,814.1l-8.8-8.6l2.8-2.9c1-1,2-1.7,3-1.8c1-0.2,1.9,0.1,2.7,0.9c0.4,0.4,0.7,0.8,0.8,1.4
					c0.1,0.5,0,1.1-0.2,1.6c0.6-0.5,1.3-0.6,1.9-0.5c0.7,0.1,1.2,0.4,1.7,0.9c0.8,0.8,1.2,1.7,1.1,2.7c-0.1,1-0.7,2-1.7,3
					L562.2,814.1z M560.1,808.5l2.5,2.5l1.6-1.6c0.5-0.5,0.7-0.9,0.8-1.4c0-0.5-0.1-0.9-0.5-1.3c-0.4-0.4-0.9-0.6-1.3-0.6
					c-0.5,0-0.9,0.3-1.4,0.8L560.1,808.5z M558.8,807.3l1.2-1.2c0.5-0.5,0.7-0.9,0.8-1.4c0.1-0.4-0.1-0.9-0.5-1.2
					c-0.4-0.4-0.8-0.6-1.3-0.5c-0.4,0.1-0.9,0.4-1.4,0.9l-1.1,1.1L558.8,807.3z"/>
				<path class="st10" d="M571.9,804.3l-1.7,1.8l-8.8-8.6l1.7-1.8L571.9,804.3z"/>
				<path class="st10" d="M573.6,802.5l-8.8-8.6l3-3.1c1.1-1.1,2.3-1.6,3.7-1.7c1.4,0,2.6,0.5,3.7,1.5l1.5,1.4
					c1.1,1.1,1.6,2.3,1.6,3.6c0,1.4-0.5,2.6-1.6,3.7L573.6,802.5z M567.9,793.4l6.1,6l1.3-1.3c0.6-0.6,0.8-1.3,0.7-2
					s-0.5-1.5-1.1-2.2l-1.5-1.4c-0.7-0.7-1.4-1-2.2-1.1c-0.8-0.1-1.5,0.2-2,0.8L567.9,793.4z"/>
			</g>
		</g>
	</g>
</g>
<g class="st79">
	<path class="st80" d="M1180.9,371.9c20.7,54.1,30.5,162.3,33.1,195.4c0.4,5.7,5,10.2,10.7,10.6c168.3,11.7,207.1-66.6,215.1-91.8
		c1.4-4.4,0.1-9.2-3.5-12.2c-66.9-57.1-152.1-105.3-179.8-120.3c-4.5-2.4-10.1-1.7-13.6,2c-6.5,6.8-21.8,16.2-56.9,15.2h-5.8
		L1180.9,371.9z"/>
	<path class="st80" d="M1224.9,268.9c-6.1-7.9-27.9-30.9-83.2-47.6c-1.5-0.4-2.7-1.5-3.2-3l-45.2-120.4c-1.4-3.7,1.8-7.5,5.7-6.6
		c33,7,152.6,38.5,256.3,143.6c2.8,2.8,1.3,7.7-2.7,8.4c-21.8,3.8-77.7,14.2-122.3,27.4C1228.3,271.1,1226.2,270.5,1224.9,268.9z"/>
	<path class="st80" d="M1054.8,245.8c-2,28.8,7.2,50.5,13.8,62.3c3,5.3,0.5,11.9-5.2,13.9c-34.6,12-136.2,47.9-178.2,70
		c-4.3,2.3-9.6,1-12.4-3c-21.4-30.7-99.6-153.8-36-236.2c2.6-3.3,7-4.6,10.9-3.2c26.7,9.5,131.2,47.8,201.8,90.3
		c0.7,0.4,1.3,0.9,1.9,1.5l2.5,2.5L1054.8,245.8z"/>
	<path class="st80" d="M1209,328.3c11.7-17-3-47.5-32.8-68.2c-29.8-20.6-63.5-23.6-75.2-6.6s3,47.5,32.8,68.2
		C1163.6,342.3,1197.3,345.3,1209,328.3z"/>
</g>
<path class="st10" d="M1248.9,367.5c50.8-50.8,50.8-133.2,0-184c-50.8-50.8-133.2-50.8-184,0c-50.8,50.8-50.8,133.2,0,184
	C1115.7,418.3,1198,418.3,1248.9,367.5z"/>
<path class="st81" d="M1179.2,364.6c10.2-8.5,11.5-23.7,3-33.9c-8.5-10.2-23.7-11.5-33.9-3c-10.2,8.5-11.5,23.7-3,33.9
	C1153.8,371.8,1169,373.1,1179.2,364.6z"/>
<path class="st82" d="M1141.5,348.4c0-13.3,10.8-24,24-24c7,0,13.2,3,17.6,7.7c-4.4-6-11.4-10-19.5-10c-13.3,0-24,10.8-24,24
	c0,6.3,2.5,12,6.4,16.3C1143.2,358.6,1141.5,353.7,1141.5,348.4z"/>
<path class="st81" d="M1113.8,254.5c1.2-18.3-12.7-34-31-35.2c-18.3-1.2-34,12.7-35.2,31c-1.2,18.3,12.7,34,31,35.2
	C1096.9,286.6,1112.6,272.7,1113.8,254.5z"/>
<path class="st82" d="M1050.1,255.5c0-18.3,14.8-33.2,33.2-33.2c9.6,0,18.2,4.1,24.3,10.6c-6-8.3-15.8-13.7-26.8-13.7
	c-18.3,0-33.2,14.8-33.2,33.2c0,8.7,3.4,16.6,8.9,22.5C1052.4,269.4,1050.1,262.7,1050.1,255.5z"/>
<path class="st81" d="M1224.6,220.4c7.8,0,14.1-6.3,14.1-14.1s-6.3-14.1-14.1-14.1c-7.8,0-14.1,6.3-14.1,14.1
	S1216.8,220.4,1224.6,220.4z"/>
<path class="st82" d="M1211.6,207.6c0-7.8,6.3-14.1,14.1-14.1c4.1,0,7.8,1.8,10.3,4.5c-2.6-3.5-6.7-5.8-11.4-5.8
	c-7.8,0-14.1,6.3-14.1,14.1c0,3.7,1.4,7.1,3.8,9.6C1212.6,213.5,1211.6,210.7,1211.6,207.6z"/>
<path class="st81" d="M1160.3,183.5c2.2-9.4-3.6-18.9-13-21.1c-9.4-2.2-18.9,3.6-21.1,13c-2.2,9.4,3.6,18.9,13,21.1
	C1148.7,198.7,1158.1,192.9,1160.3,183.5z"/>
<path class="st82" d="M1127.1,181.1c0-9.7,7.9-17.5,17.5-17.5c5.1,0,9.6,2.2,12.8,5.6c-3.2-4.4-8.3-7.2-14.2-7.2
	c-9.7,0-17.5,7.9-17.5,17.5c0,4.6,1.8,8.8,4.7,11.9C1128.4,188.5,1127.1,184.9,1127.1,181.1z"/>
<path class="st81" d="M1169,174.5c-4.5,0-8.2-3.7-8.2-8.2c0-4.5,3.7-8.2,8.2-8.2c4.5,0,8.2,3.7,8.2,8.2
	C1177.2,170.8,1173.5,174.5,1169,174.5z"/>
<path class="st82" d="M1161.5,167.1c0-4.5,3.7-8.2,8.2-8.2c2.4,0,4.5,1,6,2.6c-1.5-2.1-3.9-3.4-6.6-3.4c-4.5,0-8.2,3.7-8.2,8.2
	c0,2.1,0.8,4.1,2.2,5.6C1162,170.5,1161.5,168.9,1161.5,167.1z"/>
<path class="st81" d="M1039.3,283.7c-4.5,0-8.2-3.7-8.2-8.2c0-4.5,3.7-8.2,8.2-8.2c4.5,0,8.2,3.7,8.2,8.2
	C1047.5,280.1,1043.9,283.7,1039.3,283.7z"/>
<path class="st82" d="M1031.8,276.3c0-4.5,3.7-8.2,8.2-8.2c2.4,0,4.5,1,6,2.6c-1.5-2.1-3.9-3.4-6.6-3.4c-4.5,0-8.2,3.7-8.2,8.2
	c0,2.1,0.8,4.1,2.2,5.6C1032.3,279.8,1031.8,278.1,1031.8,276.3z"/>
<path class="st81" d="M1084.9,215.9c-2.3,0-4.1-1.8-4.1-4.1s1.8-4.1,4.1-4.1c2.3,0,4.1,1.8,4.1,4.1
	C1089,214,1087.2,215.9,1084.9,215.9z"/>
<path class="st82" d="M1081.2,212.1c0-2.3,1.8-4.1,4.1-4.1c1.2,0,2.3,0.5,3,1.3c-0.7-1-2-1.7-3.3-1.7c-2.3,0-4.1,1.8-4.1,4.1
	c0,1.1,0.4,2.1,1.1,2.8C1081.4,213.9,1081.2,213,1081.2,212.1z"/>
<path class="st81" d="M1056.2,291.9c-2.3,0-4.1-1.8-4.1-4.1c0-2.3,1.8-4.1,4.1-4.1s4.1,1.8,4.1,4.1
	C1060.3,290.1,1058.4,291.9,1056.2,291.9z"/>
<path class="st82" d="M1052.4,288.2c0-2.3,1.8-4.1,4.1-4.1c1.2,0,2.3,0.5,3,1.3c-0.7-1-2-1.7-3.3-1.7c-2.3,0-4.1,1.8-4.1,4.1
	c0,1.1,0.4,2.1,1.1,2.8C1052.7,289.9,1052.4,289.1,1052.4,288.2z"/>
<path class="st81" d="M1196,343.3c-2.3,0-4.1-1.8-4.1-4.1c0-2.3,1.8-4.1,4.1-4.1c2.3,0,4.1,1.8,4.1,4.1
	C1200.1,341.4,1198.2,343.3,1196,343.3z"/>
<path class="st82" d="M1192.2,339.5c0-2.3,1.8-4.1,4.1-4.1c1.2,0,2.3,0.5,3,1.3c-0.7-1-2-1.7-3.3-1.7c-2.3,0-4.1,1.8-4.1,4.1
	c0,1.1,0.4,2.1,1.1,2.8C1192.5,341.3,1192.2,340.4,1192.2,339.5z"/>
<path class="st81" d="M1223.3,230.3c-2.3,0-4.1-1.8-4.1-4.1c0-2.3,1.8-4.1,4.1-4.1s4.1,1.8,4.1,4.1
	C1227.3,228.5,1225.5,230.3,1223.3,230.3z"/>
<path class="st82" d="M1219.5,226.6c0-2.3,1.8-4.1,4.1-4.1c1.2,0,2.3,0.5,3,1.3c-0.7-1-2-1.7-3.3-1.7c-2.3,0-4.1,1.8-4.1,4.1
	c0,1.1,0.4,2.1,1.1,2.8C1219.8,228.3,1219.5,227.5,1219.5,226.6z"/>
<path class="st81" d="M1263.1,263.7c-4.5,0-8.2-3.7-8.2-8.2c0-4.5,3.7-8.2,8.2-8.2c4.5,0,8.2,3.7,8.2,8.2
	C1271.3,260.1,1267.6,263.7,1263.1,263.7z"/>
<path class="st82" d="M1255.5,256.3c0-4.5,3.7-8.2,8.2-8.2c2.4,0,4.5,1,6,2.6c-1.5-2.1-3.9-3.4-6.6-3.4c-4.5,0-8.2,3.7-8.2,8.2
	c0,2.1,0.8,4.1,2.2,5.6C1256.1,259.7,1255.5,258.1,1255.5,256.3z"/>
<path class="st81" d="M1210.5,381.4c-4.5,0-8.2-3.7-8.2-8.2c0-4.5,3.7-8.2,8.2-8.2c4.5,0,8.2,3.7,8.2,8.2
	C1218.7,377.8,1215,381.4,1210.5,381.4z"/>
<path class="st82" d="M1202.9,374c0-4.5,3.7-8.2,8.2-8.2c2.4,0,4.5,1,6,2.6c-1.5-2.1-3.9-3.4-6.6-3.4c-4.5,0-8.2,3.7-8.2,8.2
	c0,2.1,0.8,4.1,2.2,5.6C1203.5,377.4,1202.9,375.8,1202.9,374z"/>
<path class="st81" d="M1197.3,329.8c7.3,0,13.2-5.9,13.2-13.2s-5.9-13.2-13.2-13.2c-7.3,0-13.2,5.9-13.2,13.2
	S1189.9,329.8,1197.3,329.8z"/>
<path class="st82" d="M1185,317.8c0-7.3,5.9-13.2,13.2-13.2c3.8,0,7.3,1.6,9.7,4.3c-2.4-3.3-6.3-5.5-10.7-5.5
	c-7.3,0-13.2,5.9-13.2,13.2c0,3.5,1.3,6.6,3.5,9C1186,323.3,1185,320.7,1185,317.8z"/>
<path class="st81" d="M1115.6,365c7.3,0,13.2-5.9,13.2-13.2s-5.9-13.2-13.2-13.2s-13.2,5.9-13.2,13.2S1108.3,365,1115.6,365z"/>
<path class="st82" d="M1103.4,353c0-7.3,5.9-13.2,13.2-13.2c3.8,0,7.3,1.6,9.7,4.3c-2.4-3.3-6.3-5.5-10.7-5.5
	c-7.3,0-13.2,5.9-13.2,13.2c0,3.5,1.3,6.6,3.5,9C1104.3,358.6,1103.4,355.9,1103.4,353z"/>
<path class="st83" d="M1128.1,355.5c-34-0.2-65.4-11-91.1-29.3c19.7,46.5,65.6,79.2,119.3,79.4c71.9,0.3,130.4-57.7,130.7-129.5
	c0.1-12.9-1.8-25.3-5.2-37.1C1263.2,306.5,1201.4,355.9,1128.1,355.5z"/>
<path class="st83" d="M1138.9,378.9c-32.2-0.2-62.1-9.9-87-26.5c23.6,32.1,61.5,53,104.3,53.2c70.8,0.3,128.6-55.9,130.6-126.3
	C1263.4,338,1205.9,379.2,1138.9,378.9z"/>
</svg>
