<?xml version="1.0" encoding="utf-8"?>
<!-- Generator: Adobe Illustrator 25.0.1, SVG Export Plug-In . SVG Version: 6.00 Build 0)  -->
<svg version="1.1" id="Layer_1" xmlns="http://www.w3.org/2000/svg" xmlns:xlink="http://www.w3.org/1999/xlink" x="0px" y="0px"
	 viewBox="0 0 1920 504" style="enable-background:new 0 0 1920 504;" xml:space="preserve">
<style type="text/css">
	.st0{fill-rule:evenodd;clip-rule:evenodd;fill:#000051;}
</style>
<path class="st0" d="M1528.9,52.6c6.6-0.9,13.3-1.5,20.1-1.5c77.9,0,141.1,63.2,141.1,141.1l263.1,178.8h-10.1V505h-1969V305.3
	c-28.5-30,219.9-70.5,219.9-115.2C194,97.9,268.9,23,361.2,23c51.8,0,98.1,23.6,128.8,60.5c1.9-0.1,3.8-0.2,5.8-0.2
	c36.8,0,68.3,22.6,81.4,54.6c20.4-15.3,45.7-24.4,73.2-24.4c39.6,0,74.8,18.9,97.1,48.2c5.6-1.1,11.3-1.7,17.2-1.7
	c5,0,9.8,0.4,14.5,1.2c7.3-19.2,25.2-33.1,46.6-34.5c22.4-35.4,64.9-59.2,113.6-59.2c53.1,0,98.7,28.3,119.1,68.9
	c18.4,8.6,32.4,25,37.6,45.1c0.2,0,0.3,0,0.5,0l0.2,0c0.5,0,1,0,1.5,0c20.1,0,38.1,8.6,50.7,22.3c11.5-46.3,49.9-81.9,97.7-89.3
	C1265.4,49.1,1329.4,1,1405.6,1C1454.7,1,1498.7,21,1528.9,52.6z"/>
<circle class="st0" cx="172.3" cy="227" r="106.2"/>
<circle class="st0" cx="-52.6" cy="278.1" r="157.3"/>
<circle class="st0" cx="1740.6" cy="254.7" r="157.3"/>
<circle class="st0" cx="1875.4" cy="384.4" r="157.3"/>
</svg>
