<svg width="32" height="33" viewBox="0 0 32 33" fill="none" xmlns="http://www.w3.org/2000/svg">
<path d="M9.84375 22.9688C8.50781 23.0391 7.875 23.4609 7.875 24.3047C7.875 25.1484 8.57812 25.5703 10.0547 25.5703C11.3203 25.5703 11.9531 25.1484 11.9531 24.3047C11.9531 23.4609 11.25 22.9688 9.84375 22.9688ZM8.08594 14.8125C8.08594 14.0391 8.29688 13.4766 8.85938 13.1953C9.35156 12.9141 9.84375 12.9141 10.4062 13.1953C10.8984 13.4766 11.1797 14.0391 11.1797 14.7422C11.1797 15.9375 10.6172 16.5 9.63281 16.5C8.57812 16.5 8.08594 15.9375 8.08594 14.8125ZM31.5 4.125C31.5 3.21094 31.1484 2.4375 30.5156 1.73438C29.8125 1.10156 29.0391 0.75 28.125 0.75H3.375C2.39062 0.75 1.61719 1.10156 0.984375 1.73438C0.28125 2.4375 0 3.21094 0 4.125V28.875C0 29.8594 0.28125 30.6328 0.984375 31.2656C1.61719 31.9688 2.39062 32.25 3.375 32.25H28.125C29.0391 32.25 29.8125 31.9688 30.5156 31.2656C31.1484 30.6328 31.5 29.8594 31.5 28.875V4.125ZM14.5547 10.7344V13.2656C14.2734 13.4062 13.9219 13.4766 13.5703 13.5469C13.7109 13.9688 13.7812 14.3203 13.7812 14.6016C13.7812 15.6562 13.4297 16.5703 12.8672 17.2734C12.2344 18.0469 11.3906 18.5391 10.4062 18.6797C9.70312 18.8203 9.42188 19.2422 9.42188 19.8047C9.42188 20.1562 9.5625 20.4375 9.98438 20.6484C10.1953 20.7891 10.6172 20.9297 11.3203 21.0703C12.3047 21.3516 13.0078 21.6328 13.4297 21.9141C14.1328 22.4062 14.4844 23.1094 14.4844 23.9531C14.4844 26.4844 12.9375 27.75 9.91406 27.75C8.64844 27.75 7.59375 27.5391 6.82031 27.0469C5.76562 26.4844 5.27344 25.6406 5.27344 24.4453C5.27344 23.1094 6.04688 22.1953 7.59375 21.6328V21.5625C7.17188 21.3516 6.89062 21 6.75 20.5078C6.60938 20.0859 6.67969 19.5938 6.82031 19.1719C6.96094 18.75 7.17188 18.3984 7.52344 18.2578C6.89062 18.0469 6.39844 17.5547 5.97656 16.8516C5.55469 16.1484 5.41406 15.5156 5.41406 14.8125C5.41406 13.6875 5.69531 12.7734 6.39844 12.0703C7.10156 11.3672 7.94531 10.875 8.92969 10.7344C9.91406 10.5938 10.8984 10.8047 11.8125 11.2969C12.5859 11.2969 13.5 11.1562 14.5547 10.7344ZM18.5625 10.8047C18.4922 11.2266 18.4922 12.9844 18.4922 16.2188C18.4922 19.4531 18.4922 21.3516 18.5625 21.7734H15.75C15.75 21.3516 15.8203 19.4531 15.8203 16.2188C15.8203 12.9844 15.75 11.2266 15.75 10.8047H18.5625ZM18.8438 7.07812C18.8438 7.57031 18.6328 7.99219 18.3516 8.34375C18 8.76562 17.5781 8.90625 17.1562 8.90625C16.6641 8.90625 16.2422 8.76562 15.9609 8.41406C15.6094 8.0625 15.4688 7.64062 15.4688 7.14844C15.4688 6.65625 15.6094 6.23438 15.9609 5.8125C16.2422 5.46094 16.6641 5.25 17.1562 5.25C17.5781 5.25 18 5.46094 18.3516 5.8125C18.6328 6.23438 18.8438 6.65625 18.8438 7.07812ZM26.2266 10.8047V13.1953H23.625V17.7656C23.625 18.8906 23.9766 19.3828 24.75 19.3828C25.3125 19.3828 25.8047 19.2422 26.2266 18.9609V21.4219C25.5938 21.7734 24.8203 21.9141 23.9062 21.9141C22.6406 21.9141 21.8672 21.4922 21.4453 20.5781C21.0938 20.0156 20.9531 19.0312 20.9531 17.625V13.1953H20.6719C20.3906 13.1953 20.1094 13.1953 19.7578 13.1953V10.8047H20.9531V10.4531C20.9531 9.60938 20.8828 9.04688 20.8828 8.76562H23.6953C23.625 9.1875 23.625 9.75 23.625 10.4531V10.8047H26.2266Z" fill="white"/>
</svg>
