<svg width="166" height="114" viewBox="0 0 166 114" fill="none" xmlns="http://www.w3.org/2000/svg">
<path d="M83.0256 180.029C83.0256 180.029 138.093 184.022 149.666 111.269C149.974 109.348 150.15 107.409 150.2 105.463C150.59 88.6705 148.453 5.34381 82.8873 0H82.7238C15.373 4.72892 15.021 88.6705 15.4107 105.463C15.4547 107.409 15.637 109.348 15.9451 111.269C27.518 184.022 82.661 180.022 82.661 180.022L83.0256 180.029Z" fill="url(#paint0_linear)"/>
<path d="M161.829 192.758H150.224C150.224 192.758 127.216 143.136 82.7916 144.778C38.3667 143.129 15.3591 192.758 15.3591 192.758H3.76095C-7.27141 156.327 13.1903 116.372 15.9374 111.269C16.5032 114.566 13.3537 126.591 82.7916 126.591C152.229 126.591 148.873 114.8 149.589 111.732C152.336 116.835 172.861 156.321 161.829 192.758Z" fill="#1B134E"/>
<path d="M82.9356 111.301C82.898 111.371 82.804 111.547 82.6599 111.813C82.7727 111.547 82.8854 111.371 82.9356 111.301Z" stroke="#270D0D" stroke-miterlimit="10"/>
<path d="M82.9356 111.813C82.7915 111.547 82.6975 111.371 82.6599 111.301C82.71 111.371 82.8228 111.547 82.9356 111.813Z" stroke="#270D0D" stroke-miterlimit="10"/>
<path d="M120.202 80.7152C120.202 99.4217 106.618 114.566 82.793 114.566C58.9681 114.566 45.3961 99.4217 45.3961 80.7152C45.3961 62.0087 58.9681 46.8267 82.793 46.8267C106.618 46.8267 120.202 62.0087 120.202 80.7152Z" fill="#262635"/>
<path d="M82.3096 77.4949C67.0529 77.4949 54.0278 84.9623 48.8102 95.4914C54.0278 106.021 67.8575 114.94 83.1142 114.94C98.3709 114.94 111.842 105.818 117.06 95.2886C111.849 84.7658 97.56 77.4949 82.3096 77.4949Z" fill="#363649"/>
<path d="M71.871 83.024C74.3464 83.024 76.3531 78.9286 76.3531 73.8767C76.3531 68.8249 74.3464 64.7295 71.871 64.7295C69.3956 64.7295 67.3889 68.8249 67.3889 73.8767C67.3889 78.9286 69.3956 83.024 71.871 83.024Z" fill="#42E8E0"/>
<path d="M96.6659 83.0226C99.1413 83.0226 101.148 78.9273 101.148 73.8754C101.148 68.8235 99.1413 64.7281 96.6659 64.7281C94.1905 64.7281 92.1838 68.8235 92.1838 73.8754C92.1838 78.9273 94.1905 83.0226 96.6659 83.0226Z" fill="#42E8E0"/>
<path opacity="0.4" d="M103.223 57.2987C104.278 57.2987 105.134 56.4359 105.134 55.3717C105.134 54.3074 104.278 53.4446 103.223 53.4446C102.168 53.4446 101.312 54.3074 101.312 55.3717C101.312 56.4359 102.168 57.2987 103.223 57.2987Z" fill="white"/>
<path opacity="0.4" d="M111.393 66.5475C110.821 66.4714 110.318 66.0847 110.104 65.5015C109.08 62.6616 105.748 60.1957 105.717 60.1704C105.006 59.6506 104.843 58.6427 105.358 57.9264C105.874 57.2037 106.873 57.0452 107.584 57.565C107.753 57.6855 111.739 60.6268 113.103 64.4049C113.405 65.2416 112.977 66.1608 112.147 66.465C111.896 66.5538 111.638 66.5791 111.393 66.5475Z" fill="#FCFDFF"/>
<g opacity="0.39">
<path opacity="0.39" d="M105.774 26.1046C106.937 29.1537 107.49 35.2646 107.635 37.1282C107.66 37.4515 107.918 37.7051 108.238 37.7241C117.699 38.3834 119.88 33.9651 120.333 32.5451C120.415 32.2979 120.339 32.0253 120.138 31.8541C116.379 28.6339 111.589 25.9145 110.03 25.065C109.778 24.9256 109.464 24.97 109.269 25.1791C108.905 25.5658 108.043 26.092 106.069 26.0349H105.743L105.774 26.1046Z" fill="white"/>
<path opacity="0.39" d="M108.244 20.2848C107.898 19.8411 106.672 18.5416 103.567 17.5971C103.485 17.5717 103.416 17.5083 103.384 17.4259L100.845 10.6305C100.763 10.4213 100.945 10.2121 101.165 10.2565C103.02 10.6495 109.74 12.4308 115.567 18.3578C115.724 18.5162 115.636 18.7952 115.416 18.8332C114.19 19.0487 111.047 19.6319 108.545 20.3799C108.432 20.4179 108.319 20.3799 108.244 20.2848Z" fill="white"/>
<path opacity="0.39" d="M98.6812 18.9859C98.5743 20.6086 99.0835 21.8384 99.4607 22.4977C99.6304 22.7956 99.4858 23.1696 99.1652 23.2837C97.2228 23.962 91.5086 25.9842 89.1512 27.2329C88.9061 27.3597 88.6106 27.29 88.4535 27.0618C87.2465 25.3312 82.8587 18.3836 86.4293 13.7308C86.5739 13.5406 86.819 13.4709 87.0391 13.547C88.5415 14.0794 94.4128 16.2474 98.3857 18.6435C98.4235 18.6689 98.4612 18.6943 98.4926 18.726L98.6309 18.8654L98.6812 18.9859Z" fill="white"/>
<path opacity="0.39" d="M107.349 23.6389C108.009 22.6817 107.179 20.9574 105.507 19.7911C103.829 18.6247 101.936 18.4599 101.276 19.417C100.616 20.3742 101.446 22.0985 103.118 23.2649C104.797 24.4376 106.689 24.6024 107.349 23.6389Z" fill="white"/>
</g>
<defs>
<linearGradient id="paint0_linear" x1="25.891" y1="148.837" x2="140.164" y2="35.5156" gradientUnits="userSpaceOnUse">
<stop stop-color="#BBBDBF"/>
<stop offset="0.5832" stop-color="#DDDEDF"/>
<stop offset="1" stop-color="#F1F1F2"/>
</linearGradient>
</defs>
</svg>
