<svg width="32" height="33" viewBox="0 0 32 33" fill="none" xmlns="http://www.w3.org/2000/svg">
<path d="M0 0.75H31.5V32.25H0V0.75ZM26.1562 8.20312V7.85156H20.3203L16.1719 18.2578L11.3906 7.85156H5.27344V8.20312L7.24219 10.5938C7.45312 10.8047 7.52344 11.0156 7.52344 11.2969V20.6484C7.52344 21 7.45312 21.2812 7.24219 21.5625L4.99219 24.2344V24.5859H11.3203V24.2344L9.07031 21.5625C8.78906 21.2812 8.71875 21 8.78906 20.6484V12.5625L14.3438 24.5859H14.9766L19.6875 12.5625V22.1953C19.6875 22.4062 19.6172 22.5469 19.5469 22.6172L17.8594 24.3047V24.6562H26.1562V24.3047L24.4688 22.6875C24.3281 22.5469 24.2578 22.4062 24.2578 22.1953V10.3125C24.2578 10.1719 24.3281 9.96094 24.4688 9.82031L26.1562 8.20312Z" fill="white"/>
</svg>
