<svg width="35" height="35" viewBox="0 0 35 35" fill="none" xmlns="http://www.w3.org/2000/svg">
<path d="M17.4375 0.0625C20.5312 0.0625 23.4844 0.90625 26.1562 2.45312C28.8281 4 30.9375 6.10938 32.4844 8.78125C34.0312 11.4531 34.875 14.4062 34.875 17.5C34.875 20.6641 34.0312 23.5469 32.4844 26.2188C30.9375 28.8906 28.8281 31.0703 26.1562 32.6172C23.4844 34.1641 20.5312 34.9375 17.4375 34.9375C14.2734 34.9375 11.3906 34.1641 8.71875 32.6172C6.04688 31.0703 3.86719 28.8906 2.32031 26.2188C0.773438 23.5469 0 20.6641 0 17.5C0 14.4062 0.773438 11.4531 2.32031 8.78125C3.86719 6.10938 6.04688 4 8.71875 2.45312C11.3906 0.90625 14.2734 0.0625 17.4375 0.0625ZM26.0156 12.0156C26.0859 11.4531 26.0156 11.1016 25.7344 10.8203C25.4531 10.5391 25.1719 10.4688 24.8203 10.6094L8.01562 17.1484C7.38281 17.3594 7.03125 17.5703 7.03125 17.8516C7.03125 18.1328 7.24219 18.3438 7.80469 18.4844L12.0938 19.8203L22.0781 13.5625C22.2891 13.4219 22.5 13.4219 22.6406 13.4219C22.7812 13.4922 22.7812 13.5625 22.6406 13.7031L14.5547 21.0156L14.2031 25.4453C14.4844 25.4453 14.8359 25.3047 15.1172 25.0234L17.2266 22.9844L21.5859 26.2188C22.4297 26.7109 22.9219 26.5 23.1328 25.5156L26.0156 12.0156Z" fill="white"/>
</svg>
