<svg xmlns="http://www.w3.org/2000/svg" viewBox="0 0 144 59">
  <g fill="none" fill-rule="evenodd">
    <path
      d="m30.13715.5002v35c0 .276-.224.5-.5.5h-3.671c-1.696 0-3.277-.86-4.198-2.284l-16.5225-25.539.566 12.7545v14.5685c0 .276-.224.5-.5.5h-4.8115c-.276 0-.5-.224-.5-.5v-35c0-.276.224-.5.5-.5h3.6225c1.6945 0 3.274.8585 4.1955 2.2805l16.5215 25.491-.514-12.703v-14.5685c0-.276.224-.5.5-.5h4.8115c.276 0 .5.224.5.5"
      fill="#24272a" />
    <path
      d="m78.34295 36.0002h-5.0965c-.3515 0-.593-.353-.466-.6805l13.488-34.8405c.112-.2885.3895-.479.6995-.479h6.3775c.31 0 .588.1905.6995.479l13.4885 34.8405c.127.3275-.115.6805-.4665.6805h-5.0965c-.2075 0-.3935-.1285-.467-.323l-10.879-28.6845c-.163-.43-.7715-.43-.935 0l-10.879 28.6845c-.0735.1945-.26.323-.4675.323"
      fill="#24272a" />
    <path
      d="m143.893 35.1921-10.1165-12.9235c5.709-1.08 9.052-4.937 9.052-10.8515 0-6.788-4.4235-11.417-12.2405-11.417h-14.113c-.414 0-.75.336-.75.75 0 2.6535 2.151 4.8045 4.804 4.8045h9.442c4.732 0 6.9945 2.417 6.9945 5.914 0 3.4975-2.212 5.966-6.9945 5.966h-13.496c-.414 0-.75.3355-.75.75v17.3155c0 .276.224.5.5.5h4.812c.276 0 .5-.224.5-.5v-12.9225h5.554l8.7845 11.4635c.946 1.235 2.413 1.959 3.9685 1.959h3.655c.417 0 .651-.48.394-.808"
      fill="#24272a" />
    <path
      d="m64.1142 30.446h-16.691c-.2765 0-.5-.224-.5-.5v-9.0285c0-.276.2235-.5.5-.5h15.4055c.276 0 .5-.224.5-.5v-4.555c0-.276-.224-.5-.5-.5h-20.9675c-.414 0-.75.336-.75.75v19.6375c0 .4145.336.75.75.75h22.253c.2765 0 .5-.2235.5-.5v-4.554c0-.276-.2235-.5-.5-.5m0-30.446h-22.335c-.369 0-.668.2995-.668.668 0 2.6985 2.1875 4.8865 4.8865 4.8865h18.1165c.2765 0 .5-.224.5-.5v-4.5545c0-.276-.2235-.5-.5-.5"
      fill="#24272a" />
    <g fill="#8fd6bd">
      <path
        d="m2.1755 47.3293v3.193c0 .107.0865.1935.1935.1935h5.754c.1065 0 .1935.087.1935.194v1.6915c0 .107-.087.194-.1935.194h-5.754c-.107 0-.1935.0865-.1935.1935v5.349c0 .1065-.0865.1935-.1935.1935h-1.788c-.107 0-.194-.087-.194-.1935v-13.0875c0-.107.087-.1935.194-.1935h8.4095c.107 0 .194.0865.194.1935v1.692c0 .1065-.087.1935-.194.1935h-6.2345c-.107 0-.1935.0865-.1935.1935" />
      <path
        d="m14.9206 51.79415c0 2.8105 2.0595 4.889 4.793 4.889 2.714 0 4.7735-2.0785 4.7735-4.889s-2.0595-4.8895-4.7735-4.8895c-2.7335 0-4.793 2.079-4.793 4.8895m11.7805 0c-.019 3.965-3.0415 6.968-6.9875 6.968-3.9465 0-6.9875-3.003-6.9875-6.968 0-3.9655 3.041-6.9685 6.9875-6.9685 3.946 0 6.9685 3.003 6.9875 6.9685" />
      <path
        d="m42.0234 45.05685c.107 0 .1935.0865.1935.1935v7.9105c0 3.7535-2.3485 5.6015-5.448 5.6015-3.099 0-5.447-1.848-5.447-5.6015v-7.9105c0-.107.0865-.1935.1935-.1935h1.826c.107 0 .1935.0865.1935.1935v7.7755c0 2.618 1.367 3.6575 3.234 3.6575 1.8675 0 3.234-1.0395 3.234-3.6575v-7.7755c0-.107.087-.1935.1935-.1935z" />
      <path
        d="m58.52145 45.2502v13.0875c0 .107-.0865.1935-.1935.1935h-1.3325c-.6565 0-1.2685-.333-1.625-.884l-6.1655-9.5295.212 4.7735v5.4465c0 .107-.087.1935-.194.1935h-1.788c-.107 0-.1935-.0865-.1935-.1935v-13.0875c0-.1065.0865-.1935.1935-.1935h1.3145c.656 0 1.2675.3325 1.6245.883l6.165 9.5115-.1925-4.754v-5.447c0-.1065.087-.1935.1935-.1935h1.788c.107 0 .1935.087.1935.1935" />
      <path
        d="m73.46185 51.79415c0-2.7335-1.983-4.6585-4.697-4.6585h-2.366c-.107 0-.194.0865-.194.1935v8.9295c0 .107.087.1935.194.1935h2.366c2.714 0 4.697-1.9055 4.697-4.658m2.175 0c0 3.888-2.9835 6.737-6.8915 6.737h-4.522c-.107 0-.1935-.0865-.1935-.1935v-13.0875c0-.1065.0865-.1935.1935-.1935h4.522c3.927 0 6.8915 2.83 6.8915 6.7375" />
      <path
        d="m86.759 52.59055-1.8565-4.9c-.063-.1665-.299-.1665-.362 0l-1.8565 4.9c-.048.1265.0455.262.181.262h3.713c.1355 0 .229-.1355.181-.262m.7545 2.322h-5.584c-.0805 0-.1525.0495-.181.125l-1.272 3.3685c-.029.0755-.101.125-.1815.125h-1.8935c-.136 0-.2295-.1365-.1805-.2635l5.067-13.087c.0285-.0745.1005-.1235.1805-.1235h2.506c.08 0 .1515.049.1805.1235l5.067 13.087c.049.127-.0445.2635-.1805.2635h-1.8935c-.0805 0-.1525-.0495-.181-.125l-1.2725-3.3685c-.0285-.0755-.1005-.125-.181-.125" />
      <path
        d="m102.9311 47.1357h-3.7325c-.107 0-.194.0865-.194.1935v11.0085c0 .107-.0865.1935-.193.1935h-1.788c-.107 0-.1935-.0865-.1935-.1935v-11.0085c0-.107-.0865-.1935-.1935-.1935h-2.5215c-1.041 0-1.885-.844-1.885-1.8855 0-.1065.0865-.1935.1935-.1935h10.5075c.107 0 .1935.087.1935.1935v1.692c0 .107-.0865.1935-.1935.1935" />
      <path
        d="m108.05365 45.05685h1.788c.107 0 .1935.0865.1935.1935v13.0875c0 .1065-.0865.1935-.1935.1935h-1.788c-.107 0-.1935-.087-.1935-.1935v-13.0875c0-.107.0865-.1935.1935-.1935" />
      <path
        d="m116.8691 51.79415c0 2.8105 2.0595 4.889 4.793 4.889 2.714 0 4.7735-2.0785 4.7735-4.889s-2.0595-4.8895-4.7735-4.8895c-2.7335 0-4.793 2.079-4.793 4.8895m11.7805 0c-.0195 3.965-3.0415 6.968-6.9875 6.968-3.9465 0-6.9875-3.003-6.9875-6.968 0-3.9655 3.041-6.9685 6.9875-6.9685 3.946 0 6.968 3.003 6.9875 6.9685" />
      <path
        d="m144.0002 45.2502v13.0875c0 .107-.0865.1935-.1935.1935h-1.333c-.6565 0-1.2685-.333-1.625-.884l-6.165-9.5295.2115 4.7735v5.4465c0 .107-.087.1935-.1935.1935h-1.788c-.107 0-.1935-.0865-.1935-.1935v-13.0875c0-.1065.0865-.1935.1935-.1935h1.3145c.656 0 1.2675.3325 1.6245.883l6.165 9.5115-.193-4.754v-5.447c0-.1065.087-.1935.194-.1935h1.788c.107 0 .1935.087.1935.1935" />
    </g>
  </g>
</svg>