<svg width="249" height="37" viewBox="0 0 249 37" fill="none" xmlns="http://www.w3.org/2000/svg">
<path d="M56.0246 36.4515C55.8427 36.4515 55.6873 36.3893 55.5584 36.2648C55.4371 36.1403 55.3765 35.9848 55.3765 35.798C55.3765 35.6113 55.4409 35.4519 55.5698 35.3196C55.6986 35.1874 55.8502 35.1212 56.0246 35.1212C56.2065 35.1212 56.3619 35.1874 56.4908 35.3196C56.6197 35.4519 56.6841 35.6113 56.6841 35.798C56.6841 35.9848 56.6197 36.1403 56.4908 36.2648C56.3619 36.3893 56.2065 36.4515 56.0246 36.4515Z" fill="var(--logo-color, #1A237E)"/>
<path d="M57.6359 28.2948H63.1507V29.7885H59.3643V31.6905H62.1501V33.0558H59.3643V36.4515H57.6359V28.2948Z" fill="var(--logo-color, #1A237E)"/>
<path d="M64.4205 29.9868C64.1551 29.9868 63.9315 29.8974 63.7496 29.7184C63.5677 29.5395 63.4767 29.3139 63.4767 29.0416C63.4767 28.7771 63.5677 28.5554 63.7496 28.3765C63.9315 28.1898 64.1551 28.0964 64.4205 28.0964C64.6858 28.0964 64.9094 28.1898 65.0913 28.3765C65.2732 28.5554 65.3642 28.7771 65.3642 29.0416C65.3642 29.3139 65.2732 29.5395 65.0913 29.7184C64.9094 29.8974 64.6858 29.9868 64.4205 29.9868ZM63.5563 30.8503H65.2846V36.4515H63.5563V30.8503Z" fill="var(--logo-color, #1A237E)"/>
<path d="M66.5414 30.8503H68.2015V31.5388C68.4517 31.251 68.7473 31.0371 69.0884 30.897C69.4371 30.7492 69.801 30.6753 70.18 30.6753C70.9229 30.6753 71.4763 30.8815 71.8401 31.2938C72.2116 31.6983 72.3973 32.2467 72.3973 32.9391V36.4515H70.6803V33.1375C70.6803 32.414 70.3544 32.0523 69.7025 32.0523C69.4144 32.0523 69.1453 32.1262 68.8951 32.274C68.645 32.414 68.4327 32.6241 68.2584 32.9041V36.4515H66.5414V30.8503Z" fill="var(--logo-color, #1A237E)"/>
<path d="M75.5724 36.6266C74.9053 36.6266 74.3595 36.4554 73.935 36.1131C73.5181 35.763 73.3096 35.2885 73.3096 34.6895C73.3096 34.0671 73.5105 33.5848 73.9122 33.2425C74.314 32.8924 74.8825 32.7174 75.6178 32.7174C75.9438 32.7174 76.2546 32.7524 76.5502 32.8224C76.8459 32.8924 77.1074 32.9897 77.3348 33.1142V32.9741C77.3348 32.6241 77.2135 32.3673 76.9709 32.204C76.7284 32.0406 76.3569 31.9589 75.8566 31.9589C75.1895 31.9589 74.5755 32.0873 74.0146 32.344V31.0604C74.2572 30.9515 74.5717 30.862 74.9583 30.792C75.3449 30.7142 75.7315 30.6753 76.1181 30.6753C77.1036 30.6753 77.8389 30.8854 78.324 31.3054C78.8092 31.7178 79.0518 32.2973 79.0518 33.0441V36.4515H77.4371V35.9381C76.9747 36.3971 76.3531 36.6266 75.5724 36.6266ZM76.0386 35.4596C76.319 35.4596 76.573 35.4052 76.8004 35.2963C77.0278 35.1874 77.2059 35.0357 77.3348 34.8412V34.2811C76.9482 34.0166 76.5237 33.8843 76.0613 33.8843C75.7429 33.8843 75.4966 33.9543 75.3222 34.0944C75.1554 34.2266 75.0721 34.425 75.0721 34.6895C75.0721 34.9384 75.1554 35.129 75.3222 35.2613C75.489 35.3935 75.7278 35.4596 76.0386 35.4596Z" fill="var(--logo-color, #1A237E)"/>
<path d="M80.1884 30.8503H81.8485V31.5388C82.0986 31.251 82.3943 31.0371 82.7354 30.897C83.0841 30.7492 83.448 30.6753 83.827 30.6753C84.5699 30.6753 85.1232 30.8815 85.4871 31.2938C85.8585 31.6983 86.0442 32.2467 86.0442 32.9391V36.4515H84.3273V33.1375C84.3273 32.414 84.0013 32.0523 83.3494 32.0523C83.0614 32.0523 82.7923 32.1262 82.5421 32.274C82.2919 32.414 82.0797 32.6241 81.9053 32.9041V36.4515H80.1884V30.8503Z" fill="var(--logo-color, #1A237E)"/>
<path d="M90.1858 36.6266C89.2004 36.6266 88.4158 36.3698 87.8321 35.8564C87.2484 35.3352 86.9566 34.6039 86.9566 33.6626C86.9566 32.7213 87.2484 31.99 87.8321 31.4688C88.4234 30.9398 89.2117 30.6753 90.1972 30.6753C91.0917 30.6753 91.8042 30.8465 92.3349 31.1888V32.5774C92.0923 32.3984 91.808 32.2662 91.4821 32.1806C91.1637 32.0951 90.8264 32.0523 90.4701 32.0523C89.9394 32.0523 89.5149 32.1845 89.1966 32.449C88.8782 32.7135 88.719 33.118 88.719 33.6626C88.719 34.2072 88.8744 34.6117 89.1852 34.8762C89.5036 35.1329 89.9281 35.2613 90.4587 35.2613C91.194 35.2613 91.8421 35.0785 92.4031 34.7128V36.0898C91.8421 36.4476 91.103 36.6266 90.1858 36.6266Z" fill="var(--logo-color, #1A237E)"/>
<path d="M96.4961 36.6266C95.4501 36.6266 94.6276 36.3698 94.0287 35.8564C93.4299 35.3352 93.1304 34.6078 93.1304 33.6743C93.1304 32.7485 93.3958 32.0173 93.9264 31.4805C94.4646 30.9437 95.2302 30.6753 96.2233 30.6753C96.8752 30.6753 97.4285 30.7998 97.8834 31.0487C98.3382 31.2977 98.6831 31.6438 98.9181 32.0873C99.1531 32.5229 99.2706 33.0169 99.2706 33.5692V34.2811H94.7678C94.8891 34.9968 95.541 35.3546 96.7236 35.3546C97.0723 35.3546 97.4323 35.3235 97.8038 35.2613C98.1752 35.199 98.4974 35.1135 98.7703 35.0045V36.2415C98.505 36.3582 98.1638 36.4515 97.7469 36.5215C97.33 36.5915 96.9131 36.6266 96.4961 36.6266ZM97.6446 33.1375C97.6218 32.7641 97.4854 32.4762 97.2352 32.274C96.9851 32.0639 96.6402 31.9589 96.2005 31.9589C95.7684 31.9589 95.4273 32.0639 95.1772 32.274C94.927 32.484 94.7906 32.7719 94.7678 33.1375H97.6446Z" fill="var(--logo-color, #1A237E)"/>
<path d="M55.3765 1.54256H60.5939V10.018L67.6979 1.54256H73.8882L65.5461 11.4793L74.4482 21.9713H68.258L60.5939 12.9406V21.9713H55.3765V1.54256Z" fill="var(--logo-color, #1A237E)"/>
<path d="M78.2402 6.07254C77.4541 6.07254 76.7958 5.81925 76.2652 5.31267C75.7346 4.80609 75.4693 4.16313 75.4693 3.38378C75.4693 2.62391 75.7346 1.99069 76.2652 1.48411C76.7958 0.958046 77.4541 0.695016 78.2402 0.695016C79.0066 0.695016 79.6551 0.958046 80.1857 1.48411C80.7359 1.99069 81.011 2.62391 81.011 3.38378C81.011 4.14364 80.7359 4.78661 80.1857 5.31267C79.6551 5.81925 79.0066 6.07254 78.2402 6.07254ZM75.6462 7.94298H80.8342V21.9713H75.6462V7.94298Z" fill="var(--logo-color, #1A237E)"/>
<path d="M83.6734 0.373535H88.8614V21.9713H83.6734V0.373535Z" fill="var(--logo-color, #1A237E)"/>
<path d="M91.5033 0.373535H96.6913V21.9713H91.5033V0.373535Z" fill="var(--logo-color, #1A237E)"/>
<path d="M105.759 22.4097C104.462 22.4097 103.175 22.283 101.898 22.0297C100.62 21.7959 99.569 21.4647 98.7437 21.0361V16.3892C99.8048 16.9347 100.905 17.3439 102.045 17.6167C103.205 17.8894 104.305 18.0258 105.347 18.0258C106.309 18.0258 107.037 17.8797 107.528 17.5874C108.019 17.2952 108.265 16.8763 108.265 16.3307C108.265 15.9216 108.127 15.5709 107.852 15.2786C107.597 14.9669 107.213 14.6844 106.703 14.4311C106.192 14.1778 105.396 13.8271 104.315 13.379C102.409 12.5801 101.023 11.6936 100.159 10.7194C99.2939 9.74523 98.8616 8.54698 98.8616 7.12466C98.8616 5.95563 99.1858 4.91325 99.8343 3.99752C100.502 3.08178 101.426 2.37062 102.605 1.86404C103.784 1.35746 105.14 1.10417 106.673 1.10417C107.931 1.10417 109.051 1.20159 110.033 1.39643C111.016 1.59127 111.959 1.90301 112.863 2.33165V6.86163C111.134 5.96538 109.395 5.51725 107.646 5.51725C106.703 5.51725 105.946 5.67312 105.376 5.98486C104.826 6.27712 104.551 6.70576 104.551 7.27079C104.551 7.83582 104.836 8.29369 105.406 8.64439C105.975 8.9951 107.027 9.47246 108.56 10.0765C109.955 10.6415 111.036 11.1968 111.802 11.7423C112.588 12.2879 113.158 12.9211 113.512 13.642C113.865 14.3629 114.042 15.2786 114.042 16.3892C114.042 18.2791 113.345 19.7599 111.949 20.8315C110.574 21.8836 108.51 22.4097 105.759 22.4097Z" fill="var(--logo-color, #1A237E)"/>
<path d="M114.202 7.94298H119.39L121.66 15.98L123.929 7.94298H128.115L130.385 15.98L132.655 7.94298H137.843L133.097 21.9713H128.439L126.022 14.0804L123.605 21.9713H118.948L114.202 7.94298Z" fill="var(--logo-color, #1A237E)"/>
<path d="M142.664 6.07254C141.878 6.07254 141.22 5.81925 140.689 5.31267C140.158 4.80609 139.893 4.16313 139.893 3.38378C139.893 2.62391 140.158 1.99069 140.689 1.48411C141.22 0.958046 141.878 0.695016 142.664 0.695016C143.43 0.695016 144.079 0.958046 144.61 1.48411C145.16 1.99069 145.435 2.62391 145.435 3.38378C145.435 4.14364 145.16 4.78661 144.61 5.31267C144.079 5.81925 143.43 6.07254 142.664 6.07254ZM140.07 7.94298H145.258V21.9713H140.07V7.94298Z" fill="var(--logo-color, #1A237E)"/>
<path d="M154.229 22.4097C152.48 22.4097 151.153 21.9323 150.249 20.9776C149.365 20.0034 148.923 18.6785 148.923 17.0029V11.5085H146.918V7.94298H148.923V3.73449H154.111V7.94298H157.353V11.5085H154.111V16.3015C154.111 17.0614 154.248 17.6069 154.523 17.9382C154.818 18.2694 155.329 18.435 156.056 18.435C156.705 18.435 157.353 18.2596 158.002 17.9089V21.7375C157.491 21.9713 156.94 22.1369 156.351 22.2343C155.781 22.3512 155.074 22.4097 154.229 22.4097Z" fill="var(--logo-color, #1A237E)"/>
<path d="M167.165 22.4097C164.571 22.4097 162.517 21.7667 161.004 20.4808C159.491 19.1949 158.734 17.3634 158.734 14.9864C158.734 12.6093 159.491 10.7681 161.004 9.46271C162.537 8.1573 164.6 7.50459 167.194 7.50459C168.354 7.50459 169.435 7.6215 170.437 7.8553C171.459 8.06962 172.304 8.38136 172.972 8.79052V12.7944C171.773 11.9372 170.191 11.5085 168.226 11.5085C166.968 11.5085 165.956 11.8008 165.19 12.3853C164.443 12.9503 164.07 13.8173 164.07 14.9864C164.07 16.1749 164.443 17.0516 165.19 17.6167C165.937 18.1622 166.939 18.435 168.197 18.435C170.103 18.435 171.754 17.9869 173.149 17.0906V21.0653C171.655 21.9616 169.661 22.4097 167.165 22.4097Z" fill="var(--logo-color, #1A237E)"/>
<path d="M175.214 0.373535H180.402V9.37504C181.031 8.75156 181.748 8.28395 182.554 7.9722C183.379 7.66046 184.244 7.50459 185.148 7.50459C187.133 7.50459 188.597 8.02091 189.54 9.05355C190.503 10.0667 190.984 11.4501 190.984 13.2036V21.9713H185.796V13.8758C185.796 12.2976 185.069 11.5085 183.615 11.5085C182.947 11.5085 182.338 11.6644 181.787 11.9761C181.237 12.2684 180.775 12.7262 180.402 13.3497V21.9713H175.214V0.373535Z" fill="var(--logo-color, #1A237E)"/>
<path d="M27.6449 20.8306C29.1732 24.7698 29.8966 32.651 30.087 35.0587C30.1196 35.4752 30.4568 35.8003 30.8784 35.8298C43.3147 36.6816 46.1756 30.977 46.7712 29.1471C46.8745 28.8246 46.7766 28.4753 46.5155 28.255C41.5715 24.0954 35.2785 20.5887 33.2335 19.4951C32.9017 19.3178 32.4883 19.3715 32.23 19.6402C31.7513 20.1373 30.62 20.8198 28.0256 20.7446H27.5986L27.6449 20.8306Z" fill="var(--logo-color, #1A237E)"/>
<path d="M30.8974 13.3226C30.446 12.7503 28.8333 11.0709 24.7486 9.85361C24.6398 9.82136 24.5501 9.74075 24.5093 9.63327L21.1725 0.86533C21.0691 0.596622 21.3084 0.32254 21.5913 0.381655C24.028 0.8922 32.8609 3.18428 40.5218 10.8371C40.7285 11.044 40.6142 11.3987 40.3232 11.4497C38.7133 11.7265 34.5851 12.4816 31.2918 13.4489C31.1449 13.4892 30.9926 13.4409 30.8974 13.3226Z" fill="var(--logo-color, #1A237E)"/>
<path d="M18.3279 11.6407C18.1838 13.7366 18.8582 15.3193 19.3504 16.1765C19.5707 16.5608 19.3858 17.0444 18.9643 17.1895C16.4079 18.0628 8.89937 20.6747 5.80185 22.2869C5.48095 22.4535 5.08934 22.3622 4.88265 22.0693C3.2999 19.8363 -2.47362 10.8668 2.22569 4.86391C2.41606 4.62207 2.73968 4.52534 3.03067 4.62744C5.00231 5.31802 12.7203 8.1099 17.9417 11.2027C17.9934 11.2323 18.0396 11.2699 18.0832 11.3102L18.2681 11.4929L18.3279 11.6407Z" fill="var(--logo-color, #1A237E)"/>
<path d="M29.7244 17.6513C30.5895 16.4128 29.5041 14.1905 27.3001 12.6875C25.0962 11.1846 22.6082 10.9702 21.7432 12.2086C20.8781 13.4471 21.9635 15.6694 24.1675 17.1724C26.3715 18.6753 28.8594 18.8897 29.7244 17.6513Z" fill="var(--logo-color, #1A237E)"/>
<path fill-rule="evenodd" clip-rule="evenodd" d="M210.324 4.80657C210.693 4.69724 211.083 4.63855 211.487 4.63855H238.642C240.899 4.63855 242.729 6.46852 242.729 8.7259C242.729 10.9833 240.899 12.8132 238.642 12.8132H229.169V12.8315C229.336 12.8194 229.505 12.8133 229.676 12.8133H234.398C231.645 13.8044 229.676 16.4392 229.676 19.5339C229.676 23.0428 232.207 25.9605 235.543 26.5613H246.138C247.709 26.5613 248.982 27.8343 248.982 29.4047C248.982 30.975 247.709 32.2481 246.138 32.2481H210.429C210.1 32.2481 209.784 32.1922 209.49 32.0895C202.344 31.6202 196.694 25.6988 196.694 18.4629C196.694 10.9479 202.789 4.85066 210.324 4.80657Z" fill="url(#paint0_linear)"/>
<path d="M207.785 23.3506C207.494 23.3506 207.209 23.2568 206.929 23.0691C206.649 22.8758 206.381 22.6341 206.124 22.3441C205.873 22.0483 205.639 21.7413 205.422 21.4228C205.222 21.1555 205.005 20.8257 204.771 20.4333C204.542 20.0352 204.314 19.6087 204.085 19.1538C203.857 18.6932 203.637 18.224 203.426 17.7463C203.215 17.2629 203.026 16.7966 202.861 16.3474C202.701 15.8981 202.572 15.4887 202.475 15.119C202.378 14.7437 202.33 14.4338 202.33 14.1893C202.33 13.7798 202.475 13.4642 202.767 13.2424C203.063 13.0149 203.432 12.9012 203.871 12.9012C204.254 12.9012 204.582 12.9865 204.856 13.1571C205.13 13.3277 205.333 13.6121 205.464 14.0101C205.573 14.3684 205.69 14.7665 205.816 15.2043C205.947 15.6422 206.081 16.0858 206.218 16.535C206.361 16.9843 206.501 17.4108 206.638 17.8146C206.775 18.2126 206.9 18.5567 207.015 18.8467C207.192 19.2846 207.351 19.6286 207.494 19.8788C207.637 20.1291 207.763 20.2542 207.871 20.2542C208.002 20.2542 208.162 20.1348 208.351 19.8959C208.539 19.6571 208.745 19.3301 208.967 18.9149C209.122 18.6477 209.287 18.3377 209.464 17.9852C209.641 17.6326 209.818 17.2573 209.995 16.8592C210.178 16.4611 210.355 16.0602 210.526 15.6564C210.697 15.247 210.86 14.8518 211.014 14.4708C211.157 14.0954 211.32 13.8139 211.502 13.6263C211.691 13.4329 211.899 13.3021 212.128 13.2339C212.362 13.1656 212.613 13.1315 212.881 13.1315C213.155 13.1315 213.395 13.1856 213.601 13.2936C213.806 13.396 213.969 13.5353 214.089 13.7116C214.209 13.8879 214.269 14.0869 214.269 14.3087C214.269 14.5305 214.203 14.8233 214.072 15.1873C213.946 15.5456 213.775 15.9493 213.558 16.3986C213.341 16.8421 213.096 17.3028 212.821 17.7804C212.547 18.2581 212.265 18.7273 211.974 19.1879C211.682 19.6485 211.397 20.075 211.117 20.4674C210.843 20.8598 210.595 21.1953 210.372 21.474C210.081 21.8095 209.792 22.1194 209.507 22.4038C209.221 22.6881 208.936 22.9184 208.65 23.0947C208.365 23.2653 208.077 23.3506 207.785 23.3506Z" fill="#1A237E"/>
<path d="M215.193 23.3762C214.833 23.3762 214.528 23.3136 214.276 23.1885C214.025 23.0634 213.834 22.9014 213.703 22.7023C213.577 22.5033 213.514 22.29 213.514 22.0626C213.514 21.7668 213.614 21.5166 213.814 21.3119C214.014 21.1072 214.262 20.9508 214.559 20.8428C214.856 20.7347 215.15 20.6807 215.441 20.6807C215.704 20.6807 215.935 20.7319 216.135 20.8342C216.34 20.9366 216.5 21.0816 216.615 21.2693C216.734 21.4512 216.794 21.673 216.794 21.9346C216.794 22.2076 216.723 22.4549 216.58 22.6767C216.443 22.8928 216.252 23.0634 216.006 23.1885C215.767 23.3136 215.495 23.3762 215.193 23.3762Z" fill="#1A237E"/>
<path d="M219.956 23.4444C219.579 23.4046 219.242 23.3392 218.945 23.2482C218.648 23.1573 218.414 23.0208 218.243 22.8388C218.071 22.6568 217.986 22.3981 217.986 22.0626C217.986 21.7668 218.037 21.491 218.14 21.2351C218.248 20.9735 218.48 20.7205 218.834 20.476C219.073 20.2769 219.373 20.0381 219.733 19.7594C220.098 19.4751 220.484 19.1708 220.889 18.8467C221.295 18.5169 221.68 18.1899 222.045 17.8657C222.308 17.6383 222.536 17.4108 222.731 17.1833C222.93 16.9502 223.085 16.7199 223.193 16.4924C223.307 16.2592 223.364 16.0403 223.364 15.8356C223.364 15.3749 223.236 15.0536 222.979 14.8717C222.722 14.684 222.374 14.5902 221.934 14.5902C221.506 14.5902 221.132 14.6584 220.812 14.7949C220.498 14.9314 220.235 15.0991 220.024 15.2982C219.881 15.429 219.741 15.5683 219.604 15.7162C219.473 15.8583 219.342 15.9806 219.21 16.0829C219.079 16.1796 218.945 16.228 218.808 16.228C218.608 16.228 218.422 16.1597 218.251 16.0232C218.086 15.8868 218.003 15.6906 218.003 15.4347C218.003 15.0935 218.103 14.7551 218.303 14.4196C218.502 14.0841 218.785 13.7798 219.15 13.5069C219.516 13.2339 219.944 13.0149 220.435 12.85C220.926 12.6851 221.463 12.6027 222.045 12.6027C222.559 12.6027 223.042 12.651 223.493 12.7477C223.944 12.8443 224.341 13.0036 224.683 13.2254C225.032 13.4471 225.303 13.74 225.497 14.104C225.691 14.4679 225.788 14.9143 225.788 15.4432C225.788 15.8015 225.728 16.137 225.608 16.4497C225.488 16.7625 225.323 17.0639 225.112 17.3539C224.9 17.644 224.652 17.9311 224.366 18.2155C224.172 18.4088 223.955 18.6135 223.715 18.8296C223.481 19.0401 223.239 19.2505 222.987 19.4609C222.742 19.6656 222.505 19.8589 222.277 20.0409C222.054 20.2229 221.857 20.3764 221.686 20.5015C221.537 20.6096 221.426 20.712 221.352 20.8086C221.277 20.8996 221.24 20.9963 221.24 21.0987C221.24 21.1612 221.283 21.2095 221.369 21.2437C221.46 21.2778 221.574 21.3005 221.711 21.3119C221.848 21.3176 221.988 21.3204 222.131 21.3204C222.377 21.3204 222.673 21.2977 223.022 21.2522C223.376 21.201 223.727 21.1527 224.075 21.1072C224.429 21.056 224.72 21.0304 224.949 21.0304C225.234 21.0304 225.466 21.0958 225.643 21.2266C225.82 21.3574 225.908 21.5422 225.908 21.7811C225.908 22.0995 225.825 22.364 225.66 22.5744C225.5 22.7791 225.266 22.944 224.957 23.0691C224.649 23.1942 224.269 23.2881 223.818 23.3506C223.373 23.4132 222.865 23.4558 222.294 23.4786C221.928 23.4899 221.54 23.4956 221.129 23.4956C220.718 23.5013 220.327 23.4842 219.956 23.4444Z" fill="#1A237E"/>
<defs>
<linearGradient id="paint0_linear" x1="198.829" y1="3.98765" x2="236.149" y2="37.5058" gradientUnits="userSpaceOnUse">
<stop stop-color="#FFFF88"/>
<stop offset="1" stop-color="#FFB100"/>
</linearGradient>
</defs>
</svg>
