<?xml version="1.0" encoding="UTF-8"?>
<svg width="160px" height="80px" viewBox="0 0 160 80" version="1.1" xmlns="http://www.w3.org/2000/svg" xmlns:xlink="http://www.w3.org/1999/xlink">
    <!-- Generator: Sketch 55.2 (78181) - https://sketchapp.com -->
    <title>logo</title>
    <desc>Created with Sketch.</desc>
    <defs>
        <path d="M1.93075922,31.424 C-3.48355748,50.0998261 4.13778742,69.4733913 19.4384382,79.7613913 C5.97310195,69.2149565 -0.349848156,50.5172174 4.93362256,32.3012174 C10.2174403,14.0852174 25.5569631,1.69391304 42.5620824,0.0233043478 C24.1433406,0.490782609 7.34264642,12.746087 1.93075922,31.424" id="path-1"></path>
    </defs>
    <g id="Page-1" stroke="none" stroke-width="1" fill="none" fill-rule="evenodd">
        <g id="home" transform="translate(-40.000000, -30.000000)">
            <g id="header" transform="translate(40.000000, 30.000000)">
                <g id="logo">
                    <g id="10x" transform="translate(89.630195, 31.368772)" fill-rule="nonzero">
                        <path d="M3.71227766,28.3133145 C1.65969631,28.3133145 5.68434189e-14,26.6458362 5.68434189e-14,24.5874015 L5.68434189e-14,3.85001015 C5.68434189e-14,1.79087972 1.65969631,0.119923194 3.71227766,0.119923194 C5.76763557,0.119923194 7.43010846,1.79087972 7.43010846,3.85001015 L7.43010846,24.5874015 C7.43010846,26.6458362 5.76763557,28.3133145 3.71227766,28.3133145" id="Path" fill="#929497"></path>
                        <path d="M25.7284165,28.3133145 C17.9706725,28.3133145 11.6640347,21.9912275 11.6640347,14.218358 C11.6640347,6.44479276 17.9710195,0.12027102 25.7284165,0.12027102 C33.483731,0.12027102 39.7931453,6.44514059 39.7931453,14.218358 C39.7931453,21.9912275 33.483731,28.3133145 25.7284165,28.3133145 M25.7284165,7.57661885 C22.0737527,7.57661885 19.1017787,10.5564449 19.1017787,14.218358 C19.1017787,17.8795754 22.0734056,20.8618362 25.7284165,20.8618362 C29.3806508,20.8618362 32.3578308,17.8799232 32.3578308,14.218358 C32.3578308,10.5564449 29.3806508,7.57661885 25.7284165,7.57661885" id="Shape" fill="#00AEC5"></path>
                        <path d="M47.7449024,1.12653189 L52.3970499,5.78948841 C53.847462,7.2427058 53.8839046,9.56201015 52.4831236,10.9672275 C51.0799132,12.3734884 48.7632104,12.3369667 47.3124512,10.8834015 L42.6627332,6.22079276 C41.212321,4.76757537 41.1758785,2.44827102 42.5790889,1.04235798 C43.9798698,-0.363207241 46.2941432,-0.326685502 47.7449024,1.12653189 Z M64.1971367,17.6117493 L68.8472017,22.274358 C70.297961,23.7268797 70.3344035,26.0475754 68.9311931,27.4538362 C67.5276356,28.8590536 65.2157918,28.8211406 63.7653796,27.3675754 L59.112885,22.706358 C57.6624729,21.2524449 57.6232538,18.9331406 59.0264642,17.5279232 C60.4300217,16.1216623 62.7439479,16.1581841 64.1971367,17.6117493 Z M68.834013,6.20861885 L64.184295,10.8698362 C62.7335358,12.3234015 60.4192625,12.3627058 59.015705,10.9564449 C57.6124946,9.55053189 57.6517137,7.23122754 59.1021258,5.77661885 L63.7518438,1.11609711 C65.2050325,-0.338859415 67.5168764,-0.375381154 68.9204338,1.03053189 C70.3236443,2.43679276 70.2872017,4.75366232 68.834013,6.20861885 Z M52.3842082,22.6959232 L47.7348373,27.3560971 C46.2844252,28.8110536 43.9725813,28.8475754 42.5665944,27.4413145 C41.1658134,26.0360971 41.202256,23.7178362 42.6526681,22.2628797 L47.3023861,17.6030536 C48.7555748,16.1494884 51.0670716,16.1087928 52.4734056,17.5140102 C53.8738395,18.9213145 53.837397,21.2395754 52.3842082,22.6959232 Z" id="Combined-Shape" fill="#EDE945"></path>
                        <path d="M58.2958785,11.7018362 C59.7018655,13.1067058 59.7018655,15.384271 58.2958785,16.7919232 C56.8950976,18.1985319 54.6200434,18.1985319 53.2140564,16.7919232 C51.8132755,15.3856623 51.8132755,13.1067058 53.2140564,11.7018362 C54.6200434,10.2938362 56.8950976,10.2952275 58.2958785,11.7018362 Z" id="Path" fill="#BED731"></path>
                    </g>
                    <g id="scb" transform="translate(0.261692, 31.951652)" fill="#4C2D83" fill-rule="nonzero">
                        <path d="M0,24.7078261 L1.7856833,20.6264348 C3.60780911,21.8295652 6.43817787,23.269913 9.61388286,23.269913 C12.5643384,23.269913 14.1931453,22.0643478 14.1931453,20.1610435 C14.1931453,17.8688696 11.9021258,16.9756522 8.76286334,15.7725217 C4.50047722,14.1394783 0.505336226,12.0048696 0.505336226,7.38017391 C0.505336226,2.992 4.14715835,2.84217094e-14 10.1952278,2.84217094e-14 C13.2609111,2.84217094e-14 16.0128416,0.737043478 18.0258568,1.86469565 L16.630282,5.82678261 C14.8890239,4.85669565 12.7160087,4.0386087 10.118872,4.0386087 C7.17327549,4.0386087 5.58681128,5.12730435 5.58681128,6.87478261 C5.58681128,9.2066087 8.41440347,10.4090435 11.4360087,11.6925217 C15.7400434,13.52 19.2666377,15.1885217 19.2666377,19.6963478 C19.2666377,24.0848696 15.8552711,27.2713043 9.30464208,27.2713043 C6.43817787,27.2713043 3.37735358,26.6483478 0,24.7078261 L0,24.7078261 Z M22.3698048,13.672 C22.3698048,5.51721739 28.1478525,0.076173913 35.9736226,0.076173913 C39.3485466,0.076173913 42.448243,1.08626087 45.0457267,2.60069565 L43.2652495,6.48730435 C41.401128,5.28278261 38.8039913,4.50365217 36.4397397,4.50365217 C31.2059002,4.50365217 27.718872,7.96243478 27.718872,13.7506087 C27.718872,19.5008696 31.2062473,22.8817391 36.4032972,22.8817391 C38.8039913,22.8817391 41.4799132,22.0643478 43.4172668,20.8612174 L45.2029501,24.7471304 C42.647462,26.2229565 39.5033406,27.2713043 36.0551844,27.2713043 C28.1818655,27.2713043 22.3698048,21.8295652 22.3698048,13.672 L22.3698048,13.672 Z M49.386551,0.387478261 L59.6182213,0.387478261 C64.4671584,0.387478261 67.8365293,3.22365217 67.8365293,7.02921739 C67.8365293,9.43791304 66.3285033,11.5349565 63.5769197,12.4337391 L63.5769197,12.6643478 C67.257961,13.4806957 69.4309761,16.1606957 69.4309761,19.4629565 C69.4309761,24.6674783 65.1633839,26.8817391 60.4740998,26.8817391 L49.3862039,26.8817391 L49.3862039,0.387478261 L49.386551,0.387478261 Z M58.2622126,11.3826087 C60.9770065,11.3826087 62.647462,10.0208696 62.647462,7.73147826 C62.647462,5.67234783 61.0557918,4.38678261 58.7331887,4.38678261 L54.5048156,4.38678261 L54.5048156,11.3826087 L58.2622126,11.3826087 Z M58.9216486,22.8817391 C62.3750108,22.8817391 64.1554881,21.5593043 64.1554881,19.0351304 C64.1554881,16.7812174 62.2573536,15.3826087 59.3093275,15.3826087 L54.5051627,15.3826087 L54.5051627,22.8817391 L58.9216486,22.8817391 Z" id="Shape"></path>
                    </g>
                    <g id="moon" transform="translate(76.702820, 0.000000)">
                        <mask id="mask-2" fill="white">
                            <use xlink:href="#path-1"></use>
                        </mask>
                        <g id="SVGID_1_"></g>
                        <polygon id="Path" fill="#4C2D83" fill-rule="nonzero" mask="url(#mask-2)" points="60.9381345 -21.6615652 -40.867679 49.7746087 -40.867679 -21.6615652"></polygon>
                        <polygon id="Path" fill="#4C2D83" fill-rule="nonzero" mask="url(#mask-2)" points="62.1393492 -21.6615652 -40.867679 50.6222609 -40.867679 49.7704348 60.9273753 -21.6615652"></polygon>
                        <polygon id="Path" fill="#4F2D83" fill-rule="nonzero" mask="url(#mask-2)" points="63.3527115 -21.6615652 -40.867679 51.4726957 -40.867679 50.6222609 62.1393492 -21.6615652"></polygon>
                        <polygon id="Path" fill="#522D83" fill-rule="nonzero" mask="url(#mask-2)" points="64.5660738 -21.6615652 -40.867679 52.3234783 -40.867679 51.4726957 63.3527115 -21.6615652"></polygon>
                        <polygon id="Path" fill="#542D83" fill-rule="nonzero" mask="url(#mask-2)" points="65.7780477 -21.6615652 -40.867679 53.1753043 -40.867679 52.3234783 64.5660738 -21.6615652"></polygon>
                        <polygon id="Path" fill="#572D82" fill-rule="nonzero" mask="url(#mask-2)" points="66.991757 -21.6615652 -40.867679 54.0257391 -40.867679 53.1753043 65.7780477 -21.6615652"></polygon>
                        <polygon id="Path" fill="#592D83" fill-rule="nonzero" mask="url(#mask-2)" points="68.2051193 -21.6615652 -40.867679 54.8775652 -40.867679 54.0257391 66.991757 -21.6615652"></polygon>
                        <polygon id="Path" fill="#5C2D82" fill-rule="nonzero" mask="url(#mask-2)" points="69.4170933 -21.6615652 -40.867679 55.7283478 -40.867679 54.8775652 68.2051193 -21.6615652"></polygon>
                        <polygon id="Path" fill="#5E2D81" fill-rule="nonzero" mask="url(#mask-2)" points="70.6304555 -21.6615652 -40.867679 56.5787826 -40.867679 55.7283478 69.4170933 -21.6615652"></polygon>
                        <polygon id="Path" fill="#612E81" fill-rule="nonzero" mask="url(#mask-2)" points="71.8438178 -21.6615652 -40.867679 57.4306087 -40.867679 56.5787826 70.6304555 -21.6615652"></polygon>
                        <polygon id="Path" fill="#632F81" fill-rule="nonzero" mask="url(#mask-2)" points="73.0557918 -21.6615652 -40.867679 58.2824348 -40.867679 57.4306087 71.8438178 -21.6615652"></polygon>
                        <polygon id="Path" fill="#652F80" fill-rule="nonzero" mask="url(#mask-2)" points="74.269154 -21.6615652 -40.867679 59.1332174 -40.867679 58.2824348 73.0557918 -21.6615652"></polygon>
                        <polygon id="Path" fill="#673080" fill-rule="nonzero" mask="url(#mask-2)" points="75.4825163 -21.6615652 -40.867679 59.9836522 -40.867679 59.1332174 74.269154 -21.6615652"></polygon>
                        <polygon id="Path" fill="#6A3081" fill-rule="nonzero" mask="url(#mask-2)" points="76.6948373 -21.6615652 -40.867679 60.8354783 -40.867679 59.9836522 75.4825163 -21.6615652"></polygon>
                        <polygon id="Path" fill="#6C3281" fill-rule="nonzero" mask="url(#mask-2)" points="77.9081996 -21.6615652 -40.867679 61.6876522 -40.867679 60.8354783 76.6948373 -21.6615652"></polygon>
                        <polygon id="Path" fill="#6E3280" fill-rule="nonzero" mask="url(#mask-2)" points="79.1201735 -21.6615652 -40.867679 62.538087 -40.867679 61.6876522 77.9081996 -21.6615652"></polygon>
                        <polygon id="Path" fill="#703380" fill-rule="nonzero" mask="url(#mask-2)" points="79.9472451 -21.3913043 -40.867679 63.3885217 -40.867679 62.538087 79.1201735 -21.6615652 79.9472451 -21.6615652"></polygon>
                        <polygon id="Path" fill="#723480" fill-rule="nonzero" mask="url(#mask-2)" points="79.9472451 -20.5394783 -40.867679 64.2403478 -40.867679 63.3885217 79.9472451 -21.3913043"></polygon>
                        <polygon id="Path" fill="#74347E" fill-rule="nonzero" mask="url(#mask-2)" points="79.9472451 -19.6886957 -40.867679 65.0911304 -40.867679 64.2403478 79.9472451 -20.5394783"></polygon>
                        <polygon id="Path" fill="#75357F" fill-rule="nonzero" mask="url(#mask-2)" points="79.9472451 -18.8368696 -40.867679 65.9429565 -40.867679 65.0911304 79.9472451 -19.6886957"></polygon>
                        <polygon id="Path" fill="#77357F" fill-rule="nonzero" mask="url(#mask-2)" points="79.9472451 -17.9864348 -40.867679 66.7933913 -40.867679 65.9429565 79.9472451 -18.8368696"></polygon>
                        <polygon id="Path" fill="#79367F" fill-rule="nonzero" mask="url(#mask-2)" points="79.9472451 -17.136 -40.867679 67.6441739 -40.867679 66.7933913 79.9472451 -17.9864348"></polygon>
                        <polygon id="Path" fill="#7A367D" fill-rule="nonzero" mask="url(#mask-2)" points="79.9472451 -16.2838261 -40.867679 68.496 -40.867679 67.6441739 79.9472451 -17.136"></polygon>
                        <polygon id="Path" fill="#7C377D" fill-rule="nonzero" mask="url(#mask-2)" points="79.9472451 -15.432 -40.867679 69.3464348 -40.867679 68.496 79.9472451 -16.2838261"></polygon>
                        <polygon id="Path" fill="#7E377E" fill-rule="nonzero" mask="url(#mask-2)" points="79.9472451 -14.5815652 -40.867679 70.1982609 -40.867679 69.3464348 79.9472451 -15.432"></polygon>
                        <polygon id="Path" fill="#80387E" fill-rule="nonzero" mask="url(#mask-2)" points="79.9472451 -13.7311304 -40.867679 71.0490435 -40.867679 70.1982609 79.9472451 -14.5815652"></polygon>
                        <polygon id="Path" fill="#81387D" fill-rule="nonzero" mask="url(#mask-2)" points="79.9472451 -12.8789565 -40.867679 71.8994783 -40.867679 71.0490435 79.9472451 -13.7311304"></polygon>
                        <polygon id="Path" fill="#83387D" fill-rule="nonzero" mask="url(#mask-2)" points="79.9472451 -12.0285217 -40.867679 72.7513043 -40.867679 71.8994783 79.9472451 -12.8789565"></polygon>
                        <polygon id="Path" fill="#84397D" fill-rule="nonzero" mask="url(#mask-2)" points="79.9472451 -11.1766957 -40.867679 73.6031304 -40.867679 72.7513043 79.9472451 -12.0285217"></polygon>
                        <polygon id="Path" fill="#85397D" fill-rule="nonzero" mask="url(#mask-2)" points="79.9472451 -10.3262609 -40.867679 74.453913 -40.867679 73.6031304 79.9472451 -11.1766957"></polygon>
                        <polygon id="Path" fill="#873A7D" fill-rule="nonzero" mask="url(#mask-2)" points="79.9472451 -9.47408696 -40.867679 75.3043478 -40.867679 74.453913 79.9472451 -10.3262609"></polygon>
                        <polygon id="Path" fill="#883A7D" fill-rule="nonzero" mask="url(#mask-2)" points="79.9472451 -8.62365217 -40.867679 76.1561739 -40.867679 75.3043478 79.9472451 -9.47408696"></polygon>
                        <polygon id="Path" fill="#893A7C" fill-rule="nonzero" mask="url(#mask-2)" points="79.9472451 -7.77182609 -40.867679 77.0069565 -40.867679 76.1561739 79.9472451 -8.62365217"></polygon>
                        <polygon id="Path" fill="#8B3C7C" fill-rule="nonzero" mask="url(#mask-2)" points="79.9472451 -6.92104348 -40.867679 77.8587826 -40.867679 77.0069565 79.9472451 -7.77182609"></polygon>
                        <polygon id="Path" fill="#8C3B7C" fill-rule="nonzero" mask="url(#mask-2)" points="79.9472451 -6.0706087 -40.867679 78.7092174 -40.867679 77.8587826 79.9472451 -6.92104348"></polygon>
                        <polygon id="Path" fill="#8D3C7C" fill-rule="nonzero" mask="url(#mask-2)" points="79.9472451 -5.21878261 -40.867679 79.5610435 -40.867679 78.7092174 79.9472451 -6.0706087"></polygon>
                        <polygon id="Path" fill="#8E3D7C" fill-rule="nonzero" mask="url(#mask-2)" points="79.9472451 -4.36834783 -40.867679 80.4118261 -40.867679 79.5610435 79.9472451 -5.21878261"></polygon>
                        <polygon id="Path" fill="#8F3C7C" fill-rule="nonzero" mask="url(#mask-2)" points="79.9472451 -3.51617391 -40.867679 81.2636522 -40.867679 80.4118261 79.9472451 -4.36834783"></polygon>
                        <polygon id="Path" fill="#903C7B" fill-rule="nonzero" mask="url(#mask-2)" points="79.9472451 -2.66573913 -40.867679 82.114087 -40.867679 81.2636522 79.9472451 -3.51617391"></polygon>
                        <polygon id="Path" fill="#913C7B" fill-rule="nonzero" mask="url(#mask-2)" points="79.9472451 -1.81391304 -40.867679 82.9645217 -40.867679 82.114087 79.9472451 -2.66573913"></polygon>
                        <polygon id="Path" fill="#923D7B" fill-rule="nonzero" mask="url(#mask-2)" points="79.9472451 -0.963478261 -40.867679 83.8166957 -40.867679 82.9645217 79.9472451 -1.81391304"></polygon>
                        <polygon id="Path" fill="#933D7B" fill-rule="nonzero" mask="url(#mask-2)" points="79.9472451 -0.111304348 -40.867679 84.6685217 -40.867679 83.8166957 79.9472451 -0.963478261"></polygon>
                        <polygon id="Path" fill="#933D7B" fill-rule="nonzero" mask="url(#mask-2)" points="79.9472451 0.739130435 -40.867679 85.5189565 -40.867679 84.6685217 79.9472451 -0.111304348"></polygon>
                        <polygon id="Path" fill="#953D7B" fill-rule="nonzero" mask="url(#mask-2)" points="79.9472451 1.58956522 -40.867679 86.3693913 -40.867679 85.5189565 79.9472451 0.739130435"></polygon>
                        <polygon id="Path" fill="#953E7B" fill-rule="nonzero" mask="url(#mask-2)" points="79.9472451 2.44173913 -40.867679 87.2215652 -40.867679 86.3693913 79.9472451 1.58956522"></polygon>
                        <polygon id="Path" fill="#963E7B" fill-rule="nonzero" mask="url(#mask-2)" points="79.9472451 3.29217391 -40.867679 88.072 -40.867679 87.2215652 79.9472451 2.44173913"></polygon>
                        <polygon id="Path" fill="#973E7A" fill-rule="nonzero" mask="url(#mask-2)" points="79.9472451 4.144 -40.867679 88.9238261 -40.867679 88.072 79.9472451 3.29217391"></polygon>
                        <polygon id="Path" fill="#983E79" fill-rule="nonzero" mask="url(#mask-2)" points="79.9472451 4.99443478 -40.867679 89.7746087 -40.867679 88.9238261 79.9472451 4.144"></polygon>
                        <polygon id="Path" fill="#983F7A" fill-rule="nonzero" mask="url(#mask-2)" points="79.9472451 5.8466087 -40.867679 90.6250435 -40.867679 89.7746087 79.9472451 4.99443478"></polygon>
                        <polygon id="Path" fill="#993F7A" fill-rule="nonzero" mask="url(#mask-2)" points="79.9472451 6.69704348 -40.867679 91.4768696 -40.867679 90.6250435 79.9472451 5.8466087"></polygon>
                        <polygon id="Path" fill="#9A3F79" fill-rule="nonzero" mask="url(#mask-2)" points="79.9472451 7.54886957 -40.867679 92.3273043 -40.867679 91.4768696 79.9472451 6.69704348"></polygon>
                        <polygon id="Path" fill="#9A3F79" fill-rule="nonzero" mask="url(#mask-2)" points="79.9472451 8.39930435 -40.867679 93.1794783 -40.867679 92.3273043 79.9472451 7.54886957"></polygon>
                        <polygon id="Path" fill="#9B3F7A" fill-rule="nonzero" mask="url(#mask-2)" points="79.9472451 9.25008696 -40.867679 94.029913 -40.867679 93.1794783 79.9472451 8.39930435"></polygon>
                        <polygon id="Path" fill="#9B3F7A" fill-rule="nonzero" mask="url(#mask-2)" points="79.9472451 10.101913 -40.867679 94.8803478 -40.867679 94.029913 79.9472451 9.25008696"></polygon>
                        <polygon id="Path" fill="#9C3F7A" fill-rule="nonzero" mask="url(#mask-2)" points="79.9472451 10.9523478 -40.867679 95.7321739 -40.867679 94.8803478 79.9472451 10.101913"></polygon>
                        <polygon id="Path" fill="#9C4079" fill-rule="nonzero" mask="url(#mask-2)" points="79.9472451 11.8045217 -40.867679 96.5843478 -40.867679 95.7321739 79.9472451 10.9523478"></polygon>
                        <polygon id="Path" fill="#9D4079" fill-rule="nonzero" mask="url(#mask-2)" points="79.9472451 12.6549565 -40.867679 97.4347826 -40.867679 96.5843478 79.9472451 11.8045217"></polygon>
                        <polygon id="Path" fill="#9D4079" fill-rule="nonzero" mask="url(#mask-2)" points="79.9472451 13.5053913 -40.867679 98.2852174 -40.867679 97.4347826 79.9472451 12.6549565"></polygon>
                        <polygon id="Path" fill="#9D4079" fill-rule="nonzero" mask="url(#mask-2)" points="79.9472451 14.3572174 -40.867679 99.1373913 -40.867679 98.2852174 79.9472451 13.5053913"></polygon>
                        <polygon id="Path" fill="#9E4079" fill-rule="nonzero" mask="url(#mask-2)" points="79.9472451 15.2093913 -40.867679 99.9892174 -40.867679 99.1373913 79.9472451 14.3572174"></polygon>
                        <polygon id="Path" fill="#9E4079" fill-rule="nonzero" mask="url(#mask-2)" points="79.9472451 16.0598261 -40.867679 100.839652 -40.867679 99.9892174 79.9472451 15.2093913"></polygon>
                        <polygon id="Path" fill="#9E4079" fill-rule="nonzero" mask="url(#mask-2)" points="79.9472451 16.9102609 -40.5178308 101.444174 -40.867679 101.444174 -40.867679 100.839652 79.9472451 16.0598261"></polygon>
                        <polygon id="Path" fill="#9F4079" fill-rule="nonzero" mask="url(#mask-2)" points="79.9472451 17.762087 -39.3044685 101.444174 -40.5178308 101.444174 79.9472451 16.9102609"></polygon>
                        <polygon id="Path" fill="#9F4079" fill-rule="nonzero" mask="url(#mask-2)" points="79.9472451 18.6128696 -38.0924946 101.444174 -39.3044685 101.444174 79.9472451 17.762087"></polygon>
                        <polygon id="Path" fill="#9F4079" fill-rule="nonzero" mask="url(#mask-2)" points="79.9472451 19.4646957 -36.8791323 101.444174 -38.0924946 101.444174 79.9472451 18.6128696"></polygon>
                        <polygon id="Path" fill="#9F4178" fill-rule="nonzero" mask="url(#mask-2)" points="79.9472451 20.3151304 -35.6657701 101.444174 -36.8791323 101.444174 79.9472451 19.4646957"></polygon>
                        <polygon id="Path" fill="#A04178" fill-rule="nonzero" mask="url(#mask-2)" points="79.9472451 21.1669565 -34.4524078 101.444174 -35.6657701 101.444174 79.9472451 20.3151304"></polygon>
                        <polygon id="Path" fill="#A04178" fill-rule="nonzero" mask="url(#mask-2)" points="79.9472451 22.0177391 -33.2400868 101.444174 -34.4524078 101.444174 79.9472451 21.1669565"></polygon>
                        <polygon id="Path" fill="#A04178" fill-rule="nonzero" mask="url(#mask-2)" points="79.9472451 22.8695652 -32.0281128 101.444174 -33.2400868 101.444174 79.9472451 22.0177391"></polygon>
                        <polygon id="Path" fill="#A04178" fill-rule="nonzero" mask="url(#mask-2)" points="79.9472451 23.72 -30.8147505 101.444174 -32.0281128 101.444174 79.9472451 22.8695652"></polygon>
                        <polygon id="Path" fill="#A04178" fill-rule="nonzero" mask="url(#mask-2)" points="79.9472451 24.5707826 -29.6013883 101.444174 -30.8147505 101.444174 79.9472451 23.72"></polygon>
                        <polygon id="Path" fill="#A04178" fill-rule="nonzero" mask="url(#mask-2)" points="79.9472451 25.4226087 -28.388026 101.444174 -29.6013883 101.444174 79.9472451 24.5707826"></polygon>
                        <polygon id="Path" fill="#A14178" fill-rule="nonzero" mask="url(#mask-2)" points="79.9472451 26.2730435 -27.1760521 101.444174 -28.388026 101.444174 79.9472451 25.4226087"></polygon>
                        <polygon id="Path" fill="#A14178" fill-rule="nonzero" mask="url(#mask-2)" points="79.9472451 27.1248696 -25.9626898 101.444174 -27.1760521 101.444174 79.9472451 26.2730435"></polygon>
                        <polygon id="Path" fill="#A14178" fill-rule="nonzero" mask="url(#mask-2)" points="79.9472451 27.9756522 -24.7493275 101.444174 -25.9626898 101.444174 79.9472451 27.1248696"></polygon>
                        <polygon id="Path" fill="#A14178" fill-rule="nonzero" mask="url(#mask-2)" points="79.9472451 28.826087 -23.5370065 101.444174 -24.7493275 101.444174 79.9472451 27.9756522"></polygon>
                        <polygon id="Path" fill="#A14178" fill-rule="nonzero" mask="url(#mask-2)" points="79.9472451 29.677913 -22.3236443 101.444174 -23.5370065 101.444174 79.9472451 28.826087"></polygon>
                        <polygon id="Path" fill="#A14178" fill-rule="nonzero" mask="url(#mask-2)" points="79.9472451 30.5297391 -21.1116703 101.444174 -22.3236443 101.444174 79.9472451 29.677913"></polygon>
                        <polygon id="Path" fill="#A14178" fill-rule="nonzero" mask="url(#mask-2)" points="79.9472451 31.3805217 -19.898308 101.444174 -21.1116703 101.444174 79.9472451 30.5297391"></polygon>
                        <polygon id="Path" fill="#A14178" fill-rule="nonzero" mask="url(#mask-2)" points="79.9472451 32.2309565 -18.6849458 101.444174 -19.898308 101.444174 79.9472451 31.3805217"></polygon>
                        <polygon id="Path" fill="#A14178" fill-rule="nonzero" mask="url(#mask-2)" points="79.9472451 33.0827826 -17.4729718 101.444174 -18.6849458 101.444174 79.9472451 32.2309565"></polygon>
                        <polygon id="Path" fill="#A14178" fill-rule="nonzero" mask="url(#mask-2)" points="79.9472451 33.9335652 -16.2596095 101.444174 -17.4729718 101.444174 79.9472451 33.0827826"></polygon>
                        <polygon id="Path" fill="#A14178" fill-rule="nonzero" mask="url(#mask-2)" points="79.9472451 34.7853913 -15.0462473 101.444174 -16.2596095 101.444174 79.9472451 33.9335652"></polygon>
                        <polygon id="Path" fill="#A14178" fill-rule="nonzero" mask="url(#mask-2)" points="79.9472451 35.6358261 -13.8339262 101.444174 -15.0462473 101.444174 79.9472451 34.7853913"></polygon>
                        <polygon id="Path" fill="#A14178" fill-rule="nonzero" mask="url(#mask-2)" points="79.9472451 36.4876522 -12.620564 101.444174 -13.8339262 101.444174 79.9472451 35.6358261"></polygon>
                        <polygon id="Path" fill="#A14178" fill-rule="nonzero" mask="url(#mask-2)" points="79.9472451 37.3384348 -11.4072017 101.444174 -12.620564 101.444174 79.9472451 36.4876522"></polygon>
                        <polygon id="Path" fill="#A14178" fill-rule="nonzero" mask="url(#mask-2)" points="-11.4072017 101.444174 79.9472451 37.3384348 79.9472451 101.444174"></polygon>
                    </g>
                </g>
            </g>
        </g>
    </g>
</svg>