<svg width="100%" height="100%" viewBox="0 0 1440 1058" fill="none" xmlns="http://www.w3.org/2000/svg">
<path d="M1478 -98H-19V1058H1478V-98Z" fill="#000051"/>
<path opacity="0.05" d="M-42.8965 90.6253C-37.5665 90.7051 295.248 170.107 478.902 116.593C662.557 63.1002 866.393 56.5332 970.757 111.564C1075.12 166.594 1502.12 152.701 1502.12 152.701V3H-42.8965V90.6253Z" fill="white"/>
<path opacity="0.1" d="M294.23 91.1726C294.23 95.2046 290.956 98.478 286.923 98.478C282.891 98.478 279.617 95.2046 279.617 91.1726C279.617 87.1407 282.891 83.8672 286.923 83.8672C290.956 83.8672 294.23 87.1407 294.23 91.1726Z" fill="#ABEBFF"/>
<path opacity="0.1" d="M610.455 -2.99926C610.455 1.0327 607.181 4.30618 603.149 4.30618C599.117 4.30618 595.843 1.0327 595.843 -2.99926C595.843 -7.03122 599.117 -10.3047 603.149 -10.3047C607.181 -10.3047 610.455 -7.03122 610.455 -2.99926Z" fill="#ABEBFF"/>
<path opacity="0.1" d="M1189.19 113.069C1189.19 117.101 1185.91 120.375 1181.88 120.375C1177.85 120.375 1174.57 117.101 1174.57 113.069C1174.57 109.037 1177.85 105.764 1181.88 105.764C1185.91 105.764 1189.19 109.037 1189.19 113.069Z" fill="#ABEBFF"/>
<path opacity="0.1" d="M1402.53 473.45C1402.53 477.482 1399.25 480.756 1395.22 480.756C1391.19 480.756 1387.91 477.482 1387.91 473.45C1387.91 469.418 1391.19 466.145 1395.22 466.145C1399.25 466.165 1402.53 469.418 1402.53 473.45Z" fill="#ABEBFF"/>
<path opacity="0.1" d="M1053.38 206.543C1053.38 210.575 1050.11 213.848 1046.08 213.848C1042.04 213.848 1038.77 210.575 1038.77 206.543C1038.77 202.511 1042.04 199.237 1046.08 199.237C1050.11 199.237 1053.38 202.511 1053.38 206.543Z" fill="#ABEBFF"/>
<path opacity="0.1" d="M1377.71 189.218C1377.71 193.25 1374.44 196.523 1370.41 196.523C1366.37 196.523 1363.1 193.25 1363.1 189.218C1363.1 185.186 1366.37 181.912 1370.41 181.912C1374.44 181.912 1377.71 185.186 1377.71 189.218Z" fill="#ABEBFF"/>
<path opacity="0.1" d="M439.397 404.189C439.397 408.221 436.123 411.494 432.09 411.494C428.058 411.494 424.784 408.221 424.784 404.189C424.784 400.157 428.058 396.883 432.09 396.883C436.123 396.903 439.397 400.157 439.397 404.189Z" fill="#ABEBFF"/>
<path opacity="0.1" d="M603.149 522.752C603.149 526.784 599.875 530.058 595.842 530.058C591.81 530.058 588.536 526.784 588.536 522.752C588.536 518.72 591.81 515.447 595.842 515.447C599.875 515.447 603.149 518.72 603.149 522.752Z" fill="#ABEBFF"/>
<path opacity="0.1" d="M823.575 537.343C823.575 541.375 820.301 544.648 816.268 544.648C812.236 544.648 808.962 541.375 808.962 537.343C808.962 533.311 812.236 530.038 816.268 530.038C820.321 530.038 823.575 533.311 823.575 537.343Z" fill="#ABEBFF"/>
<path opacity="0.1" d="M1015.81 494.529C1015.81 498.561 1012.54 501.834 1008.51 501.834C1004.47 501.834 1001.2 498.561 1001.2 494.529C1001.2 490.497 1004.47 487.223 1008.51 487.223C1012.54 487.223 1015.81 490.497 1015.81 494.529Z" fill="#ABEBFF"/>
<path opacity="0.1" d="M1232.47 355.586C1232.47 359.618 1229.19 362.891 1225.16 362.891C1221.13 362.891 1217.85 359.618 1217.85 355.586C1217.85 351.554 1221.13 348.28 1225.16 348.28C1229.19 348.28 1232.47 351.554 1232.47 355.586Z" fill="#ABEBFF"/>
<path opacity="0.1" d="M421.231 501.834C421.231 505.866 417.957 509.14 413.924 509.14C409.892 509.14 406.618 505.866 406.618 501.834C406.618 497.802 409.892 494.529 413.924 494.529C417.957 494.529 421.231 497.802 421.231 501.834Z" fill="#ABEBFF"/>
<path opacity="0.1" d="M403.164 230.755C403.164 234.787 399.89 238.06 395.858 238.06C391.826 238.06 388.552 234.787 388.552 230.755C388.552 226.723 391.826 223.449 395.858 223.449C399.91 223.469 403.164 226.723 403.164 230.755Z" fill="#ABEBFF"/>
<path opacity="0.1" d="M114.268 219.856C114.268 223.888 110.994 227.162 106.962 227.162C102.929 227.162 99.6553 223.888 99.6553 219.856C99.6553 215.824 102.929 212.551 106.962 212.551C111.014 212.551 114.268 215.824 114.268 219.856Z" fill="#ABEBFF"/>
<path opacity="0.1" d="M30.3059 58.3382C30.3059 62.3701 27.032 65.6436 22.9996 65.6436C18.9672 65.6436 15.6934 62.3701 15.6934 58.3382C15.6934 54.3062 18.9672 51.0327 22.9996 51.0327C27.052 51.0327 30.3059 54.3062 30.3059 58.3382Z" fill="#ABEBFF"/>
<path opacity="0.1" d="M203.321 329.458C203.321 333.49 200.047 336.763 196.014 336.763C191.982 336.763 188.708 333.49 188.708 329.458C188.708 325.426 191.982 322.152 196.014 322.152C200.047 322.172 203.321 325.426 203.321 329.458Z" fill="#ABEBFF"/>
<path opacity="0.1" d="M52.9837 433.869C52.9837 437.901 49.7098 441.175 45.6774 441.175C41.645 441.175 38.3711 437.901 38.3711 433.869C38.3711 429.837 41.645 426.564 45.6774 426.564C49.7098 426.584 52.9837 429.837 52.9837 433.869Z" fill="#ABEBFF"/>
<path opacity="0.1" d="M279.398 426.584C279.398 430.616 276.124 433.889 272.091 433.889C268.059 433.889 264.785 430.616 264.785 426.584C264.785 422.552 268.059 419.278 272.091 419.278C276.124 419.278 279.398 422.552 279.398 426.584Z" fill="#ABEBFF"/>
<path opacity="0.1" d="M1046.08 380.436C1046.08 384.468 1042.8 387.742 1038.77 387.742C1034.74 387.742 1031.46 384.468 1031.46 380.436C1031.46 376.404 1034.74 373.131 1038.77 373.131C1042.8 373.131 1046.08 376.404 1046.08 380.436Z" fill="#ABEBFF"/>
</svg>
