<svg width="100%" viewBox="0 0 254 180" fill="none" xmlns="http://www.w3.org/2000/svg">
<path d="M246.516 77.1398C242.858 34.5381 186.192 4.6108 119.946 10.2988C53.7009 15.9868 2.96553 55.1358 6.62341 97.7375C10.2813 140.339 66.9477 170.266 133.193 164.578C147.514 163.349 161.11 160.554 173.588 156.496C173.689 156.615 173.784 156.728 173.878 156.835C175.669 158.97 177.863 160.773 180.326 162.098C184.5 164.338 189.418 165.184 194.103 164.46C191.544 162.3 188.938 160.09 187.166 157.249C186.213 155.722 185.538 153.964 185.313 152.187C224.007 136.213 249.128 107.562 246.516 77.1398Z" fill="white"/>
<path d="M39.2116 109.786C37.8603 109.981 36.5781 110.058 35.3653 110.018C34.1765 109.995 33.1325 109.855 32.2331 109.597L31.6072 105.258C32.5942 105.525 33.6654 105.704 34.8211 105.796C35.9978 105.885 37.0929 105.857 38.1065 105.71C39.3733 105.528 40.2962 105.276 40.875 104.955C41.475 104.632 41.7186 104.079 41.6059 103.298C41.5298 102.77 41.3105 102.371 40.9481 102.1C40.6069 101.826 40.0711 101.623 39.3408 101.491C38.6286 101.335 37.6569 101.173 36.4257 101.006C34.9712 100.785 33.7957 100.48 32.8991 100.092C31.9995 99.6831 31.3169 99.135 30.8514 98.4477C30.3859 97.7605 30.0754 96.8784 29.9201 95.8016C29.64 93.859 30.1221 92.2699 31.3664 91.0343C32.6108 89.7987 34.5949 88.9844 37.3187 88.5916C38.5011 88.421 39.6656 88.3501 40.8121 88.3787C41.9555 88.3862 42.8924 88.4559 43.6227 88.5876L44.2531 92.9584C43.2934 92.7304 42.3368 92.599 41.3834 92.564C40.4511 92.5261 39.5521 92.5695 38.6864 92.6944C37.5462 92.8588 36.6323 93.0984 35.9449 93.4131C35.2785 93.7247 35.0002 94.2606 35.1098 95.0207C35.1738 95.4641 35.3522 95.8048 35.6452 96.0428C35.9351 96.2596 36.4015 96.4294 37.0443 96.5523C37.7082 96.6721 38.5998 96.8021 39.7193 96.9424C41.4514 97.1452 42.8065 97.4994 43.7847 98.005C44.7598 98.4894 45.4757 99.119 45.9323 99.8937C46.3858 100.647 46.6857 101.531 46.8319 102.544C47.0907 104.339 46.6041 105.897 45.3719 107.217C44.1367 108.516 42.0832 109.372 39.2116 109.786ZM55.9992 107.365C54.1411 107.633 52.7001 107.356 51.6762 106.534C50.6735 105.708 50.0518 104.462 49.8112 102.794L48.9296 96.681L46.9026 96.9733L46.3453 93.1093L48.3723 92.817L47.9201 89.6814L52.8229 87.584L53.4715 92.0815L57.1139 91.5562L57.4494 95.4522L54.0288 95.9455L54.8602 101.71C54.9637 102.428 55.2163 102.909 55.6179 103.152C56.0164 103.375 56.5747 103.435 57.2926 103.331C57.9049 103.243 58.5126 103.048 59.1156 102.745L59.6135 106.197C58.682 106.763 57.4772 107.152 55.9992 107.365ZM66.3567 105.871C65.4066 106.008 64.4954 105.967 63.6232 105.748C62.7721 105.526 62.0535 105.102 61.4673 104.475C60.8782 103.827 60.5074 102.975 60.3552 101.92C60.1329 100.378 60.4766 99.1001 61.3864 98.0852C62.3142 97.0461 63.8233 96.3758 65.9137 96.0743L70.0944 95.4713L70.0442 95.1229C69.9345 94.3628 69.6035 93.8609 69.0511 93.6173C68.4956 93.3525 67.5211 93.3206 66.1275 93.5216C64.4172 93.7683 62.7766 94.2743 61.2058 95.0397L60.7307 91.7458C61.4271 91.3436 62.2895 90.9714 63.3178 90.6291C64.3672 90.2837 65.4832 90.0258 66.6656 89.8553C68.9883 89.5203 70.8726 89.7335 72.3188 90.4948C73.7861 91.2531 74.6689 92.6669 74.9674 94.7362L76.3195 104.111L71.8537 104.755L71.4176 103.525C70.9417 104.111 70.2907 104.603 69.4646 105.003C68.6596 105.399 67.6236 105.689 66.3567 105.871ZM67.5198 102.503C68.3222 102.387 68.9992 102.149 69.5508 101.79C70.1024 101.43 70.5272 101.013 70.8253 100.539L70.5192 98.4168L66.9086 98.9376C65.4094 99.1538 64.7467 99.8637 64.9202 101.067C64.9994 101.616 65.2519 102.022 65.6776 102.284C66.1034 102.545 66.7174 102.619 67.5198 102.503ZM83.2243 108.806C82.4642 108.915 81.8036 108.967 81.2424 108.962C80.7054 108.975 80.1577 108.914 79.5994 108.779L79.0878 105.231C79.465 105.306 79.8045 105.344 80.1062 105.343C80.429 105.34 80.7487 105.315 81.0655 105.27C81.9312 105.145 82.5523 104.893 82.929 104.516C83.3297 104.156 83.6955 103.554 84.0262 102.709L75.1559 88.954L80.5085 88.1821L85.8425 97.1444L88.3633 87.0492L93.6842 86.2818L89.9386 100.886C89.5664 102.341 89.1051 103.625 88.5544 104.739C88.0069 105.874 87.3081 106.783 86.4583 107.466C85.6114 108.17 84.5335 108.617 83.2243 108.806ZM110.838 99.456C108.98 99.724 107.539 99.4469 106.515 98.6246C105.512 97.7993 104.891 96.5526 104.65 94.8845L103.768 88.7718L101.741 89.0641L101.184 85.2001L103.211 84.9077L102.759 81.7722L107.662 79.6748L108.31 84.1723L111.953 83.647L112.288 87.543L108.868 88.0363L109.699 93.8007C109.803 94.5186 110.055 94.9995 110.457 95.2433C110.855 95.466 111.413 95.5256 112.131 95.4221C112.744 95.3338 113.351 95.1383 113.954 94.8358L114.452 98.2881C113.521 98.8535 112.316 99.2428 110.838 99.456ZM121.671 97.8937C119.897 98.1495 118.442 97.8527 117.307 97.0035C116.168 96.1331 115.46 94.7372 115.183 92.8157L113.822 83.3774L118.921 82.6419L120.241 91.7952C120.363 92.6398 120.654 93.2338 121.113 93.5771C121.59 93.8962 122.24 93.9964 123.064 93.8777C123.676 93.7894 124.238 93.5789 124.751 93.2464C125.263 92.9138 125.672 92.5316 125.976 92.0998L124.496 81.838L129.595 81.1025L131.76 96.1152L127.009 96.8004L126.668 95.5563C126.123 96.1092 125.439 96.5958 124.616 97.0163C123.792 97.4367 122.811 97.7292 121.671 97.8937ZM134.989 95.6494L132.824 80.6368L137.575 79.9516L137.921 81.2273C138.472 80.7167 139.19 80.236 140.073 79.7853C140.953 79.3135 141.921 79.0014 142.977 78.8491C144.92 78.569 146.401 78.8295 147.422 79.6306C148.443 80.4318 149.093 81.8036 149.374 83.7462L150.762 93.3746L145.663 94.11L144.334 84.8934C144.212 84.0488 143.946 83.4729 143.535 83.1657C143.124 82.8585 142.454 82.7719 141.525 82.9059C140.976 82.9851 140.435 83.1925 139.901 83.5281C139.368 83.8637 138.938 84.2489 138.613 84.6838L140.089 94.914L134.989 95.6494ZM161.731 92.1159C159.112 92.4936 156.919 92.1526 155.149 91.093C153.377 90.0122 152.302 88.1628 151.924 85.5445C151.58 83.1585 151.961 81.1638 153.066 79.5603C154.171 77.9568 156.032 76.9662 158.651 76.5886C161.037 76.2445 162.972 76.5903 164.458 77.6262C165.944 78.6621 166.836 80.2146 167.134 82.2839L167.523 84.976L156.881 86.5108C157.256 87.4697 157.895 88.0889 158.798 88.3683C159.718 88.6235 160.917 88.6445 162.395 88.4313C163.219 88.3125 164.042 88.1183 164.866 87.8487C165.71 87.5761 166.401 87.2825 166.937 86.968L167.417 90.2936C166.748 90.735 165.927 91.1011 164.956 91.3921C163.988 91.7041 162.913 91.9454 161.731 92.1159ZM156.456 83.5653L162.664 82.67L162.568 82.0049C162.461 81.2659 162.156 80.7172 161.652 80.3588C161.144 79.9794 160.363 79.8658 159.307 80.018C158.082 80.1947 157.264 80.5714 156.851 81.1482C156.435 81.7039 156.304 82.5096 156.456 83.5653ZM177.309 89.8691C175.853 90.0792 174.573 90.0266 173.472 89.7113C172.37 89.396 171.469 88.7501 170.767 87.7735C170.063 86.7758 169.581 85.3796 169.323 83.5848C169.061 81.769 169.158 80.203 169.615 78.887C170.069 77.5498 170.799 76.4854 171.806 75.6936C172.83 74.8776 174.06 74.3661 175.496 74.159C176.278 74.0463 176.987 74.0303 177.623 74.1109C178.281 74.1885 178.909 74.3566 179.506 74.6152L178.492 67.584L183.592 66.8485L186.67 88.1957L182.268 88.8306L181.8 87.6048C181.264 88.221 180.636 88.7212 179.915 89.1053C179.192 89.4683 178.323 89.7229 177.309 89.8691ZM178.232 85.9533C179.351 85.7919 180.246 85.2748 180.918 84.402L180.041 78.3209C179.229 77.7699 178.263 77.5751 177.144 77.7365C176.067 77.8918 175.303 78.4223 174.852 79.328C174.418 80.2095 174.308 81.3893 174.521 82.8674C174.728 84.3032 175.129 85.2153 175.724 85.6037C176.34 85.989 177.176 86.1056 178.232 85.9533ZM188.769 82.2027L187.214 72.76L186.442 67.4074L191.541 66.672L192.313 72.0246L193.489 81.522L188.769 82.2027ZM189.257 87.8227L188.727 84.1487L194.079 83.3767L194.609 87.0507L189.257 87.8227ZM196.1 81.1454L194.544 71.7028L193.772 66.3502L198.871 65.6148L199.643 70.9674L200.819 80.4648L196.1 81.1454ZM196.587 86.7654L196.057 83.0914L201.41 82.3194L201.94 85.9934L196.587 86.7654ZM203.43 80.0882L201.874 70.6456L201.102 65.293L206.202 64.5575L206.974 69.9101L208.149 79.4076L203.43 80.0882ZM203.917 85.7082L203.388 82.0342L208.74 81.2622L209.27 84.9362L203.917 85.7082Z" fill="#000051"/>
</svg>
