<svg width="627" height="335" viewBox="0 0 627 335" fill="none" xmlns="http://www.w3.org/2000/svg">
<path opacity="0.5" d="M538.063 158.801C533.93 158.801 529.858 159.1 525.866 159.659C506.103 118.98 464.401 90.9162 416.132 90.9162C388.664 90.9162 363.311 99.9981 342.93 115.328C329.774 83.3114 298.294 60.7364 261.523 60.7364C259.586 60.7364 257.67 60.8163 255.773 60.936C225.111 23.9498 178.818 0.396729 127.016 0.396729C34.6893 0.396729 -40.1699 75.2475 -40.1699 167.563C-40.1699 259.879 34.6893 334.73 127.016 334.73H538.063C586.651 334.73 626.057 295.329 626.057 246.746C626.057 198.202 586.651 158.801 538.063 158.801Z" fill="#1A237E"/>
</svg>
