<svg width="486" height="252" viewBox="0 0 486 252" fill="none" xmlns="http://www.w3.org/2000/svg">
<path d="M417.057 113.971C416.318 113.971 415.58 114.011 414.861 114.031C409.671 93.9907 395.657 77.5235 377.232 68.9606C356.85 28.3615 311.216 0.0979004 258.156 0.0979004C209.427 0.0979004 166.927 23.9704 144.549 59.3398C123.17 60.737 105.223 74.6293 97.937 93.7911C93.2259 92.9927 88.375 92.5536 83.4243 92.5536C37.4906 92.5536 0.240723 128.143 0.240723 172.035C0.240723 175.528 0.500205 178.961 0.959342 182.335L0.240723 182.734V251.497H417.057C455.046 251.497 485.828 220.718 485.828 182.734C485.828 144.769 455.046 113.971 417.057 113.971Z" fill="#1A237E"/>
</svg>
