<svg width="339" height="339" viewBox="0 0 339 339" fill="none" xmlns="http://www.w3.org/2000/svg">
<path d="M265.717 21.6509L203.979 0.314697C203.979 0.314697 186.82 7.98746 170.185 7.98746C153.545 7.98746 137.424 0.314697 137.424 0.314697L72.4763 21.6509L0.314453 85.6468L35.5972 146.71L72.4538 140.763V338.685H268.187V140.763H272.136L304.209 146.71L338.685 85.6468L265.717 21.6509Z" fill="#24154E"/>
<path d="M149.032 96.9966H151.768V101.943L155.491 96.9966H158.734L154.363 102.793L159.028 108.915H155.784L151.768 103.644V108.915H149.032V96.9966Z" fill="#F2F2F2"/>
<path d="M161.008 99.6357C160.596 99.6357 160.252 99.4856 159.976 99.1917C159.7 98.8978 159.559 98.5226 159.559 98.0662C159.559 97.6222 159.7 97.2532 159.976 96.9593C160.252 96.6529 160.596 96.4966 161.008 96.4966C161.409 96.4966 161.747 96.6529 162.029 96.9593C162.317 97.2532 162.464 97.6222 162.464 98.0662C162.464 98.5101 162.317 98.8853 162.029 99.1917C161.753 99.4919 161.414 99.6357 161.008 99.6357ZM159.649 100.73H162.368V108.916H159.649V100.73Z" fill="#F2F2F2"/>
<path d="M163.857 96.3149H166.576V108.915H163.857V96.3149Z" fill="#F2F2F2"/>
<path d="M167.958 96.3149H170.677V108.915H167.958V96.3149Z" fill="#F2F2F2"/>
<path d="M175.432 109.166C174.755 109.166 174.078 109.091 173.407 108.947C172.735 108.809 172.188 108.615 171.754 108.365V105.651C172.312 105.97 172.888 106.208 173.486 106.371C174.095 106.527 174.67 106.608 175.217 106.608C175.719 106.608 176.103 106.521 176.362 106.352C176.622 106.183 176.746 105.939 176.746 105.62C176.746 105.382 176.673 105.176 176.532 105.007C176.396 104.826 176.199 104.663 175.928 104.513C175.663 104.363 175.246 104.163 174.676 103.9C173.677 103.431 172.95 102.919 172.498 102.35C172.047 101.781 171.822 101.08 171.822 100.255C171.822 99.5732 171.991 98.9666 172.329 98.4289C172.679 97.8973 173.164 97.4784 173.779 97.1845C174.399 96.8906 175.104 96.7405 175.911 96.7405C176.571 96.7405 177.158 96.7968 177.671 96.9093C178.184 97.0219 178.681 97.2032 179.155 97.4534V100.098C178.246 99.5732 177.338 99.3168 176.419 99.3168C175.922 99.3168 175.528 99.4106 175.229 99.592C174.941 99.7608 174.794 100.011 174.794 100.342C174.794 100.674 174.941 100.936 175.24 101.143C175.539 101.349 176.092 101.624 176.893 101.981C177.626 102.312 178.19 102.637 178.59 102.95C179.002 103.269 179.301 103.638 179.487 104.057C179.673 104.476 179.764 105.014 179.764 105.658C179.764 106.758 179.397 107.621 178.669 108.246C177.953 108.859 176.87 109.166 175.432 109.166Z" fill="#F2F2F2"/>
<path d="M179.854 100.73H182.573L183.764 105.42L184.954 100.73H187.148L188.338 105.42L189.528 100.73H192.247L189.76 108.915H187.317L186.048 104.313L184.779 108.915H182.336L179.854 100.73Z" fill="#F2F2F2"/>
<path d="M194.762 99.6357C194.35 99.6357 194.006 99.4856 193.73 99.1917C193.454 98.8978 193.312 98.5226 193.312 98.0662C193.312 97.6222 193.454 97.2532 193.73 96.9593C194.006 96.6529 194.35 96.4966 194.762 96.4966C195.163 96.4966 195.501 96.6529 195.783 96.9593C196.071 97.2532 196.217 97.6222 196.217 98.0662C196.217 98.5101 196.071 98.8853 195.783 99.1917C195.507 99.4919 195.168 99.6357 194.762 99.6357ZM193.403 100.73H196.122V108.916H193.403V100.73Z" fill="#F2F2F2"/>
<path d="M200.827 109.165C199.913 109.165 199.214 108.884 198.74 108.328C198.278 107.758 198.046 106.989 198.046 106.008V102.8H196.997V100.717H198.046V98.2598H200.765V100.717H202.463V102.8H200.765V105.595C200.765 106.039 200.838 106.358 200.979 106.552C201.132 106.745 201.402 106.839 201.78 106.839C202.119 106.839 202.457 106.739 202.801 106.533V108.765C202.536 108.903 202.243 108.997 201.938 109.053C201.639 109.134 201.267 109.165 200.827 109.165Z" fill="#F2F2F2"/>
<path d="M207.601 109.166C206.242 109.166 205.164 108.79 204.375 108.04C203.579 107.29 203.185 106.22 203.185 104.832C203.185 103.444 203.579 102.368 204.375 101.612C205.176 100.849 206.259 100.467 207.618 100.467C208.227 100.467 208.791 100.536 209.316 100.674C209.852 100.799 210.292 100.98 210.642 101.218V103.556C210.015 103.056 209.186 102.806 208.154 102.806C207.494 102.806 206.964 102.975 206.563 103.319C206.174 103.65 205.977 104.157 205.977 104.838C205.977 105.532 206.174 106.045 206.563 106.37C206.953 106.689 207.477 106.846 208.137 106.846C209.136 106.846 209.999 106.583 210.732 106.064V108.384C209.953 108.909 208.91 109.166 207.601 109.166Z" fill="#F2F2F2"/>
<path d="M211.82 96.3149H214.539V101.568C214.866 101.205 215.244 100.93 215.667 100.749C216.101 100.567 216.553 100.473 217.026 100.473C218.064 100.473 218.832 100.774 219.328 101.38C219.83 101.974 220.084 102.781 220.084 103.8V108.915H217.365V104.194C217.365 103.275 216.981 102.812 216.22 102.812C215.87 102.812 215.549 102.906 215.261 103.087C214.973 103.256 214.731 103.525 214.533 103.888V108.915H211.814V96.3149H211.82Z" fill="#F2F2F2"/>
<path d="M133.165 101.849C133.966 104.144 134.344 108.734 134.446 110.141C134.463 110.385 134.637 110.572 134.857 110.591C141.367 111.085 142.862 107.765 143.177 106.695C143.234 106.508 143.177 106.301 143.042 106.176C140.453 103.75 137.159 101.712 136.093 101.074C135.918 100.967 135.703 100.999 135.568 101.161C135.32 101.449 134.728 101.849 133.368 101.805H133.143L133.165 101.849Z" fill="#F2F2F2"/>
<path d="M134.869 97.4783C134.632 97.1469 133.786 96.1651 131.648 95.4585C131.592 95.4397 131.546 95.3897 131.524 95.3272L129.775 90.2183C129.719 90.0619 129.849 89.8993 129.995 89.9369C131.27 90.237 135.895 91.569 139.906 96.0275C140.013 96.1464 139.957 96.3527 139.804 96.384C138.964 96.5466 136.804 96.9843 135.078 97.5471C134.999 97.5721 134.92 97.5471 134.869 97.4783Z" fill="#F2F2F2"/>
<path d="M128.292 96.4966C128.219 97.716 128.568 98.6415 128.828 99.1418C128.941 99.3669 128.845 99.6483 128.625 99.7296C127.288 100.236 123.356 101.762 121.737 102.7C121.568 102.8 121.365 102.744 121.258 102.575C120.429 101.274 117.405 96.0464 119.865 92.5508C119.966 92.407 120.136 92.3507 120.288 92.4132C121.32 92.8134 125.359 94.4393 128.095 96.2465C128.123 96.2652 128.145 96.284 128.168 96.309L128.264 96.4153L128.292 96.4966Z" fill="#F2F2F2"/>
<path d="M134.254 99.9982C134.705 99.2791 134.141 97.9847 132.985 97.1092C131.829 96.2337 130.531 96.1087 130.074 96.8278C129.623 97.5469 130.187 98.8414 131.344 99.7168C132.5 100.592 133.803 100.717 134.254 99.9982Z" fill="#F2F2F2"/>
</svg>
