<svg width="1553" height="606" viewBox="0 0 1553 606" fill="none" xmlns="http://www.w3.org/2000/svg">
<g clip-path="url(#clip0)">
<path fill-rule="evenodd" clip-rule="evenodd" d="M739.885 326C739.885 326 746.919 341.653 752.57 350.681C758.221 359.709 763.271 365.424 763.271 365.424L757.92 374.127L562.542 383.74L376 401.341C376 401.341 386.821 418.033 391.33 422.84C395.778 427.646 401.91 431.867 401.91 431.867C401.91 431.867 405.818 452.327 407.2 460.77C408.583 469.213 405.036 477.007 405.036 477.007L414 498L678.627 566.053H848.516L1193.1 601.515L1552 621V419.462L1226.53 368.737L739.885 326Z" fill="#3285D0"/>
<path fill-rule="evenodd" clip-rule="evenodd" d="M813.759 372.283C813.759 372.283 797.521 364.526 787.057 363.264C776.593 362.001 510.473 371.682 494.596 372.283L459.113 369.517C459.113 369.517 451.957 361.76 444.86 363.143C437.764 364.526 431.87 367.653 431.87 367.653C431.87 367.653 429.284 375.83 427.059 377.875C424.834 379.979 415.211 381.603 415.211 381.603L407.874 387.435L396.448 379.919L383.938 387.435L376 396.274C376 396.274 395.245 398.799 401.078 400.423C406.912 402.106 497.603 396.695 524.305 400.423C551.068 404.211 581.138 404.211 583.182 406.255C585.287 408.36 612.952 414.012 623.115 412.809C633.279 411.667 736.178 396.214 736.178 396.214L795.416 383.948L813.759 372.283Z" fill="url(#paint0_linear)"/>
<path fill-rule="evenodd" clip-rule="evenodd" d="M1553 305H1082.71C1082.71 305 1070.86 310.111 1062.5 310.772C1054.14 311.494 955.931 312.696 942.099 312.937C928.266 313.177 890.859 311.073 867.224 312.937C843.589 314.801 813.459 315.943 804.017 317.627C794.575 319.31 767.753 322.076 758.07 323.76C748.388 325.443 738.775 338.234 741 341C743.225 343.766 758.242 341.652 766 345.5C773.818 349.408 817.141 346.775 825.5 349C833.799 351.225 877.087 350.998 887.371 354.365C897.655 357.732 906.015 360.498 906.015 360.498C906.015 360.498 817.248 370.539 806.182 373.846C795.177 377.214 785.133 379.979 785.133 379.979C785.133 379.979 651.502 395.553 638.392 400.603C625.281 405.594 617.042 407.819 618.606 411.186C620.229 414.553 668.221 417.86 679.347 419.002C690.413 420.145 739.427 407.338 747.786 411.787C756.146 416.237 765.167 419.002 769.858 422.911C774.549 426.819 789.103 423.452 801.852 426.819C814.602 430.186 1020.16 432.952 1031.29 435.177C1042.41 437.402 1052.46 447.984 1064.72 450.75C1076.99 453.516 1552.4 454.117 1552.4 454.117L1553 305Z" fill="url(#paint1_linear)"/>
<path fill-rule="evenodd" clip-rule="evenodd" d="M1490.45 454.718L1500.86 592.17L1379.74 595.057L1218.8 581.889L1199.14 515.387L1183.86 454.718L1182.06 520.318L1183.86 563.85L1156.62 592.17L1089.38 577.86L1064.72 450.75L1031.29 435.177L1019.2 505.887L1005.3 512.02L1010.3 547.375L932.295 549.54L818.149 553.328L801.911 426.759L791.928 425.256L803.656 496.026L774.608 424.534L772.683 520.678L761.197 469.089L737.321 468.548L739.306 410.825L679.406 418.942L683.616 460.009L638.15 466.263L612.531 460.009L580.115 405.353L526.47 402.708L542.347 435.598L546.196 453.997L555.879 500.776L511.856 491.396L483.771 425.917L481.365 410.945L472.645 399.22L401.078 400.423L376 396.274C376 396.274 387.908 413.11 391.336 416.176C394.704 419.243 401.86 424.534 401.86 424.534L425.375 426.278L441.553 436.62L453.641 454.057L428.803 460.07L419.301 466.864L405.95 468.548L412.204 487.608L452.258 505.947L755.724 572.749L1114.28 603.054L1500.8 605.94L1552.4 599.566V454.057L1490.45 454.718Z" fill="url(#paint2_linear)"/>
<path fill-rule="evenodd" clip-rule="evenodd" d="M590.76 466.323L604.231 544.489C604.231 544.489 646.51 560.603 663.289 563.85C680.068 567.097 699.433 556.094 699.433 556.094L730.405 553.328L751.694 538.897L761.197 469.089L708.333 468.548L590.76 466.323Z" fill="url(#paint3_linear)"/>
<path fill-rule="evenodd" clip-rule="evenodd" d="M590.76 466.323C590.76 466.323 641.999 446.842 648.975 447.383C655.952 447.924 679.346 447.383 679.346 447.383C679.346 447.383 698.29 455.74 709.957 456.883C721.624 458.025 761.197 469.149 761.197 469.149C761.197 469.149 734.013 473.598 725.293 473.598L728.841 479.19C728.841 479.19 709.897 482.557 680.97 479.19C680.97 479.13 657.034 474.079 590.76 466.323Z" fill="url(#paint4_linear)"/>
<path fill-rule="evenodd" clip-rule="evenodd" d="M407.211 458.867L427.117 456.462L438.664 457.665L428.861 460.01L419.359 466.804L405.948 468.548C405.948 468.548 403.301 463.677 407.211 458.867Z" fill="url(#paint5_linear)"/>
<path fill-rule="evenodd" clip-rule="evenodd" d="M897.656 357.732L1015.95 356.77L1085.71 357.732L1168.71 365.489L1334.03 377.634H1128.47L1040.79 374.568L916.24 362.663L897.656 357.732Z" fill="url(#paint6_linear)"/>
<path fill-rule="evenodd" clip-rule="evenodd" d="M608.683 415.034L679.348 418.942C679.348 418.942 702.983 418.401 739.247 410.825L774.549 424.534L801.853 426.699L807.265 432.952L1031.35 435.057L1117.05 422.911L1159.63 414.974L1334.03 377.574L1134.19 371.441L1099.79 377.574L1030.32 373.486L906.015 360.498C906.015 360.498 821.338 370.299 806.183 373.846C791.027 377.394 688.669 391.584 688.669 391.584L590.701 408.841C590.761 408.841 590.04 412.629 608.683 415.034Z" fill="url(#paint7_linear)"/>
<path fill-rule="evenodd" clip-rule="evenodd" d="M431.988 367.653L438.724 372.764L449.669 370.239L454.721 367.713L451.774 362.663C451.774 362.663 437.822 363.023 431.988 367.653Z" fill="#C2FFFF"/>
<path fill-rule="evenodd" clip-rule="evenodd" d="M412.684 383.707H421.885L428.5 378.416C428.5 378.416 421.524 376.252 412.684 383.707Z" fill="#C2FFFF"/>
<path fill-rule="evenodd" clip-rule="evenodd" d="M396.45 379.979L385.926 388.037L388.392 391.584H399.938L407.937 387.495L396.45 379.979Z" fill="#C2FFFF"/>
<path fill-rule="evenodd" clip-rule="evenodd" d="M1385.39 378.115L1552.46 372.764L1553 391.584L1385.39 378.115Z" fill="url(#paint8_linear)"/>
<path fill-rule="evenodd" clip-rule="evenodd" d="M1183.86 454.718L1241.9 460.01H1270.22L1329.46 457.364L1358.87 458.867L1398.92 460.01L1415.7 470.171L1453.11 468.548L1484.92 465.181L1495.69 454.718L1530.51 452.854L1552.46 454.057L1405.36 439.987L1327.72 447.323H1253.62L1183.86 454.718Z" fill="url(#paint9_linear)"/>
<path fill-rule="evenodd" clip-rule="evenodd" d="M526.408 402.768L546.796 400.663L561.289 397.777L584.503 400.302L618.422 402.768L658.115 396.274L590.758 408.841L580.955 407.097L576.806 408.841L526.408 402.768Z" fill="url(#paint10_linear)"/>
<path fill-rule="evenodd" clip-rule="evenodd" d="M1031.34 435.117L1069.83 429.645L1117.04 422.971L1169.07 413.05L1102.67 420.686L1007.53 433.794L1025.15 466.323L1031.34 435.117Z" fill="url(#paint11_linear)"/>
<path fill-rule="evenodd" clip-rule="evenodd" d="M1082.7 305L1157.4 312.756L1163.59 320.513L1132.74 318.048H1077.53L1036.39 312.756L1082.7 305Z" fill="url(#paint12_linear)"/>
</g>
<g clip-path="url(#clip1)">
<path opacity="0.5" d="M70.9915 364.627C71.2153 361.69 73.7724 359.486 76.745 359.678C79.6857 359.901 81.9232 362.456 81.6994 365.394C81.4757 368.332 78.9185 370.535 75.9459 370.344C73.0052 370.152 70.7998 367.597 70.9915 364.627Z" fill="#AFF1FF"/>
<path opacity="0.85" d="M26.4974 355.973C26.7211 353.035 29.2782 350.832 32.2509 351.023C35.1915 351.247 37.429 353.802 37.2053 356.74C36.9815 359.678 34.4244 361.881 31.4518 361.69C28.5111 361.498 26.3056 358.911 26.4974 355.973Z" fill="#AFF1FF"/>
<path opacity="0.5" d="M118.554 317.747C118.778 314.809 121.335 312.606 124.307 312.797C127.248 313.021 129.486 315.576 129.262 318.514C129.038 321.452 126.481 323.655 123.508 323.464C120.536 323.272 118.33 320.685 118.554 317.747Z" fill="#AFF1FF"/>
<path opacity="0.85" d="M0.0304545 249.95C0.254204 247.012 2.81135 244.809 5.78402 245C8.72473 245.224 10.9622 247.778 10.7385 250.716C10.5147 253.654 7.95759 255.858 4.98492 255.666C2.01224 255.475 -0.193295 252.888 0.0304545 249.95Z" fill="#AFF1FF"/>
<path opacity="0.25" d="M84.9917 310.434C85.1516 308.231 87.0694 306.57 89.3069 306.73C91.5124 306.89 93.1746 308.806 93.0148 311.041C92.8549 313.245 90.9371 314.905 88.6996 314.745C86.4621 314.554 84.8 312.638 84.9917 310.434Z" fill="#AFF1FF"/>
<path opacity="0.25" d="M39.1559 265.47C39.3157 263.267 41.2336 261.606 43.471 261.766C45.6766 261.925 47.3386 263.841 47.1788 266.077C47.019 268.28 45.1012 269.941 42.8637 269.781C40.6582 269.59 38.9961 267.674 39.1559 265.47Z" fill="#AFF1FF"/>
<path opacity="0.25" d="M25.9216 320.526C26.0814 318.322 27.9992 316.661 30.2367 316.821C32.4422 316.981 34.1043 318.897 33.9445 321.132C33.7846 323.336 31.8668 324.996 29.6294 324.837C27.4239 324.677 25.7618 322.729 25.9216 320.526Z" fill="#AFF1FF"/>
<path opacity="0.5" d="M323.221 280.033C323.221 283.002 320.823 285.398 317.851 285.398C314.878 285.398 312.481 283.002 312.481 280.033C312.481 277.063 314.878 274.667 317.851 274.667C320.823 274.667 323.221 277.063 323.221 280.033Z" fill="#AFF1FF"/>
<path opacity="0.85" d="M368.227 285.366C368.227 288.335 365.829 290.731 362.857 290.731C359.884 290.731 357.487 288.335 357.487 285.366C357.487 282.396 359.884 280 362.857 280C365.829 280.032 368.227 282.428 368.227 285.366Z" fill="#AFF1FF"/>
<path opacity="0.5" d="M279.27 330.298C279.27 333.268 276.872 335.631 273.9 335.631C270.927 335.631 268.53 333.236 268.53 330.298C268.53 327.328 270.927 324.933 273.9 324.933C276.872 324.965 279.27 327.36 279.27 330.298Z" fill="#AFF1FF"/>
<path opacity="0.85" d="M402.523 389.153C402.523 392.123 400.126 394.518 397.154 394.518C394.181 394.518 391.784 392.123 391.784 389.153C391.784 386.183 394.181 383.82 397.154 383.82C400.126 383.788 402.523 386.183 402.523 389.153Z" fill="#AFF1FF"/>
<path opacity="0.25" d="M309.283 339.143C307.059 339.143 305.256 337.342 305.256 335.119C305.256 332.897 307.059 331.096 309.283 331.096C311.507 331.096 313.311 332.897 313.311 335.119C313.311 337.342 311.507 339.143 309.283 339.143Z" fill="#AFF1FF"/>
<path opacity="0.25" d="M358.316 380.595C356.092 380.595 354.289 378.793 354.289 376.571C354.289 374.349 356.092 372.547 358.316 372.547C360.541 372.547 362.344 374.349 362.344 376.571C362.344 378.793 360.541 380.595 358.316 380.595Z" fill="#AFF1FF"/>
<path opacity="0.25" d="M371.455 320.685C371.455 322.889 369.665 324.709 367.428 324.709C365.222 324.709 363.4 322.921 363.4 320.685C363.4 318.45 365.19 316.661 367.428 316.661C369.633 316.661 371.455 318.482 371.455 320.685Z" fill="#AFF1FF"/>
<path opacity="0.5" d="M761 312.861C761 319.887 755.278 325.571 748.246 325.571C741.214 325.571 735.493 319.887 735.493 312.861C735.493 305.836 741.214 300.151 748.246 300.151C755.278 300.151 761 305.836 761 312.861Z" fill="#AFF1FF"/>
<path opacity="0.5" d="M724.049 395.572C720.536 395.572 717.688 392.727 717.688 389.217C717.688 385.707 720.536 382.862 724.049 382.862C727.562 382.862 730.41 385.707 730.41 389.217C730.41 392.727 727.562 395.572 724.049 395.572Z" fill="#AFF1FF"/>
<path opacity="0.5" d="M559.627 277.222C559.627 280.735 556.782 283.577 553.266 283.577C549.75 283.577 546.905 280.735 546.905 277.222C546.905 273.709 549.75 270.867 553.266 270.867C556.75 270.867 559.627 273.709 559.627 277.222Z" fill="#AFF1FF"/>
<path opacity="0.85" d="M659.034 362.488C655.521 362.488 652.673 359.642 652.673 356.133C652.673 352.623 655.521 349.778 659.034 349.778C662.547 349.778 665.395 352.623 665.395 356.133C665.395 359.642 662.547 362.488 659.034 362.488Z" fill="#AFF1FF"/>
<path opacity="0.2" d="M562.152 391.74C562.152 394.55 559.883 396.817 557.038 396.817C554.225 396.817 551.924 394.55 551.924 391.74C551.924 388.929 554.193 386.662 557.038 386.662C559.883 386.662 562.152 388.929 562.152 391.74Z" fill="#AFF1FF"/>
<path opacity="0.2" d="M699.821 325.603C697.702 325.603 695.985 323.887 695.985 321.771C695.985 319.654 697.702 317.939 699.821 317.939C701.939 317.939 703.656 319.654 703.656 321.771C703.656 323.887 701.939 325.603 699.821 325.603Z" fill="#AFF1FF"/>
<path opacity="0.2" d="M678.151 357.41C676.032 357.41 674.315 355.694 674.315 353.578C674.315 351.461 676.032 349.745 678.151 349.745C680.269 349.745 681.986 351.461 681.986 353.578C681.986 355.694 680.269 357.41 678.151 357.41Z" fill="#AFF1FF"/>
<path opacity="0.2" d="M659.033 314.138C656.915 314.138 655.198 312.423 655.198 310.306C655.198 308.19 656.915 306.474 659.033 306.474C661.152 306.474 662.869 308.19 662.869 310.306C662.869 312.423 661.152 314.138 659.033 314.138Z" fill="#AFF1FF"/>
<path opacity="0.5" d="M474.219 512.645C474.219 516.158 471.374 519 467.858 519C464.342 519 461.497 516.158 461.497 512.645C461.497 509.132 464.342 506.29 467.858 506.29C471.374 506.258 474.219 509.132 474.219 512.645Z" fill="#AFF1FF"/>
<path opacity="0.2" d="M494.612 366.958C492.493 366.958 490.776 365.243 490.776 363.126C490.776 361.01 492.493 359.294 494.612 359.294C496.73 359.294 498.447 361.01 498.447 363.126C498.447 365.243 496.73 366.958 494.612 366.958Z" fill="#AFF1FF"/>
<path opacity="0.2" d="M478.66 430.572C478.66 432.68 476.934 434.405 474.824 434.405C472.715 434.405 470.989 432.68 470.989 430.572C470.989 428.465 472.715 426.74 474.824 426.74C476.966 426.74 478.66 428.465 478.66 430.572Z" fill="#AFF1FF"/>
<path opacity="0.2" d="M499.055 415.308C496.937 415.308 495.219 413.592 495.219 411.475C495.219 409.359 496.937 407.643 499.055 407.643C501.173 407.643 502.891 409.359 502.891 411.475C502.891 413.592 501.173 415.308 499.055 415.308Z" fill="#AFF1FF"/>
<path opacity="0.5" d="M479.301 251.802C479.301 254.612 477.031 256.879 474.187 256.879C471.374 256.879 469.072 254.612 469.072 251.802C469.072 248.992 471.342 246.724 474.187 246.724C477.031 246.692 479.301 248.992 479.301 251.802Z" fill="#AFF1FF"/>
<path opacity="0.2" d="M521.365 305.229C521.365 308.039 519.096 310.306 516.251 310.306C513.406 310.306 511.137 308.039 511.137 305.229C511.137 302.418 513.406 300.151 516.251 300.151C519.096 300.151 521.365 302.418 521.365 305.229Z" fill="#AFF1FF"/>
</g>
<g clip-path="url(#clip2)">
<path opacity="0.12" d="M1327.18 390.308C1352.01 390.308 1372.13 385.521 1372.13 379.615C1372.13 373.71 1352.01 368.923 1327.18 368.923C1302.35 368.923 1282.22 373.71 1282.22 379.615C1282.22 385.521 1302.35 390.308 1327.18 390.308Z" fill="black"/>
<path d="M1324.83 377.972C1324.83 377.972 1402.81 383.628 1419.2 280.589C1419.63 277.869 1419.88 275.122 1419.95 272.365C1420.51 248.583 1417.48 130.568 1324.63 123H1324.4C1229.02 129.698 1228.53 248.583 1229.08 272.365C1229.14 275.122 1229.4 277.869 1229.84 280.589C1246.22 383.628 1324.31 377.963 1324.31 377.963L1324.83 377.972Z" fill="url(#paint13_linear)"/>
<path d="M1436.42 396H1419.99C1419.99 396 1387.41 325.721 1324.5 328.047C1261.59 325.712 1229.01 396 1229.01 396H1212.58C1196.96 344.404 1225.94 287.817 1229.83 280.589C1230.63 285.258 1226.17 302.289 1324.5 302.289C1422.83 302.289 1418.08 285.59 1419.09 281.245C1422.98 288.472 1452.05 344.395 1436.42 396Z" fill="#1B134E"/>
<path d="M1324.7 280.634C1324.65 280.733 1324.52 280.983 1324.31 281.359C1324.47 280.983 1324.63 280.733 1324.7 280.634Z" stroke="#270D0D" stroke-miterlimit="10"/>
<path d="M1324.7 281.359C1324.5 280.983 1324.37 280.733 1324.31 280.634C1324.38 280.733 1324.54 280.983 1324.7 281.359Z" stroke="#270D0D" stroke-miterlimit="10"/>
<path d="M1377.47 237.316C1377.47 263.81 1358.24 285.258 1324.5 285.258C1290.76 285.258 1271.54 263.81 1271.54 237.316C1271.54 210.822 1290.76 189.32 1324.5 189.32C1358.24 189.32 1377.47 210.822 1377.47 237.316Z" fill="#262635"/>
<path d="M1323.82 232.755C1302.21 232.755 1283.77 243.331 1276.38 258.243C1283.77 273.155 1303.35 285.787 1324.95 285.787C1346.56 285.787 1365.64 272.868 1373.03 257.956C1365.65 243.053 1345.41 232.755 1323.82 232.755Z" fill="#363649"/>
<path d="M1309.04 240.585C1312.54 240.585 1315.38 234.785 1315.38 227.63C1315.38 220.475 1312.54 214.675 1309.04 214.675C1305.53 214.675 1302.69 220.475 1302.69 227.63C1302.69 234.785 1305.53 240.585 1309.04 240.585Z" fill="#42E8E0"/>
<path d="M1344.15 240.584C1347.65 240.584 1350.49 234.784 1350.49 227.629C1350.49 220.474 1347.65 214.674 1344.15 214.674C1340.64 214.674 1337.8 220.474 1337.8 227.629C1337.8 234.784 1340.64 240.584 1344.15 240.584Z" fill="#42E8E0"/>
<path opacity="0.4" d="M1353.43 204.151C1354.93 204.151 1356.14 202.929 1356.14 201.422C1356.14 199.915 1354.93 198.693 1353.43 198.693C1351.94 198.693 1350.72 199.915 1350.72 201.422C1350.72 202.929 1351.94 204.151 1353.43 204.151Z" fill="white"/>
<path opacity="0.4" d="M1365 217.25C1364.19 217.143 1363.48 216.595 1363.18 215.769C1361.73 211.747 1357.01 208.254 1356.96 208.219C1355.96 207.482 1355.73 206.055 1356.46 205.04C1357.19 204.017 1358.6 203.792 1359.61 204.529C1359.85 204.699 1365.49 208.865 1367.42 214.216C1367.85 215.401 1367.25 216.703 1366.07 217.134C1365.71 217.259 1365.35 217.295 1365 217.25Z" fill="#FCFDFF"/>
<path d="M1229.01 396L1235.62 393.738C1235.62 393.738 1265.69 333.712 1324.51 328.038C1324.51 328.038 1266.8 321.089 1229.01 396Z" fill="#110B35"/>
<path d="M1420.19 396L1413.58 393.738C1413.58 393.738 1383.51 333.712 1324.69 328.038C1324.7 328.038 1382.41 321.089 1420.19 396Z" fill="#110B35"/>
<path opacity="0.2" d="M1279.21 358.401L1300.87 357.737C1300.87 357.737 1321.92 372.254 1369.41 361.364C1369.41 361.373 1321.92 387.732 1279.21 358.401Z" fill="#F2F2F2"/>
<path d="M1212.33 310.297L1220.36 300.188L1225.74 313.78L1208.51 350.159L1212.33 310.297Z" fill="url(#paint14_linear)"/>
<path d="M1220.36 300.188L1222.24 313.098L1208.51 350.159L1225.74 313.78L1220.36 300.188Z" fill="#C1C1C1"/>
<path d="M1436.62 310.297L1427.86 300.359L1423.21 313.781L1440.45 350.159L1436.62 310.297Z" fill="url(#paint15_linear)"/>
<path d="M1427.86 300.359L1426.7 313.098L1440.45 350.159L1423.21 313.781L1427.86 300.359Z" fill="#C1C1C1"/>
<g opacity="0.39">
<path opacity="0.39" d="M1357.04 159.972C1358.69 164.29 1359.47 172.945 1359.68 175.584C1359.72 176.042 1360.08 176.401 1360.53 176.428C1373.93 177.362 1377.02 171.104 1377.66 169.093C1377.78 168.743 1377.67 168.357 1377.39 168.114C1372.06 163.554 1365.28 159.702 1363.07 158.499C1362.72 158.302 1362.27 158.364 1361.99 158.661C1361.48 159.208 1360.26 159.954 1357.46 159.873H1357L1357.04 159.972Z" fill="white"/>
<path opacity="0.39" d="M1360.54 151.729C1360.06 151.101 1358.32 149.26 1353.92 147.923C1353.81 147.887 1353.71 147.797 1353.66 147.68L1350.07 138.056C1349.95 137.76 1350.21 137.463 1350.52 137.526C1353.15 138.083 1362.66 140.606 1370.92 149C1371.14 149.225 1371.01 149.62 1370.7 149.673C1368.97 149.979 1364.52 150.805 1360.97 151.864C1360.81 151.918 1360.65 151.864 1360.54 151.729Z" fill="white"/>
<path opacity="0.39" d="M1347 149.89C1346.85 152.188 1347.57 153.93 1348.11 154.864C1348.35 155.286 1348.14 155.815 1347.69 155.977C1344.94 156.938 1336.84 159.802 1333.51 161.57C1333.16 161.75 1332.74 161.651 1332.52 161.328C1330.81 158.877 1324.6 149.037 1329.65 142.447C1329.86 142.178 1330.2 142.079 1330.52 142.187C1332.64 142.941 1340.96 146.011 1346.58 149.405C1346.64 149.441 1346.69 149.477 1346.73 149.522L1346.93 149.719L1347 149.89Z" fill="white"/>
<path opacity="0.39" d="M1359.28 156.48C1360.21 155.124 1359.04 152.682 1356.67 151.03C1354.29 149.378 1351.61 149.145 1350.68 150.5C1349.74 151.856 1350.92 154.298 1353.29 155.95C1355.66 157.611 1358.34 157.844 1359.28 156.48Z" fill="white"/>
</g>
</g>
<g clip-path="url(#clip3)">
<path opacity="0.54" d="M1120.19 196.473L1065.26 0.545829C1065.23 0.459644 1065.23 0.34473 1065.2 0.258545C1063.04 1.00548 1061.81 3.27502 1062.44 5.48711L1118.21 204.431C1118.44 201.759 1119.19 199.059 1120.19 196.473Z" fill="#E0A326"/>
<path d="M1182.38 376.148L1122.91 188.892C1122.23 189.589 1121.35 190.117 1120.35 190.359C1118.12 190.939 1115.92 190.994 1114.02 189.942L1174.34 379.874C1175.12 382.259 1176.99 383.723 1178.86 383.549C1179.24 383.514 1179.63 383.403 1180.02 383.218C1182.25 382.192 1183.32 379.04 1182.38 376.148Z" fill="#E0A326"/>
<path d="M1122.49 191.59C1122.72 191.159 1123.01 190.871 1123.33 190.67L1070.75 3.16017C1070.12 0.861896 1067.73 -0.459609 1065.43 0.172415C1063.13 0.80444 1061.81 3.18889 1062.44 5.48716L1118.21 204.431C1118.58 199.978 1120.39 195.41 1122.49 191.59Z" fill="#E0A326"/>
<path opacity="0.54" d="M1182.49 376.503C1182.41 376.548 1182.35 376.59 1182.27 376.635C1181.88 376.82 1181.51 376.929 1181.11 376.966C1179.21 377.143 1177.34 375.714 1176.59 373.287L1118.57 190.452C1116.96 190.638 1115.41 190.484 1114 189.72L1174.36 379.868C1175.13 382.256 1177.01 383.721 1178.88 383.548C1179.25 383.513 1179.65 383.401 1180.04 383.216C1182.18 382.234 1183.21 379.306 1182.49 376.503Z" fill="#E0A326"/>
<path d="M1072.85 8.93457C1072.85 8.93457 1057.44 43.7821 991.685 43.7821C925.935 43.7821 867.577 41.7711 828 112.127L863.55 248.156C863.55 248.156 894.412 182.483 950.095 181.822C1005.78 181.161 1078.23 193.888 1110.42 145.624L1072.85 8.93457Z" fill="url(#paint16_radial)"/>
<path opacity="0.45" d="M1031.52 182.167C1039.37 181.649 1047.02 180.759 1054.41 179.322L1047.71 31.9746C1041.79 35.0773 1034.57 37.8927 1025.88 39.9898L1031.52 182.167Z" fill="white"/>
<path opacity="0.45" d="M866.396 242.726C871.919 232.872 885.379 211.671 905.973 197.048L899.818 51.6248C885.494 55.934 872.063 62.6277 859.666 72.9125L866.396 242.726Z" fill="white"/>
<path opacity="0.45" d="M844.51 97.5616C844.51 97.5616 866.915 55.0436 924.641 51.6824C924.641 51.6824 899.992 58.4048 892.14 72.9414C884.288 87.4779 916.789 171.997 916.789 171.997L962.722 177.024C962.722 177.024 903.904 170.876 878.679 217.33C878.679 217.33 883.166 193.83 904.45 175.358C904.45 175.358 890.443 89.7475 872.524 88.0525C854.605 86.3575 844.51 97.5616 844.51 97.5616Z" fill="white"/>
<path opacity="0.45" d="M1020.22 44.8163C1020.22 44.8163 1052.57 43.0926 1068.77 23.4424L1103.45 142.378C1103.45 142.378 1084.96 168.348 1060.11 170.101C1060.11 170.101 1087.87 162.028 1088.44 139.505C1089.02 116.982 1074 52.889 1062.44 46.54C1050.88 40.191 1056.08 48.867 1020.22 44.8163Z" fill="white"/>
<path d="M982.901 113.65C986.656 123.403 988.434 142.916 988.902 148.877C988.982 149.909 989.811 150.714 990.846 150.787C1021.41 152.896 1028.44 138.772 1029.9 134.241C1030.15 133.442 1029.91 132.578 1029.27 132.032C1017.12 121.733 1001.66 113.051 996.634 110.343C995.818 109.904 994.803 110.037 994.168 110.702C992.992 111.933 990.212 113.623 983.836 113.437H982.787L982.901 113.65Z" fill="white"/>
<path d="M990.893 95.0611C989.784 93.644 985.821 89.4858 975.784 86.472C975.516 86.3922 975.296 86.1926 975.195 85.9265L966.996 64.2176C966.742 63.5523 967.33 62.8737 968.025 63.0201C974.013 64.2842 995.718 69.9592 1014.54 88.907C1015.05 89.4193 1014.77 90.2975 1014.06 90.4239C1010.1 91.1092 999.955 92.9787 991.862 95.3738C991.501 95.4736 991.127 95.3538 990.893 95.0611Z" fill="white"/>
<path d="M960.006 90.8963C959.652 96.0856 961.31 100.004 962.519 102.127C963.06 103.078 962.606 104.276 961.57 104.635C955.288 106.797 936.838 113.264 929.226 117.256C928.437 117.668 927.475 117.442 926.967 116.717C923.078 111.188 908.891 88.9802 920.438 74.1173C920.906 73.5186 921.701 73.2791 922.416 73.5319C927.261 75.2417 946.227 82.1542 959.057 89.8118C959.184 89.885 959.298 89.9782 959.405 90.078L959.859 90.5304L960.006 90.8963Z" fill="white"/>
<path d="M988.01 105.778C990.136 102.712 987.469 97.2095 982.053 93.4884C976.637 89.7672 970.523 89.2363 968.398 92.3026C966.272 95.369 968.939 100.871 974.355 104.593C979.771 108.314 985.884 108.845 988.01 105.778Z" fill="white"/>
</g>
<path d="M182.11 583.14C180.654 583.14 179.539 582.743 178.764 581.95C177.989 581.147 177.602 580.041 177.602 578.632C177.602 577.111 177.975 575.935 178.722 575.104C179.469 574.264 180.593 573.844 182.096 573.844C183.039 573.844 183.921 573.989 184.742 574.278V575.608C183.949 575.3 183.104 575.146 182.208 575.146C181.116 575.146 180.332 575.435 179.856 576.014C179.38 576.593 179.142 577.465 179.142 578.632C179.142 579.696 179.394 580.499 179.898 581.04C180.411 581.581 181.191 581.852 182.236 581.852C183.16 581.852 184 581.707 184.756 581.418V582.762C183.953 583.014 183.071 583.14 182.11 583.14ZM188.785 583.14C186.479 583.14 185.327 581.987 185.327 579.682C185.327 577.377 186.479 576.224 188.785 576.224C191.099 576.224 192.257 577.377 192.257 579.682C192.257 581.987 191.099 583.14 188.785 583.14ZM188.785 581.852C189.485 581.852 189.979 581.684 190.269 581.348C190.567 581.012 190.717 580.457 190.717 579.682C190.717 578.917 190.567 578.366 190.269 578.03C189.979 577.694 189.485 577.526 188.785 577.526C188.094 577.526 187.599 577.694 187.301 578.03C187.011 578.366 186.867 578.917 186.867 579.682C186.867 580.457 187.011 581.012 187.301 581.348C187.599 581.684 188.094 581.852 188.785 581.852ZM193.741 576.364H195.057L195.141 577.022C195.449 576.751 195.781 576.551 196.135 576.42C196.49 576.289 196.905 576.224 197.381 576.224C198.371 576.224 199.122 576.49 199.635 577.022C200.149 577.554 200.405 578.403 200.405 579.57C200.405 580.746 200.135 581.637 199.593 582.244C199.052 582.841 198.296 583.14 197.325 583.14C196.523 583.14 195.837 582.953 195.267 582.58V586.024H193.741V576.364ZM196.933 581.992C197.587 581.992 198.072 581.791 198.389 581.39C198.707 580.989 198.865 580.377 198.865 579.556C198.865 578.772 198.721 578.217 198.431 577.89C198.142 577.554 197.657 577.386 196.975 577.386C196.294 577.386 195.725 577.619 195.267 578.086V581.404C195.715 581.796 196.271 581.992 196.933 581.992ZM202.554 585.464C202.05 585.464 201.62 585.399 201.266 585.268V584.134C201.527 584.227 201.812 584.274 202.12 584.274C202.4 584.274 202.628 584.227 202.806 584.134C202.983 584.05 203.137 583.915 203.268 583.728C203.398 583.541 203.552 583.271 203.73 582.916L200.776 576.364H202.358L204.486 581.292L206.642 576.364H208.21L205.508 582.622C205.106 583.574 204.686 584.283 204.248 584.75C203.818 585.226 203.254 585.464 202.554 585.464ZM209.423 576.364H210.823L210.907 577.134C211.224 576.929 211.602 576.742 212.041 576.574C212.48 576.406 212.914 576.289 213.343 576.224V577.386C212.942 577.461 212.508 577.577 212.041 577.736C211.574 577.885 211.21 578.044 210.949 578.212V583H209.423V576.364ZM215.446 573.718H217.112V574.978H215.446V573.718ZM215.572 577.526H214.564L214.704 576.364H217.098V583H215.572V577.526ZM221.558 585.464C221.045 585.464 220.541 585.431 220.046 585.366C219.561 585.301 219.15 585.212 218.814 585.1V583.924C219.169 584.045 219.589 584.139 220.074 584.204C220.56 584.269 221.031 584.302 221.488 584.302C222.198 584.302 222.697 584.26 222.986 584.176C223.276 584.101 223.42 583.938 223.42 583.686C223.42 583.49 223.341 583.35 223.182 583.266C223.033 583.191 222.753 583.154 222.342 583.154H220.55C219.962 583.154 219.514 583.047 219.206 582.832C218.898 582.608 218.744 582.291 218.744 581.88C218.744 581.591 218.828 581.334 218.996 581.11C219.164 580.877 219.412 580.704 219.738 580.592C218.992 580.228 218.618 579.579 218.618 578.646C218.618 577.806 218.87 577.195 219.374 576.812C219.878 576.42 220.644 576.224 221.67 576.224C222.044 576.224 222.45 576.271 222.888 576.364H225.324L225.282 577.358H224.162C224.508 577.666 224.68 578.095 224.68 578.646C224.68 579.374 224.461 579.939 224.022 580.34C223.593 580.732 222.949 580.928 222.09 580.928C221.866 580.928 221.591 580.905 221.264 580.858C220.966 580.886 220.709 580.965 220.494 581.096C220.28 581.217 220.172 581.376 220.172 581.572C220.172 581.712 220.228 581.815 220.34 581.88C220.452 581.936 220.639 581.964 220.9 581.964H222.762C223.425 581.964 223.934 582.109 224.288 582.398C224.652 582.678 224.834 583.089 224.834 583.63C224.834 584.274 224.559 584.741 224.008 585.03C223.467 585.319 222.65 585.464 221.558 585.464ZM221.67 579.962C222.277 579.962 222.697 579.864 222.93 579.668C223.173 579.463 223.294 579.108 223.294 578.604C223.294 578.1 223.173 577.741 222.93 577.526C222.688 577.302 222.268 577.19 221.67 577.19C221.092 577.19 220.672 577.302 220.41 577.526C220.158 577.741 220.032 578.1 220.032 578.604C220.032 579.089 220.154 579.439 220.396 579.654C220.648 579.859 221.073 579.962 221.67 579.962ZM226.622 573.564H228.148V577.008C228.447 576.765 228.797 576.574 229.198 576.434C229.609 576.294 230.057 576.224 230.542 576.224C231.382 576.224 232.003 576.425 232.404 576.826C232.806 577.227 233.006 577.853 233.006 578.702V583H231.494V578.772C231.494 578.259 231.382 577.899 231.158 577.694C230.944 577.489 230.566 577.386 230.024 577.386C229.688 577.386 229.348 577.461 229.002 577.61C228.657 577.75 228.372 577.937 228.148 578.17V583H226.622V573.564ZM237.25 583.14C236.55 583.14 236.023 582.958 235.668 582.594C235.313 582.221 235.136 581.698 235.136 581.026V577.554H234.156V576.364H235.136V574.838L236.648 574.376V576.364H238.412L238.314 577.554H236.648V580.942C236.648 581.325 236.732 581.595 236.9 581.754C237.077 581.903 237.371 581.978 237.782 581.978C238.034 581.978 238.3 581.931 238.58 581.838V582.916C238.216 583.065 237.773 583.14 237.25 583.14ZM249.352 583.14C248.512 583.14 247.732 582.935 247.014 582.524C246.304 582.104 245.74 581.539 245.32 580.83C244.909 580.111 244.704 579.332 244.704 578.492C244.704 577.652 244.909 576.877 245.32 576.168C245.74 575.449 246.304 574.885 247.014 574.474C247.732 574.054 248.512 573.844 249.352 573.844C250.192 573.844 250.966 574.054 251.676 574.474C252.394 574.885 252.959 575.449 253.37 576.168C253.79 576.877 254 577.652 254 578.492C254 579.332 253.79 580.111 253.37 580.83C252.959 581.539 252.394 582.104 251.676 582.524C250.966 582.935 250.192 583.14 249.352 583.14ZM249.352 582.202C250.042 582.202 250.668 582.043 251.228 581.726C251.788 581.409 252.226 580.97 252.544 580.41C252.861 579.841 253.02 579.201 253.02 578.492C253.02 577.792 252.861 577.162 252.544 576.602C252.226 576.042 251.788 575.603 251.228 575.286C250.668 574.959 250.042 574.796 249.352 574.796C248.661 574.796 248.04 574.959 247.49 575.286C246.939 575.603 246.505 576.042 246.188 576.602C245.87 577.162 245.712 577.792 245.712 578.492C245.712 579.201 245.87 579.841 246.188 580.41C246.505 580.97 246.939 581.409 247.49 581.726C248.04 582.043 248.661 582.202 249.352 582.202ZM249.352 581.614C248.409 581.614 247.667 581.339 247.126 580.788C246.594 580.228 246.328 579.467 246.328 578.506C246.328 577.843 246.463 577.279 246.734 576.812C247.014 576.345 247.387 575.995 247.854 575.762C248.32 575.519 248.848 575.398 249.436 575.398C250.136 575.398 250.733 575.552 251.228 575.86V576.714C250.761 576.462 250.243 576.336 249.674 576.336C248.983 576.336 248.432 576.513 248.022 576.868C247.62 577.213 247.42 577.759 247.42 578.506C247.42 579.281 247.602 579.841 247.966 580.186C248.33 580.522 248.88 580.69 249.618 580.69C249.898 580.69 250.182 580.653 250.472 580.578C250.761 580.503 251.018 580.401 251.242 580.27V581.166C250.7 581.465 250.07 581.614 249.352 581.614ZM260.399 582.244C260.623 581.731 260.931 581.255 261.323 580.816C261.715 580.368 262.21 579.887 262.807 579.374C263.376 578.879 263.782 578.511 264.025 578.268C264.268 578.016 264.44 577.769 264.543 577.526C264.646 577.283 264.697 576.985 264.697 576.63C264.697 576.135 264.552 575.767 264.263 575.524C263.974 575.272 263.512 575.146 262.877 575.146C262.196 575.146 261.482 575.286 260.735 575.566V574.222C261.071 574.11 261.458 574.021 261.897 573.956C262.345 573.881 262.77 573.844 263.171 573.844C264.16 573.844 264.916 574.091 265.439 574.586C265.962 575.071 266.223 575.748 266.223 576.616C266.223 577.204 266.078 577.713 265.789 578.142C265.509 578.571 265.07 579.057 264.473 579.598L264.235 579.808C263.712 580.265 263.311 580.634 263.031 580.914C262.76 581.185 262.532 581.488 262.345 581.824H266.321V583H260.399V582.244ZM271.484 583.252C270.103 583.252 269.095 582.855 268.46 582.062C267.835 581.269 267.522 580.116 267.522 578.604C267.522 577.036 267.83 575.851 268.446 575.048C269.062 574.245 270.075 573.844 271.484 573.844C272.884 573.844 273.892 574.245 274.508 575.048C275.124 575.851 275.432 577.036 275.432 578.604C275.432 580.116 275.115 581.269 274.48 582.062C273.855 582.855 272.856 583.252 271.484 583.252ZM271.484 581.95C272.343 581.95 272.959 581.665 273.332 581.096C273.705 580.527 273.892 579.696 273.892 578.604C273.892 577.437 273.71 576.569 273.346 576C272.982 575.431 272.361 575.146 271.484 575.146C270.597 575.146 269.972 575.431 269.608 576C269.244 576.569 269.062 577.437 269.062 578.604C269.062 579.705 269.249 580.541 269.622 581.11C269.995 581.67 270.616 581.95 271.484 581.95ZM276.641 582.244C276.865 581.731 277.173 581.255 277.565 580.816C277.957 580.368 278.452 579.887 279.049 579.374C279.618 578.879 280.024 578.511 280.267 578.268C280.51 578.016 280.682 577.769 280.785 577.526C280.888 577.283 280.939 576.985 280.939 576.63C280.939 576.135 280.794 575.767 280.505 575.524C280.216 575.272 279.754 575.146 279.119 575.146C278.438 575.146 277.724 575.286 276.977 575.566V574.222C277.313 574.11 277.7 574.021 278.139 573.956C278.587 573.881 279.012 573.844 279.413 573.844C280.402 573.844 281.158 574.091 281.681 574.586C282.204 575.071 282.465 575.748 282.465 576.616C282.465 577.204 282.32 577.713 282.031 578.142C281.751 578.571 281.312 579.057 280.715 579.598L280.477 579.808C279.954 580.265 279.553 580.634 279.273 580.914C279.002 581.185 278.774 581.488 278.587 581.824H282.563V583H276.641V582.244ZM285.22 575.328L283.764 575.58V574.306L286.732 573.844V583H285.22V575.328ZM293.696 573.984H295.222V578.128L299.058 573.984H300.822L297.504 577.624L300.962 583H299.338L296.552 578.59L295.222 580.018V583H293.696V573.984ZM302.412 573.718H304.078V574.978H302.412V573.718ZM302.538 577.526H301.53L301.67 576.364H304.064V583H302.538V577.526ZM307.489 583.14C306.929 583.14 306.514 583.005 306.243 582.734C305.972 582.463 305.837 582.025 305.837 581.418V573.564H307.363V581.278C307.363 581.53 307.405 581.707 307.489 581.81C307.582 581.903 307.727 581.95 307.923 581.95C308.147 581.95 308.362 581.922 308.567 581.866V582.972C308.259 583.084 307.9 583.14 307.489 583.14ZM311.057 583.14C310.497 583.14 310.082 583.005 309.811 582.734C309.541 582.463 309.405 582.025 309.405 581.418V573.564H310.931V581.278C310.931 581.53 310.973 581.707 311.057 581.81C311.151 581.903 311.295 581.95 311.491 581.95C311.715 581.95 311.93 581.922 312.135 581.866V582.972C311.827 583.084 311.468 583.14 311.057 583.14ZM316.059 583.14C314.893 583.14 313.955 582.991 313.245 582.692V581.348C314.113 581.684 315.005 581.852 315.919 581.852C316.675 581.852 317.221 581.763 317.557 581.586C317.903 581.409 318.075 581.077 318.075 580.592C318.075 580.284 318.001 580.041 317.851 579.864C317.711 579.677 317.478 579.519 317.151 579.388C316.825 579.257 316.335 579.108 315.681 578.94C314.711 578.688 314.029 578.371 313.637 577.988C313.245 577.596 313.049 577.059 313.049 576.378C313.049 575.575 313.343 574.955 313.931 574.516C314.519 574.068 315.378 573.844 316.507 573.844C317.002 573.844 317.478 573.881 317.935 573.956C318.402 574.021 318.78 574.105 319.069 574.208V575.552C318.36 575.281 317.576 575.146 316.717 575.146C316.008 575.146 315.476 575.239 315.121 575.426C314.767 575.613 314.589 575.93 314.589 576.378C314.589 576.649 314.655 576.868 314.785 577.036C314.916 577.195 315.131 577.339 315.429 577.47C315.737 577.591 316.195 577.727 316.801 577.876C317.856 578.147 318.589 578.497 318.999 578.926C319.41 579.355 319.615 579.911 319.615 580.592C319.615 581.395 319.312 582.02 318.705 582.468C318.108 582.916 317.226 583.14 316.059 583.14ZM320.186 576.364H321.712L322.86 581.194L324.162 577.176V576.364H325.324L326.766 581.194L327.914 576.364H329.426L327.69 583H326.248L324.834 578.66L323.392 583H321.936L320.186 576.364ZM331.301 573.718H332.967V574.978H331.301V573.718ZM331.427 577.526H330.419L330.559 576.364H332.953V583H331.427V577.526ZM337.26 583.14C336.56 583.14 336.032 582.958 335.678 582.594C335.323 582.221 335.146 581.698 335.146 581.026V577.554H334.166V576.364H335.146V574.838L336.658 574.376V576.364H338.422L338.324 577.554H336.658V580.942C336.658 581.325 336.742 581.595 336.91 581.754C337.087 581.903 337.381 581.978 337.792 581.978C338.044 581.978 338.31 581.931 338.59 581.838V582.916C338.226 583.065 337.782 583.14 337.26 583.14ZM343.005 583.14C341.839 583.14 340.957 582.846 340.359 582.258C339.762 581.67 339.463 580.811 339.463 579.682C339.463 578.543 339.785 577.685 340.429 577.106C341.073 576.518 341.96 576.224 343.089 576.224C343.537 576.224 343.915 576.257 344.223 576.322C344.541 576.387 344.849 576.49 345.147 576.63V577.764C344.662 577.521 344.074 577.4 343.383 577.4C342.59 577.4 341.993 577.577 341.591 577.932C341.199 578.287 341.003 578.87 341.003 579.682C341.003 580.485 341.185 581.068 341.549 581.432C341.923 581.796 342.525 581.978 343.355 581.978C344.018 581.978 344.62 581.852 345.161 581.6V582.762C344.545 583.014 343.827 583.14 343.005 583.14ZM346.648 573.564H348.174V577.008C348.472 576.765 348.822 576.574 349.224 576.434C349.634 576.294 350.082 576.224 350.568 576.224C351.408 576.224 352.028 576.425 352.43 576.826C352.831 577.227 353.032 577.853 353.032 578.702V583H351.52V578.772C351.52 578.259 351.408 577.899 351.184 577.694C350.969 577.489 350.591 577.386 350.05 577.386C349.714 577.386 349.373 577.461 349.028 577.61C348.682 577.75 348.398 577.937 348.174 578.17V583H346.648V573.564ZM354.461 581.81H355.749V583H354.461V581.81ZM365.603 573.984H367.311L370.727 583H369.159L368.263 580.676H364.637L363.741 583H362.159L365.603 573.984ZM368.011 579.5L366.443 575.37L364.875 579.5H368.011ZM373.88 583.14C373.32 583.14 372.904 583.005 372.634 582.734C372.363 582.463 372.228 582.025 372.228 581.418V573.564H373.754V581.278C373.754 581.53 373.796 581.707 373.88 581.81C373.973 581.903 374.118 581.95 374.314 581.95C374.538 581.95 374.752 581.922 374.958 581.866V582.972C374.65 583.084 374.29 583.14 373.88 583.14ZM377.448 583.14C376.888 583.14 376.473 583.005 376.202 582.734C375.931 582.463 375.796 582.025 375.796 581.418V573.564H377.322V581.278C377.322 581.53 377.364 581.707 377.448 581.81C377.541 581.903 377.686 581.95 377.882 581.95C378.106 581.95 378.321 581.922 378.526 581.866V582.972C378.218 583.084 377.859 583.14 377.448 583.14ZM384.902 573.984H389.046C390.026 573.984 390.754 574.236 391.23 574.74C391.706 575.244 391.944 575.953 391.944 576.868C391.944 577.512 391.78 578.058 391.454 578.506C391.136 578.945 390.684 579.253 390.096 579.43C390.254 579.542 390.38 579.668 390.474 579.808C390.567 579.939 390.665 580.13 390.768 580.382L391.902 583H390.334L389.228 580.48C389.116 580.228 388.985 580.055 388.836 579.962C388.686 579.859 388.448 579.808 388.122 579.808H386.428V583H384.902V573.984ZM388.64 578.576C389.825 578.576 390.418 578.007 390.418 576.868C390.418 575.739 389.872 575.174 388.78 575.174H386.428V578.576H388.64ZM393.836 573.718H395.502V574.978H393.836V573.718ZM393.962 577.526H392.954L393.094 576.364H395.488V583H393.962V577.526ZM399.949 585.464C399.436 585.464 398.932 585.431 398.437 585.366C397.952 585.301 397.541 585.212 397.205 585.1V583.924C397.56 584.045 397.98 584.139 398.465 584.204C398.95 584.269 399.422 584.302 399.879 584.302C400.588 584.302 401.088 584.26 401.377 584.176C401.666 584.101 401.811 583.938 401.811 583.686C401.811 583.49 401.732 583.35 401.573 583.266C401.424 583.191 401.144 583.154 400.733 583.154H398.941C398.353 583.154 397.905 583.047 397.597 582.832C397.289 582.608 397.135 582.291 397.135 581.88C397.135 581.591 397.219 581.334 397.387 581.11C397.555 580.877 397.802 580.704 398.129 580.592C397.382 580.228 397.009 579.579 397.009 578.646C397.009 577.806 397.261 577.195 397.765 576.812C398.269 576.42 399.034 576.224 400.061 576.224C400.434 576.224 400.84 576.271 401.279 576.364H403.715L403.673 577.358H402.553C402.898 577.666 403.071 578.095 403.071 578.646C403.071 579.374 402.852 579.939 402.413 580.34C401.984 580.732 401.34 580.928 400.481 580.928C400.257 580.928 399.982 580.905 399.655 580.858C399.356 580.886 399.1 580.965 398.885 581.096C398.67 581.217 398.563 581.376 398.563 581.572C398.563 581.712 398.619 581.815 398.731 581.88C398.843 581.936 399.03 581.964 399.291 581.964H401.153C401.816 581.964 402.324 582.109 402.679 582.398C403.043 582.678 403.225 583.089 403.225 583.63C403.225 584.274 402.95 584.741 402.399 585.03C401.858 585.319 401.041 585.464 399.949 585.464ZM400.061 579.962C400.668 579.962 401.088 579.864 401.321 579.668C401.564 579.463 401.685 579.108 401.685 578.604C401.685 578.1 401.564 577.741 401.321 577.526C401.078 577.302 400.658 577.19 400.061 577.19C399.482 577.19 399.062 577.302 398.801 577.526C398.549 577.741 398.423 578.1 398.423 578.604C398.423 579.089 398.544 579.439 398.787 579.654C399.039 579.859 399.464 579.962 400.061 579.962ZM405.013 573.564H406.539V577.008C406.838 576.765 407.188 576.574 407.589 576.434C408 576.294 408.448 576.224 408.933 576.224C409.773 576.224 410.394 576.425 410.795 576.826C411.196 577.227 411.397 577.853 411.397 578.702V583H409.885V578.772C409.885 578.259 409.773 577.899 409.549 577.694C409.334 577.489 408.956 577.386 408.415 577.386C408.079 577.386 407.738 577.461 407.393 577.61C407.048 577.75 406.763 577.937 406.539 578.17V583H405.013V573.564ZM415.641 583.14C414.941 583.14 414.413 582.958 414.059 582.594C413.704 582.221 413.527 581.698 413.527 581.026V577.554H412.547V576.364H413.527V574.838L415.039 574.376V576.364H416.803L416.705 577.554H415.039V580.942C415.039 581.325 415.123 581.595 415.291 581.754C415.468 581.903 415.762 581.978 416.173 581.978C416.425 581.978 416.691 581.931 416.971 581.838V582.916C416.607 583.065 416.163 583.14 415.641 583.14ZM420.405 583.14C419.957 583.14 419.523 583.107 419.103 583.042C418.683 582.986 418.337 582.907 418.067 582.804V581.516C418.375 581.637 418.715 581.731 419.089 581.796C419.471 581.861 419.845 581.894 420.209 581.894C420.75 581.894 421.128 581.847 421.343 581.754C421.557 581.661 421.665 581.479 421.665 581.208C421.665 580.965 421.567 580.788 421.371 580.676C421.175 580.555 420.806 580.41 420.265 580.242L419.845 580.102C419.173 579.878 418.683 579.631 418.375 579.36C418.067 579.08 417.913 578.669 417.913 578.128C417.913 577.503 418.137 577.031 418.585 576.714C419.033 576.387 419.733 576.224 420.685 576.224C421.049 576.224 421.403 576.252 421.749 576.308C422.103 576.364 422.407 576.434 422.659 576.518V577.792C422.407 577.689 422.122 577.61 421.805 577.554C421.497 577.498 421.203 577.47 420.923 577.47C420.409 577.47 420.036 577.517 419.803 577.61C419.569 577.694 419.453 577.857 419.453 578.1C419.453 578.315 419.541 578.478 419.719 578.59C419.896 578.693 420.246 578.828 420.769 578.996L421.077 579.094C421.618 579.262 422.038 579.435 422.337 579.612C422.635 579.78 422.85 579.99 422.981 580.242C423.121 580.485 423.191 580.802 423.191 581.194C423.191 582.491 422.262 583.14 420.405 583.14ZM429.868 573.984H434.012C434.992 573.984 435.72 574.236 436.196 574.74C436.672 575.244 436.91 575.953 436.91 576.868C436.91 577.512 436.747 578.058 436.42 578.506C436.103 578.945 435.65 579.253 435.062 579.43C435.221 579.542 435.347 579.668 435.44 579.808C435.534 579.939 435.632 580.13 435.734 580.382L436.868 583H435.3L434.194 580.48C434.082 580.228 433.952 580.055 433.802 579.962C433.653 579.859 433.415 579.808 433.088 579.808H431.394V583H429.868V573.984ZM433.606 578.576C434.792 578.576 435.384 578.007 435.384 576.868C435.384 575.739 434.838 575.174 433.746 575.174H431.394V578.576H433.606ZM441.144 583.14C439.968 583.14 439.068 582.851 438.442 582.272C437.817 581.693 437.504 580.825 437.504 579.668C437.504 578.576 437.78 577.731 438.33 577.134C438.881 576.527 439.698 576.224 440.78 576.224C441.76 576.224 442.512 576.481 443.034 576.994C443.557 577.507 443.818 578.193 443.818 579.052V580.284H438.96C439.035 580.919 439.264 581.362 439.646 581.614C440.029 581.857 440.631 581.978 441.452 581.978C441.788 581.978 442.129 581.945 442.474 581.88C442.829 581.815 443.142 581.731 443.412 581.628V582.748C442.824 583.009 442.068 583.14 441.144 583.14ZM442.474 579.29V578.828C442.474 578.352 442.344 577.993 442.082 577.75C441.821 577.498 441.401 577.372 440.822 577.372C440.132 577.372 439.646 577.521 439.366 577.82C439.096 578.119 438.96 578.609 438.96 579.29H442.474ZM447.516 583.14C447.068 583.14 446.634 583.107 446.214 583.042C445.794 582.986 445.449 582.907 445.178 582.804V581.516C445.486 581.637 445.827 581.731 446.2 581.796C446.583 581.861 446.956 581.894 447.32 581.894C447.861 581.894 448.239 581.847 448.454 581.754C448.669 581.661 448.776 581.479 448.776 581.208C448.776 580.965 448.678 580.788 448.482 580.676C448.286 580.555 447.917 580.41 447.376 580.242L446.956 580.102C446.284 579.878 445.794 579.631 445.486 579.36C445.178 579.08 445.024 578.669 445.024 578.128C445.024 577.503 445.248 577.031 445.696 576.714C446.144 576.387 446.844 576.224 447.796 576.224C448.16 576.224 448.515 576.252 448.86 576.308C449.215 576.364 449.518 576.434 449.77 576.518V577.792C449.518 577.689 449.233 577.61 448.916 577.554C448.608 577.498 448.314 577.47 448.034 577.47C447.521 577.47 447.147 577.517 446.914 577.61C446.681 577.694 446.564 577.857 446.564 578.1C446.564 578.315 446.653 578.478 446.83 578.59C447.007 578.693 447.357 578.828 447.88 578.996L448.188 579.094C448.729 579.262 449.149 579.435 449.448 579.612C449.747 579.78 449.961 579.99 450.092 580.242C450.232 580.485 450.302 580.802 450.302 581.194C450.302 582.491 449.373 583.14 447.516 583.14ZM455.158 583.14C453.982 583.14 453.081 582.851 452.456 582.272C451.831 581.693 451.518 580.825 451.518 579.668C451.518 578.576 451.793 577.731 452.344 577.134C452.895 576.527 453.711 576.224 454.794 576.224C455.774 576.224 456.525 576.481 457.048 576.994C457.571 577.507 457.832 578.193 457.832 579.052V580.284H452.974C453.049 580.919 453.277 581.362 453.66 581.614C454.043 581.857 454.645 581.978 455.466 581.978C455.802 581.978 456.143 581.945 456.488 581.88C456.843 581.815 457.155 581.731 457.426 581.628V582.748C456.838 583.009 456.082 583.14 455.158 583.14ZM456.488 579.29V578.828C456.488 578.352 456.357 577.993 456.096 577.75C455.835 577.498 455.415 577.372 454.836 577.372C454.145 577.372 453.66 577.521 453.38 577.82C453.109 578.119 452.974 578.609 452.974 579.29H456.488ZM459.318 576.364H460.718L460.802 577.134C461.119 576.929 461.497 576.742 461.936 576.574C462.374 576.406 462.808 576.289 463.238 576.224V577.386C462.836 577.461 462.402 577.577 461.936 577.736C461.469 577.885 461.105 578.044 460.844 578.212V583H459.318V576.364ZM463.686 576.364H465.268L467.13 581.516L468.992 576.364H470.56L467.956 583H466.304L463.686 576.364ZM474.722 583.14C473.546 583.14 472.646 582.851 472.02 582.272C471.395 581.693 471.082 580.825 471.082 579.668C471.082 578.576 471.358 577.731 471.908 577.134C472.459 576.527 473.276 576.224 474.358 576.224C475.338 576.224 476.09 576.481 476.612 576.994C477.135 577.507 477.396 578.193 477.396 579.052V580.284H472.538C472.613 580.919 472.842 581.362 473.224 581.614C473.607 581.857 474.209 581.978 475.03 581.978C475.366 581.978 475.707 581.945 476.052 581.88C476.407 581.815 476.72 581.731 476.99 581.628V582.748C476.402 583.009 475.646 583.14 474.722 583.14ZM476.052 579.29V578.828C476.052 578.352 475.922 577.993 475.66 577.75C475.399 577.498 474.979 577.372 474.4 577.372C473.71 577.372 473.224 577.521 472.944 577.82C472.674 578.119 472.538 578.609 472.538 579.29H476.052ZM481.626 583.14C480.665 583.14 479.918 582.888 479.386 582.384C478.863 581.871 478.602 581.04 478.602 579.892C478.602 579.117 478.737 578.455 479.008 577.904C479.279 577.353 479.652 576.938 480.128 576.658C480.604 576.369 481.15 576.224 481.766 576.224C482.158 576.224 482.513 576.271 482.83 576.364C483.147 576.457 483.451 576.602 483.74 576.798V573.564H485.266V583H483.964L483.866 582.342C483.558 582.622 483.227 582.827 482.872 582.958C482.517 583.079 482.102 583.14 481.626 583.14ZM482.032 581.992C482.713 581.992 483.283 581.759 483.74 581.292V577.974C483.301 577.582 482.751 577.386 482.088 577.386C481.444 577.386 480.959 577.601 480.632 578.03C480.305 578.459 480.142 579.085 480.142 579.906C480.142 580.681 480.287 581.222 480.576 581.53C480.875 581.838 481.36 581.992 482.032 581.992ZM486.75 581.81H488.038V583H486.75V581.81Z" fill="white"/>
<defs>
<linearGradient id="paint0_linear" x1="376" y1="388.012" x2="813.771" y2="388.012" gradientUnits="userSpaceOnUse">
<stop stop-color="#6BEBED"/>
<stop offset="1" stop-color="#3994DD"/>
</linearGradient>
<linearGradient id="paint1_linear" x1="594" y1="380" x2="1553" y2="454" gradientUnits="userSpaceOnUse">
<stop stop-color="#3CC2E9"/>
<stop offset="1" stop-color="#4B3FA3"/>
</linearGradient>
<linearGradient id="paint2_linear" x1="964.199" y1="396.274" x2="964.199" y2="605.94" gradientUnits="userSpaceOnUse">
<stop stop-color="#053CAA"/>
<stop offset="1" stop-color="#2791BB"/>
</linearGradient>
<linearGradient id="paint3_linear" x1="675.954" y1="564.446" x2="675.954" y2="466.3" gradientUnits="userSpaceOnUse">
<stop stop-color="#00B4BA"/>
<stop offset="1" stop-color="#0031A2"/>
</linearGradient>
<linearGradient id="paint4_linear" x1="590.73" y1="463.972" x2="761.178" y2="463.972" gradientUnits="userSpaceOnUse">
<stop stop-color="#4CCCED"/>
<stop offset="1" stop-color="#39BDDD"/>
</linearGradient>
<linearGradient id="paint5_linear" x1="405.077" y1="462.498" x2="438.687" y2="462.498" gradientUnits="userSpaceOnUse">
<stop stop-color="#4CCCED"/>
<stop offset="1" stop-color="#39BDDD"/>
</linearGradient>
<linearGradient id="paint6_linear" x1="897.646" y1="367.197" x2="1334.04" y2="367.197" gradientUnits="userSpaceOnUse">
<stop stop-color="#0059A2"/>
<stop offset="1" stop-color="#000E77"/>
</linearGradient>
<linearGradient id="paint7_linear" x1="590.729" y1="397.799" x2="1334.04" y2="397.799" gradientUnits="userSpaceOnUse">
<stop stop-color="#4CCCED"/>
<stop offset="1" stop-color="#39BDDD"/>
</linearGradient>
<linearGradient id="paint8_linear" x1="1385.36" y1="382.165" x2="1553.02" y2="382.165" gradientUnits="userSpaceOnUse">
<stop stop-color="#0059A2"/>
<stop offset="1" stop-color="#000E77"/>
</linearGradient>
<linearGradient id="paint9_linear" x1="1183.88" y1="455.08" x2="1552.45" y2="455.08" gradientUnits="userSpaceOnUse">
<stop stop-color="#4CCCED"/>
<stop offset="1" stop-color="#39BDDD"/>
</linearGradient>
<linearGradient id="paint10_linear" x1="592.241" y1="408.823" x2="592.241" y2="396.275" gradientUnits="userSpaceOnUse">
<stop stop-color="#4CCCED"/>
<stop offset="1" stop-color="#39BDDD"/>
</linearGradient>
<linearGradient id="paint11_linear" x1="1088.29" y1="466.3" x2="1088.29" y2="413.025" gradientUnits="userSpaceOnUse">
<stop stop-color="#0059A2"/>
<stop offset="1" stop-color="#000E77"/>
</linearGradient>
<linearGradient id="paint12_linear" x1="1036.4" y1="312.748" x2="1163.59" y2="312.748" gradientUnits="userSpaceOnUse">
<stop stop-color="#4CCCED"/>
<stop offset="1" stop-color="#39BDDD"/>
</linearGradient>
<linearGradient id="paint13_linear" x1="1243.92" y1="333.796" x2="1405.76" y2="173.321" gradientUnits="userSpaceOnUse">
<stop stop-color="#BBBDBF"/>
<stop offset="0.5832" stop-color="#DDDEDF"/>
<stop offset="1" stop-color="#F1F1F2"/>
</linearGradient>
<linearGradient id="paint14_linear" x1="1222.09" y1="330.583" x2="1206" y2="319.412" gradientUnits="userSpaceOnUse">
<stop stop-color="#BBBDBF"/>
<stop offset="0.5832" stop-color="#DDDEDF"/>
<stop offset="1" stop-color="#F1F1F2"/>
</linearGradient>
<linearGradient id="paint15_linear" x1="1426.78" y1="330.471" x2="1442.87" y2="319.3" gradientUnits="userSpaceOnUse">
<stop stop-color="#BBBDBF"/>
<stop offset="0.5832" stop-color="#DDDEDF"/>
<stop offset="1" stop-color="#F1F1F2"/>
</linearGradient>
<radialGradient id="paint16_radial" cx="0" cy="0" r="1" gradientUnits="userSpaceOnUse" gradientTransform="translate(838 88.5001) rotate(9.02454) scale(258.196 257.893)">
<stop stop-color="#F20074"/>
<stop offset="0.0001"/>
<stop offset="1" stop-color="#3C3CA6"/>
</radialGradient>
<clipPath id="clip0">
<rect width="1177" height="301" fill="white" transform="translate(376 305)"/>
</clipPath>
<clipPath id="clip1">
<rect width="761" height="274" fill="white" transform="matrix(-1 0 0 1 761 245)"/>
</clipPath>
<clipPath id="clip2">
<rect width="233" height="273" fill="white" transform="translate(1208 123)"/>
</clipPath>
<clipPath id="clip3">
<rect width="349" height="387" fill="white" transform="translate(828)"/>
</clipPath>
</defs>
</svg>
