<svg xmlns="http://www.w3.org/2000/svg" viewBox="0 0 50 52" fill="current">
<path d="M44.0401 28.4959C44.1361 27.6959 44.2001 26.8639 44.2001 25.9999C44.2001 25.1359 44.1361 24.3039 44.0081 23.5039L49.4161 19.2799C49.8961 18.8959 50.0241 18.1919 49.7361 17.6479L44.6161 8.7839C44.2961 8.2079 43.6241 8.0159 43.0481 8.2079L36.6801 10.7679C35.3361 9.7439 33.9281 8.9119 32.3601 8.2719L31.4001 1.4879C31.3041 0.847902 30.7601 0.399902 30.1201 0.399902H19.8801C19.2401 0.399902 18.7281 0.847902 18.6321 1.4879L17.6721 8.2719C16.1041 8.9119 14.6641 9.7759 13.3521 10.7679L6.98412 8.2079C6.40812 7.9839 5.73612 8.2079 5.41612 8.7839L0.296122 17.6479C-0.0238785 18.2239 0.104122 18.8959 0.616122 19.2799L6.02412 23.5039C5.89612 24.3039 5.80012 25.1679 5.80012 25.9999C5.80012 26.8319 5.86412 27.6959 5.99212 28.4959L0.584121 32.7199C0.104121 33.1039 -0.0238785 33.8079 0.264122 34.3519L5.38412 43.2159C5.70412 43.7919 6.37612 43.9839 6.95212 43.7919L13.3201 41.2319C14.6641 42.2559 16.0721 43.0879 17.6401 43.7279L18.6001 50.5119C18.7281 51.1519 19.2401 51.5999 19.8801 51.5999H30.1201C30.7601 51.5999 31.3041 51.1519 31.3681 50.5119L32.3281 43.7279C33.8961 43.0879 35.3361 42.2239 36.6481 41.2319L43.0161 43.7919C43.5921 44.0159 44.2641 43.7919 44.5841 43.2159L49.7041 34.3519C50.0241 33.7759 49.8961 33.1039 49.3841 32.7199L44.0401 28.4959ZM25.0001 35.5999C19.7201 35.5999 15.4001 31.2799 15.4001 25.9999C15.4001 20.7199 19.7201 16.3999 25.0001 16.3999C30.2801 16.3999 34.6001 20.7199 34.6001 25.9999C34.6001 31.2799 30.2801 35.5999 25.0001 35.5999Z" fill="#7986CB"/>
</svg>