<svg width="1440" height="5730" viewBox="0 0 1440 5730" fill="none" xmlns="http://www.w3.org/2000/svg">
<g clip-path="url(#clip0)">
<rect width="1440" height="5730" fill="#000051"/>
<path d="M1440 0H0V828H1440V0Z" fill="url(#paint0_linear)"/>
<g clip-path="url(#clip1)">
<path opacity="0.5" d="M720.992 479.627C721.215 476.69 723.772 474.486 726.745 474.678C729.686 474.901 731.923 477.456 731.699 480.394C731.476 483.332 728.919 485.535 725.946 485.344C723.005 485.152 720.8 482.597 720.992 479.627Z" fill="#AFF1FF"/>
<path opacity="0.85" d="M676.497 470.973C676.721 468.035 679.278 465.832 682.251 466.023C685.192 466.247 687.429 468.802 687.205 471.74C686.982 474.678 684.424 476.881 681.452 476.69C678.511 476.498 676.306 473.911 676.497 470.973Z" fill="#AFF1FF"/>
<path opacity="0.5" d="M768.554 432.747C768.778 429.809 771.335 427.606 774.307 427.797C777.248 428.021 779.486 430.576 779.262 433.514C779.038 436.452 776.481 438.655 773.508 438.464C770.536 438.272 768.33 435.685 768.554 432.747Z" fill="#AFF1FF"/>
<path opacity="0.85" d="M650.03 364.95C650.254 362.012 652.811 359.809 655.784 360C658.725 360.224 660.962 362.778 660.738 365.716C660.515 368.654 657.958 370.858 654.985 370.666C652.012 370.475 649.807 367.888 650.03 364.95Z" fill="#AFF1FF"/>
<path opacity="0.25" d="M734.992 425.434C735.152 423.231 737.069 421.57 739.307 421.73C741.512 421.89 743.175 423.806 743.015 426.041C742.855 428.245 740.937 429.905 738.7 429.745C736.462 429.554 734.8 427.638 734.992 425.434Z" fill="#AFF1FF"/>
<path opacity="0.25" d="M689.156 380.47C689.316 378.267 691.234 376.606 693.471 376.766C695.677 376.925 697.339 378.841 697.179 381.077C697.019 383.28 695.101 384.941 692.864 384.781C690.658 384.59 688.996 382.674 689.156 380.47Z" fill="#AFF1FF"/>
<path opacity="0.25" d="M675.922 435.526C676.081 433.322 677.999 431.661 680.237 431.821C682.442 431.981 684.104 433.897 683.944 436.132C683.785 438.336 681.867 439.996 679.629 439.837C677.424 439.677 675.762 437.729 675.922 435.526Z" fill="#AFF1FF"/>
<path opacity="0.5" d="M973.221 395.033C973.221 398.002 970.823 400.398 967.851 400.398C964.878 400.398 962.481 398.002 962.481 395.033C962.481 392.063 964.878 389.667 967.851 389.667C970.823 389.667 973.221 392.063 973.221 395.033Z" fill="#AFF1FF"/>
<path opacity="0.85" d="M1018.23 400.366C1018.23 403.335 1015.83 405.731 1012.86 405.731C1009.88 405.731 1007.49 403.335 1007.49 400.366C1007.49 397.396 1009.88 395 1012.86 395C1015.83 395.032 1018.23 397.428 1018.23 400.366Z" fill="#AFF1FF"/>
<path opacity="0.5" d="M929.27 445.298C929.27 448.268 926.872 450.631 923.9 450.631C920.927 450.631 918.53 448.236 918.53 445.298C918.53 442.328 920.927 439.933 923.9 439.933C926.872 439.965 929.27 442.36 929.27 445.298Z" fill="#AFF1FF"/>
<path opacity="0.85" d="M1052.52 504.153C1052.52 507.123 1050.13 509.518 1047.15 509.518C1044.18 509.518 1041.78 507.123 1041.78 504.153C1041.78 501.183 1044.18 498.82 1047.15 498.82C1050.13 498.788 1052.52 501.183 1052.52 504.153Z" fill="#AFF1FF"/>
<path opacity="0.25" d="M959.283 454.143C957.059 454.143 955.256 452.342 955.256 450.119C955.256 447.897 957.059 446.096 959.283 446.096C961.507 446.096 963.311 447.897 963.311 450.119C963.311 452.342 961.507 454.143 959.283 454.143Z" fill="#AFF1FF"/>
<path opacity="0.25" d="M1008.32 495.595C1006.09 495.595 1004.29 493.793 1004.29 491.571C1004.29 489.349 1006.09 487.547 1008.32 487.547C1010.54 487.547 1012.34 489.349 1012.34 491.571C1012.34 493.793 1010.54 495.595 1008.32 495.595Z" fill="#AFF1FF"/>
<path opacity="0.25" d="M1021.46 435.685C1021.46 437.889 1019.67 439.709 1017.43 439.709C1015.22 439.709 1013.4 437.921 1013.4 435.685C1013.4 433.45 1015.19 431.661 1017.43 431.661C1019.63 431.661 1021.46 433.482 1021.46 435.685Z" fill="#AFF1FF"/>
<path opacity="0.5" d="M1411 427.861C1411 434.887 1405.28 440.571 1398.25 440.571C1391.21 440.571 1385.49 434.887 1385.49 427.861C1385.49 420.836 1391.21 415.151 1398.25 415.151C1405.28 415.151 1411 420.836 1411 427.861Z" fill="#AFF1FF"/>
<path opacity="0.5" d="M1374.05 510.572C1370.54 510.572 1367.69 507.727 1367.69 504.217C1367.69 500.707 1370.54 497.862 1374.05 497.862C1377.56 497.862 1380.41 500.707 1380.41 504.217C1380.41 507.727 1377.56 510.572 1374.05 510.572Z" fill="#AFF1FF"/>
<path opacity="0.5" d="M1209.63 392.222C1209.63 395.735 1206.78 398.577 1203.27 398.577C1199.75 398.577 1196.91 395.735 1196.91 392.222C1196.91 388.709 1199.75 385.867 1203.27 385.867C1206.75 385.867 1209.63 388.709 1209.63 392.222Z" fill="#AFF1FF"/>
<path opacity="0.85" d="M1309.03 477.488C1305.52 477.488 1302.67 474.642 1302.67 471.133C1302.67 467.623 1305.52 464.778 1309.03 464.778C1312.55 464.778 1315.39 467.623 1315.39 471.133C1315.39 474.642 1312.55 477.488 1309.03 477.488Z" fill="#AFF1FF"/>
<path opacity="0.2" d="M1212.15 506.74C1212.15 509.55 1209.88 511.817 1207.04 511.817C1204.23 511.817 1201.92 509.55 1201.92 506.74C1201.92 503.929 1204.19 501.662 1207.04 501.662C1209.88 501.662 1212.15 503.929 1212.15 506.74Z" fill="#AFF1FF"/>
<path opacity="0.2" d="M1349.82 440.603C1347.7 440.603 1345.98 438.887 1345.98 436.771C1345.98 434.654 1347.7 432.939 1349.82 432.939C1351.94 432.939 1353.66 434.654 1353.66 436.771C1353.66 438.887 1351.94 440.603 1349.82 440.603Z" fill="#AFF1FF"/>
<path opacity="0.2" d="M1328.15 472.41C1326.03 472.41 1324.31 470.694 1324.31 468.578C1324.31 466.461 1326.03 464.745 1328.15 464.745C1330.27 464.745 1331.99 466.461 1331.99 468.578C1331.99 470.694 1330.27 472.41 1328.15 472.41Z" fill="#AFF1FF"/>
<path opacity="0.2" d="M1309.03 429.138C1306.92 429.138 1305.2 427.423 1305.2 425.306C1305.2 423.19 1306.92 421.474 1309.03 421.474C1311.15 421.474 1312.87 423.19 1312.87 425.306C1312.87 427.423 1311.15 429.138 1309.03 429.138Z" fill="#AFF1FF"/>
<path opacity="0.5" d="M1124.22 627.645C1124.22 631.158 1121.37 634 1117.86 634C1114.34 634 1111.5 631.158 1111.5 627.645C1111.5 624.132 1114.34 621.29 1117.86 621.29C1121.37 621.258 1124.22 624.132 1124.22 627.645Z" fill="#AFF1FF"/>
<path opacity="0.2" d="M1144.61 481.958C1142.49 481.958 1140.78 480.243 1140.78 478.126C1140.78 476.01 1142.49 474.294 1144.61 474.294C1146.73 474.294 1148.45 476.01 1148.45 478.126C1148.45 480.243 1146.73 481.958 1144.61 481.958Z" fill="#AFF1FF"/>
<path opacity="0.2" d="M1128.66 545.572C1128.66 547.68 1126.93 549.405 1124.82 549.405C1122.71 549.405 1120.99 547.68 1120.99 545.572C1120.99 543.465 1122.71 541.74 1124.82 541.74C1126.97 541.74 1128.66 543.465 1128.66 545.572Z" fill="#AFF1FF"/>
<path opacity="0.2" d="M1149.05 530.308C1146.94 530.308 1145.22 528.592 1145.22 526.475C1145.22 524.359 1146.94 522.643 1149.05 522.643C1151.17 522.643 1152.89 524.359 1152.89 526.475C1152.89 528.592 1151.17 530.308 1149.05 530.308Z" fill="#AFF1FF"/>
<path opacity="0.5" d="M1129.3 366.802C1129.3 369.612 1127.03 371.879 1124.19 371.879C1121.37 371.879 1119.07 369.612 1119.07 366.802C1119.07 363.992 1121.34 361.724 1124.19 361.724C1127.03 361.692 1129.3 363.992 1129.3 366.802Z" fill="#AFF1FF"/>
<path opacity="0.2" d="M1171.37 420.229C1171.37 423.039 1169.1 425.306 1166.25 425.306C1163.41 425.306 1161.14 423.039 1161.14 420.229C1161.14 417.418 1163.41 415.151 1166.25 415.151C1169.1 415.151 1171.37 417.418 1171.37 420.229Z" fill="#AFF1FF"/>
</g>
<g clip-path="url(#clip2)">
<path opacity="0.5" d="M-8.00846 307.627C-7.78472 304.69 -5.22764 302.486 -2.255 302.678C0.685682 302.901 2.92317 305.456 2.69942 308.394C2.47567 311.332 -0.0814517 313.535 -3.0541 313.344C-5.99478 313.152 -8.20025 310.597 -8.00846 307.627Z" fill="#AFF1FF"/>
<path opacity="0.5" d="M39.554 260.747C39.7777 257.809 42.3348 255.606 45.3075 255.797C48.2482 256.021 50.4857 258.576 50.2619 261.514C50.0382 264.452 47.481 266.655 44.5084 266.464C41.5357 266.272 39.3302 263.685 39.554 260.747Z" fill="#AFF1FF"/>
<path opacity="0.25" d="M5.99175 253.434C6.15157 251.231 8.06943 249.57 10.3069 249.73C12.5124 249.89 14.1746 251.806 14.0148 254.041C13.8549 256.245 11.9371 257.905 9.69959 257.745C7.46211 257.554 5.79996 255.638 5.99175 253.434Z" fill="#AFF1FF"/>
<path opacity="0.5" d="M244.221 223.033C244.221 226.002 241.823 228.398 238.851 228.398C235.878 228.398 233.481 226.002 233.481 223.033C233.481 220.063 235.878 217.667 238.851 217.667C241.823 217.667 244.221 220.063 244.221 223.033Z" fill="#AFF1FF"/>
<path opacity="0.85" d="M289.227 228.366C289.227 231.335 286.829 233.731 283.857 233.731C280.884 233.731 278.487 231.335 278.487 228.366C278.487 225.396 280.884 223 283.857 223C286.829 223.032 289.227 225.428 289.227 228.366Z" fill="#AFF1FF"/>
<path opacity="0.5" d="M200.27 273.298C200.27 276.268 197.872 278.631 194.9 278.631C191.927 278.631 189.53 276.236 189.53 273.298C189.53 270.328 191.927 267.933 194.9 267.933C197.872 267.965 200.27 270.36 200.27 273.298Z" fill="#AFF1FF"/>
<path opacity="0.85" d="M323.523 332.153C323.523 335.123 321.126 337.518 318.154 337.518C315.181 337.518 312.784 335.123 312.784 332.153C312.784 329.183 315.181 326.82 318.154 326.82C321.126 326.788 323.523 329.183 323.523 332.153Z" fill="#AFF1FF"/>
<path opacity="0.25" d="M230.283 282.143C228.059 282.143 226.256 280.342 226.256 278.119C226.256 275.897 228.059 274.096 230.283 274.096C232.507 274.096 234.311 275.897 234.311 278.119C234.311 280.342 232.507 282.143 230.283 282.143Z" fill="#AFF1FF"/>
<path opacity="0.25" d="M279.316 323.595C277.092 323.595 275.289 321.793 275.289 319.571C275.289 317.349 277.092 315.547 279.316 315.547C281.541 315.547 283.344 317.349 283.344 319.571C283.344 321.793 281.541 323.595 279.316 323.595Z" fill="#AFF1FF"/>
<path opacity="0.25" d="M292.455 263.685C292.455 265.889 290.665 267.709 288.428 267.709C286.222 267.709 284.4 265.921 284.4 263.685C284.4 261.45 286.19 259.661 288.428 259.661C290.633 259.661 292.455 261.482 292.455 263.685Z" fill="#AFF1FF"/>
<path opacity="0.5" d="M682 255.861C682 262.887 676.278 268.571 669.246 268.571C662.214 268.571 656.493 262.887 656.493 255.861C656.493 248.836 662.214 243.151 669.246 243.151C676.278 243.151 682 248.836 682 255.861Z" fill="#AFF1FF"/>
<path opacity="0.5" d="M645.049 338.572C641.536 338.572 638.688 335.727 638.688 332.217C638.688 328.707 641.536 325.862 645.049 325.862C648.562 325.862 651.41 328.707 651.41 332.217C651.41 335.727 648.562 338.572 645.049 338.572Z" fill="#AFF1FF"/>
<path opacity="0.5" d="M480.627 220.222C480.627 223.735 477.782 226.577 474.266 226.577C470.75 226.577 467.905 223.735 467.905 220.222C467.905 216.709 470.75 213.867 474.266 213.867C477.75 213.867 480.627 216.709 480.627 220.222Z" fill="#AFF1FF"/>
<path opacity="0.85" d="M580.034 305.488C576.521 305.488 573.673 302.642 573.673 299.133C573.673 295.623 576.521 292.778 580.034 292.778C583.547 292.778 586.395 295.623 586.395 299.133C586.395 302.642 583.547 305.488 580.034 305.488Z" fill="#AFF1FF"/>
<path opacity="0.2" d="M483.152 334.74C483.152 337.55 480.883 339.817 478.038 339.817C475.225 339.817 472.924 337.55 472.924 334.74C472.924 331.929 475.193 329.662 478.038 329.662C480.883 329.662 483.152 331.929 483.152 334.74Z" fill="#AFF1FF"/>
<path opacity="0.2" d="M620.821 268.603C618.702 268.603 616.985 266.887 616.985 264.771C616.985 262.654 618.702 260.939 620.821 260.939C622.939 260.939 624.656 262.654 624.656 264.771C624.656 266.887 622.939 268.603 620.821 268.603Z" fill="#AFF1FF"/>
<path opacity="0.2" d="M599.151 300.41C597.032 300.41 595.315 298.694 595.315 296.578C595.315 294.461 597.032 292.745 599.151 292.745C601.269 292.745 602.986 294.461 602.986 296.578C602.986 298.694 601.269 300.41 599.151 300.41Z" fill="#AFF1FF"/>
<path opacity="0.2" d="M580.033 257.138C577.915 257.138 576.198 255.423 576.198 253.306C576.198 251.19 577.915 249.474 580.033 249.474C582.152 249.474 583.869 251.19 583.869 253.306C583.869 255.423 582.152 257.138 580.033 257.138Z" fill="#AFF1FF"/>
<path opacity="0.5" d="M395.219 455.645C395.219 459.158 392.374 462 388.858 462C385.342 462 382.497 459.158 382.497 455.645C382.497 452.132 385.342 449.29 388.858 449.29C392.374 449.258 395.219 452.132 395.219 455.645Z" fill="#AFF1FF"/>
<path opacity="0.2" d="M415.612 309.958C413.493 309.958 411.776 308.243 411.776 306.126C411.776 304.01 413.493 302.294 415.612 302.294C417.73 302.294 419.447 304.01 419.447 306.126C419.447 308.243 417.73 309.958 415.612 309.958Z" fill="#AFF1FF"/>
<path opacity="0.2" d="M399.66 373.572C399.66 375.68 397.934 377.405 395.824 377.405C393.715 377.405 391.989 375.68 391.989 373.572C391.989 371.465 393.715 369.74 395.824 369.74C397.966 369.74 399.66 371.465 399.66 373.572Z" fill="#AFF1FF"/>
<path opacity="0.2" d="M420.055 358.308C417.937 358.308 416.219 356.592 416.219 354.475C416.219 352.359 417.937 350.643 420.055 350.643C422.173 350.643 423.891 352.359 423.891 354.475C423.891 356.592 422.173 358.308 420.055 358.308Z" fill="#AFF1FF"/>
<path opacity="0.5" d="M400.301 194.802C400.301 197.612 398.031 199.879 395.187 199.879C392.374 199.879 390.072 197.612 390.072 194.802C390.072 191.992 392.342 189.724 395.187 189.724C398.031 189.692 400.301 191.992 400.301 194.802Z" fill="#AFF1FF"/>
<path opacity="0.2" d="M442.365 248.229C442.365 251.039 440.096 253.306 437.251 253.306C434.406 253.306 432.137 251.039 432.137 248.229C432.137 245.418 434.406 243.151 437.251 243.151C440.096 243.151 442.365 245.418 442.365 248.229Z" fill="#AFF1FF"/>
</g>
</g>
<defs>
<linearGradient id="paint0_linear" x1="796.5" y1="828" x2="796.5" y2="6.88044e-07" gradientUnits="userSpaceOnUse">
<stop stop-color="#000051"/>
<stop offset="1"/>
</linearGradient>
<clipPath id="clip0">
<rect width="1440" height="5730" fill="white"/>
</clipPath>
<clipPath id="clip1">
<rect width="761" height="274" fill="white" transform="matrix(-1 0 0 1 1411 360)"/>
</clipPath>
<clipPath id="clip2">
<rect width="761" height="274" fill="white" transform="matrix(-1 0 0 1 682 188)"/>
</clipPath>
</defs>
</svg>
