<svg width="304" height="303" viewBox="0 0 304 303" fill="none" xmlns="http://www.w3.org/2000/svg">
<path d="M227.276 227.25C269.116 185.414 269.116 117.586 227.276 75.75C185.435 33.9144 117.599 33.9144 75.7586 75.75C33.9183 117.586 33.9183 185.414 75.7586 227.25C117.599 269.086 185.435 269.086 227.276 227.25Z" fill="white"/>
<path d="M169.895 224.837C178.277 217.817 179.379 205.332 172.358 196.952C165.337 188.571 152.851 187.469 144.47 194.489C136.088 201.51 134.986 213.994 142.007 222.375C149.028 230.755 161.514 231.857 169.895 224.837Z" fill="#EBEBEB"/>
<path d="M138.866 211.528C138.866 200.591 147.736 191.734 158.662 191.734C164.405 191.734 169.55 194.188 173.163 198.087C169.562 193.129 163.744 189.891 157.142 189.891C146.203 189.891 137.346 198.76 137.346 209.684C137.346 214.879 139.364 219.6 142.64 223.125C140.286 219.861 138.866 215.863 138.866 211.528Z" fill="#DFDFDF"/>
<path d="M116.06 134.144C117.017 119.094 105.592 106.117 90.5401 105.16C75.4883 104.202 62.5101 115.626 61.5524 130.676C60.5947 145.726 72.0202 158.703 87.0719 159.661C102.124 160.618 115.102 149.194 116.06 134.144Z" fill="#EBEBEB"/>
<path d="M63.5932 134.969C63.5932 119.884 75.8146 107.664 90.9014 107.664C98.8124 107.664 105.913 111.052 110.909 116.421C105.951 109.583 97.9154 105.123 88.821 105.123C73.7341 105.123 61.5127 117.343 61.5127 132.428C61.5127 139.591 64.3033 146.093 68.8132 150.976C65.5492 146.467 63.5932 140.949 63.5932 134.969Z" fill="#DFDFDF"/>
<path d="M207.298 106.081C213.711 106.081 218.909 100.883 218.909 94.471C218.909 88.0592 213.711 82.8613 207.298 82.8613C200.886 82.8613 195.688 88.0592 195.688 94.471C195.688 100.883 200.886 106.081 207.298 106.081Z" fill="#EBEBEB"/>
<path d="M196.582 95.543C196.582 89.1278 201.777 83.9333 208.193 83.9333C211.556 83.9333 214.584 85.3783 216.702 87.6579C214.596 84.7555 211.17 82.8496 207.308 82.8496C200.892 82.8496 195.697 88.0441 195.697 94.4593C195.697 97.5112 196.881 100.277 198.799 102.344C197.404 100.438 196.582 98.0966 196.582 95.543Z" fill="#DFDFDF"/>
<path d="M154.401 75.6909C156.241 67.9394 151.448 60.1643 143.695 58.3248C135.943 56.4853 128.167 61.278 126.327 69.0295C124.487 76.7811 129.281 84.5561 137.033 86.3956C144.785 88.2351 152.561 83.4425 154.401 75.6909Z" fill="#EBEBEB"/>
<path d="M127.031 73.7192C127.031 65.7469 133.497 59.2943 141.457 59.2943C145.643 59.2943 149.393 61.0881 152.034 63.9282C149.406 60.3157 145.17 57.9614 140.361 57.9614C132.388 57.9614 125.935 64.4265 125.935 72.3863C125.935 76.1731 127.405 79.6112 129.797 82.1897C128.065 79.798 127.031 76.8832 127.031 73.7192Z" fill="#DFDFDF"/>
<path d="M161.539 68.3253C157.814 68.3253 154.787 65.2984 154.787 61.5738C154.787 57.8492 157.814 54.8223 161.539 54.8223C165.264 54.8223 168.292 57.8492 168.292 61.5738C168.279 65.2984 165.264 68.3253 161.539 68.3253Z" fill="#EBEBEB"/>
<path d="M155.31 62.2088C155.31 58.4843 158.337 55.4573 162.062 55.4573C164.018 55.4573 165.774 56.2919 167.008 57.6248C165.787 55.9307 163.794 54.8345 161.551 54.8345C157.826 54.8345 154.799 57.8615 154.799 61.586C154.799 63.3549 155.484 64.9618 156.605 66.1701C155.783 65.049 155.31 63.6787 155.31 62.2088Z" fill="#DFDFDF"/>
<path d="M54.7611 158.25C51.0361 158.25 48.0088 155.223 48.0088 151.499C48.0088 147.774 51.0361 144.747 54.7611 144.747C58.486 144.747 61.5133 147.774 61.5133 151.499C61.5133 155.223 58.486 158.25 54.7611 158.25Z" fill="#EBEBEB"/>
<path d="M48.5303 152.121C48.5303 148.397 51.5576 145.37 55.2826 145.37C57.2385 145.37 58.9951 146.204 60.2285 147.537C59.0076 145.843 57.0143 144.747 54.7718 144.747C51.0468 144.747 48.0195 147.774 48.0195 151.499C48.0195 153.267 48.7047 154.874 49.8259 156.083C49.0037 154.974 48.5303 153.604 48.5303 152.121Z" fill="#DFDFDF"/>
<path d="M92.3097 102.357C90.441 102.357 88.9336 100.85 88.9336 98.9812C88.9336 97.1127 90.441 95.6055 92.3097 95.6055C94.1785 95.6055 95.6859 97.1127 95.6859 98.9812C95.6859 100.837 94.1785 102.357 92.3097 102.357Z" fill="#EBEBEB"/>
<path d="M89.1952 99.2927C89.1952 97.4241 90.7026 95.9169 92.5714 95.9169C93.5431 95.9169 94.4276 96.3404 95.0381 97.0006C94.4276 96.1536 93.431 95.6055 92.3097 95.6055C90.441 95.6055 88.9336 97.1127 88.9336 98.9812C88.9336 99.8657 89.2824 100.675 89.8306 101.273C89.4319 100.713 89.1952 100.028 89.1952 99.2927Z" fill="#DFDFDF"/>
<path d="M68.6271 164.989C66.7584 164.989 65.251 163.482 65.251 161.614C65.251 159.745 66.7584 158.238 68.6271 158.238C70.4959 158.238 72.0033 159.745 72.0033 161.614C72.0033 163.482 70.4959 164.989 68.6271 164.989Z" fill="#EBEBEB"/>
<path d="M65.5126 161.937C65.5126 160.068 67.02 158.561 68.8888 158.561C69.8605 158.561 70.745 158.984 71.3554 159.645C70.745 158.798 69.7483 158.25 68.6271 158.25C66.7584 158.25 65.251 159.757 65.251 161.625C65.251 162.51 65.5998 163.319 66.148 163.917C65.7493 163.357 65.5126 162.672 65.5126 161.937Z" fill="#DFDFDF"/>
<path d="M183.752 207.268C181.883 207.268 180.376 205.76 180.376 203.892C180.376 202.023 181.883 200.516 183.752 200.516C185.621 200.516 187.128 202.023 187.128 203.892C187.128 205.76 185.608 207.268 183.752 207.268Z" fill="#EBEBEB"/>
<path d="M180.638 204.203C180.638 202.335 182.145 200.828 184.014 200.828C184.985 200.828 185.87 201.251 186.48 201.911C185.87 201.064 184.873 200.516 183.752 200.516C181.883 200.516 180.376 202.023 180.376 203.892C180.376 204.776 180.725 205.586 181.273 206.184C180.874 205.623 180.638 204.938 180.638 204.203Z" fill="#DFDFDF"/>
<path d="M206.201 114.241C204.333 114.241 202.825 112.734 202.825 110.865C202.825 108.997 204.333 107.489 206.201 107.489C208.07 107.489 209.578 108.997 209.578 110.865C209.565 112.734 208.058 114.241 206.201 114.241Z" fill="#EBEBEB"/>
<path d="M203.075 111.189C203.075 109.321 204.583 107.813 206.451 107.813C207.423 107.813 208.308 108.237 208.918 108.897C208.308 108.05 207.311 107.502 206.19 107.502C204.321 107.502 202.813 109.009 202.813 110.878C202.813 111.762 203.162 112.572 203.71 113.17C203.324 112.609 203.075 111.924 203.075 111.189Z" fill="#DFDFDF"/>
<path d="M238.979 141.77C235.254 141.77 232.227 138.743 232.227 135.019C232.227 131.294 235.254 128.267 238.979 128.267C242.704 128.267 245.731 131.294 245.731 135.019C245.731 138.756 242.716 141.77 238.979 141.77Z" fill="#EBEBEB"/>
<path d="M232.749 135.653C232.749 131.929 235.776 128.902 239.501 128.902C241.457 128.902 243.214 129.736 244.447 131.069C243.226 129.375 241.233 128.279 238.991 128.279C235.266 128.279 232.238 131.306 232.238 135.03C232.238 136.799 232.923 138.406 234.045 139.614C233.235 138.493 232.749 137.136 232.749 135.653Z" fill="#DFDFDF"/>
<path d="M195.688 238.683C191.963 238.683 188.936 235.656 188.936 231.932C188.936 228.207 191.963 225.18 195.688 225.18C199.413 225.18 202.44 228.207 202.44 231.932C202.44 235.669 199.425 238.683 195.688 238.683Z" fill="#EBEBEB"/>
<path d="M189.457 232.566C189.457 228.842 192.484 225.815 196.209 225.815C198.165 225.815 199.922 226.649 201.155 227.982C199.934 226.288 197.941 225.192 195.699 225.192C191.974 225.192 188.946 228.219 188.946 231.943C188.946 233.712 189.632 235.319 190.753 236.527C189.943 235.406 189.457 234.049 189.457 232.566Z" fill="#DFDFDF"/>
<path d="M184.787 196.156C190.807 196.156 195.687 191.276 195.687 185.257C195.687 179.237 190.807 174.357 184.787 174.357C178.766 174.357 173.886 179.237 173.886 185.257C173.886 191.276 178.766 196.156 184.787 196.156Z" fill="#EBEBEB"/>
<path d="M174.72 186.266C174.72 180.249 179.604 175.366 185.621 175.366C188.786 175.366 191.614 176.711 193.607 178.866C191.626 176.138 188.424 174.357 184.787 174.357C178.769 174.357 173.886 179.24 173.886 185.257C173.886 188.122 174.995 190.713 176.801 192.656C175.505 190.862 174.72 188.657 174.72 186.266Z" fill="#DFDFDF"/>
<path d="M117.575 225.193C123.595 225.193 128.476 220.313 128.476 214.293C128.476 208.273 123.595 203.394 117.575 203.394C111.554 203.394 106.674 208.273 106.674 214.293C106.674 220.313 111.554 225.193 117.575 225.193Z" fill="#EBEBEB"/>
<path d="M107.509 215.302C107.509 209.286 112.392 204.403 118.409 204.403C121.574 204.403 124.402 205.748 126.395 207.903C124.414 205.175 121.212 203.394 117.575 203.394C111.557 203.394 106.674 208.277 106.674 214.293C106.674 217.158 107.783 219.749 109.589 221.692C108.281 219.899 107.509 217.694 107.509 215.302Z" fill="#DFDFDF"/>
<path opacity="0.2" d="M127.878 217.358C99.8969 217.233 74.0089 208.302 52.8301 193.216C69.0256 231.483 106.849 258.427 151.037 258.627C210.214 258.901 258.402 211.154 258.663 151.985C258.713 141.384 257.193 131.145 254.378 121.466C239.116 176.973 188.188 217.632 127.878 217.358Z" fill="#B8B8B8"/>
<path opacity="0.2" d="M136.76 236.628C110.262 236.503 85.6445 228.494 65.126 214.829C84.5233 241.249 115.743 258.464 151.037 258.614C209.316 258.875 256.906 212.561 258.588 154.638C239.228 202.907 191.912 236.877 136.76 236.628Z" fill="#B8B8B8"/>
</svg>
