<svg width="100%" viewBox="0 0 1440 428" fill="none" xmlns="http://www.w3.org/2000/svg">
<path opacity="0.05" d="M-126 121.292C-126 121.292 181.681 187.081 353.638 136.162C501.839 92.2897 867.412 99.2358 1012.22 136.162C1157.03 173.089 1565.02 136.581 1565.02 136.581V61.9502C1565.02 61.9502 1210.85 104.406 1092.11 79.6549C973.373 54.9042 599.456 71.092 465.029 83.108C330.581 95.144 56.936 97.5791 -42.8763 77.2397L-126 121.292Z" fill="white"/>
<path opacity="0.5" d="M532.063 176.801C527.93 176.801 523.858 177.101 519.866 177.659C500.103 136.981 458.401 108.916 410.132 108.916C382.664 108.916 357.311 117.998 336.93 133.328C323.774 101.312 292.294 78.7367 255.523 78.7367C253.586 78.7367 251.67 78.8165 249.773 78.9363C219.111 41.95 172.818 18.397 121.016 18.397C28.6893 18.397 -46.1699 93.2477 -46.1699 185.564C-46.1699 277.88 28.6893 352.73 121.016 352.73H532.063C580.651 352.73 620.057 313.329 620.057 264.746C620.057 216.203 580.651 176.801 532.063 176.801Z" fill="#1A237E"/>
<path opacity="0.5" d="M1380.09 50.7522C1373.26 50.7522 1366.57 51.2712 1360.01 52.2093C1329.84 20.5524 1285.81 0.572266 1236.74 0.572266C1160.58 0.572266 1096.52 48.6564 1077.72 113.926C1025.59 122.03 984.612 163.707 977.565 216.162C970.678 214.206 963.431 213.128 955.906 213.128C912.407 213.128 877.134 248.398 877.134 291.891C877.134 335.385 912.407 370.654 955.906 370.654H1521.18V191.851C1521.18 113.926 1458 50.7522 1380.09 50.7522Z" fill="#1A237E"/>
<path d="M939.057 221.971C938.319 221.971 937.58 222.011 936.862 222.031C931.671 201.99 917.658 185.523 899.232 176.96C878.851 136.361 833.216 108.098 780.156 108.098C731.428 108.098 688.928 131.97 666.55 167.34C645.17 168.737 627.224 182.629 619.938 201.791C615.226 200.992 610.375 200.553 605.425 200.553C559.491 200.553 522.241 236.142 522.241 280.035C522.241 283.528 522.501 286.961 522.96 290.334L522.241 290.734V359.496H939.057C977.046 359.496 1007.83 328.718 1007.83 290.734C1007.83 252.769 977.046 221.971 939.057 221.971Z" fill="#1A237E"/>
<path d="M1458.24 132.03L1456.66 128.816L1459.12 129.515L1453.85 119.555L1455.67 119.994L1450.91 112.03L1446.08 120.293L1447.86 120.134L1443.21 129.535C1425.32 126.9 1402.05 124.665 1372.24 125.024L1367.25 115.623L1369.07 116.062L1364.32 108.098L1359.49 116.361L1361.26 116.201L1356.69 125.443C1307.01 127.439 1241.15 136.601 1154.87 161.192L1148.88 149.415L1150.98 149.934L1145.53 140.393L1139.98 150.294L1142.04 150.094L1136.39 162.01L1139.74 160.892L1135.89 169.495C1089.08 190.833 1048.25 215.224 1007.79 235.823L1001.94 224.326L1004.04 224.845L998.585 215.304L993.036 225.204L995.092 225.005L989.443 236.921L992.796 235.803L988.544 245.284C987.047 246.003 985.53 246.701 984.033 247.4L980.18 239.815L982.276 240.334L976.826 230.793L971.277 240.693L973.333 240.494L967.683 252.41L971.037 251.292L969.959 253.707C952.033 261.432 933.827 268.019 914.863 272.869L912.707 268.238L915.542 269.077L909.493 257.16L911.589 257.679L906.139 248.138L900.59 258.039L902.646 257.839L896.996 269.755L900.35 268.638L896.637 276.921C877.793 280.514 858.109 282.33 837.129 281.791C775.245 280.254 687.091 266.202 595.943 241.811L592.908 235.344L595.743 236.182L589.694 224.266L591.79 224.785L586.341 215.244L580.791 225.144L582.847 224.945L577.298 236.661C547.035 228.118 516.612 218.478 486.868 207.779L485.251 204.306L488.085 205.144L482.037 193.228L484.133 193.747L478.683 184.206L473.134 194.106L475.19 193.907L471.337 202.05C469.261 201.272 467.185 200.493 465.129 199.715L463.072 195.324L465.907 196.162L459.858 184.246L461.955 184.765L456.505 175.224L450.955 185.124L453.011 184.924L448.979 193.428C405.161 176.841 350.724 164.505 307.106 156.322L304.471 150.693L307.305 151.531L301.257 139.615L303.353 140.134L297.903 130.593L292.353 140.493L294.41 140.293L288.76 152.21L292.114 151.092L291.096 153.387C238.295 147.499 192.082 144.046 152.556 142.13L150.36 137.619L152.816 138.317L147.546 128.357L149.362 128.796L144.611 120.832L139.78 129.096L141.557 128.936L136.646 138.896L139.581 137.958L137.944 141.471C103.888 140.094 75.2817 139.874 52.2051 140.234L50.9275 137.619L53.3829 138.317L48.1128 128.357L49.9293 128.796L45.1783 120.832L40.3474 129.096L42.124 128.936L37.2133 138.896L40.1478 137.958L38.97 140.493C34.5383 140.613 30.3462 140.753 26.4136 140.892L23.5789 135.064L26.0343 135.763L20.7642 125.802L22.5808 126.241L17.8297 118.277L12.9988 126.541L14.7755 126.381L9.86469 136.341L12.7992 135.403L9.88465 141.651C-9.53882 142.729 -19.3604 143.986 -19.3604 143.986V427.84L1477.82 427.82V135.743C1472.63 134.824 1466.17 133.467 1458.24 132.03ZM579.873 237.46C579.134 237.26 578.376 237.041 577.637 236.821L580.611 235.823L579.873 237.46ZM1005.89 236.821L1005.23 235.404L1007.41 236.043C1006.91 236.302 1006.39 236.562 1005.89 236.821ZM1152.92 162.03L1152.2 160.473L1154.79 161.252C1154.15 161.511 1153.53 161.771 1152.92 162.03ZM1370.73 125.044C1370.55 125.044 1370.37 125.044 1370.19 125.044L1370.09 124.844L1370.73 125.044ZM1359.33 125.224L1359.27 125.343C1359.15 125.343 1359.03 125.343 1358.91 125.363L1359.33 125.224ZM1445.9 129.156L1445.56 129.894C1445.13 129.834 1444.69 129.754 1444.25 129.695L1445.9 129.156Z" fill="#283593"/>
<path opacity="0.1" d="M264.167 166.88C264.227 166.9 264.267 166.92 264.267 166.92C264.227 166.88 264.187 166.841 264.167 166.801C263.548 161.172 261.192 160.214 261.192 160.214C261.731 162.769 263.328 165.523 263.947 166.541C260.494 162.509 258.118 162.948 258.118 162.948C260.174 165.004 263.508 166.581 264.167 166.88C264.187 166.92 264.207 166.94 264.207 166.94C264.187 166.9 264.167 166.88 264.167 166.88Z" fill="white"/>
<path opacity="0.1" d="M249.335 211.312C249.395 211.332 249.435 211.352 249.435 211.352C249.395 211.312 249.355 211.272 249.335 211.232C248.716 205.603 246.36 204.645 246.36 204.645C246.899 207.2 248.496 209.955 249.115 210.973C245.662 206.941 243.286 207.38 243.286 207.38C245.342 209.436 248.676 211.013 249.335 211.312C249.355 211.352 249.375 211.372 249.375 211.372C249.335 211.332 249.335 211.332 249.335 211.312Z" fill="white"/>
<path opacity="0.1" d="M344.815 207.959C344.875 207.979 344.915 207.999 344.915 207.999C344.875 207.959 344.835 207.919 344.815 207.879C344.196 202.25 341.841 201.292 341.841 201.292C342.38 203.847 343.977 206.601 344.596 207.619C341.142 203.587 338.767 204.026 338.767 204.026C340.823 206.082 344.156 207.659 344.815 207.959C344.835 207.999 344.855 208.018 344.855 208.018C344.815 207.979 344.815 207.979 344.815 207.959Z" fill="white"/>
<path opacity="0.1" d="M300.359 242.031C300.419 242.051 300.459 242.071 300.459 242.071C300.419 242.031 300.379 241.991 300.359 241.951C299.74 236.322 297.385 235.364 297.385 235.364C297.924 237.919 299.521 240.674 300.14 241.692C296.686 237.66 294.311 238.099 294.311 238.099C296.367 240.155 299.7 241.732 300.359 242.031C300.379 242.071 300.399 242.091 300.399 242.091C300.359 242.071 300.359 242.051 300.359 242.031Z" fill="white"/>
<path opacity="0.1" d="M401.948 271.272C402.008 271.292 402.048 271.312 402.048 271.312C402.008 271.272 401.968 271.233 401.948 271.193C401.329 265.564 398.974 264.606 398.974 264.606C399.513 267.161 401.11 269.915 401.728 270.933C398.275 266.901 395.899 267.34 395.899 267.34C397.956 269.396 401.289 270.973 401.948 271.272C401.968 271.312 401.988 271.332 401.988 271.332C401.968 271.292 401.968 271.292 401.948 271.272Z" fill="white"/>
<path opacity="0.1" d="M501.801 297.6C501.861 297.62 501.901 297.64 501.901 297.64C501.861 297.6 501.821 297.56 501.801 297.52C501.182 291.891 498.826 290.933 498.826 290.933C499.365 293.488 500.962 296.243 501.581 297.261C498.128 293.229 495.752 293.668 495.752 293.668C497.808 295.724 501.142 297.3 501.801 297.6C501.821 297.64 501.841 297.66 501.841 297.66C501.821 297.64 501.821 297.62 501.801 297.6Z" fill="white"/>
<path opacity="0.1" d="M431.991 252.829C432.051 252.849 432.091 252.869 432.091 252.869C432.051 252.829 432.011 252.789 431.991 252.749C431.372 247.121 429.017 246.163 429.017 246.163C429.556 248.718 431.153 251.472 431.771 252.49C428.318 248.458 425.942 248.897 425.942 248.897C427.998 250.953 431.332 252.53 431.991 252.829C432.011 252.869 432.031 252.889 432.031 252.889C431.991 252.849 431.991 252.849 431.991 252.829Z" fill="white"/>
<path opacity="0.1" d="M517.83 257.141C517.89 257.161 517.93 257.181 517.93 257.181C517.89 257.141 517.85 257.101 517.83 257.061C517.211 251.432 514.855 250.474 514.855 250.474C515.394 253.029 516.991 255.783 517.61 256.801C514.157 252.769 511.781 253.208 511.781 253.208C513.837 255.264 517.171 256.841 517.83 257.141C517.85 257.181 517.87 257.201 517.87 257.201C517.83 257.161 517.83 257.161 517.83 257.141Z" fill="white"/>
<path opacity="0.1" d="M580.612 257.141C580.672 257.161 580.712 257.181 580.712 257.181C580.672 257.141 580.632 257.101 580.612 257.061C579.993 251.432 577.638 250.474 577.638 250.474C578.177 253.029 579.774 255.783 580.393 256.801C576.939 252.769 574.563 253.208 574.563 253.208C576.62 255.264 579.953 256.841 580.612 257.141C580.632 257.181 580.652 257.201 580.652 257.201C580.612 257.161 580.612 257.161 580.612 257.141Z" fill="white"/>
<path opacity="0.1" d="M629.38 313.169C629.44 313.189 629.479 313.209 629.479 313.209C629.44 313.169 629.4 313.129 629.38 313.089C628.761 307.46 626.405 306.502 626.405 306.502C626.944 309.057 628.541 311.812 629.16 312.83C625.707 308.798 623.331 309.237 623.331 309.237C625.387 311.293 628.721 312.869 629.38 313.169C629.4 313.209 629.42 313.229 629.42 313.229C629.38 313.209 629.38 313.189 629.38 313.169Z" fill="white"/>
<path opacity="0.1" d="M729.292 301.053C729.232 301.073 729.192 301.093 729.192 301.093C729.232 301.053 729.272 301.013 729.292 300.973C729.911 295.344 732.267 294.386 732.267 294.386C731.728 296.941 730.131 299.696 729.512 300.714C732.965 296.682 735.341 297.121 735.341 297.121C733.285 299.177 729.951 300.754 729.292 301.053C729.272 301.093 729.252 301.113 729.252 301.113C729.272 301.073 729.292 301.073 729.292 301.053Z" fill="white"/>
<path opacity="0.1" d="M762.031 335.025C761.971 335.045 761.931 335.065 761.931 335.065C761.971 335.025 762.011 334.985 762.031 334.945C762.649 329.317 765.005 328.359 765.005 328.359C764.466 330.914 762.869 333.668 762.25 334.686C765.704 330.654 768.079 331.093 768.079 331.093C766.023 333.149 762.689 334.726 762.031 335.025C762.011 335.065 761.991 335.085 761.991 335.085C762.03 335.045 762.031 335.045 762.031 335.025Z" fill="white"/>
<path opacity="0.1" d="M837.389 309.816C837.329 309.836 837.289 309.856 837.289 309.856C837.329 309.816 837.369 309.776 837.389 309.736C838.008 304.107 840.363 303.149 840.363 303.149C839.824 305.704 838.227 308.458 837.608 309.476C841.062 305.444 843.438 305.883 843.438 305.883C841.381 307.939 838.048 309.516 837.389 309.816C837.369 309.856 837.349 309.876 837.349 309.876C837.389 309.856 837.389 309.836 837.389 309.816Z" fill="white"/>
<path opacity="0.1" d="M1207.29 185.563C1207.23 185.583 1207.19 185.603 1207.19 185.603C1207.23 185.563 1207.27 185.523 1207.29 185.484C1207.91 179.855 1210.27 178.897 1210.27 178.897C1209.73 181.452 1208.13 184.206 1207.51 185.224C1210.97 181.192 1213.34 181.631 1213.34 181.631C1211.29 183.687 1207.95 185.264 1207.29 185.563C1207.27 185.603 1207.25 185.623 1207.25 185.623C1207.27 185.583 1207.29 185.563 1207.29 185.563Z" fill="white"/>
<path opacity="0.1" d="M1222.17 152.609C1222.11 152.629 1222.07 152.649 1222.07 152.649C1222.11 152.609 1222.15 152.569 1222.17 152.529C1222.78 146.9 1225.14 145.942 1225.14 145.942C1224.6 148.497 1223 151.252 1222.38 152.27C1225.84 148.238 1228.21 148.677 1228.21 148.677C1226.16 150.733 1222.82 152.31 1222.17 152.609C1222.15 152.649 1222.13 152.669 1222.13 152.669C1222.17 152.629 1222.17 152.629 1222.17 152.609Z" fill="white"/>
<path opacity="0.1" d="M1113.85 205.883C1113.79 205.903 1113.75 205.923 1113.75 205.923C1113.79 205.883 1113.83 205.843 1113.85 205.803C1114.47 200.174 1116.82 199.216 1116.82 199.216C1116.28 201.771 1114.69 204.525 1114.07 205.543C1117.52 201.511 1119.9 201.951 1119.9 201.951C1117.84 204.007 1114.51 205.583 1113.85 205.883C1113.83 205.923 1113.81 205.943 1113.81 205.943C1113.85 205.923 1113.85 205.903 1113.85 205.883Z" fill="white"/>
<path opacity="0.1" d="M1162.96 236.781C1162.9 236.801 1162.86 236.821 1162.86 236.821C1162.9 236.781 1162.94 236.741 1162.96 236.701C1163.58 231.073 1165.93 230.115 1165.93 230.115C1165.39 232.669 1163.8 235.424 1163.18 236.442C1166.63 232.41 1169.01 232.849 1169.01 232.849C1166.95 234.905 1163.62 236.482 1162.96 236.781C1162.94 236.821 1162.92 236.841 1162.92 236.841C1162.96 236.801 1162.96 236.801 1162.96 236.781Z" fill="white"/>
<path opacity="0.1" d="M1013.3 286.043C1013.24 286.063 1013.2 286.083 1013.2 286.083C1013.24 286.043 1013.28 286.003 1013.3 285.963C1013.92 280.334 1016.27 279.376 1016.27 279.376C1015.73 281.931 1014.14 284.686 1013.52 285.704C1016.97 281.672 1019.35 282.111 1019.35 282.111C1017.29 284.167 1013.96 285.744 1013.3 286.043C1013.28 286.083 1013.26 286.103 1013.26 286.103C1013.3 286.063 1013.3 286.043 1013.3 286.043Z" fill="white"/>
<path opacity="0.1" d="M1019.47 247.56C1019.41 247.58 1019.37 247.6 1019.37 247.6C1019.41 247.56 1019.45 247.52 1019.47 247.48C1020.08 241.851 1022.44 240.893 1022.44 240.893C1021.9 243.448 1020.3 246.202 1019.69 247.22C1023.14 243.189 1025.51 243.628 1025.51 243.628C1023.46 245.684 1020.12 247.26 1019.47 247.56C1019.45 247.6 1019.43 247.62 1019.43 247.62C1019.47 247.58 1019.47 247.58 1019.47 247.56Z" fill="white"/>
<path opacity="0.1" d="M1068.83 254.286C1068.77 254.306 1068.73 254.326 1068.73 254.326C1068.77 254.286 1068.81 254.246 1068.83 254.206C1069.45 248.578 1071.81 247.62 1071.81 247.62C1071.27 250.175 1069.67 252.929 1069.05 253.947C1072.51 249.915 1074.88 250.354 1074.88 250.354C1072.83 252.41 1069.49 253.987 1068.83 254.286C1068.81 254.326 1068.79 254.346 1068.79 254.346C1068.83 254.306 1068.83 254.286 1068.83 254.286Z" fill="white"/>
<path opacity="0.1" d="M923.806 301.053C923.746 301.073 923.706 301.093 923.706 301.093C923.746 301.053 923.786 301.013 923.806 300.973C924.425 295.344 926.78 294.386 926.78 294.386C926.241 296.941 924.644 299.696 924.025 300.714C927.479 296.682 929.854 297.121 929.854 297.121C927.798 299.177 924.465 300.754 923.806 301.053C923.786 301.093 923.766 301.113 923.766 301.113C923.786 301.073 923.806 301.073 923.806 301.053Z" fill="white"/>
<path opacity="0.1" d="M949.957 279.316C949.897 279.336 949.857 279.356 949.857 279.356C949.897 279.316 949.937 279.276 949.957 279.237C950.576 273.608 952.932 272.65 952.932 272.65C952.393 275.205 950.796 277.959 950.177 278.977C953.63 274.945 956.006 275.384 956.006 275.384C953.95 277.44 950.616 279.017 949.957 279.316C949.937 279.356 949.917 279.376 949.917 279.376C949.937 279.336 949.957 279.336 949.957 279.316Z" fill="white"/>
<path opacity="0.1" d="M420.013 204.585C420.073 204.605 420.113 204.625 420.113 204.625C420.073 204.585 420.033 204.546 420.013 204.506C419.395 198.877 417.039 197.919 417.039 197.919C417.578 200.474 419.175 203.228 419.794 204.246C416.34 200.214 413.965 200.653 413.965 200.653C416.021 202.709 419.355 204.286 420.013 204.585C420.033 204.625 420.053 204.645 420.053 204.645C420.013 204.625 420.013 204.605 420.013 204.585Z" fill="white"/>
<path d="M337.488 220.074L326.169 239.496L330.361 239.097L318.823 262.45L325.69 260.254L316.068 280.853H361.403L350.963 259.416L356.732 261.073L344.375 237.719L348.627 238.757L337.488 220.074Z" fill="#3949AB"/>
<path d="M-0.875748 160.194L-12.2144 179.615L-8.02231 179.216L-19.5606 202.569L-12.6935 200.374L-22.3154 220.973H23.0193L12.5789 199.535L18.3481 201.192L5.99134 177.839L10.2433 178.877L-0.875748 160.194Z" fill="#052B2F"/>
<path d="M263.028 211.691L251.709 231.113L255.882 230.713L244.343 254.067L251.21 251.871L241.608 272.47H286.923L276.503 251.033L282.272 252.69L269.895 229.336L274.167 230.374L263.028 211.691Z" fill="#3949AB"/>
<path d="M21.7815 170.893L10.4428 190.294L14.6349 189.915L3.09661 213.268L9.9637 211.052L0.341797 231.671H45.6765L35.2362 210.234L41.0053 211.891L28.6486 188.537L32.9205 189.575L21.7815 170.893Z" fill="#3949AB"/>
<path d="M153.534 190.593L142.196 209.995L146.388 209.595L134.85 232.949L141.717 230.753L132.095 251.352H177.429L166.989 229.935L172.758 231.572L160.401 208.218L164.673 209.256L153.534 190.593Z" fill="#3949AB"/>
<path d="M1067.51 240.933L1056.18 260.334L1060.37 259.935L1048.83 283.288L1055.7 281.093L1046.08 301.692H1091.41L1080.97 280.274L1086.74 281.911L1074.38 258.578L1078.65 259.596L1067.51 240.933Z" fill="#3949AB"/>
<path d="M1187.75 205.604L1174.59 228.139L1179.46 227.679L1166.05 254.805L1174.03 252.25L1162.88 276.183H1215.52L1203.38 251.292L1210.09 253.209L1195.73 226.083L1200.68 227.28L1187.75 205.604Z" fill="#3949AB"/>
<path d="M1348.87 194.805L1335.72 217.36L1340.59 216.901L1327.17 244.007L1335.16 241.472L1324 265.384H1376.64L1364.5 240.514L1371.21 242.41L1356.86 215.304L1361.81 216.502L1348.87 194.805Z" fill="#3949AB"/>
<path d="M1414.49 194.805L1401.34 217.36L1406.21 216.901L1392.81 244.007L1400.78 241.472L1389.62 265.384H1442.26L1430.14 240.514L1436.83 242.41L1422.48 215.304L1427.43 216.502L1414.49 194.805Z" fill="#3949AB"/>
<path d="M1104.01 219.037L1090.85 241.572L1095.7 241.113L1082.31 268.238L1090.29 265.684L1079.11 289.616H1131.75L1119.64 264.725L1126.34 266.642L1111.97 239.516L1116.94 240.733L1104.01 219.037Z" fill="#3949AB"/>
<path d="M731.327 308.259L722.584 323.229L725.818 322.929L716.894 340.953L722.204 339.257L714.778 355.165H749.772L741.708 338.618L746.179 339.895L736.617 321.871L739.931 322.67L731.327 308.259Z" fill="#052B2F"/>
<path d="M705.376 317.46L696.632 332.431L699.866 332.131L690.943 350.155L696.253 348.459L688.827 364.367H723.821L715.757 347.82L720.228 349.097L710.666 331.073L713.98 331.872L705.376 317.46Z" fill="#052B2F"/>
<path d="M870.529 294L861.785 308.99L865.019 308.691L856.116 326.715L861.426 325.018L854 340.906H888.994L880.929 324.379L885.381 325.657L875.839 307.633L879.133 308.431L870.529 294Z" fill="#3949AB"/>
<path d="M-19.4004 211.691C-19.4004 211.691 342.459 261.253 478.384 300.634C631.096 344.886 793.351 352.63 929.994 335.724C1118.64 312.391 1228.25 358.359 1228.25 358.359V427.98H-19.4004V211.691Z" fill="#3949AB"/>
<path d="M1228.25 253.827C1139.4 260.314 1116.82 260.634 878.092 319.895C745.741 352.75 624.589 408.339 498.825 428H1228.25H1477.78V244.246C1477.78 244.246 1362.7 244.007 1228.25 253.827Z" fill="#3949AB"/>
<path opacity="0.1" d="M346.372 333.389C346.451 333.429 346.511 333.449 346.511 333.449C346.451 333.389 346.411 333.329 346.352 333.269C345.393 324.726 341.82 323.249 341.82 323.249C342.639 327.121 345.054 331.313 345.992 332.85C340.762 326.722 337.129 327.381 337.129 327.381C340.263 330.515 345.314 332.91 346.312 333.369C346.352 333.429 346.372 333.449 346.372 333.449C346.372 333.429 346.372 333.409 346.372 333.389Z" fill="white"/>
<path opacity="0.1" d="M487.586 398.299C487.666 398.339 487.726 398.359 487.726 398.359C487.666 398.299 487.626 398.239 487.566 398.179C486.608 389.637 483.035 388.159 483.035 388.159C483.853 392.032 486.269 396.223 487.207 397.76C481.977 391.632 478.344 392.291 478.344 392.291C481.478 395.425 486.528 397.82 487.527 398.279C487.566 398.339 487.586 398.359 487.586 398.359C487.606 398.339 487.586 398.319 487.586 398.299Z" fill="white"/>
<path opacity="0.1" d="M549.231 372.251C549.311 372.291 549.371 372.311 549.371 372.311C549.311 372.251 549.271 372.191 549.211 372.131C548.253 363.588 544.679 362.111 544.679 362.111C545.498 365.984 547.913 370.175 548.852 371.712C543.621 365.584 539.988 366.243 539.988 366.243C543.122 369.377 548.173 371.772 549.171 372.231C549.211 372.291 549.231 372.311 549.231 372.311C549.231 372.291 549.231 372.271 549.231 372.251Z" fill="white"/>
<path opacity="0.1" d="M634.011 382.99C634.091 383.03 634.151 383.05 634.151 383.05C634.091 382.99 634.051 382.93 633.991 382.87C633.033 374.327 629.46 372.85 629.46 372.85C630.278 376.722 632.694 380.914 633.632 382.451C628.402 376.323 624.769 376.982 624.769 376.982C627.903 380.116 632.953 382.511 633.951 382.97C633.991 383.03 634.011 383.05 634.011 383.05C634.011 383.03 634.011 383.01 634.011 382.99Z" fill="white"/>
<path opacity="0.1" d="M262.629 382.99C262.709 383.03 262.769 383.05 262.769 383.05C262.709 382.99 262.669 382.93 262.609 382.87C261.651 374.327 258.078 372.85 258.078 372.85C258.896 376.722 261.312 380.914 262.25 382.451C257.02 376.323 253.387 376.982 253.387 376.982C256.521 380.116 261.571 382.511 262.569 382.97C262.609 383.03 262.629 383.05 262.629 383.05C262.649 383.03 262.649 383.01 262.629 382.99Z" fill="white"/>
<path opacity="0.1" d="M22.8803 329.596C22.9602 329.636 23.0201 329.656 23.0201 329.656C22.9602 329.596 22.9202 329.536 22.8604 329.477C21.9022 320.934 18.3289 319.457 18.3289 319.457C19.1473 323.329 21.5628 327.52 22.501 329.057C17.2709 322.93 13.6377 323.588 13.6377 323.588C16.7718 326.722 21.8223 329.117 22.8204 329.576C22.8604 329.636 22.8803 329.656 22.8803 329.656C22.8803 329.636 22.8803 329.616 22.8803 329.596Z" fill="white"/>
<path opacity="0.1" d="M120.896 388.08C120.976 388.12 121.036 388.139 121.036 388.139C120.976 388.08 120.936 388.02 120.876 387.96C119.918 379.417 116.344 377.94 116.344 377.94C117.163 381.812 119.578 386.004 120.517 387.541C115.286 381.413 111.653 382.072 111.653 382.072C114.787 385.205 119.838 387.601 120.836 388.06C120.876 388.119 120.896 388.139 120.896 388.139C120.916 388.12 120.916 388.1 120.896 388.08Z" fill="white"/>
<path opacity="0.1" d="M195.875 338.499C195.955 338.538 196.015 338.558 196.015 338.558C195.955 338.499 195.915 338.439 195.855 338.379C194.897 329.836 191.324 328.359 191.324 328.359C192.142 332.231 194.558 336.423 195.496 337.96C190.266 331.832 186.633 332.49 186.633 332.49C189.767 335.624 194.817 338.019 195.816 338.479C195.855 338.538 195.875 338.558 195.875 338.558C195.895 338.538 195.875 338.518 195.875 338.499Z" fill="white"/>
<path opacity="0.1" d="M273.509 284.386C273.589 284.426 273.649 284.446 273.649 284.446C273.589 284.386 273.549 284.326 273.489 284.267C272.531 275.724 268.958 274.247 268.958 274.247C269.776 278.119 272.192 282.311 273.13 283.847C267.9 277.72 264.267 278.378 264.267 278.378C267.401 281.512 272.451 283.907 273.449 284.366C273.489 284.426 273.509 284.446 273.509 284.446C273.509 284.446 273.509 284.426 273.509 284.386Z" fill="white"/>
<path opacity="0.1" d="M116.205 272.989C116.284 273.029 116.344 273.049 116.344 273.049C116.284 272.989 116.244 272.929 116.185 272.869C115.226 264.326 111.653 262.849 111.653 262.849C112.472 266.722 114.887 270.913 115.825 272.45C110.595 266.322 106.962 266.981 106.962 266.981C110.096 270.115 115.147 272.51 116.145 272.969C116.185 273.029 116.205 273.049 116.205 273.049C116.225 273.029 116.225 273.009 116.205 272.989Z" fill="white"/>
<path opacity="0.1" d="M454.748 322.49C454.828 322.53 454.888 322.55 454.888 322.55C454.828 322.49 454.788 322.431 454.728 322.371C453.77 313.828 450.197 312.351 450.197 312.351C451.015 316.223 453.431 320.415 454.369 321.952C449.139 315.824 445.506 316.482 445.506 316.482C448.64 319.616 453.69 322.011 454.689 322.47C454.728 322.53 454.748 322.55 454.748 322.55C454.748 322.53 454.748 322.51 454.748 322.49Z" fill="white"/>
<path opacity="0.1" d="M346.372 403.389C346.451 403.429 346.511 403.449 346.511 403.449C346.451 403.389 346.411 403.329 346.352 403.269C345.393 394.727 341.82 393.25 341.82 393.25C342.639 397.122 345.054 401.313 345.992 402.85C340.762 396.723 337.129 397.381 337.129 397.381C340.263 400.515 345.314 402.91 346.312 403.369C346.352 403.429 346.372 403.449 346.372 403.449C346.372 403.429 346.372 403.409 346.372 403.389Z" fill="white"/>
<path opacity="0.1" d="M968.242 377.361C968.162 377.401 968.103 377.421 968.103 377.421C968.162 377.361 968.202 377.301 968.262 377.241C969.22 368.698 972.794 367.221 972.794 367.221C971.975 371.093 969.56 375.285 968.622 376.822C973.852 370.694 977.485 371.353 977.485 371.353C974.351 374.487 969.3 376.882 968.302 377.341C968.262 377.401 968.242 377.421 968.242 377.421C968.242 377.401 968.242 377.381 968.242 377.361Z" fill="white"/>
<path opacity="0.1" d="M828.665 353.05C828.585 353.09 828.525 353.109 828.525 353.109C828.585 353.05 828.625 352.99 828.685 352.93C829.643 344.387 833.217 342.91 833.217 342.91C832.398 346.782 829.983 350.974 829.044 352.511C834.275 346.383 837.908 347.042 837.908 347.042C834.774 350.175 829.723 352.571 828.725 353.03C828.685 353.09 828.665 353.109 828.665 353.109C828.665 353.09 828.665 353.07 828.665 353.05Z" fill="white"/>
<path opacity="0.1" d="M866.135 392.69C866.055 392.73 865.995 392.75 865.995 392.75C866.055 392.69 866.095 392.63 866.155 392.571C867.113 384.028 870.686 382.551 870.686 382.551C869.868 386.423 867.452 390.614 866.514 392.151C871.744 386.024 875.377 386.682 875.377 386.682C872.243 389.816 867.193 392.211 866.195 392.67C866.155 392.73 866.135 392.75 866.135 392.75C866.135 392.73 866.135 392.71 866.135 392.69Z" fill="white"/>
<path opacity="0.1" d="M745.222 414.347C745.142 414.387 745.082 414.407 745.082 414.407C745.142 414.347 745.182 414.287 745.242 414.228C746.2 405.685 749.773 404.208 749.773 404.208C748.955 408.08 746.539 412.271 745.601 413.808C750.831 407.681 754.464 408.339 754.464 408.339C751.33 411.473 746.28 413.868 745.282 414.327C745.242 414.387 745.222 414.407 745.222 414.407C745.222 414.387 745.222 414.367 745.222 414.347Z" fill="white"/>
<path opacity="0.1" d="M1115.39 387.58C1115.31 387.62 1115.25 387.64 1115.25 387.64C1115.31 387.58 1115.35 387.521 1115.41 387.461C1116.36 378.918 1119.94 377.441 1119.94 377.441C1119.12 381.313 1116.7 385.505 1115.77 387.041C1121 380.914 1124.63 381.572 1124.63 381.572C1121.49 384.706 1116.44 387.101 1115.45 387.56C1115.41 387.62 1115.39 387.64 1115.39 387.64C1115.39 387.62 1115.39 387.6 1115.39 387.58Z" fill="white"/>
<path opacity="0.1" d="M1309.04 340.115C1308.96 340.155 1308.9 340.175 1308.9 340.175C1308.96 340.115 1309 340.055 1309.06 339.995C1310.02 331.452 1313.59 329.975 1313.59 329.975C1312.78 333.848 1310.36 338.039 1309.42 339.576C1314.65 333.448 1318.28 334.107 1318.28 334.107C1315.15 337.241 1310.1 339.636 1309.1 340.095C1309.06 340.155 1309.04 340.175 1309.04 340.175C1309.04 340.155 1309.04 340.135 1309.04 340.115Z" fill="white"/>
<path opacity="0.1" d="M1385.98 295.963C1385.9 296.003 1385.84 296.023 1385.84 296.023C1385.9 295.963 1385.94 295.903 1386 295.843C1386.96 287.301 1390.53 285.823 1390.53 285.823C1389.71 289.696 1387.3 293.887 1386.36 295.424C1391.59 289.297 1395.22 289.955 1395.22 289.955C1392.09 293.089 1387.04 295.484 1386.04 295.943C1386 296.003 1385.98 296.023 1385.98 296.023C1385.98 296.003 1385.98 295.983 1385.98 295.963Z" fill="white"/>
<path opacity="0.1" d="M1210.96 402.89C1210.89 402.93 1210.83 402.95 1210.83 402.95C1210.89 402.89 1210.93 402.83 1210.98 402.77C1211.94 394.227 1215.52 392.75 1215.52 392.75C1214.7 396.623 1212.28 400.814 1211.34 402.351C1216.57 396.223 1220.21 396.882 1220.21 396.882C1217.07 400.016 1212.02 402.411 1211.02 402.87C1210.98 402.93 1210.96 402.95 1210.96 402.95C1210.96 402.93 1210.96 402.91 1210.96 402.89Z" fill="white"/>
<path opacity="0.1" d="M1385.98 397.78C1385.9 397.82 1385.84 397.84 1385.84 397.84C1385.9 397.78 1385.94 397.721 1386 397.661C1386.96 389.118 1390.53 387.641 1390.53 387.641C1389.71 391.513 1387.3 395.705 1386.36 397.241C1391.59 391.114 1395.22 391.772 1395.22 391.772C1392.09 394.906 1387.04 397.301 1386.04 397.76C1386 397.82 1385.98 397.84 1385.98 397.84C1385.98 397.82 1385.98 397.8 1385.98 397.78Z" fill="white"/>
<path opacity="0.1" d="M1164.49 299.336C1164.41 299.376 1164.35 299.396 1164.35 299.396C1164.41 299.336 1164.45 299.277 1164.51 299.217C1165.47 290.674 1169.04 289.197 1169.04 289.197C1168.23 293.069 1165.81 297.261 1164.87 298.798C1170.1 292.67 1173.74 293.329 1173.74 293.329C1170.6 296.462 1165.55 298.857 1164.55 299.317C1164.51 299.376 1164.49 299.396 1164.49 299.396C1164.49 299.376 1164.49 299.356 1164.49 299.336Z" fill="white"/>
<path opacity="0.1" d="M1008.65 318.259C1008.57 318.299 1008.51 318.319 1008.51 318.319C1008.57 318.259 1008.61 318.199 1008.67 318.139C1009.62 309.596 1013.2 308.119 1013.2 308.119C1012.38 311.991 1009.96 316.183 1009.03 317.72C1014.26 311.592 1017.89 312.251 1017.89 312.251C1014.76 315.384 1009.7 317.78 1008.71 318.239C1008.67 318.299 1008.65 318.319 1008.65 318.319C1008.65 318.299 1008.65 318.279 1008.65 318.259Z" fill="white"/>
</svg>
