<svg width="1440" height="320" viewBox="0 0 1440 320" fill="none" xmlns="http://www.w3.org/2000/svg">
<path d="M1458.24 24.0302L1456.66 20.8166L1459.12 21.5152L1453.85 11.5551L1455.67 11.9942L1450.91 4.03006L1446.08 12.2936L1447.86 12.1339L1443.21 21.5352C1425.32 18.9004 1402.05 16.6649 1372.24 17.0242L1367.25 7.62293L1369.07 8.06206L1364.32 0.0979004L1359.49 8.36145L1361.26 8.20174L1356.69 17.4433C1307 19.4393 1241.15 28.6011 1154.87 53.192L1148.88 41.4155L1150.98 41.9345L1145.53 32.3935L1139.98 42.2938L1142.04 42.0942L1136.39 54.0104L1139.74 52.8927L1135.89 61.4955C1089.07 82.8329 1048.25 107.224 1007.79 127.823L1001.94 116.326L1004.03 116.845L998.585 107.304L993.035 117.204L995.091 117.005L989.442 128.921L992.796 127.803L988.544 137.284C987.047 138.003 985.529 138.702 984.032 139.4L980.18 131.815L982.276 132.334L976.826 122.793L971.276 132.694L973.332 132.494L967.683 144.41L971.037 143.292L969.959 145.708C952.032 153.432 933.827 160.019 914.862 164.869L912.706 160.239L915.541 161.077L909.492 149.161L911.589 149.68L906.139 140.139L900.589 150.039L902.645 149.839L896.996 161.756L900.35 160.638L896.637 168.921C877.792 172.514 858.109 174.331 837.128 173.792C775.245 172.255 687.091 158.203 595.942 133.811L592.908 127.344L595.742 128.183L589.694 116.266L591.79 116.785L586.34 107.244L580.791 117.145L582.847 116.945L577.297 128.662C547.034 120.119 516.611 110.478 486.867 99.7791L485.25 96.3061L488.085 97.1444L482.036 85.2282L484.132 85.7471L478.683 76.2061L473.133 86.1064L475.189 85.9068L471.336 94.0506C469.26 93.2721 467.184 92.4937 465.128 91.7153L463.072 87.324L465.907 88.1623L459.858 76.2461L461.954 76.765L456.504 67.2241L450.955 77.1243L453.011 76.9247L448.978 85.4277C405.161 68.8408 350.723 56.5054 307.105 48.3217L304.47 42.693L307.305 43.5313L301.256 31.6151L303.352 32.1341L297.903 22.5931L292.353 32.4933L294.409 32.2937L288.76 44.2099L292.113 43.0922L291.095 45.3876C238.295 39.4993 192.082 36.0463 152.556 34.1301L150.36 29.6191L152.815 30.3177L147.545 20.3575L149.362 20.7966L144.611 12.8325L139.78 21.0961L141.557 20.9364L136.646 30.8965L139.58 29.9584L137.943 33.4714C103.887 32.0941 75.2812 31.8745 52.2046 32.2338L50.927 29.6191L53.3824 30.3177L48.1123 20.3575L49.9289 20.7966L45.1778 12.8325L40.3469 21.0961L42.1235 20.9364L37.2128 30.8965L40.1473 29.9584L38.9695 32.4933C34.5378 32.6131 30.3457 32.7528 26.4131 32.8926L23.5784 27.0641L26.0338 27.7628L20.7637 17.8026L22.5803 18.2417L17.8292 10.2776L12.9983 18.5412L14.775 18.3814L9.8642 28.3416L12.7987 27.4035L9.88417 33.651C-9.53931 34.7288 -19.3608 35.9864 -19.3608 35.9864V319.84L1477.82 319.82V27.7428C1472.63 26.8246 1466.17 25.4674 1458.24 24.0302ZM579.872 129.46C579.134 129.26 578.375 129.041 577.636 128.821L580.611 127.823L579.872 129.46ZM1005.89 128.821L1005.23 127.404L1007.41 128.043C1006.91 128.302 1006.39 128.562 1005.89 128.821ZM1152.91 54.0304L1152.2 52.4735L1154.79 53.2519C1154.15 53.5114 1153.53 53.7709 1152.91 54.0304ZM1370.73 17.0441C1370.55 17.0441 1370.37 17.0441 1370.19 17.0441L1370.09 16.8445L1370.73 17.0441ZM1359.33 17.2238L1359.27 17.3435C1359.15 17.3435 1359.03 17.3436 1358.91 17.3635L1359.33 17.2238ZM1445.9 21.1559L1445.56 21.8945C1445.13 21.8346 1444.69 21.7547 1444.25 21.6948L1445.9 21.1559Z" fill="#283593"/>
</svg>
