<svg width="485" height="42" viewBox="0 0 485 42" fill="none" xmlns="http://www.w3.org/2000/svg">
<path d="M0.471438 2.088H15.9274C19.4794 2.088 22.1354 3.032 23.8954 4.92C25.6874 6.776 26.5834 9.368 26.5834 12.696C26.5834 14.776 26.0554 16.6 24.9994 18.168C23.9754 19.736 22.5354 20.904 20.6794 21.672C21.0954 22.024 21.4314 22.408 21.6874 22.824C21.9754 23.24 22.2954 23.848 22.6474 24.648L26.2954 33H18.2314L14.7754 25.128C14.4874 24.424 14.1194 23.928 13.6714 23.64C13.2234 23.352 12.5834 23.208 11.7514 23.208H8.19944V33H0.471438V2.088ZM13.9114 17.256C15.4474 17.256 16.6314 16.872 17.4634 16.104C18.2954 15.336 18.7114 14.2 18.7114 12.696C18.7114 9.592 17.2234 8.04 14.2474 8.04H8.19944V17.256H13.9114ZM40.5541 33.48C36.4901 33.48 33.2741 32.472 30.9061 30.456C28.5701 28.44 27.4021 25.496 27.4021 21.624C27.4021 17.912 28.4101 15.016 30.4261 12.936C32.4741 10.824 35.4341 9.768 39.3061 9.768C42.8581 9.768 45.6421 10.696 47.6581 12.552C49.6741 14.408 50.6821 16.904 50.6821 20.04V24.12H34.5541C34.9061 25.592 35.7061 26.632 36.9541 27.24C38.2021 27.848 39.9941 28.152 42.3301 28.152C43.5781 28.152 44.8421 28.04 46.1221 27.816C47.4341 27.592 48.5221 27.304 49.3861 26.952V31.992C47.2101 32.984 44.2661 33.48 40.5541 33.48ZM43.9621 19.656V18.648C43.9621 16.216 42.4901 15 39.5461 15C37.7221 15 36.4261 15.368 35.6581 16.104C34.9221 16.84 34.5541 18.024 34.5541 19.656H43.9621ZM61.7161 33.48C59.3801 33.48 57.4441 32.872 55.9081 31.656C54.4041 30.408 53.6521 28.632 53.6521 26.328C53.6521 23.96 54.4521 22.12 56.0521 20.808C57.6841 19.496 60.0521 18.84 63.1561 18.84H69.4921V18.312C69.4921 17.128 69.0921 16.296 68.2921 15.816C67.5241 15.336 66.1001 15.096 64.0201 15.096C61.4281 15.096 58.8841 15.496 56.3881 16.296V11.304C57.5401 10.856 58.9321 10.488 60.5641 10.2C62.1961 9.912 63.8761 9.768 65.6041 9.768C69.2201 9.768 72.0041 10.504 73.9561 11.976C75.9081 13.448 76.8841 15.72 76.8841 18.792V33H70.1161L69.7321 31.08C67.9721 32.68 65.3001 33.48 61.7161 33.48ZM64.1641 28.728C66.4681 28.728 68.2441 27.992 69.4921 26.52V23.304H64.0201C62.8681 23.304 62.0041 23.528 61.4281 23.976C60.8841 24.424 60.6121 25.112 60.6121 26.04C60.6121 27.832 61.7961 28.728 64.1641 28.728ZM91.0703 33.48C87.5823 33.48 84.9583 32.632 83.1983 30.936C81.4383 29.208 80.5583 26.376 80.5583 22.44C80.5583 19.752 81.0223 17.464 81.9503 15.576C82.9103 13.656 84.2223 12.216 85.8863 11.256C87.5823 10.264 89.5343 9.768 91.7423 9.768C93.9503 9.768 95.9023 10.28 97.5983 11.304V0.647999H105.326V33H98.6543L98.2223 31.08C97.2623 31.88 96.2063 32.488 95.0543 32.904C93.9023 33.288 92.5743 33.48 91.0703 33.48ZM93.2783 27.864C94.9743 27.864 96.4143 27.288 97.5983 26.136V16.92C96.5103 15.928 95.1183 15.432 93.4223 15.432C91.7903 15.432 90.5423 16.056 89.6783 17.304C88.8463 18.52 88.4303 20.248 88.4303 22.488C88.4303 24.568 88.8143 25.992 89.5823 26.76C90.3503 27.496 91.5823 27.864 93.2783 27.864ZM114.818 41.448C113.634 41.448 112.626 41.384 111.794 41.256C110.994 41.16 110.21 40.952 109.442 40.632V35.256C110.338 35.576 111.314 35.736 112.37 35.736C113.65 35.736 114.626 35.512 115.298 35.064C115.97 34.616 116.642 33.784 117.314 32.568L107.09 10.248H115.202L121.202 24.696L127.106 10.248H135.17L126.482 31.128C125.074 34.52 123.474 37.08 121.682 38.808C119.89 40.568 117.602 41.448 114.818 41.448ZM164.285 33.48C161.533 33.48 159.469 32.776 158.093 31.368C156.749 29.96 156.077 27.96 156.077 25.368V16.104H153.005V10.248H156.077V5.496L163.805 3.432V10.248H169.325L168.989 16.104H163.805V24.84C163.805 25.928 164.061 26.696 164.573 27.144C165.085 27.56 165.917 27.768 167.069 27.768C167.997 27.768 168.941 27.608 169.901 27.288V32.52C168.397 33.16 166.525 33.48 164.285 33.48ZM183.515 33.48C174.971 33.48 170.699 29.528 170.699 21.624C170.699 17.784 171.755 14.856 173.867 12.84C176.011 10.792 179.227 9.768 183.515 9.768C187.835 9.768 191.051 10.776 193.163 12.792C195.307 14.808 196.379 17.752 196.379 21.624C196.379 29.528 192.091 33.48 183.515 33.48ZM183.515 27.432C185.307 27.432 186.587 26.984 187.355 26.088C188.123 25.192 188.507 23.704 188.507 21.624C188.507 19.544 188.107 18.056 187.307 17.16C186.539 16.264 185.275 15.816 183.515 15.816C181.755 15.816 180.491 16.28 179.723 17.208C178.955 18.104 178.571 19.576 178.571 21.624C178.571 23.704 178.955 25.192 179.723 26.088C180.491 26.984 181.755 27.432 183.515 27.432ZM226.441 33.48C223.689 33.48 221.625 32.776 220.249 31.368C218.905 29.96 218.233 27.96 218.233 25.368V16.104H215.161V10.248H218.233V5.496L225.961 3.432V10.248H231.481L231.145 16.104H225.961V24.84C225.961 25.928 226.217 26.696 226.729 27.144C227.241 27.56 228.073 27.768 229.225 27.768C230.153 27.768 231.097 27.608 232.057 27.288V32.52C230.553 33.16 228.681 33.48 226.441 33.48ZM235.034 0.647999H242.762V11.928C243.658 11.288 244.746 10.776 246.026 10.392C247.306 9.976 248.666 9.768 250.106 9.768C253.146 9.768 255.37 10.488 256.778 11.928C258.218 13.368 258.938 15.576 258.938 18.552V33H251.21V19.08C251.21 17.768 250.922 16.84 250.346 16.296C249.802 15.752 248.842 15.48 247.466 15.48C246.634 15.48 245.786 15.672 244.922 16.056C244.058 16.44 243.338 16.92 242.762 17.496V33H235.034V0.647999ZM275.773 33.48C271.709 33.48 268.493 32.472 266.125 30.456C263.789 28.44 262.621 25.496 262.621 21.624C262.621 17.912 263.629 15.016 265.645 12.936C267.693 10.824 270.653 9.768 274.525 9.768C278.077 9.768 280.861 10.696 282.877 12.552C284.893 14.408 285.901 16.904 285.901 20.04V24.12H269.773C270.125 25.592 270.925 26.632 272.173 27.24C273.421 27.848 275.213 28.152 277.549 28.152C278.797 28.152 280.061 28.04 281.341 27.816C282.653 27.592 283.741 27.304 284.605 26.952V31.992C282.429 32.984 279.485 33.48 275.773 33.48ZM279.181 19.656V18.648C279.181 16.216 277.709 15 274.765 15C272.941 15 271.645 15.368 270.877 16.104C270.141 16.84 269.773 18.024 269.773 19.656H279.181ZM306.612 2.088H314.244L322.644 19.224L330.996 2.088H338.58V33H330.852V15.24L324.756 27.72H320.484L314.34 15.24V33H306.612V2.088ZM355.312 33.48C346.768 33.48 342.496 29.528 342.496 21.624C342.496 17.784 343.552 14.856 345.664 12.84C347.808 10.792 351.024 9.768 355.312 9.768C359.632 9.768 362.848 10.776 364.96 12.792C367.104 14.808 368.176 17.752 368.176 21.624C368.176 29.528 363.888 33.48 355.312 33.48ZM355.312 27.432C357.104 27.432 358.384 26.984 359.152 26.088C359.92 25.192 360.304 23.704 360.304 21.624C360.304 19.544 359.904 18.056 359.104 17.16C358.336 16.264 357.072 15.816 355.312 15.816C353.552 15.816 352.288 16.28 351.52 17.208C350.752 18.104 350.368 19.576 350.368 21.624C350.368 23.704 350.752 25.192 351.52 26.088C352.288 26.984 353.552 27.432 355.312 27.432ZM382.734 33.48C374.19 33.48 369.918 29.528 369.918 21.624C369.918 17.784 370.974 14.856 373.086 12.84C375.23 10.792 378.446 9.768 382.734 9.768C387.054 9.768 390.27 10.776 392.382 12.792C394.526 14.808 395.598 17.752 395.598 21.624C395.598 29.528 391.31 33.48 382.734 33.48ZM382.734 27.432C384.526 27.432 385.806 26.984 386.574 26.088C387.342 25.192 387.726 23.704 387.726 21.624C387.726 19.544 387.326 18.056 386.526 17.16C385.758 16.264 384.494 15.816 382.734 15.816C380.974 15.816 379.71 16.28 378.942 17.208C378.174 18.104 377.79 19.576 377.79 21.624C377.79 23.704 378.174 25.192 378.942 26.088C379.71 26.984 380.974 27.432 382.734 27.432ZM399.518 10.248H406.718L406.958 12.216C407.95 11.512 409.15 10.936 410.558 10.488C411.998 10.008 413.47 9.768 414.974 9.768C417.886 9.768 420.014 10.472 421.358 11.88C422.734 13.288 423.422 15.464 423.422 18.408V33H415.694V19.032C415.694 17.752 415.406 16.84 414.83 16.296C414.286 15.752 413.326 15.48 411.95 15.48C411.118 15.48 410.27 15.672 409.406 16.056C408.542 16.44 407.822 16.92 407.246 17.496V33H399.518V10.248ZM447.582 0.839999H455.982V6.648H447.582V0.839999ZM448.206 15.96H444.846L445.518 10.248H455.934V33H448.206V15.96ZM460.878 10.248H468.078L468.318 12.216C469.31 11.512 470.51 10.936 471.918 10.488C473.358 10.008 474.83 9.768 476.334 9.768C479.246 9.768 481.374 10.472 482.718 11.88C484.094 13.288 484.782 15.464 484.782 18.408V33H477.054V19.032C477.054 17.752 476.766 16.84 476.19 16.296C475.646 15.752 474.686 15.48 473.31 15.48C472.478 15.48 471.63 15.672 470.766 16.056C469.902 16.44 469.182 16.92 468.606 17.496V33H460.878V10.248Z" fill="white"/>
</svg>
