<svg width="100%"  viewBox="0 0 340 397" fill="none" xmlns="http://www.w3.org/2000/svg">
<path opacity="0.12" d="M173.909 388.722C210.139 388.722 239.508 381.761 239.508 373.173C239.508 364.585 210.139 357.624 173.909 357.624C137.679 357.624 108.31 364.585 108.31 373.173C108.31 381.761 137.679 388.722 173.909 388.722Z" fill="black"/>
<path d="M170.481 370.784C170.481 370.784 284.273 379.009 308.187 229.168C308.824 225.212 309.188 221.217 309.292 217.209C310.097 182.624 305.68 11.006 170.195 0H169.857C30.6823 9.73961 29.9549 182.624 30.7602 217.209C30.8512 221.217 31.2279 225.212 31.8644 229.168C55.779 379.009 169.727 370.771 169.727 370.771L170.481 370.784Z" fill="url(#paint0_linear)"/>
<path d="M333.323 397H309.343C309.343 397 261.8 294.8 169.999 298.181C78.1991 294.787 30.6557 397 30.6557 397H6.68919C-16.1082 321.969 26.1742 239.678 31.8508 229.168C33.0199 235.957 26.5119 260.724 169.999 260.724C313.487 260.724 306.55 236.44 308.031 230.121C313.708 240.631 356.12 321.956 333.323 397Z" fill="#1B134E"/>
<path d="M170.296 229.234C170.218 229.377 170.024 229.741 169.727 230.288C169.96 229.741 170.193 229.377 170.296 229.234Z" stroke="#270D0D" stroke-miterlimit="10"/>
<path d="M170.296 230.288C169.998 229.741 169.804 229.377 169.727 229.234C169.83 229.377 170.063 229.741 170.296 230.288Z" stroke="#270D0D" stroke-miterlimit="10"/>
<path d="M247.304 166.24C247.304 204.767 219.232 235.957 170 235.957C120.768 235.957 92.7227 204.767 92.7227 166.24C92.7227 127.712 120.768 96.4434 170 96.4434C219.232 96.4434 247.304 127.712 247.304 166.24Z" fill="#262635"/>
<path d="M169 159.607C137.473 159.607 110.558 174.987 99.7764 196.672C110.558 218.358 139.136 236.727 170.663 236.727C202.189 236.727 230.027 217.94 240.809 196.255C230.04 174.582 200.514 159.607 169 159.607Z" fill="#363649"/>
<path d="M147.436 170.994C152.551 170.994 156.698 162.559 156.698 152.155C156.698 141.75 152.551 133.315 147.436 133.315C142.321 133.315 138.174 141.75 138.174 152.155C138.174 162.559 142.321 170.994 147.436 170.994Z" fill="#42E8E0"/>
<path d="M198.669 170.992C203.784 170.992 207.931 162.557 207.931 152.152C207.931 141.748 203.784 133.313 198.669 133.313C193.554 133.313 189.407 141.748 189.407 152.152C189.407 162.557 193.554 170.992 198.669 170.992Z" fill="#42E8E0"/>
<path opacity="0.4" d="M212.216 118.012C214.397 118.012 216.165 116.235 216.165 114.043C216.165 111.851 214.397 110.074 212.216 110.074C210.036 110.074 208.268 111.851 208.268 114.043C208.268 116.235 210.036 118.012 212.216 118.012Z" fill="white"/>
<path opacity="0.4" d="M229.104 137.06C227.921 136.904 226.882 136.107 226.441 134.906C224.323 129.057 217.438 123.978 217.374 123.926C215.906 122.855 215.568 120.78 216.633 119.304C217.698 117.816 219.764 117.49 221.232 118.56C221.582 118.808 229.818 124.866 232.637 132.647C233.26 134.371 232.377 136.264 230.662 136.89C230.143 137.073 229.61 137.125 229.104 137.06Z" fill="#FCFDFF"/>
<path d="M30.6553 397L40.3068 393.71C40.3068 393.71 84.187 306.419 170.012 298.168C170.012 298.168 85.7978 288.063 30.6553 397Z" fill="#110B35"/>
<path d="M309.64 397.001L299.988 393.711C299.988 393.711 256.108 306.42 170.283 298.169C170.296 298.169 254.51 288.063 309.64 397.001Z" fill="#110B35"/>
<path opacity="0.2" d="M103.906 342.323L135.524 341.357C135.524 341.357 166.232 362.468 235.534 346.631C235.534 346.645 166.232 384.976 103.906 342.323Z" fill="#F2F2F2"/>
<path d="M6.32593 272.369L18.0429 257.668L25.8889 277.435L0.740234 330.337L6.32593 272.369Z" fill="url(#paint1_linear)"/>
<path d="M18.0429 257.668L20.7838 276.443L0.740234 330.337L25.8889 277.435L18.0429 257.668Z" fill="#C1C1C1"/>
<path d="M333.61 272.37L320.828 257.917L314.047 277.435L339.195 330.337L333.61 272.37Z" fill="url(#paint2_linear)"/>
<path d="M320.828 257.917L319.139 276.443L339.195 330.337L314.047 277.435L320.828 257.917Z" fill="#C1C1C1"/>
<g opacity="0.39">
<path opacity="0.39" d="M217.49 53.7645C219.893 60.0444 221.036 72.6301 221.335 76.4685C221.387 77.1344 221.919 77.6566 222.582 77.6958C242.132 79.0536 246.639 69.9537 247.575 67.0292C247.743 66.52 247.588 65.9586 247.172 65.6061C239.404 58.9738 229.505 53.3729 226.284 51.6234C225.764 51.3362 225.115 51.4276 224.712 51.8584C223.959 52.6548 222.179 53.7384 218.1 53.6209H217.425L217.49 53.7645Z" fill="white"/>
<path opacity="0.39" d="M222.596 41.7787C221.882 40.8648 219.348 38.1883 212.931 36.243C212.763 36.1908 212.62 36.0602 212.555 35.8905L207.307 21.8947C207.138 21.4639 207.515 21.033 207.969 21.1244C211.801 21.9339 225.688 25.6026 237.729 37.8097C238.054 38.1361 237.872 38.7106 237.418 38.7889C234.884 39.2328 228.389 40.4339 223.219 41.9745C222.986 42.0528 222.752 41.9745 222.596 41.7787Z" fill="white"/>
<path opacity="0.39" d="M202.835 39.1037C202.614 42.446 203.667 44.9788 204.446 46.3366C204.797 46.9502 204.498 47.7205 203.836 47.9555C199.822 49.3525 188.014 53.5173 183.142 56.0893C182.636 56.3504 182.025 56.2068 181.701 55.7368C179.207 52.1725 170.139 37.8634 177.518 28.2805C177.817 27.8888 178.323 27.7452 178.778 27.9019C181.882 28.9986 194.015 33.4636 202.225 38.3987C202.303 38.4509 202.381 38.5032 202.446 38.5684L202.731 38.8557L202.835 39.1037Z" fill="white"/>
<path opacity="0.39" d="M220.749 48.6864C222.113 46.715 220.398 43.1638 216.943 40.7616C213.474 38.3593 209.564 38.0199 208.2 39.9913C206.836 41.9627 208.551 45.5139 212.006 47.9161C215.475 50.3315 219.385 50.6709 220.749 48.6864Z" fill="white"/>
</g>
<defs>
<linearGradient id="paint0_linear" x1="52.4167" y1="306.542" x2="287.777" y2="72.3677" gradientUnits="userSpaceOnUse">
<stop stop-color="#BBBDBF"/>
<stop offset="0.5832" stop-color="#DDDEDF"/>
<stop offset="1" stop-color="#F1F1F2"/>
</linearGradient>
<linearGradient id="paint1_linear" x1="20.5689" y1="301.87" x2="-2.85674" y2="285.55" gradientUnits="userSpaceOnUse">
<stop stop-color="#BBBDBF"/>
<stop offset="0.5832" stop-color="#DDDEDF"/>
<stop offset="1" stop-color="#F1F1F2"/>
</linearGradient>
<linearGradient id="paint2_linear" x1="319.25" y1="301.706" x2="342.676" y2="285.386" gradientUnits="userSpaceOnUse">
<stop stop-color="#BBBDBF"/>
<stop offset="0.5832" stop-color="#DDDEDF"/>
<stop offset="1" stop-color="#F1F1F2"/>
</linearGradient>
</defs>
</svg>
