<svg width="357" height="609" viewBox="0 0 357 609" fill="none" xmlns="http://www.w3.org/2000/svg">
<g clip-path="url(#clip0)">
<path opacity="0.12" d="M143.168 292.456C158.619 292.456 171.144 289.474 171.144 285.797C171.144 282.12 158.619 279.139 143.168 279.139C127.717 279.139 115.191 282.12 115.191 285.797C115.191 289.474 127.717 292.456 143.168 292.456Z" fill="black"/>
<path d="M141.704 284.774C141.704 284.774 190.234 288.296 200.432 224.132C200.704 222.438 200.859 220.728 200.903 219.011C201.247 204.202 199.363 130.713 141.583 126H141.439C82.0846 130.171 81.7744 204.202 82.1179 219.011C82.1567 220.728 82.3173 222.438 82.5888 224.132C92.7876 288.296 141.383 284.768 141.383 284.768L141.704 284.774Z" fill="url(#paint0_linear)"/>
<path d="M211.152 296H200.926C200.926 296 180.65 252.237 141.5 253.685C102.35 252.231 82.0739 296 82.0739 296H71.8529C62.1304 263.871 80.1626 228.633 82.5836 224.133C83.0821 227.04 80.3067 237.645 141.5 237.645C202.693 237.645 199.735 227.247 200.366 224.541C202.787 229.041 220.875 263.865 211.152 296Z" fill="#1B134E"/>
<path d="M141.627 224.16C141.594 224.222 141.511 224.378 141.384 224.612C141.483 224.378 141.583 224.222 141.627 224.16Z" stroke="#270D0D" stroke-miterlimit="10"/>
<path d="M141.627 224.612C141.5 224.378 141.417 224.222 141.384 224.16C141.428 224.222 141.527 224.378 141.627 224.612Z" stroke="#270D0D" stroke-miterlimit="10"/>
<path d="M174.468 197.186C174.468 213.684 162.497 227.04 141.5 227.04C120.504 227.04 108.544 213.684 108.544 197.186C108.544 180.688 120.504 167.298 141.5 167.298C162.497 167.298 174.468 180.688 174.468 197.186Z" fill="#262635"/>
<path d="M141.075 194.345C127.629 194.345 116.151 200.931 111.553 210.217C116.151 219.503 128.338 227.369 141.784 227.369C155.229 227.369 167.101 219.324 171.699 210.038C167.106 200.758 154.514 194.345 141.075 194.345Z" fill="#363649"/>
<path d="M131.877 199.222C134.058 199.222 135.827 195.61 135.827 191.155C135.827 186.699 134.058 183.087 131.877 183.087C129.695 183.087 127.927 186.699 127.927 191.155C127.927 195.61 129.695 199.222 131.877 199.222Z" fill="#42E8E0"/>
<path d="M153.726 199.221C155.908 199.221 157.676 195.609 157.676 191.153C157.676 186.698 155.908 183.086 153.726 183.086C151.545 183.086 149.776 186.698 149.776 191.153C149.776 195.609 151.545 199.221 153.726 199.221Z" fill="#42E8E0"/>
<path opacity="0.4" d="M159.504 176.534C160.435 176.534 161.189 175.773 161.189 174.834C161.189 173.896 160.435 173.135 159.504 173.135C158.574 173.135 157.82 173.896 157.82 174.834C157.82 175.773 158.574 176.534 159.504 176.534Z" fill="white"/>
<path opacity="0.4" d="M166.706 184.691C166.202 184.624 165.758 184.283 165.57 183.768C164.667 181.264 161.731 179.089 161.703 179.066C161.077 178.608 160.933 177.719 161.387 177.087C161.842 176.45 162.723 176.31 163.349 176.769C163.498 176.875 167.01 179.469 168.213 182.801C168.479 183.539 168.102 184.35 167.371 184.618C167.149 184.696 166.922 184.719 166.706 184.691Z" fill="#FCFDFF"/>
<path d="M82.0732 296L86.1893 294.591C86.1893 294.591 104.903 257.212 141.505 253.679C141.505 253.679 105.59 249.352 82.0732 296Z" fill="#110B35"/>
<path d="M201.053 296L196.936 294.592C196.936 294.592 178.223 257.213 141.621 253.679C141.627 253.679 177.541 249.352 201.053 296Z" fill="#110B35"/>
<path opacity="0.2" d="M113.313 272.587L126.797 272.173C126.797 272.173 139.894 281.213 169.449 274.432C169.449 274.437 139.894 290.851 113.313 272.587Z" fill="#F2F2F2"/>
<path d="M71.6976 242.632L76.6945 236.337L80.0406 244.801L69.3154 267.454L71.6976 242.632Z" fill="url(#paint1_linear)"/>
<path d="M76.6945 236.337L77.8634 244.376L69.3154 267.454L80.0406 244.801L76.6945 236.337Z" fill="#C1C1C1"/>
<path d="M211.276 242.632L205.824 236.443L202.933 244.801L213.658 267.454L211.276 242.632Z" fill="url(#paint2_linear)"/>
<path d="M205.824 236.443L205.104 244.376L213.658 267.454L202.933 244.801L205.824 236.443Z" fill="#C1C1C1"/>
<g opacity="0.39">
<path opacity="0.39" d="M161.753 149.022C162.778 151.712 163.266 157.101 163.393 158.745C163.415 159.03 163.642 159.253 163.925 159.27C172.262 159.852 174.185 155.955 174.584 154.703C174.656 154.485 174.589 154.244 174.412 154.093C171.099 151.253 166.878 148.855 165.504 148.106C165.282 147.983 165.005 148.022 164.833 148.206C164.512 148.547 163.753 149.011 162.014 148.961H161.726L161.753 149.022Z" fill="white"/>
<path opacity="0.39" d="M163.931 143.89C163.627 143.499 162.547 142.353 159.81 141.52C159.738 141.497 159.677 141.441 159.649 141.369L157.411 135.375C157.339 135.191 157.5 135.006 157.694 135.046C159.328 135.392 165.25 136.963 170.385 142.19C170.524 142.33 170.446 142.576 170.252 142.61C169.172 142.8 166.402 143.314 164.197 143.974C164.098 144.007 163.998 143.974 163.931 143.89Z" fill="white"/>
<path opacity="0.39" d="M155.503 142.744C155.409 144.176 155.858 145.26 156.19 145.842C156.34 146.104 156.212 146.434 155.93 146.535C154.218 147.133 149.182 148.916 147.105 150.018C146.889 150.13 146.629 150.068 146.49 149.867C145.426 148.341 141.56 142.213 144.706 138.11C144.834 137.942 145.05 137.88 145.244 137.948C146.568 138.417 151.742 140.329 155.243 142.442C155.276 142.465 155.31 142.487 155.337 142.515L155.459 142.638L155.503 142.744Z" fill="white"/>
<path opacity="0.39" d="M163.143 146.848C163.725 146.004 162.994 144.483 161.52 143.454C160.041 142.426 158.373 142.28 157.792 143.125C157.21 143.969 157.941 145.489 159.415 146.518C160.894 147.552 162.562 147.698 163.143 146.848Z" fill="white"/>
</g>
</g>
<path fill-rule="evenodd" clip-rule="evenodd" d="M271.731 374.197L267.287 426.068L267.989 434.313C259.453 477.997 243.023 518.931 243.023 518.931C234.663 526.943 200.109 542.557 200.109 542.557L179.47 584.135C167.309 595.889 140.297 600.45 140.297 600.45L140.063 608.053C123.049 605.83 97.382 595.538 97.382 595.538L90.7167 573.082C82.5898 568.755 53.1224 548.229 53.1224 548.229L46.7495 521.738C46.7495 521.738 24.9997 501.739 23.5965 492.616C23.4211 491.564 23.0703 489.107 22.4856 485.599C18.0421 458.64 3.0161 369.168 3.0161 369.168C3.0161 369.168 -0.374995 361.098 0.0342749 353.964C0.502011 346.771 2.72376 324.608 2.72376 324.608C2.72376 324.608 105.684 298 123.283 296.597C140.881 295.252 212.562 296.187 212.562 296.187L214.258 244.609L239.223 216.306C244.31 222.154 247.701 229.756 249.981 236.832C250.156 237.358 250.273 237.826 250.449 238.352V238.411C251.852 243.206 252.729 247.533 253.314 250.75L253.372 251.1C253.84 254.024 254.015 255.896 254.015 255.896L252.612 230.282L262.434 214.668C265.884 195.429 265.299 157.535 265.299 157.535L272.666 151.863L274.654 118.062L286.698 115.606L293.89 159.582L299.795 170.693C299.795 170.693 298.333 221.393 296.813 242.68C295.293 264.024 300.613 327.473 300.613 327.473C289.972 356.888 271.731 374.197 271.731 374.197Z" fill="url(#paint3_linear)"/>
<path fill-rule="evenodd" clip-rule="evenodd" d="M2.72363 324.607L30.9632 337.18C30.9632 337.18 60.8399 329.52 63.7633 326.946C66.6866 324.432 87.9102 309.52 87.9102 309.52L140.823 305.368L144.039 319.871C144.039 319.871 159.357 318.467 175.845 316.186C192.274 313.906 202.856 315.368 208.995 310.982C215.135 306.654 213.205 303.731 221.04 303.087C228.874 302.386 236.709 301.918 236.709 301.918L212.62 296.07C212.62 296.07 144.682 297.59 123.341 296.479C101.942 295.485 13.8908 317.356 2.72363 324.607Z" fill="url(#paint4_linear)"/>
<path fill-rule="evenodd" clip-rule="evenodd" d="M53.5333 436.593L38.6826 452.324C38.6826 452.324 78.2064 457.646 90.426 458.523C102.646 459.4 131.879 457.529 131.879 457.529C131.879 457.529 178.36 449.166 192.042 447.763C205.723 446.359 255.888 436.243 255.888 436.243L266.003 432.909L256.18 427.822C256.18 427.822 229.461 427.12 218.937 431.33C208.413 435.599 171.286 442.792 158.54 446.184C145.794 449.517 121.238 449.926 121.238 449.926C121.238 449.926 65.4021 436.009 53.5333 436.593Z" fill="url(#paint5_linear)"/>
<path fill-rule="evenodd" clip-rule="evenodd" d="M214.318 244.609L230.748 251.568C230.748 251.568 240.102 249.287 243.727 245.837C247.352 242.387 250.159 236.715 250.159 236.715C250.159 236.715 244.312 222.212 239.342 216.306C239.284 216.364 222.328 231.744 214.318 244.609Z" fill="#A0FFED"/>
<path fill-rule="evenodd" clip-rule="evenodd" d="M252.67 230.34C252.67 230.34 265.299 228.411 272.783 228.177C280.266 227.943 290.79 222.446 290.79 222.446L291.024 214.96L262.434 214.727C262.434 214.727 255.184 224.025 252.67 230.34Z" fill="#A0FFED"/>
<path fill-rule="evenodd" clip-rule="evenodd" d="M265.357 157.593L274.654 171.862L289.154 177.593L297.222 180.049L282.781 171.336L277.402 158.003L272.724 151.921L265.357 157.593Z" fill="#A0FFED"/>
<path fill-rule="evenodd" clip-rule="evenodd" d="M274.715 118.121L278.574 138.12L285.414 144.085L287.461 133.442L286.759 115.665L274.715 118.121Z" fill="#A0FFED"/>
<path fill-rule="evenodd" clip-rule="evenodd" d="M268.982 308.876L257.055 321.215L239.34 325.66L226.594 325.25L243.842 316.946L251.325 307.473L256.061 300.163L268.982 308.876Z" fill="url(#paint6_linear)"/>
<path fill-rule="evenodd" clip-rule="evenodd" d="M271.73 374.197L267.286 426.068L267.988 434.313C259.451 477.997 243.022 518.931 243.022 518.931C234.661 526.943 200.107 542.557 200.107 542.557L179.468 584.135C167.307 595.889 140.296 600.45 140.296 600.45L140.062 608.053C123.048 605.83 97.3807 595.538 97.3807 595.538L90.7155 573.082C82.5885 568.755 53.1211 548.229 53.1211 548.229L46.7482 521.738C46.7482 521.738 24.9985 501.739 23.5952 492.616C23.4198 491.564 23.069 489.107 22.4844 485.599L37.335 494.312L44.0003 482.85L42.1878 452.442L51.4256 502.09L52.5949 534.955L59.611 543.668L82.9393 557.586L103.052 575.363L119.13 565.363L121.995 478.055L117.318 465.95L124.334 473.26L131.292 534.545L135.267 568.697L161.87 569.574L179.352 545.656L198.353 525.715L222.5 500.394L236.532 471.739L250.564 437.997L266 432.793L256.177 427.705L225.95 429.401L200.867 436.36C200.867 436.36 167.19 443.962 154.737 446.886C142.342 449.81 121.235 449.752 121.235 449.752L76.4495 439.635L73.7015 426.36L65.867 405.366L64.6391 356.362L63.7621 326.83L87.909 309.403L140.763 305.31L143.979 319.813L143.219 409.811L156.842 442.617L178.533 435.717L202.738 408.407L207.416 355.952L208.877 311.099C216.361 302.269 220.922 303.146 220.922 303.146L220.571 313.906L224.43 389.928L230.51 369.227L229.282 327.005L239.339 325.66L257.054 321.216L266.935 313.087L254.423 305.544L241.619 318.058L236.649 302.094L234.895 281.041L230.686 251.627L243.607 245.896L249.921 236.89L249.98 236.773L250.331 238.411V238.469L253.195 250.808L253.254 250.983V251.159L255.943 300.164L268.865 308.877L269.157 333.672L284.125 323.789L286.112 314.549C286.112 314.549 281.084 295.369 282.487 279.462C283.832 263.556 290.147 238.937 290.147 238.937L290.965 214.961L290.614 179.757L297.163 179.991L292.251 175.956L292.544 167.535C292.544 167.535 288.86 164.611 287.223 160.693C285.586 156.775 285.294 144.026 285.294 144.026L287.34 133.383L286.639 115.606L293.83 159.582L299.735 170.693C299.735 170.693 298.274 221.393 296.753 242.68C295.233 264.024 300.554 327.473 300.554 327.473C289.971 356.888 271.73 374.197 271.73 374.197Z" fill="url(#paint7_linear)"/>
<path fill-rule="evenodd" clip-rule="evenodd" d="M314.004 5.19832C314.004 5.19832 312.25 41.1041 305.877 66.6591L296.99 78.2378C296.99 78.2378 293.774 100.167 291.435 105.781C289.097 111.395 277.93 105.313 277.93 105.313C277.93 105.313 273.135 87.4774 270.095 65.0802C267.99 48.9986 266.762 30.5779 269.043 14.8473C269.043 14.8473 282.49 2.09897 294.008 0.286137C299.913 -0.591039 305 0.695486 308.566 2.15745L308.683 2.21592C311.607 3.44397 313.477 4.78897 313.887 5.08137L314.004 5.19832Z" fill="url(#paint8_linear)"/>
<path fill-rule="evenodd" clip-rule="evenodd" d="M314.005 5.19822C314.005 5.19822 312.251 41.104 305.879 66.659L296.992 78.2378C296.992 78.2378 293.776 100.167 291.437 105.781C289.098 111.395 277.931 105.313 277.931 105.313C277.931 105.313 273.137 87.4773 270.097 65.0801L275.71 87.8282L290.209 83.3254L291.963 71.5127L297.518 21.5722L296.231 61.2205L304.008 52.6242L304.534 36.6596L308.626 2.21582L308.743 2.2743L313.947 5.13974L314.005 5.19822Z" fill="url(#paint9_linear)"/>
<path fill-rule="evenodd" clip-rule="evenodd" d="M353.056 493.142L343.526 503.259L327.681 518.931C327.681 518.931 326.395 531.329 320.548 536.825C314.702 542.322 308.27 542.907 308.27 542.907L304.528 527.644C304.528 527.644 292.25 522.674 287.69 519.048C287.047 518.522 286.579 518.054 286.287 517.586C284.24 514.311 278.569 461.33 280.323 446.827C280.499 445.424 280.732 444.43 281.025 443.786C292.952 420.746 329.728 426.886 329.728 426.886L337.153 442.968C337.153 442.968 343.526 442.617 349.022 444.547C351.419 445.365 353.699 446.652 355.103 448.582C355.746 449.459 356.272 450.511 356.506 451.739C358.552 461.33 353.056 493.142 353.056 493.142Z" fill="url(#paint10_linear)"/>
<path fill-rule="evenodd" clip-rule="evenodd" d="M356.505 451.681C349.84 450.395 332.65 451.857 332.65 451.857L330.662 454.722C316.046 456.535 282.544 447.412 280.322 446.769C280.498 445.366 280.732 444.371 281.024 443.728C292.951 420.688 329.727 426.828 329.727 426.828L337.152 442.909C337.152 442.909 354.517 442.032 356.505 451.681Z" fill="#68F6FF"/>
<path fill-rule="evenodd" clip-rule="evenodd" d="M353.054 493.143L350.014 469.284L338.613 475.19L328.791 510.043L321.833 517.353L313.297 518.639L304.468 527.587C304.468 527.587 292.19 522.616 287.63 518.99L286.227 517.528L303.884 517.996L316.396 507.762L323.353 487.704L330.545 454.722L328.44 448.348L349.02 444.489L355.101 448.524C355.744 449.401 356.27 450.454 356.504 451.682C358.55 461.331 353.054 493.143 353.054 493.143Z" fill="url(#paint11_linear)"/>
<defs>
<linearGradient id="paint0_linear" x1="91.3537" y1="257.265" x2="192.135" y2="157.399" gradientUnits="userSpaceOnUse">
<stop stop-color="#BBBDBF"/>
<stop offset="0.5832" stop-color="#DDDEDF"/>
<stop offset="1" stop-color="#F1F1F2"/>
</linearGradient>
<linearGradient id="paint1_linear" x1="77.7718" y1="255.264" x2="67.7549" y2="248.314" gradientUnits="userSpaceOnUse">
<stop stop-color="#BBBDBF"/>
<stop offset="0.5832" stop-color="#DDDEDF"/>
<stop offset="1" stop-color="#F1F1F2"/>
</linearGradient>
<linearGradient id="paint2_linear" x1="205.152" y1="255.194" x2="215.169" y2="248.244" gradientUnits="userSpaceOnUse">
<stop stop-color="#BBBDBF"/>
<stop offset="0.5832" stop-color="#DDDEDF"/>
<stop offset="1" stop-color="#F1F1F2"/>
</linearGradient>
<linearGradient id="paint3_linear" x1="141.453" y1="608.079" x2="157.957" y2="111.38" gradientUnits="userSpaceOnUse">
<stop stop-color="#4C51DD"/>
<stop offset="0.9944" stop-color="#86F9FF"/>
</linearGradient>
<linearGradient id="paint4_linear" x1="3.12597" y1="312.778" x2="236.068" y2="320.515" gradientUnits="userSpaceOnUse">
<stop stop-color="#BDFFFF"/>
<stop offset="1" stop-color="#39D0DD"/>
</linearGradient>
<linearGradient id="paint5_linear" x1="39.1456" y1="438.727" x2="265.553" y2="446.247" gradientUnits="userSpaceOnUse">
<stop stop-color="#4CFFED"/>
<stop offset="1" stop-color="#39D0DD"/>
</linearGradient>
<linearGradient id="paint6_linear" x1="227.041" y1="312.226" x2="268.84" y2="313.614" gradientUnits="userSpaceOnUse">
<stop stop-color="#84FFED"/>
<stop offset="1" stop-color="#39D0DD"/>
</linearGradient>
<linearGradient id="paint7_linear" x1="298.117" y1="484.71" x2="111.691" y2="262.563" gradientUnits="userSpaceOnUse">
<stop stop-color="#2933B7"/>
<stop offset="1" stop-color="#1E7ABA"/>
</linearGradient>
<linearGradient id="paint8_linear" x1="287.933" y1="108.213" x2="291.534" y2="-0.174789" gradientUnits="userSpaceOnUse">
<stop offset="0.00558659" stop-color="#86F9FF"/>
<stop offset="1" stop-color="#7D8CDD"/>
</linearGradient>
<linearGradient id="paint9_linear" x1="289.631" y1="108.269" x2="293.172" y2="1.70726" gradientUnits="userSpaceOnUse">
<stop stop-color="#3E1EC0"/>
<stop offset="1" stop-color="#4395BA"/>
</linearGradient>
<linearGradient id="paint10_linear" x1="318.478" y1="542.889" x2="318.482" y2="426.079" gradientUnits="userSpaceOnUse">
<stop stop-color="#4C51DD"/>
<stop offset="0.9944" stop-color="#86F9FF"/>
</linearGradient>
<linearGradient id="paint11_linear" x1="320.295" y1="528.132" x2="323.103" y2="443.628" gradientUnits="userSpaceOnUse">
<stop stop-color="#3E1EC0"/>
<stop offset="1" stop-color="#4395BA"/>
</linearGradient>
<clipPath id="clip0">
<rect width="145" height="170" fill="white" transform="translate(69 126)"/>
</clipPath>
</defs>
</svg>
