<svg width="145" height="170" viewBox="0 0 145 170" fill="none" xmlns="http://www.w3.org/2000/svg">
<path d="M72.7045 158.774C72.7045 158.774 121.234 162.296 131.432 98.1324C131.704 96.4384 131.859 94.7277 131.903 93.0114C132.247 78.2018 130.363 4.7129 72.5826 0H72.4386C13.0846 4.17061 12.7744 78.2018 13.1179 93.0114C13.1567 94.7277 13.3173 96.4384 13.5888 98.1324C23.7876 162.296 72.3832 158.768 72.3832 158.768L72.7045 158.774Z" fill="url(#paint0_linear)"/>
<path d="M142.152 170H131.926C131.926 170 111.65 126.237 72.4998 127.685C33.3497 126.231 13.0739 170 13.0739 170H2.85287C-6.86956 137.871 11.1626 102.633 13.5836 98.1326C14.0821 101.04 11.3067 111.645 72.4998 111.645C133.693 111.645 130.735 101.247 131.366 98.5407C133.787 103.041 151.875 137.865 142.152 170Z" fill="#1B134E"/>
<path d="M72.6267 98.1604C72.5936 98.2217 72.5108 98.3777 72.3838 98.6117C72.4832 98.3777 72.5825 98.2217 72.6267 98.1604Z" stroke="#270D0D" stroke-miterlimit="10"/>
<path d="M72.6267 98.6117C72.4997 98.3777 72.4169 98.2217 72.3838 98.1604C72.428 98.2217 72.5273 98.3777 72.6267 98.6117Z" stroke="#270D0D" stroke-miterlimit="10"/>
<path d="M105.468 71.1856C105.468 87.6836 93.4965 101.04 72.5005 101.04C51.5045 101.04 39.5439 87.6836 39.5439 71.1856C39.5439 54.6877 51.5045 41.2981 72.5005 41.2981C93.4965 41.2981 105.468 54.6877 105.468 71.1856Z" fill="#262635"/>
<path d="M72.0746 68.3455C58.6294 68.3455 47.1508 74.9312 42.5527 84.2173C47.1508 93.5033 59.3385 101.369 72.7837 101.369C86.2289 101.369 98.1008 93.3244 102.699 84.0384C98.1064 74.7579 85.5143 68.3455 72.0746 68.3455Z" fill="#363649"/>
<path d="M62.8767 73.222C65.0582 73.222 66.8266 69.6101 66.8266 65.1547C66.8266 60.6993 65.0582 57.0874 62.8767 57.0874C60.6952 57.0874 58.9268 60.6993 58.9268 65.1547C58.9268 69.6101 60.6952 73.222 62.8767 73.222Z" fill="#42E8E0"/>
<path d="M84.7263 73.2208C86.9078 73.2208 88.6762 69.6089 88.6762 65.1535C88.6762 60.698 86.9078 57.0862 84.7263 57.0862C82.5448 57.0862 80.7764 60.698 80.7764 65.1535C80.7764 69.6089 82.5448 73.2208 84.7263 73.2208Z" fill="#42E8E0"/>
<path opacity="0.4" d="M90.5044 50.5339C91.4345 50.5339 92.1885 49.773 92.1885 48.8343C92.1885 47.8957 91.4345 47.1348 90.5044 47.1348C89.5743 47.1348 88.8203 47.8957 88.8203 48.8343C88.8203 49.773 89.5743 50.5339 90.5044 50.5339Z" fill="white"/>
<path opacity="0.4" d="M97.7058 58.6906C97.2016 58.6236 96.7584 58.2825 96.5701 57.7682C95.6671 55.2636 92.731 53.0888 92.7033 53.0665C92.0773 52.608 91.9332 51.7191 92.3875 51.0874C92.8418 50.45 93.7226 50.3103 94.3486 50.7687C94.4982 50.8749 98.0104 53.469 99.2126 56.801C99.4785 57.539 99.1018 58.3496 98.3705 58.618C98.1489 58.6962 97.9218 58.7186 97.7058 58.6906Z" fill="#FCFDFF"/>
<path d="M13.0732 170L17.1893 168.591C17.1893 168.591 35.903 131.212 72.5047 127.679C72.5047 127.679 36.5899 123.352 13.0732 170Z" fill="#110B35"/>
<path d="M132.053 170L127.936 168.592C127.936 168.592 109.223 131.213 72.6211 127.679C72.6266 127.679 108.541 123.352 132.053 170Z" fill="#110B35"/>
<path opacity="0.2" d="M44.3135 146.587L57.7975 146.173C57.7975 146.173 70.8937 155.213 100.449 148.432C100.449 148.437 70.8937 164.851 44.3135 146.587Z" fill="#F2F2F2"/>
<path d="M2.69756 116.632L7.69451 110.337L11.0406 118.801L0.31543 141.454L2.69756 116.632Z" fill="url(#paint1_linear)"/>
<path d="M7.69451 110.337L8.86341 118.376L0.31543 141.454L11.0406 118.801L7.69451 110.337Z" fill="#C1C1C1"/>
<path d="M142.276 116.632L136.824 110.443L133.933 118.801L144.658 141.454L142.276 116.632Z" fill="url(#paint2_linear)"/>
<path d="M136.824 110.443L136.104 118.376L144.658 141.454L133.933 118.801L136.824 110.443Z" fill="#C1C1C1"/>
<defs>
<linearGradient id="paint0_linear" x1="22.3537" y1="131.265" x2="123.135" y2="31.3993" gradientUnits="userSpaceOnUse">
<stop stop-color="#BBBDBF"/>
<stop offset="0.5832" stop-color="#DDDEDF"/>
<stop offset="1" stop-color="#F1F1F2"/>
</linearGradient>
<linearGradient id="paint1_linear" x1="8.77178" y1="129.264" x2="-1.24514" y2="122.314" gradientUnits="userSpaceOnUse">
<stop stop-color="#BBBDBF"/>
<stop offset="0.5832" stop-color="#DDDEDF"/>
<stop offset="1" stop-color="#F1F1F2"/>
</linearGradient>
<linearGradient id="paint2_linear" x1="136.152" y1="129.194" x2="146.169" y2="122.244" gradientUnits="userSpaceOnUse">
<stop stop-color="#BBBDBF"/>
<stop offset="0.5832" stop-color="#DDDEDF"/>
<stop offset="1" stop-color="#F1F1F2"/>
</linearGradient>
</defs>
</svg>
