<svg width="357" height="608" viewBox="0 0 357 608" fill="none" xmlns="http://www.w3.org/2000/svg">
<path fill-rule="evenodd" clip-rule="evenodd" d="M271.754 374.145L267.311 426.015L268.012 434.26C259.476 477.944 243.047 518.879 243.047 518.879C234.686 526.89 200.132 542.504 200.132 542.504L179.493 584.082C167.332 595.836 140.32 600.398 140.32 600.398L140.086 608C123.072 605.778 97.4054 595.485 97.4054 595.485L90.7401 573.03C82.6132 568.702 53.1458 548.176 53.1458 548.176L46.7729 521.686C46.7729 521.686 25.0232 501.686 23.6199 492.563C23.4445 491.511 23.0937 489.055 22.5091 485.546C18.0656 458.587 3.03953 369.116 3.03953 369.116C3.03953 369.116 -0.351557 361.046 0.0577124 353.911C0.525449 346.718 2.7472 324.555 2.7472 324.555C2.7472 324.555 105.708 297.947 123.306 296.544C140.905 295.199 212.586 296.135 212.586 296.135L214.281 244.557L239.246 216.253C244.333 222.101 247.724 229.703 250.004 236.779C250.18 237.305 250.297 237.773 250.472 238.299V238.358C251.875 243.153 252.752 247.48 253.337 250.697L253.396 251.048C253.863 253.972 254.039 255.843 254.039 255.843L252.635 230.229L262.458 214.616C265.907 195.376 265.323 157.482 265.323 157.482L272.69 151.81L274.678 118.009L286.722 115.553L293.913 159.529L299.818 170.64C299.818 170.64 298.357 221.341 296.837 242.627C295.316 263.971 300.637 327.42 300.637 327.42C289.996 356.835 271.754 374.145 271.754 374.145Z" fill="url(#paint0_linear)"/>
<path fill-rule="evenodd" clip-rule="evenodd" d="M2.74707 324.555L30.9867 337.127C30.9867 337.127 60.8633 329.467 63.7867 326.894C66.7101 324.379 87.9336 309.467 87.9336 309.467L140.846 305.315L144.062 319.818C144.062 319.818 159.38 318.414 175.868 316.134C192.297 313.853 202.88 315.315 209.019 310.929C215.158 306.602 213.229 303.678 221.063 303.035C228.898 302.333 236.732 301.865 236.732 301.865L212.644 296.017C212.644 296.017 144.705 297.538 123.365 296.426C101.966 295.432 13.9143 317.303 2.74707 324.555Z" fill="url(#paint1_linear)"/>
<path fill-rule="evenodd" clip-rule="evenodd" d="M53.5567 436.541L38.7061 452.271C38.7061 452.271 78.2298 457.593 90.4494 458.47C102.669 459.347 131.903 457.476 131.903 457.476C131.903 457.476 178.384 449.113 192.065 447.71C205.746 446.307 255.911 436.19 255.911 436.19L266.026 432.857L256.204 427.769C256.204 427.769 229.484 427.067 218.96 431.278C208.436 435.547 171.309 442.739 158.564 446.131C145.818 449.464 121.262 449.874 121.262 449.874C121.262 449.874 65.4255 435.956 53.5567 436.541Z" fill="url(#paint2_linear)"/>
<path fill-rule="evenodd" clip-rule="evenodd" d="M214.342 244.556L230.771 251.515C230.771 251.515 240.126 249.235 243.751 245.785C247.376 242.334 250.182 236.662 250.182 236.662C250.182 236.662 244.335 222.159 239.366 216.253C239.307 216.311 222.352 231.691 214.342 244.556Z" fill="#A0FFED"/>
<path fill-rule="evenodd" clip-rule="evenodd" d="M252.693 230.288C252.693 230.288 265.322 228.358 272.806 228.124C280.29 227.89 290.814 222.393 290.814 222.393L291.048 214.908L262.457 214.674C262.457 214.674 255.207 223.972 252.693 230.288Z" fill="#A0FFED"/>
<path fill-rule="evenodd" clip-rule="evenodd" d="M265.381 157.541L274.677 171.809L289.177 177.54L297.245 179.996L282.804 171.283L277.425 157.95L272.748 151.868L265.381 157.541Z" fill="#A0FFED"/>
<path fill-rule="evenodd" clip-rule="evenodd" d="M274.738 118.068L278.597 138.068L285.438 144.032L287.484 133.389L286.783 115.612L274.738 118.068Z" fill="#A0FFED"/>
<path fill-rule="evenodd" clip-rule="evenodd" d="M269.006 308.824L257.079 321.163L239.363 325.607L226.617 325.198L243.865 316.894L251.349 307.42L256.085 300.11L269.006 308.824Z" fill="url(#paint3_linear)"/>
<path fill-rule="evenodd" clip-rule="evenodd" d="M271.753 374.145L267.309 426.015L268.011 434.26C259.475 477.944 243.046 518.879 243.046 518.879C234.685 526.89 200.131 542.504 200.131 542.504L179.492 584.082C167.331 595.836 140.319 600.398 140.319 600.398L140.085 608C123.071 605.778 97.4041 595.485 97.4041 595.485L90.7389 573.03C82.612 568.702 53.1446 548.176 53.1446 548.176L46.7717 521.686C46.7717 521.686 25.0219 501.686 23.6187 492.563C23.4433 491.511 23.0925 489.055 22.5078 485.546L37.3584 494.259L44.0237 482.798L42.2112 452.389L51.449 502.037L52.6184 534.902L59.6344 543.615L82.9628 557.533L103.075 575.31L119.154 565.311L122.019 478.002L117.341 465.897L124.357 473.207L131.315 534.492L135.291 568.644L161.893 569.521L179.375 545.603L198.377 525.662L222.524 500.341L236.556 471.687L250.588 437.945L266.023 432.74L256.201 427.652L225.973 429.348L200.891 436.307C200.891 436.307 167.214 443.909 154.76 446.833C142.365 449.757 121.259 449.699 121.259 449.699L76.4729 439.582L73.725 426.307L65.8904 405.314L64.6626 356.309L63.7856 326.777L87.9325 309.351L140.787 305.257L144.002 319.76L143.242 409.758L156.865 442.564L178.556 435.664L202.762 408.355L207.439 355.899L208.901 311.047C216.385 302.216 220.945 303.093 220.945 303.093L220.594 313.853L224.453 389.875L230.534 369.174L229.306 326.953L239.362 325.608L257.078 321.163L266.959 313.035L254.447 305.491L241.642 318.005L236.673 302.041L234.919 280.989L230.709 251.574L243.63 245.843L249.945 236.837L250.003 236.72L250.354 238.358V238.416L253.219 250.755L253.277 250.931V251.106L255.967 300.111L268.888 308.824L269.18 333.619L284.148 323.736L286.136 314.497C286.136 314.497 281.108 295.316 282.511 279.41C283.856 263.504 290.17 238.884 290.17 238.884L290.989 214.908L290.638 179.704L297.186 179.938L292.275 175.903L292.567 167.482C292.567 167.482 288.884 164.558 287.247 160.64C285.61 156.722 285.317 143.974 285.317 143.974L287.364 133.331L286.662 115.553L293.854 159.529L299.759 170.64C299.759 170.64 298.297 221.341 296.777 242.627C295.257 263.971 300.577 327.42 300.577 327.42C289.995 356.835 271.753 374.145 271.753 374.145Z" fill="url(#paint4_linear)"/>
<path fill-rule="evenodd" clip-rule="evenodd" d="M314.027 5.14559C314.027 5.14559 312.273 41.0513 305.9 66.6064L297.013 78.1851C297.013 78.1851 293.798 100.114 291.459 105.728C289.12 111.342 277.953 105.261 277.953 105.261C277.953 105.261 273.159 87.4247 270.118 65.0275C268.014 48.9459 266.786 30.5252 269.066 14.7945C269.066 14.7945 282.513 2.04623 294.031 0.233403C299.937 -0.643773 305.023 0.642751 308.59 2.10471L308.707 2.16319C311.63 3.39124 313.501 4.73624 313.91 5.02863L314.027 5.14559Z" fill="url(#paint5_linear)"/>
<path fill-rule="evenodd" clip-rule="evenodd" d="M314.029 5.14548C314.029 5.14548 312.275 41.0512 305.902 66.6063L297.015 78.185C297.015 78.185 293.799 100.114 291.461 105.728C289.122 111.342 277.955 105.261 277.955 105.261C277.955 105.261 273.16 87.4246 270.12 65.0274L275.733 87.7755L290.233 83.2726L291.987 71.46L297.541 21.5194L296.255 61.1678L304.031 52.5715L304.557 36.6069L308.65 2.16309L308.767 2.22156L313.97 5.08701L314.029 5.14548Z" fill="url(#paint6_linear)"/>
<path fill-rule="evenodd" clip-rule="evenodd" d="M353.08 493.089L343.549 503.206L327.705 518.878C327.705 518.878 326.419 531.276 320.572 536.773C314.725 542.27 308.294 542.855 308.294 542.855L304.552 527.592C304.552 527.592 292.274 522.621 287.713 518.995C287.07 518.469 286.603 518.001 286.31 517.533C284.264 514.259 278.593 461.277 280.347 446.774C280.522 445.371 280.756 444.377 281.048 443.734C292.975 420.693 329.751 426.833 329.751 426.833L337.177 442.915C337.177 442.915 343.549 442.564 349.045 444.494C351.443 445.313 353.723 446.599 355.126 448.529C355.769 449.406 356.295 450.459 356.529 451.687C358.576 461.277 353.08 493.089 353.08 493.089Z" fill="url(#paint7_linear)"/>
<path fill-rule="evenodd" clip-rule="evenodd" d="M356.528 451.629C349.863 450.342 332.674 451.804 332.674 451.804L330.686 454.669C316.069 456.482 282.567 447.36 280.346 446.716C280.521 445.313 280.755 444.319 281.047 443.675C292.975 420.635 329.75 426.775 329.75 426.775L337.176 442.857C337.176 442.857 354.54 441.98 356.528 451.629Z" fill="#68F6FF"/>
<path fill-rule="evenodd" clip-rule="evenodd" d="M353.078 493.09L350.038 469.231L338.636 475.137L328.814 509.99L321.856 517.3L313.32 518.587L304.492 527.534C304.492 527.534 292.214 522.563 287.653 518.937L286.25 517.475L303.907 517.943L316.419 507.71L323.377 487.652L330.568 454.67L328.463 448.296L349.044 444.436L355.124 448.471C355.767 449.348 356.294 450.401 356.527 451.629C358.574 461.278 353.078 493.09 353.078 493.09Z" fill="url(#paint8_linear)"/>
<defs>
<linearGradient id="paint0_linear" x1="141.477" y1="608.026" x2="157.98" y2="111.328" gradientUnits="userSpaceOnUse">
<stop stop-color="#4C51DD"/>
<stop offset="0.9944" stop-color="#86F9FF"/>
</linearGradient>
<linearGradient id="paint1_linear" x1="3.14941" y1="312.726" x2="236.091" y2="320.463" gradientUnits="userSpaceOnUse">
<stop stop-color="#BDFFFF"/>
<stop offset="1" stop-color="#39D0DD"/>
</linearGradient>
<linearGradient id="paint2_linear" x1="39.1691" y1="438.674" x2="265.576" y2="446.194" gradientUnits="userSpaceOnUse">
<stop stop-color="#4CFFED"/>
<stop offset="1" stop-color="#39D0DD"/>
</linearGradient>
<linearGradient id="paint3_linear" x1="227.064" y1="312.173" x2="268.863" y2="313.562" gradientUnits="userSpaceOnUse">
<stop stop-color="#84FFED"/>
<stop offset="1" stop-color="#39D0DD"/>
</linearGradient>
<linearGradient id="paint4_linear" x1="298.141" y1="484.657" x2="111.715" y2="262.51" gradientUnits="userSpaceOnUse">
<stop stop-color="#2933B7"/>
<stop offset="1" stop-color="#1E7ABA"/>
</linearGradient>
<linearGradient id="paint5_linear" x1="287.956" y1="108.16" x2="291.557" y2="-0.227524" gradientUnits="userSpaceOnUse">
<stop offset="0.00558659" stop-color="#86F9FF"/>
<stop offset="1" stop-color="#7D8CDD"/>
</linearGradient>
<linearGradient id="paint6_linear" x1="289.655" y1="108.217" x2="293.195" y2="1.65452" gradientUnits="userSpaceOnUse">
<stop stop-color="#3E1EC0"/>
<stop offset="1" stop-color="#4395BA"/>
</linearGradient>
<linearGradient id="paint7_linear" x1="318.502" y1="542.836" x2="318.506" y2="426.026" gradientUnits="userSpaceOnUse">
<stop stop-color="#4C51DD"/>
<stop offset="0.9944" stop-color="#86F9FF"/>
</linearGradient>
<linearGradient id="paint8_linear" x1="320.318" y1="528.079" x2="323.126" y2="443.575" gradientUnits="userSpaceOnUse">
<stop stop-color="#3E1EC0"/>
<stop offset="1" stop-color="#4395BA"/>
</linearGradient>
</defs>
</svg>
