<svg width="761" height="274" viewBox="0 0 761 274" fill="none" xmlns="http://www.w3.org/2000/svg">
<g clip-path="url(#clip0)">
<path opacity="0.5" d="M70.9925 119.627C71.2163 116.689 73.7733 114.486 76.746 114.677C79.6867 114.901 81.9241 117.455 81.7004 120.393C81.4766 123.331 78.9195 125.535 75.9469 125.343C73.0062 125.152 70.8007 122.597 70.9925 119.627Z" fill="#AFF1FF"/>
<path opacity="0.85" d="M26.4993 110.973C26.7231 108.035 29.2802 105.831 32.2528 106.023C35.1935 106.246 37.431 108.801 37.2072 111.739C36.9835 114.677 34.4264 116.881 31.4537 116.689C28.513 116.497 26.3076 113.911 26.4993 110.973Z" fill="#AFF1FF"/>
<path opacity="0.5" d="M118.555 72.7471C118.779 69.8091 121.336 67.6056 124.308 67.7972C127.249 68.0208 129.487 70.5756 129.263 73.5136C129.039 76.4516 126.482 78.6551 123.509 78.4635C120.537 78.2718 118.331 75.6851 118.555 72.7471Z" fill="#AFF1FF"/>
<path opacity="0.85" d="M0.0324076 4.94977C0.256157 2.01177 2.8133 -0.191722 5.78597 -0.000113692C8.72668 0.223429 10.9642 2.77821 10.7404 5.7162C10.5167 8.6542 7.95954 10.8577 4.98687 10.6661C2.0142 10.4745 -0.191342 7.88777 0.0324076 4.94977Z" fill="#AFF1FF"/>
<path opacity="0.25" d="M84.9927 65.4343C85.1525 63.2308 87.0704 61.5702 89.3079 61.7299C91.5134 61.8895 93.1756 63.8056 93.0157 66.041C92.8559 68.2445 90.9381 69.9051 88.7006 69.7455C86.4631 69.5539 84.8009 67.6378 84.9927 65.4343Z" fill="#AFF1FF"/>
<path opacity="0.25" d="M39.1559 20.4699C39.3157 18.2664 41.2336 16.6058 43.471 16.7655C45.6766 16.9252 47.3386 18.8413 47.1788 21.0767C47.019 23.2802 45.1012 24.9408 42.8637 24.7811C40.6582 24.5895 38.9961 22.6734 39.1559 20.4699Z" fill="#AFF1FF"/>
<path opacity="0.25" d="M25.9235 75.5256C26.0833 73.3221 28.0012 71.6615 30.2387 71.8212C32.4441 71.9808 34.1062 73.8969 33.9464 76.1324C33.7866 78.3358 31.8688 79.9965 29.6313 79.8368C27.4258 79.6771 25.7637 77.7291 25.9235 75.5256Z" fill="#AFF1FF"/>
<path opacity="0.5" d="M323.221 35.0325C323.221 38.0024 320.823 40.3975 317.851 40.3975C314.878 40.3975 312.481 38.0024 312.481 35.0325C312.481 32.0626 314.878 29.6675 317.851 29.6675C320.823 29.6675 323.221 32.0626 323.221 35.0325Z" fill="#AFF1FF"/>
<path opacity="0.85" d="M368.226 40.3655C368.226 43.3355 365.828 45.7306 362.856 45.7306C359.883 45.7306 357.486 43.3355 357.486 40.3655C357.486 37.3956 359.883 35.0005 362.856 35.0005C365.828 35.0324 368.226 37.4275 368.226 40.3655Z" fill="#AFF1FF"/>
<path opacity="0.5" d="M279.271 85.2981C279.271 88.2681 276.873 90.6312 273.901 90.6312C270.928 90.6312 268.531 88.2361 268.531 85.2981C268.531 82.3282 270.928 79.9331 273.901 79.9331C276.873 79.965 279.271 82.3601 279.271 85.2981Z" fill="#AFF1FF"/>
<path opacity="0.85" d="M402.523 144.153C402.523 147.123 400.126 149.518 397.154 149.518C394.181 149.518 391.784 147.123 391.784 144.153C391.784 141.183 394.181 138.82 397.154 138.82C400.126 138.788 402.523 141.183 402.523 144.153Z" fill="#AFF1FF"/>
<path opacity="0.25" d="M309.284 94.1437C307.06 94.1437 305.257 92.3422 305.257 90.12C305.257 87.8977 307.06 86.0962 309.284 86.0962C311.508 86.0962 313.312 87.8977 313.312 90.12C313.312 92.3422 311.508 94.1437 309.284 94.1437Z" fill="#AFF1FF"/>
<path opacity="0.25" d="M358.317 135.595C356.093 135.595 354.29 133.793 354.29 131.571C354.29 129.349 356.093 127.547 358.317 127.547C360.542 127.547 362.345 129.349 362.345 131.571C362.345 133.793 360.542 135.595 358.317 135.595Z" fill="#AFF1FF"/>
<path opacity="0.25" d="M371.455 75.6854C371.455 77.8889 369.665 79.7092 367.428 79.7092C365.222 79.7092 363.4 77.9208 363.4 75.6854C363.4 73.45 365.19 71.6616 367.428 71.6616C369.633 71.6616 371.455 73.4819 371.455 75.6854Z" fill="#AFF1FF"/>
<path opacity="0.5" d="M761 67.8614C761 74.887 755.278 80.5714 748.246 80.5714C741.214 80.5714 735.493 74.887 735.493 67.8614C735.493 60.8357 741.214 55.1514 748.246 55.1514C755.278 55.1514 761 60.8357 761 67.8614Z" fill="#AFF1FF"/>
<path opacity="0.5" d="M724.049 150.572C720.536 150.572 717.688 147.727 717.688 144.217C717.688 140.708 720.536 137.862 724.049 137.862C727.562 137.862 730.41 140.708 730.41 144.217C730.41 147.727 727.562 150.572 724.049 150.572Z" fill="#AFF1FF"/>
<path opacity="0.5" d="M559.626 32.2222C559.626 35.735 556.781 38.5772 553.265 38.5772C549.749 38.5772 546.904 35.735 546.904 32.2222C546.904 28.7094 549.749 25.8672 553.265 25.8672C556.749 25.8672 559.626 28.7094 559.626 32.2222Z" fill="#AFF1FF"/>
<path opacity="0.85" d="M659.035 117.488C655.522 117.488 652.674 114.643 652.674 111.133C652.674 107.623 655.522 104.778 659.035 104.778C662.548 104.778 665.396 107.623 665.396 111.133C665.396 114.643 662.548 117.488 659.035 117.488Z" fill="#AFF1FF"/>
<path opacity="0.2" d="M562.151 146.74C562.151 149.55 559.882 151.818 557.037 151.818C554.224 151.818 551.923 149.55 551.923 146.74C551.923 143.93 554.192 141.662 557.037 141.662C559.882 141.662 562.151 143.93 562.151 146.74Z" fill="#AFF1FF"/>
<path opacity="0.2" d="M699.82 80.6033C697.701 80.6033 695.984 78.8876 695.984 76.7711C695.984 74.6547 697.701 72.939 699.82 72.939C701.938 72.939 703.655 74.6547 703.655 76.7711C703.655 78.8876 701.938 80.6033 699.82 80.6033Z" fill="#AFF1FF"/>
<path opacity="0.2" d="M678.15 112.41C676.031 112.41 674.314 110.694 674.314 108.578C674.314 106.461 676.031 104.746 678.15 104.746C680.268 104.746 681.985 106.461 681.985 108.578C681.985 110.694 680.268 112.41 678.15 112.41Z" fill="#AFF1FF"/>
<path opacity="0.2" d="M659.034 69.139C656.916 69.139 655.199 67.4232 655.199 65.3068C655.199 63.1903 656.916 61.4746 659.034 61.4746C661.153 61.4746 662.87 63.1903 662.87 65.3068C662.87 67.4232 661.153 69.139 659.034 69.139Z" fill="#AFF1FF"/>
<path opacity="0.5" d="M474.22 267.645C474.22 271.158 471.375 274 467.859 274C464.343 274 461.498 271.158 461.498 267.645C461.498 264.132 464.343 261.29 467.859 261.29C471.375 261.258 474.22 264.132 474.22 267.645Z" fill="#AFF1FF"/>
<path opacity="0.2" d="M494.613 121.959C492.494 121.959 490.777 120.243 490.777 118.127C490.777 116.01 492.494 114.294 494.613 114.294C496.731 114.294 498.448 116.01 498.448 118.127C498.448 120.243 496.731 121.959 494.613 121.959Z" fill="#AFF1FF"/>
<path opacity="0.2" d="M478.661 185.573C478.661 187.681 476.935 189.405 474.825 189.405C472.716 189.405 470.99 187.681 470.99 185.573C470.99 183.465 472.716 181.741 474.825 181.741C476.967 181.741 478.661 183.465 478.661 185.573Z" fill="#AFF1FF"/>
<path opacity="0.2" d="M499.055 170.308C496.937 170.308 495.219 168.592 495.219 166.476C495.219 164.359 496.937 162.644 499.055 162.644C501.173 162.644 502.891 164.359 502.891 166.476C502.891 168.592 501.173 170.308 499.055 170.308Z" fill="#AFF1FF"/>
<path opacity="0.5" d="M479.301 6.80207C479.301 9.61233 477.031 11.8797 474.187 11.8797C471.374 11.8797 469.072 9.61233 469.072 6.80207C469.072 3.99182 471.342 1.72445 474.187 1.72445C477.031 1.69252 479.301 3.99182 479.301 6.80207Z" fill="#AFF1FF"/>
<path opacity="0.2" d="M521.366 60.229C521.366 63.0392 519.097 65.3066 516.252 65.3066C513.407 65.3066 511.138 63.0392 511.138 60.229C511.138 57.4187 513.407 55.1514 516.252 55.1514C519.097 55.1514 521.366 57.4187 521.366 60.229Z" fill="#AFF1FF"/>
</g>
<defs>
<clipPath id="clip0">
<rect width="761" height="274" fill="white" transform="matrix(-1 0 0 1 761 0)"/>
</clipPath>
</defs>
</svg>
