<svg width="232" height="761" viewBox="0 0 232 761" fill="none" xmlns="http://www.w3.org/2000/svg">
<g clip-path="url(#clip0)">
<path opacity="0.5" d="M77.6275 690.008C74.6895 689.784 72.486 687.227 72.6776 684.254C72.9012 681.314 75.4559 679.076 78.3939 679.3C81.3319 679.524 83.5354 682.081 83.3438 685.053C83.1522 687.994 80.5974 690.2 77.6275 690.008Z" fill="#AFF1FF"/>
<path opacity="0.85" d="M68.9732 734.501C66.0352 734.278 63.8317 731.721 64.0233 728.748C64.2469 725.807 66.8016 723.57 69.7396 723.794C72.6776 724.017 74.8811 726.574 74.6895 729.547C74.4979 732.488 71.9112 734.693 68.9732 734.501Z" fill="#AFF1FF"/>
<path opacity="0.5" d="M30.7476 642.445C27.8096 642.222 25.6061 639.664 25.7977 636.692C26.0213 633.751 28.5761 631.514 31.5141 631.737C34.4521 631.961 36.6556 634.518 36.4639 637.491C36.2723 640.464 33.6856 642.669 30.7476 642.445Z" fill="#AFF1FF"/>
<path opacity="0.25" d="M23.4338 676.008C21.2303 675.848 19.5697 673.93 19.7294 671.692C19.889 669.487 21.8051 667.825 24.0406 667.985C26.244 668.144 27.9047 670.062 27.745 672.3C27.5534 674.537 25.6373 676.199 23.4338 676.008Z" fill="#AFF1FF"/>
<path opacity="0.25" d="M33.5256 735.077C31.3221 734.917 29.6615 732.999 29.8212 730.762C29.9808 728.556 31.8969 726.894 34.1324 727.054C36.3358 727.214 37.9965 729.131 37.8368 731.369C37.6771 733.574 35.7291 735.237 33.5256 735.077Z" fill="#AFF1FF"/>
<path opacity="0.85" d="M-1.63497 392.775C1.33496 392.775 3.73006 395.172 3.73006 398.145C3.73006 401.117 1.33496 403.515 -1.63497 403.515C-4.6049 403.515 -7 401.117 -7 398.145C-6.96807 395.172 -4.57296 392.775 -1.63497 392.775Z" fill="#AFF1FF"/>
<path opacity="0.5" d="M43.2976 481.73C46.2676 481.73 48.6307 484.128 48.6307 487.1C48.6307 490.073 46.2356 492.47 43.2976 492.47C40.3277 492.47 37.9326 490.073 37.9326 487.1C37.9646 484.128 40.3597 481.73 43.2976 481.73Z" fill="#AFF1FF"/>
<path opacity="0.85" d="M102.153 358.477C105.123 358.477 107.518 360.874 107.518 363.847C107.518 366.82 105.123 369.217 102.153 369.217C99.1828 369.217 96.8197 366.82 96.8197 363.847C96.7877 360.874 99.1828 358.477 102.153 358.477Z" fill="#AFF1FF"/>
<path opacity="0.25" d="M52.1433 451.717C52.1433 453.941 50.3418 455.744 48.1195 455.744C45.8972 455.744 44.0957 453.941 44.0957 451.717C44.0957 449.492 45.8972 447.689 48.1195 447.689C50.3418 447.689 52.1433 449.492 52.1433 451.717Z" fill="#AFF1FF"/>
<path opacity="0.25" d="M93.5944 402.684C93.5944 404.908 91.7929 406.711 89.5707 406.711C87.3484 406.711 85.5469 404.908 85.5469 402.684C85.5469 400.459 87.3484 398.656 89.5707 398.656C91.7929 398.656 93.5944 400.459 93.5944 402.684Z" fill="#AFF1FF"/>
<path opacity="0.25" d="M33.6849 389.546C35.8884 389.546 37.7087 391.336 37.7087 393.573C37.7087 395.779 35.9203 397.601 33.6849 397.601C31.4495 397.601 29.6611 395.811 29.6611 393.573C29.6611 391.368 31.4814 389.546 33.6849 389.546Z" fill="#AFF1FF"/>
<path opacity="0.5" d="M25.8604 5.55573e-07C32.8861 8.62673e-07 38.5704 5.72156 38.5704 12.7537C38.5704 19.7857 32.8861 25.5073 25.8604 25.5073C18.8348 25.5073 13.1504 19.7857 13.1504 12.7537C13.1504 5.72156 18.8348 2.48472e-07 25.8604 5.55573e-07Z" fill="#AFF1FF"/>
<path opacity="0.5" d="M108.571 36.9504C108.571 40.4634 105.726 43.3113 102.216 43.3113C98.7066 43.3113 95.8613 40.4634 95.8613 36.9504C95.8613 33.4374 98.7066 30.5896 102.216 30.5896C105.726 30.5896 108.571 33.4375 108.571 36.9504Z" fill="#AFF1FF"/>
<path opacity="0.85" d="M75.4874 101.965C75.4874 105.478 72.6421 108.326 69.1324 108.326C65.6226 108.326 62.7773 105.478 62.7773 101.965C62.7773 98.4523 65.6226 95.6045 69.1324 95.6045C72.6421 95.6045 75.4874 98.4523 75.4874 101.965Z" fill="#AFF1FF"/>
<path opacity="0.2" d="M104.74 198.848C107.55 198.848 109.817 201.118 109.817 203.963C109.817 206.775 107.55 209.077 104.74 209.077C101.929 209.077 99.6621 206.807 99.6621 203.963C99.6621 201.118 101.929 198.848 104.74 198.848Z" fill="#AFF1FF"/>
<path opacity="0.2" d="M38.6028 61.1802C38.6028 63.2986 36.8871 65.0159 34.7706 65.0159C32.6542 65.0159 30.9385 63.2986 30.9385 61.1802C30.9385 59.0618 32.6542 57.3445 34.7706 57.3445C36.8871 57.3445 38.6028 59.0618 38.6028 61.1802Z" fill="#AFF1FF"/>
<path opacity="0.2" d="M70.4095 82.8501C70.4095 84.9685 68.6937 86.6858 66.5773 86.6858C64.4608 86.6858 62.7451 84.9685 62.7451 82.8501C62.7451 80.7317 64.4608 79.0144 66.5773 79.0144C68.6937 79.0144 70.4095 80.7317 70.4095 82.8501Z" fill="#AFF1FF"/>
<path opacity="0.2" d="M27.138 101.966C27.138 104.084 25.4223 105.801 23.3058 105.801C21.1894 105.801 19.4736 104.084 19.4736 101.966C19.4736 99.8474 21.1894 98.1301 23.3058 98.1301C25.4223 98.1301 27.138 99.8474 27.138 101.966Z" fill="#AFF1FF"/>
<path opacity="0.5" d="M225.644 286.781C229.157 286.781 231.999 289.626 231.999 293.142C231.999 296.658 229.157 299.503 225.644 299.503C222.132 299.503 219.289 296.658 219.289 293.142C219.257 289.626 222.132 286.781 225.644 286.781Z" fill="#AFF1FF"/>
<path opacity="0.2" d="M79.9583 266.388C79.9583 268.507 78.2426 270.224 76.1261 270.224C74.0097 270.224 72.2939 268.507 72.2939 266.388C72.2939 264.27 74.0097 262.552 76.1261 262.552C78.2426 262.552 79.9583 264.27 79.9583 266.388Z" fill="#AFF1FF"/>
<path opacity="0.2" d="M143.572 282.339C145.68 282.339 147.405 284.065 147.405 286.174C147.405 288.284 145.68 290.01 143.572 290.01C141.465 290.01 139.74 288.284 139.74 286.174C139.74 284.033 141.465 282.339 143.572 282.339Z" fill="#AFF1FF"/>
<path opacity="0.2" d="M128.307 261.945C128.307 264.063 126.591 265.781 124.475 265.781C122.358 265.781 120.643 264.063 120.643 261.945C120.643 259.827 122.358 258.109 124.475 258.109C126.591 258.109 128.307 259.827 128.307 261.945Z" fill="#AFF1FF"/>
<path opacity="0.2" d="M18.228 239.634C21.0383 239.634 23.3056 241.903 23.3056 244.748C23.3056 247.593 21.0383 249.863 18.228 249.863C15.4178 249.863 13.1504 247.593 13.1504 244.748C13.1504 241.903 15.4178 239.634 18.228 239.634Z" fill="#AFF1FF"/>
</g>
<defs>
<clipPath id="clip0">
<rect width="761" height="274" fill="white" transform="matrix(-4.37114e-08 1 1 4.37114e-08 -42 0)"/>
</clipPath>
</defs>
</svg>
