<svg width="100%" viewBox="0 0 1373 515" fill="none" xmlns="http://www.w3.org/2000/svg">
<path d="M824.328 40.1743C824.328 56.5018 817.641 58.3381 817.641 58.3381C817.641 58.3381 824.328 60.1744 824.328 76.5019C824.328 60.1744 831.016 58.3381 831.016 58.3381C831.016 58.3381 824.328 56.5018 824.328 40.1743Z" fill="white"/>
<path d="M1339.66 425.846C1339.66 442.173 1332.97 444.009 1332.97 444.009C1332.97 444.009 1339.66 445.846 1339.66 462.173C1339.66 445.846 1346.35 444.009 1346.35 444.009C1346.35 444.009 1339.66 442.173 1339.66 425.846Z" fill="white"/>
<path d="M7.50383 476.365C7.50383 492.692 0.816406 494.529 0.816406 494.529C0.816406 494.529 7.50383 496.365 7.50383 512.692C7.50383 496.365 14.1913 494.529 14.1913 494.529C14.1913 494.529 7.50383 492.692 7.50383 476.365Z" fill="white"/>
<path d="M316.404 -30.0854C316.404 -5.734 306.442 -2.99945 306.442 -2.99945C306.442 -2.99945 316.404 -0.264906 316.404 24.0865C316.404 -0.264906 326.365 -2.99945 326.365 -2.99945C326.365 -2.99945 316.404 -5.734 316.404 -30.0854Z" fill="white"/>
<path d="M1008.38 -30.0854C1008.38 -5.734 998.42 -2.99945 998.42 -2.99945C998.42 -2.99945 1008.38 -0.264906 1008.38 24.0865C1008.38 -0.264906 1018.34 -2.99945 1018.34 -2.99945C1018.34 -2.99945 1008.38 -5.734 1008.38 -30.0854Z" fill="white"/>
<path d="M1362.3 18.7373C1362.3 43.0887 1352.33 45.8233 1352.33 45.8233C1352.33 45.8233 1362.3 48.5578 1362.3 72.9093C1362.3 48.5578 1372.26 45.8233 1372.26 45.8233C1372.26 45.8233 1362.3 43.0887 1362.3 18.7373Z" fill="white"/>
<path d="M336.326 459.998C336.326 484.349 326.364 487.084 326.364 487.084C326.364 487.084 336.326 489.818 336.326 514.17C336.326 489.818 346.287 487.084 346.287 487.084C346.287 487.084 336.326 484.349 336.326 459.998Z" fill="white"/>
<path d="M101.727 105.544C101.727 129.895 91.7656 132.63 91.7656 132.63C91.7656 132.63 101.727 135.364 101.727 159.716C101.727 135.364 111.688 132.63 111.688 132.63C111.688 132.63 101.727 129.915 101.727 105.544Z" fill="white"/>
</svg>
