<svg width="100%"  viewBox="0 0 466 42" fill="none" xmlns="http://www.w3.org/2000/svg">
<path d="M0.8005 33L12.6085 2.088H20.9605L32.7685 33H24.7045L21.9205 25.992H11.6005L8.8645 33H0.8005ZM12.6565 20.28H20.8645L16.7365 9.528L12.6565 20.28ZM42.8189 33.48C40.1309 33.48 38.0349 32.728 36.5309 31.224C35.0269 29.688 34.2749 27.464 34.2749 24.552V10.248H42.0029V24.12C42.0029 25.4 42.3069 26.344 42.9149 26.952C43.5549 27.528 44.4989 27.816 45.7469 27.816C46.6749 27.816 47.5549 27.624 48.3869 27.24C49.2189 26.856 49.9069 26.376 50.4509 25.8V10.248H58.1789V33H50.9789L50.7389 31.08C49.8109 31.784 48.6909 32.36 47.3789 32.808C46.0669 33.256 44.5469 33.48 42.8189 33.48ZM75.073 33.48C71.009 33.48 67.825 32.488 65.521 30.504C63.249 28.52 62.113 25.56 62.113 21.624C62.113 17.624 63.297 14.648 65.665 12.696C68.065 10.744 71.249 9.768 75.217 9.768C76.881 9.768 78.321 9.896 79.537 10.152C80.785 10.376 81.985 10.76 83.137 11.304V16.776C81.345 15.912 79.249 15.48 76.849 15.48C74.609 15.48 72.897 15.928 71.713 16.824C70.561 17.72 69.985 19.32 69.985 21.624C69.985 23.768 70.529 25.336 71.617 26.328C72.705 27.288 74.433 27.768 76.801 27.768C79.137 27.768 81.265 27.288 83.185 26.328V32.04C82.033 32.552 80.785 32.92 79.441 33.144C78.129 33.368 76.673 33.48 75.073 33.48ZM96.4799 33.48C93.6639 33.48 91.5839 32.76 90.2399 31.32C88.9279 29.88 88.2719 27.896 88.2719 25.368V16.104H85.1999V10.248H88.2719V5.496L95.9999 3.432V10.248H101.52L101.184 16.104H95.9999V24.84C95.9999 25.928 96.2719 26.696 96.8159 27.144C97.3599 27.56 98.1759 27.768 99.2639 27.768C100.192 27.768 101.136 27.608 102.096 27.288V32.52C100.592 33.16 98.7199 33.48 96.4799 33.48ZM106.609 6.648V0.839999H115.009V6.648H106.609ZM107.233 33V15.96H103.873L104.545 10.248H114.961V33H107.233ZM131.742 33.48C127.358 33.48 124.126 32.472 122.046 30.456C119.966 28.408 118.926 25.464 118.926 21.624C118.926 17.816 119.966 14.888 122.046 12.84C124.158 10.792 127.39 9.768 131.742 9.768C136.126 9.768 139.358 10.792 141.438 12.84C143.55 14.888 144.606 17.816 144.606 21.624C144.606 25.464 143.566 28.408 141.486 30.456C139.406 32.472 136.158 33.48 131.742 33.48ZM131.742 27.432C133.534 27.432 134.814 26.984 135.582 26.088C136.35 25.192 136.734 23.704 136.734 21.624C136.734 19.544 136.35 18.056 135.582 17.16C134.814 16.264 133.534 15.816 131.742 15.816C129.982 15.816 128.718 16.264 127.95 17.16C127.182 18.056 126.798 19.544 126.798 21.624C126.798 23.704 127.182 25.192 127.95 26.088C128.718 26.984 129.982 27.432 131.742 27.432ZM148.526 33V10.248H155.726L155.966 12.216C156.894 11.576 158.062 11.016 159.47 10.536C160.878 10.024 162.382 9.768 163.982 9.768C166.926 9.768 169.07 10.472 170.414 11.88C171.758 13.288 172.43 15.464 172.43 18.408V33H164.702V19.032C164.702 17.752 164.43 16.84 163.886 16.296C163.342 15.752 162.366 15.48 160.958 15.48C160.126 15.48 159.278 15.672 158.414 16.056C157.55 16.44 156.83 16.92 156.254 17.496V33H148.526ZM199.386 33.48C195.322 33.48 192.138 32.488 189.834 30.504C187.562 28.52 186.426 25.56 186.426 21.624C186.426 17.624 187.61 14.648 189.978 12.696C192.378 10.744 195.562 9.768 199.53 9.768C201.194 9.768 202.634 9.896 203.85 10.152C205.098 10.376 206.298 10.76 207.45 11.304V16.776C205.658 15.912 203.562 15.48 201.162 15.48C198.922 15.48 197.21 15.928 196.026 16.824C194.874 17.72 194.298 19.32 194.298 21.624C194.298 23.768 194.842 25.336 195.93 26.328C197.018 27.288 198.746 27.768 201.114 27.768C203.45 27.768 205.578 27.288 207.498 26.328V32.04C206.346 32.552 205.098 32.92 203.754 33.144C202.442 33.368 200.986 33.48 199.386 33.48ZM223.288 33.48C218.904 33.48 215.672 32.472 213.592 30.456C211.512 28.408 210.472 25.464 210.472 21.624C210.472 17.816 211.512 14.888 213.592 12.84C215.704 10.792 218.936 9.768 223.288 9.768C227.672 9.768 230.904 10.792 232.984 12.84C235.096 14.888 236.152 17.816 236.152 21.624C236.152 25.464 235.112 28.408 233.032 30.456C230.952 32.472 227.704 33.48 223.288 33.48ZM223.288 27.432C225.08 27.432 226.36 26.984 227.128 26.088C227.896 25.192 228.28 23.704 228.28 21.624C228.28 19.544 227.896 18.056 227.128 17.16C226.36 16.264 225.08 15.816 223.288 15.816C221.528 15.816 220.264 16.264 219.496 17.16C218.728 18.056 218.344 19.544 218.344 21.624C218.344 23.704 218.728 25.192 219.496 26.088C220.264 26.984 221.528 27.432 223.288 27.432ZM240.073 33V10.248H247.225L247.465 12.264C248.489 11.528 249.641 10.936 250.921 10.488C252.201 10.008 253.577 9.768 255.049 9.768C256.585 9.768 257.785 10.008 258.649 10.488C259.513 10.936 260.185 11.576 260.665 12.408C261.721 11.64 262.905 11.016 264.217 10.536C265.561 10.024 267.129 9.768 268.921 9.768C271.577 9.768 273.529 10.456 274.777 11.832C276.025 13.208 276.649 15.304 276.649 18.12V33H269.017V19.032C269.017 17.784 268.745 16.888 268.201 16.344C267.689 15.768 266.841 15.48 265.657 15.48C264.921 15.48 264.201 15.64 263.497 15.96C262.793 16.248 262.201 16.664 261.721 17.208C261.785 17.56 261.817 17.896 261.817 18.216C261.849 18.536 261.865 18.92 261.865 19.368V33H254.665V18.936C254.665 17.784 254.457 16.92 254.041 16.344C253.657 15.768 252.905 15.48 251.785 15.48C250.985 15.48 250.233 15.688 249.529 16.104C248.825 16.52 248.185 17 247.609 17.544V33H240.073ZM282.859 6.648V0.839999H291.259V6.648H282.859ZM283.483 33V15.96H280.123L280.795 10.248H291.211V33H283.483ZM296.136 33V10.248H303.336L303.576 12.216C304.504 11.576 305.672 11.016 307.08 10.536C308.488 10.024 309.992 9.768 311.592 9.768C314.536 9.768 316.68 10.472 318.024 11.88C319.368 13.288 320.04 15.464 320.04 18.408V33H312.312V19.032C312.312 17.752 312.04 16.84 311.496 16.296C310.952 15.752 309.976 15.48 308.568 15.48C307.736 15.48 306.888 15.672 306.023 16.056C305.16 16.44 304.44 16.92 303.864 17.496V33H296.136ZM334.474 41.448C333.354 41.448 332.17 41.4 330.922 41.304C329.674 41.208 328.49 41.064 327.37 40.872C326.25 40.68 325.29 40.456 324.49 40.2V34.92C325.77 35.336 327.306 35.656 329.098 35.88C330.89 36.104 332.538 36.216 334.042 36.216C335.994 36.216 337.45 36.104 338.41 35.88C339.402 35.688 339.898 35.336 339.898 34.824C339.898 34.376 339.706 34.072 339.322 33.912C338.938 33.752 338.186 33.672 337.066 33.672H330.778C328.73 33.672 327.13 33.304 325.978 32.568C324.858 31.832 324.298 30.76 324.298 29.352C324.298 28.392 324.586 27.48 325.162 26.616C325.77 25.752 326.65 25.112 327.802 24.696C326.49 24.024 325.498 23.176 324.826 22.152C324.154 21.128 323.818 19.832 323.818 18.264C323.818 15.32 324.762 13.176 326.65 11.832C328.57 10.456 331.37 9.768 335.05 9.768C335.818 9.768 336.666 9.832 337.594 9.96C338.554 10.056 339.258 10.152 339.706 10.248H348.442L348.25 15.048H344.938C345.738 15.848 346.138 17.032 346.138 18.6C346.138 20.808 345.418 22.584 343.978 23.928C342.57 25.272 340.426 25.944 337.546 25.944C337.066 25.944 336.586 25.928 336.106 25.896C335.658 25.832 335.21 25.784 334.762 25.752C333.93 25.848 333.21 26.024 332.602 26.28C332.026 26.536 331.738 26.904 331.738 27.384C331.738 27.768 331.882 28.024 332.17 28.152C332.49 28.28 332.954 28.344 333.562 28.344H339.37C341.706 28.344 343.514 28.888 344.794 29.976C346.106 31.032 346.762 32.584 346.762 34.632C346.762 39.176 342.666 41.448 334.474 41.448ZM335.098 21.672C336.794 21.672 337.962 21.384 338.602 20.808C339.242 20.232 339.562 19.272 339.562 17.928C339.562 16.584 339.226 15.608 338.554 15C337.914 14.392 336.762 14.088 335.098 14.088C333.53 14.088 332.394 14.392 331.69 15C331.018 15.576 330.682 16.552 330.682 17.928C330.682 19.208 331.002 20.152 331.642 20.76C332.282 21.368 333.434 21.672 335.098 21.672ZM370.49 33.48C368.666 33.48 366.938 33.352 365.306 33.096C363.674 32.84 362.378 32.52 361.418 32.136V26.232C362.538 26.712 363.834 27.08 365.306 27.336C366.778 27.592 368.09 27.72 369.242 27.72C370.618 27.72 371.61 27.656 372.218 27.528C372.858 27.4 373.178 27.048 373.178 26.472C373.178 25.832 372.666 25.352 371.642 25.032C370.618 24.712 369.21 24.248 367.418 23.64C365.338 22.904 363.754 22.056 362.666 21.096C361.61 20.104 361.082 18.648 361.082 16.728C361.082 14.488 361.914 12.776 363.578 11.592C365.274 10.376 367.962 9.768 371.642 9.768C373.082 9.768 374.506 9.88 375.914 10.104C377.322 10.328 378.474 10.584 379.37 10.872V16.68C378.474 16.264 377.45 15.96 376.298 15.768C375.146 15.576 374.106 15.48 373.178 15.48C371.994 15.48 370.986 15.56 370.154 15.72C369.354 15.848 368.954 16.184 368.954 16.728C368.954 17.336 369.402 17.768 370.298 18.024C371.194 18.248 372.49 18.632 374.186 19.176C375.978 19.72 377.37 20.312 378.362 20.952C379.354 21.56 380.058 22.296 380.474 23.16C380.89 24.024 381.098 25.112 381.098 26.424C381.098 28.696 380.202 30.44 378.41 31.656C376.618 32.872 373.978 33.48 370.49 33.48ZM396.163 33.48C391.779 33.48 388.547 32.472 386.467 30.456C384.387 28.408 383.347 25.464 383.347 21.624C383.347 17.816 384.387 14.888 386.467 12.84C388.579 10.792 391.811 9.768 396.163 9.768C400.547 9.768 403.779 10.792 405.859 12.84C407.971 14.888 409.027 17.816 409.027 21.624C409.027 25.464 407.987 28.408 405.907 30.456C403.827 32.472 400.579 33.48 396.163 33.48ZM396.163 27.432C397.955 27.432 399.235 26.984 400.003 26.088C400.771 25.192 401.155 23.704 401.155 21.624C401.155 19.544 400.771 18.056 400.003 17.16C399.235 16.264 397.955 15.816 396.163 15.816C394.403 15.816 393.139 16.264 392.371 17.16C391.603 18.056 391.219 19.544 391.219 21.624C391.219 23.704 391.603 25.192 392.371 26.088C393.139 26.984 394.403 27.432 396.163 27.432ZM424.804 33.48C420.42 33.48 417.188 32.472 415.108 30.456C413.028 28.408 411.988 25.464 411.988 21.624C411.988 17.816 413.028 14.888 415.108 12.84C417.22 10.792 420.452 9.768 424.804 9.768C429.188 9.768 432.42 10.792 434.5 12.84C436.612 14.888 437.668 17.816 437.668 21.624C437.668 25.464 436.628 28.408 434.548 30.456C432.468 32.472 429.22 33.48 424.804 33.48ZM424.804 27.432C426.596 27.432 427.876 26.984 428.644 26.088C429.412 25.192 429.796 23.704 429.796 21.624C429.796 19.544 429.412 18.056 428.644 17.16C427.876 16.264 426.596 15.816 424.804 15.816C423.044 15.816 421.78 16.264 421.012 17.16C420.244 18.056 419.86 19.544 419.86 21.624C419.86 23.704 420.244 25.192 421.012 26.088C421.78 26.984 423.044 27.432 424.804 27.432ZM441.589 33V10.248H448.789L449.029 12.216C449.957 11.576 451.125 11.016 452.533 10.536C453.941 10.024 455.445 9.768 457.045 9.768C459.989 9.768 462.133 10.472 463.477 11.88C464.821 13.288 465.493 15.464 465.493 18.408V33H457.765V19.032C457.765 17.752 457.493 16.84 456.949 16.296C456.405 15.752 455.429 15.48 454.021 15.48C453.189 15.48 452.341 15.672 451.477 16.056C450.613 16.44 449.893 16.92 449.317 17.496V33H441.589Z" fill="white"/>
</svg>
