<svg xmlns="http://www.w3.org/2000/svg" viewBox="0 0 60 44">
<path d="M51.3332 11.3334H43.3332V0.666748H5.99984C3.0665 0.666748 0.666504 3.06675 0.666504 6.00008V35.3334H5.99984C5.99984 39.7601 9.57317 43.3334 13.9998 43.3334C18.4265 43.3334 21.9998 39.7601 21.9998 35.3334H37.9998C37.9998 39.7601 41.5732 43.3334 45.9998 43.3334C50.4265 43.3334 53.9998 39.7601 53.9998 35.3334H59.3332V22.0001L51.3332 11.3334ZM13.9998 39.3334C11.7865 39.3334 9.99984 37.5467 9.99984 35.3334C9.99984 33.1201 11.7865 31.3334 13.9998 31.3334C16.2132 31.3334 17.9998 33.1201 17.9998 35.3334C17.9998 37.5467 16.2132 39.3334 13.9998 39.3334ZM49.9998 15.3334L55.2265 22.0001H43.3332V15.3334H49.9998ZM45.9998 39.3334C43.7865 39.3334 41.9998 37.5467 41.9998 35.3334C41.9998 33.1201 43.7865 31.3334 45.9998 31.3334C48.2132 31.3334 49.9998 33.1201 49.9998 35.3334C49.9998 37.5467 48.2132 39.3334 45.9998 39.3334Z" fill="#7986CB"/>
</svg>