<svg xmlns="http://www.w3.org/2000/svg" viewBox="0 0 1440 296" fill="none">
<path d="M1437 252L1376.83 222C1316.67 192 1196.33 132 1076 150C955.667 168 835.333 264 715 276C594.667 288 474.333 216 354 204C233.667 192 113.333 240 53.1666 264L-7 288L-6.99997 -4.16818e-06L53.1667 1.09176e-06C113.333 6.35169e-06 233.667 1.68716e-05 354 2.73914e-05C474.333 3.79113e-05 594.667 4.84312e-05 715 5.89511e-05C835.333 6.94709e-05 955.667 7.99908e-05 1076 9.05107e-05C1196.33 0.000101031 1316.67 0.00011155 1376.83 0.00011681L1437 0.00012207L1437 252Z" fill="#3949AB"/>
</svg>