<svg width="415" height="512" viewBox="0 0 415 512" fill="none" xmlns="http://www.w3.org/2000/svg">
<path d="M-161.983 178.148C-166.117 189.584 -169.195 201.219 -171.103 212.803C-175.994 240.967 -174.553 269.242 -167.75 295.895C-164.889 306.826 -161.216 317.437 -156.665 327.741C-134.808 377.134 -93.2208 417.893 -37.9165 437.683C1.58068 451.799 42.4972 453.293 80.3712 444.092C124.229 433.588 163.877 408.796 192.306 373.187C205.568 356.452 216.456 337.448 224.116 316.351C225.713 311.861 227.178 307.345 228.511 302.805C230.131 297.104 231.474 291.419 232.566 285.619C235.13 271.998 236.313 258.455 236.061 244.911C235.622 213.855 227.861 183.58 213.864 156.315C191.045 111.667 151.53 75.1443 100.14 56.6982C50.0213 38.7612 -2.44921 41.3005 -48.0266 59.848C-55.9578 63.1461 -63.777 66.9377 -71.3398 71.1824C-80.6656 76.4449 -89.6522 82.446 -98.1017 89.223C-126.328 111.779 -148.883 141.948 -161.983 178.148Z" fill="url(#paint0_linear)"/>
<path opacity="0.38" d="M-71.3531 71.2473C-40.2291 88.1054 0.25418 110.774 36.6144 133.206C79.2142 159.513 169.451 208.957 235.994 244.899C235.555 213.842 227.794 183.568 213.797 156.302C184.757 140.714 151.506 127.167 118.315 122.741C64.4489 115.638 -1.67011 84.7019 -48.0276 59.8477C-56.0371 63.1986 -63.8025 67.0678 -71.3531 71.2473Z" fill="white"/>
<path opacity="0.38" d="M232.487 285.672C220.851 277.071 114.355 235.97 53.4371 201.357C8.51727 175.761 -60.4097 120.544 -98.1274 89.3533C-126.342 111.844 -148.896 142.013 -161.996 178.214C-166.13 189.649 -169.209 201.284 -171.116 212.869C-111.558 221.313 -31.0697 231.808 29.5252 236.197C114.641 242.434 196.605 284.653 228.432 302.858L232.487 285.672Z" fill="white"/>
<path opacity="0.38" d="M-167.821 295.882C-164.96 306.812 -161.287 317.423 -156.736 327.727L-16.6012 377.05L80.2221 444.131C124.08 433.628 163.728 408.836 192.157 373.227C176.222 362.062 149.039 350.399 102.618 342.943C-10.1966 324.878 -144.948 301.402 -144.948 301.402L-167.821 295.882Z" fill="white"/>
<path d="M-126.543 116.867C-133.135 124.669 -139.232 133.103 -144.665 142C-189.357 132.98 -218.185 131.872 -221.445 140.841C-224.589 149.561 -202.997 166.244 -164.847 186.787C-119.43 211.194 -50.5627 240.96 28.1017 269.129C102.031 295.597 170.223 315.519 220.228 326.079C268.133 336.176 299.324 337.797 302.724 328.449C306.16 318.907 279.74 299.56 234.193 276.208C235.591 265.877 236.251 255.474 236.136 245.196C323.864 290.186 377.382 333.258 368.604 357.384C360.07 380.947 294.241 380.769 201.189 361.161C146.302 349.682 81.9872 331.3 14.3944 307.105C-57.1668 281.487 -121.711 253.075 -172.867 225.765C-251.842 183.637 -298.902 144.007 -290.671 121.331C-282.329 98.0689 -217.808 97.933 -126.543 116.867Z" fill="#4DD0E1"/>
<defs>
<linearGradient id="paint0_linear" x1="-179.464" y1="344.733" x2="202.673" y2="162.277" gradientUnits="userSpaceOnUse">
<stop stop-color="#88E9F9"/>
<stop offset="1" stop-color="#4B3FA3"/>
</linearGradient>
</defs>
</svg>
