<?xml version="1.0" encoding="UTF-8"?>
<svg width="2041px" height="580px" viewBox="0 0 2041 580" version="1.1" xmlns="http://www.w3.org/2000/svg" xmlns:xlink="http://www.w3.org/1999/xlink">
    <title>logo</title>
    <defs>
        <linearGradient x1="50%" y1="0%" x2="50%" y2="100%" id="linearGradient-1">
            <stop stop-color="#A313B2" offset="0%"></stop>
            <stop stop-color="#5C24D3" offset="100%"></stop>
        </linearGradient>
    </defs>
    <g id="Page-1" stroke="none" stroke-width="1" fill="none" fill-rule="evenodd">
        <g id="logo" transform="translate(-0.000000, 0.000000)" fill-rule="nonzero">
            <path d="M718.047925,437 C718.884551,437 719.721176,436.612137 720.976115,436.612137 C748.166448,435.060686 754.022827,421.485488 754.859453,398.21372 L754.859453,364.081794 C754.859453,357.100264 757.787643,342.361478 772.846904,352.44591 C784.14135,360.203166 795.854109,368.736148 803.802053,374.941953 C811.469727,380.957704 824.404503,391.086043 837.959319,401.179254 L839.692731,402.467238 C840.271419,402.89629 840.850872,403.324958 841.430731,403.752924 L843.171171,405.034392 C856.808561,415.051038 870.47275,424.503061 879.516673,429.242744 C885.791365,432.733509 892.902683,434.28496 900.014001,434.28496 C913.818324,434.28496 926.367708,428.467018 931.805775,419.158311 C938.49878,408.298153 934.315652,389.680739 922.602893,378.432718 C915.491575,371.451187 862.365847,329.562005 832.247324,306.290237 C831.72025,305.871346 831.19167,305.448265 830.667096,305.01999 L830.144061,304.589946 C822.150926,297.968253 815.531544,290.046544 830.15576,277.200528 C837.604427,270.594348 846.682817,262.651435 855.935097,254.744143 L857.478504,253.426826 C871.636586,241.358759 886.011766,229.551792 895.41256,222.899736 C915.909888,208.16095 927.622647,192.646438 927.204334,180.234828 C927.204334,165.496042 911.72676,151.532982 894.994247,151.145119 C878.680047,151.145119 859.437658,165.883905 832.665637,186.05277 L828.482509,189.155673 C825.136006,191.870712 821.789504,194.197889 818.024688,196.912929 C806.730242,205.44591 790.834355,216.693931 771.173653,230.656992 C757.787643,239.965699 753.604514,229.105541 753.604514,222.899736 C753.403724,211.915462 753.299313,202.182278 753.291282,194.429391 L753.291282,192.532847 C753.299313,185.115073 753.403724,179.738364 753.604514,177.131926 C754.022827,165.496042 748.166448,157.738786 743.565007,153.084433 C737.290315,146.878628 727.66912,143 718.884551,143 C702.152038,143.387863 684.582899,153.860158 682.073023,174.029024 C681.32006,180.312401 681.018874,200.733377 681,226.830338 L681,232.122902 C681.040961,292.906178 682.474603,379.95314 683.327961,394.722955 C684.164587,414.891821 693.785781,437 718.047925,437 Z M1087.68807,432.776694 C1163.72464,418.43832 1155.36897,320.007318 1154.11562,290.555522 C1152.44449,255.290872 1146.59552,240.177451 1125.28857,239.01488 C1103.98162,237.464785 1091.03034,245.990305 1089.77699,263.816392 C1088.10586,281.642479 1092.70147,342.096165 1083.09246,360.309775 C1073.90122,378.523386 1042.56747,377.360815 1029.1984,370.38539 C1015.41155,363.797488 1017.91825,292.493141 1017.08269,275.054577 C1015.82934,257.616014 1005.80254,235.527167 981.988888,237.077262 C958.593021,238.239833 948.148438,249.478018 950.237354,282.030003 C951.490704,299.85609 943.970604,314.969511 955.668538,369.997866 C967.366471,424.638698 1012.06929,447.115068 1087.68807,432.776694 Z M1238.54764,432.471801 C1256.09707,428.340911 1258.22977,409.54536 1260.68981,390.384171 L1260.89884,388.764365 C1261.84611,381.474197 1262.90486,374.189401 1264.94091,367.69634 C1274.1576,337.82981 1297.19935,318.048082 1332.80931,308.739034 C1365.90563,300.205739 1378.47385,290.120937 1372.60868,268.011947 C1367.16245,245.902958 1338.25554,241.63631 1308.51075,250.169605 C1293.84782,254.436252 1280.44172,262.193792 1270.38714,269.175578 C1260.7515,275.769488 1254.46739,273.442225 1254.46739,261.418038 C1254.46739,242.412064 1242.31811,230 1220.11425,230 C1197.91039,230 1189.53158,245.902958 1191.20734,273.442225 C1192.12901,285.559503 1192.56404,308.1898 1193.08341,331.354758 L1193.15482,334.515993 C1193.80309,362.980066 1194.61752,391.566291 1196.65357,401.829517 C1196.9175,403.132784 1197.15269,404.453156 1197.37567,405.778393 L1197.56419,406.915218 C1197.59524,407.104792 1197.62614,407.294394 1197.65693,407.483988 L1197.84081,408.621175 C1200.53061,425.29018 1203.15553,441.346427 1238.54764,432.471801 Z M1531.68807,432.776694 C1607.72464,418.43832 1599.36897,320.007318 1598.11562,290.555522 C1596.44449,255.290872 1590.59552,240.177451 1569.28857,239.01488 C1547.98162,237.464785 1535.03034,245.990305 1533.77699,263.816392 C1532.10586,281.642479 1536.70147,342.096165 1527.09246,360.309775 C1517.90122,378.523386 1486.56747,377.360815 1473.1984,370.38539 C1459.41155,363.797488 1461.91825,292.493141 1461.08269,275.054577 C1459.82934,257.616014 1449.80254,235.527167 1425.98889,237.077262 C1402.59302,238.239833 1392.14844,249.478018 1394.23735,282.030003 C1395.4907,299.85609 1387.9706,314.969511 1399.66854,369.997866 C1411.36647,424.638698 1456.06929,447.115068 1531.68807,432.776694 Z M1680.54764,432.471801 C1697.84989,428.399092 1700.16664,410.071903 1702.58602,391.193541 L1702.794,389.574366 C1703.76902,382.014897 1704.82945,374.429885 1706.94091,367.69634 C1716.1576,337.82981 1739.19935,318.048082 1774.80931,308.739034 C1807.90563,300.205739 1820.47385,290.120937 1814.60868,268.011947 C1809.16245,245.902958 1780.25554,241.63631 1750.51075,250.169605 C1735.84782,254.436252 1722.44172,262.193792 1712.38714,269.175578 C1702.7515,275.769488 1696.46739,273.442225 1696.46739,261.418038 C1696.46739,242.412064 1684.31811,230 1662.11425,230 C1639.91039,230 1631.53158,245.902958 1633.20734,273.442225 C1634.12901,285.559503 1634.56404,308.1898 1635.08341,331.354758 L1635.15482,334.515993 C1635.80309,362.980066 1636.61752,391.566291 1638.65357,401.829517 C1642.42403,420.447614 1640.32933,442.556603 1680.54764,432.471801 Z M1973.68807,432.776694 C2049.72464,418.43832 2041.36897,320.007318 2040.11562,290.555522 C2038.44449,255.290872 2032.59552,240.177451 2011.28857,239.01488 C1989.98162,237.464785 1977.03034,245.990305 1975.77699,263.816392 C1974.10586,281.642479 1978.70147,342.096165 1969.09246,360.309775 C1959.90122,378.523386 1928.56747,377.360815 1915.1984,370.38539 C1901.41155,363.797488 1903.91825,292.493141 1903.08269,275.054577 C1901.82934,257.616014 1891.80254,235.527167 1867.98889,237.077262 C1844.59302,238.239833 1834.14844,249.478018 1836.23735,282.030003 C1837.4907,299.85609 1829.9706,314.969511 1841.66854,369.997866 C1853.36647,424.638698 1898.06929,447.115068 1973.68807,432.776694 Z" id="Kururu" fill="#FFFFFF"></path>
            <g id="Group-2-Copy-2">
                <rect id="Rectangle" fill="url(#linearGradient-1)" transform="translate(289.913780, 289.913780) rotate(45.000000) translate(-289.913780, -289.913780) " x="84.9137803" y="84.9137803" width="410" height="410" rx="100"></rect>
                <g id="Group" transform="translate(141.040782, 66.130214)" fill="#FFFFFF" fill-opacity="0.378441871">
                    <path d="M214.696009,0 L278.490659,63.7458188 C283.178745,68.4303158 283.181654,76.028295 278.497157,80.7163804 C278.463316,80.7502467 278.429274,80.7839102 278.39503,80.8173691 L131.511,224.336 L274.557297,365.944964 C280.837145,372.161734 280.88828,382.292245 274.67151,388.572093 L274.536344,388.70701 L274.536344,388.70701 L213.141877,449.26141 L9.48066632,247.531987 C2.1921611,240.312616 -0.89810783,230.456984 0.224332801,221.002344 C0.711427296,213.529084 3.80979446,206.193662 9.51965447,200.479429 C9.60989558,200.389118 9.70067634,200.299349 9.79199188,200.210125 L214.696009,0 Z" id="Combined-Shape"></path>
                </g>
                <g id="Group" transform="translate(177.608718, 86.951965)" fill="#FFFFFF">
                    <path d="M199.618625,0 L265.765362,66.1467369 L100.859,202.575 L261.553781,343.661117 L195.235848,409.981128 L4.55354137,214.743395 C-0.825086706,209.236271 -1.44093953,200.813985 2.7173489,194.639264 C3.34752597,193.383964 4.15434267,192.191023 5.14012332,191.096744 C5.35786781,190.855034 5.58293363,190.620021 5.81500689,190.392033 L19.437,177.01 L32.8682372,163.13674 C33.9106038,162.060027 35.0691472,161.160253 36.3056485,160.43897 L199.618625,0 Z" id="Combined-Shape"></path>
                </g>
            </g>
        </g>
    </g>
</svg>