<?xml version="1.0" encoding="UTF-8"?>
<svg width="65px" height="67px" viewBox="0 0 65 67" version="1.1" xmlns="http://www.w3.org/2000/svg" xmlns:xlink="http://www.w3.org/1999/xlink">
    <title>0xd5831845b14c418751be16694315d7aa77a67629</title>
    <defs>
        <linearGradient x1="50%" y1="0%" x2="50%" y2="100%" id="linearGradient-1">
            <stop stop-color="#A313B2" offset="0%"></stop>
            <stop stop-color="#5C24D3" offset="100%"></stop>
        </linearGradient>
    </defs>
    <g id="Page-1" stroke="none" stroke-width="1" fill="none" fill-rule="evenodd">
        <g id="Group-2" transform="translate(-73.000000, -5.000000)" fill-rule="nonzero">
            <g id="0xd5831845b14c418751be16694315d7aa77a67629" transform="translate(68.000000, 0.000000)">
                <path d="M46.2421991,9.3902439 L65.2831046,29.1097561 C70.2907244,34.2958446 70.2907244,42.7041554 65.2831046,47.8902439 L46.2421991,67.6097561 C41.2345792,72.7958446 33.1156232,72.7958446 28.1080034,67.6097561 L9.06709786,47.8902439 C4.05947799,42.7041554 4.05947799,34.2958446 9.06709786,29.1097561 L10.5507653,27.5732117 L16.296749,21.6101673 C16.3045126,21.6107473 16.3151099,21.6080595 16.3285409,21.6021039 L16.3460182,21.5933885 L16.3662158,21.581536 L16.3891337,21.5665464 L16.4147719,21.5484196 L16.4431304,21.5271557 L16.4742092,21.5027546 L16.5080083,21.4752164 L16.5445278,21.4445411 L16.6044075,21.3926459 L16.6937681,21.3124724 L16.8207707,21.1946091 L16.9647752,21.0571387 L17.1257816,20.9000612 L17.3037898,20.7233765 L17.5398423,20.4854736 L17.8003775,20.2193363 L18.1600654,19.8473858 L18.3883364,19.6091666 L18.7026408,19.2787491 L19.0283086,18.9337122 L19.2800167,18.6653407 L19.7137343,18.1997807 L20.0734923,17.810886 L20.4446136,17.4073719 L20.8270983,16.9892386 L21.3211839,16.4460136 L21.8330249,15.8799459 L22.0427327,15.6471229 L28.1008974,9.38287897 C33.1167696,4.21110128 41.2302436,4.21439516 46.2421991,9.3902439 Z" id="Rectangle" fill="url(#linearGradient-1)"></path>
                <g id="Group" transform="translate(18.085395, 8.781967)" fill="#FFFFFF" fill-opacity="0.378441871">
                    <path d="M27.5300672,0 L35.7103358,8.4653238 C36.3114803,9.08741611 36.3118533,10.0964133 35.711169,10.7189822 C35.7068296,10.7234796 35.7024645,10.72795 35.6980734,10.7323933 L16.8634093,29.7913952 L35.2059681,48.596797 C36.0112213,49.4223722 36.0177782,50.7676849 35.2206134,51.6016368 L35.2032814,51.6195535 L35.2032814,51.6195535 L27.3307838,59.6610629 L1.21568809,32.8717783 C0.281096713,31.9130595 -0.115162685,30.6042503 0.0287657751,29.348692 C0.0912249901,28.3562572 0.48852281,27.3821271 1.22068747,26.6232878 C1.23225892,26.6112947 1.24389956,26.5993735 1.25560878,26.5875248 L27.5300672,0 Z" id="Combined-Shape"></path>
                </g>
                <g id="Group" transform="translate(22.774433, 11.547056)" fill="#FFFFFF">
                    <path d="M25.5967225,0 L34.0785948,8.78416117 L12.9329607,26.9015757 L33.5385516,45.6375443 L25.0347272,54.444716 L0.583892084,28.5175154 C-0.105799323,27.7861798 -0.184768978,26.6677162 0.348440561,25.847725 C0.429246987,25.6810235 0.532703582,25.5226032 0.659108389,25.3772851 C0.687029357,25.3451864 0.715889126,25.3139771 0.745647445,25.2837008 L2.49237012,23.5065922 L4.21463251,21.6642496 C4.34829323,21.5212641 4.49685108,21.4017758 4.65540533,21.3059908 L25.5967225,0 Z" id="Combined-Shape"></path>
                </g>
            </g>
        </g>
    </g>
</svg>