<svg width="139" height="139" viewBox="0 0 139 139" fill="none" xmlns="http://www.w3.org/2000/svg">
<ellipse cx="69.2133" cy="69.2156" rx="69.1471" ry="69.1471" fill="#1A237E"/>
<path d="M77.8879 75.0211C81.1783 83.5364 82.7357 100.573 83.1456 105.777C83.2158 106.678 83.9419 107.381 84.8494 107.444C111.624 109.286 117.783 96.9542 119.065 92.9985C119.288 92.3015 119.077 91.5464 118.515 91.0701C107.871 82.0785 94.3226 74.4983 89.9197 72.1342C89.2054 71.7509 88.3155 71.867 87.7593 72.4479C86.7288 73.5225 84.2931 74.9978 78.7076 74.8352H77.7883L77.8879 75.0211Z" fill="white"/>
<path d="M84.8904 58.792C83.9184 57.5548 80.4465 53.9244 71.6524 51.2931C71.4182 51.2234 71.225 51.0492 71.1372 50.8168L63.9532 31.8635C63.7307 31.2827 64.2459 30.6902 64.8548 30.818C70.1008 31.9216 89.1176 36.8763 105.611 53.4191C106.056 53.8663 105.81 54.6331 105.184 54.7434C101.717 55.3417 92.8296 56.9739 85.7393 59.065C85.4232 59.1521 85.0953 59.0476 84.8904 58.792Z" fill="white"/>
<path d="M57.8291 55.1559C57.5188 59.6865 58.9709 63.1078 60.0306 64.9607C60.5048 65.7913 60.1067 66.8369 59.1992 67.1505C53.6956 69.0383 37.5301 74.6842 30.8614 78.1694C30.1705 78.5295 29.3274 78.332 28.8824 77.6989C25.4749 72.8719 13.0449 53.483 23.1622 40.5067C23.572 39.9839 24.2688 39.7748 24.8952 39.9955C29.14 41.4883 45.7563 47.5234 56.9977 54.2091C57.109 54.273 57.2085 54.3543 57.3022 54.4414L57.7003 54.8364L57.8291 55.1559Z" fill="white"/>
<path d="M82.365 68.1489C84.2273 65.4717 81.8905 60.6678 77.1456 57.4189C72.4006 54.1701 67.0442 53.7066 65.1818 56.3837C63.3195 59.0608 65.6563 63.8648 70.4012 67.1137C75.1462 70.3625 80.5026 70.826 82.365 68.1489Z" fill="white"/>
<rect x="0.0661621" y="105.326" width="83.7448" height="33.037" rx="16.5185" fill="#283593"/>
<path d="M7.77991 117.477H8.97231L13.3486 123.956V117.477H14.6147V126.07H13.41L9.03377 119.592V126.07H7.77991V117.477Z" fill="white"/>
<path d="M19.3173 126.254C18.6535 126.254 18.0675 126.131 17.5594 125.886C17.0595 125.632 16.6661 125.271 16.3793 124.804C16.1007 124.328 15.9614 123.771 15.9614 123.132C15.9614 122.501 16.1007 121.948 16.3793 121.472C16.6579 120.997 17.0513 120.632 17.5594 120.378C18.0675 120.116 18.6535 119.985 19.3173 119.985C19.9811 119.985 20.5671 120.116 21.0752 120.378C21.5833 120.632 21.9766 120.997 22.2553 121.472C22.5421 121.948 22.6855 122.501 22.6855 123.132C22.6855 123.771 22.5421 124.328 22.2553 124.804C21.9766 125.271 21.5833 125.632 21.0752 125.886C20.5671 126.131 19.9811 126.254 19.3173 126.254ZM19.3173 125.271C19.9565 125.271 20.4646 125.074 20.8416 124.681C21.2186 124.287 21.4071 123.771 21.4071 123.132C21.4071 122.468 21.2186 121.944 20.8416 121.558C20.4646 121.173 19.9565 120.981 19.3173 120.981C18.6781 120.981 18.17 121.173 17.793 121.558C17.416 121.944 17.2275 122.468 17.2275 123.132C17.2275 123.771 17.416 124.287 17.793 124.681C18.17 125.074 18.6781 125.271 19.3173 125.271Z" fill="white"/>
<path d="M24.0343 120.169H25.239V121.227C25.4848 120.866 25.829 120.6 26.2716 120.428C26.7223 120.255 27.2427 120.169 27.8328 120.169V121.141C27.2017 121.141 26.6608 121.243 26.2101 121.448C25.7594 121.653 25.448 121.976 25.2759 122.419V126.07H24.0343V120.169Z" fill="white"/>
<path d="M31.2184 126.254C30.6201 126.254 30.1571 126.082 29.8293 125.738C29.5097 125.394 29.3499 124.906 29.3499 124.275V121.128H28.4525V120.169H29.3499V118.399H30.6037V120.169H32.0543V121.128H30.6037V124.189C30.6037 124.583 30.6775 124.861 30.825 125.025C30.9807 125.189 31.2594 125.271 31.6609 125.271C31.8986 125.271 32.1362 125.218 32.3739 125.111V126.095C32.0625 126.201 31.6773 126.254 31.2184 126.254Z" fill="white"/>
<path d="M33.542 116.986H34.7836V120.981C35.3491 120.317 36.103 119.985 37.0455 119.985C37.8322 119.985 38.4182 120.194 38.8033 120.612C39.1885 121.03 39.3811 121.591 39.3811 122.296V126.07H38.1395V122.419C38.1395 121.46 37.6806 120.981 36.7627 120.981C36.3694 120.981 36.0006 121.075 35.6564 121.263C35.3204 121.444 35.0294 121.722 34.7836 122.099V126.07H33.542V116.986Z" fill="white"/>
<path d="M40.9129 117.477H44.8589C45.6211 117.477 46.2111 117.674 46.6291 118.067C47.047 118.461 47.256 119.034 47.256 119.788C47.256 120.214 47.1536 120.591 46.9487 120.919C46.752 121.239 46.4897 121.477 46.1619 121.632C47.0798 121.903 47.5387 122.571 47.5387 123.636C47.5387 124.136 47.4281 124.57 47.2068 124.939C46.9938 125.3 46.6987 125.578 46.3217 125.775C45.9448 125.972 45.5268 126.07 45.0679 126.07H40.9129V117.477ZM44.6991 121.165C45.1007 121.165 45.4162 121.054 45.6456 120.833C45.8751 120.612 45.9898 120.284 45.9898 119.85C45.9898 119.35 45.8751 119.002 45.6456 118.805C45.4244 118.6 45.0802 118.498 44.613 118.498H42.1668V121.165H44.6991ZM44.7851 125.05C45.2687 125.05 45.6374 124.943 45.8915 124.73C46.1455 124.517 46.2726 124.152 46.2726 123.636C46.2726 123.12 46.1373 122.751 45.8669 122.53C45.6047 122.308 45.2072 122.198 44.6745 122.198H42.1668V125.05H44.7851Z" fill="white"/>
<path d="M48.896 120.169H50.1007V121.227C50.3466 120.866 50.6908 120.6 51.1333 120.428C51.5841 120.255 52.1045 120.169 52.6945 120.169V121.141C52.0635 121.141 51.5226 121.243 51.0719 121.448C50.6211 121.653 50.3097 121.976 50.1376 122.419V126.07H48.896V120.169Z" fill="white"/>
<path d="M54.5312 119.014C54.3264 119.014 54.1543 118.944 54.0149 118.805C53.8756 118.666 53.806 118.493 53.806 118.289C53.806 118.084 53.8756 117.912 54.0149 117.772C54.1543 117.633 54.3264 117.563 54.5312 117.563C54.7443 117.563 54.9205 117.633 55.0598 117.772C55.2073 117.912 55.2811 118.084 55.2811 118.289C55.2811 118.493 55.2073 118.666 55.0598 118.805C54.9205 118.944 54.7443 119.014 54.5312 119.014ZM53.9043 120.169H55.1705V126.07H53.9043V120.169Z" fill="white"/>
<path d="M59.7311 126.254C59.141 126.254 58.6083 126.127 58.133 125.873C57.6659 125.611 57.2971 125.246 57.0267 124.779C56.7644 124.304 56.6333 123.755 56.6333 123.132C56.6333 122.517 56.7644 121.972 57.0267 121.497C57.2971 121.022 57.6659 120.653 58.133 120.391C58.6083 120.12 59.141 119.985 59.7311 119.985C60.7965 119.985 61.6037 120.309 62.1528 120.956V116.986H63.3944V126.07H62.1897V125.209C61.8619 125.57 61.5013 125.836 61.1079 126.008C60.7227 126.172 60.2638 126.254 59.7311 126.254ZM60.0138 125.271C60.5219 125.271 60.9645 125.14 61.3415 124.878C61.7266 124.607 61.9971 124.247 62.1528 123.796V122.468C62.0135 122.017 61.7471 121.657 61.3537 121.386C60.9686 121.116 60.5219 120.981 60.0138 120.981C59.6123 120.981 59.2476 121.071 58.9198 121.251C58.6002 121.431 58.3461 121.686 58.1576 122.013C57.9773 122.341 57.8872 122.714 57.8872 123.132C57.8872 123.55 57.9773 123.923 58.1576 124.251C58.3461 124.578 58.6002 124.832 58.9198 125.013C59.2476 125.185 59.6123 125.271 60.0138 125.271Z" fill="white"/>
<path d="M68.0798 128.897C67.6783 128.897 67.2849 128.865 66.8997 128.799C66.5228 128.733 66.2031 128.639 65.9409 128.516V127.496C66.5555 127.775 67.2685 127.914 68.0798 127.914C68.842 127.914 69.3952 127.746 69.7394 127.41C70.0918 127.082 70.268 126.582 70.268 125.91V125.283C69.7271 125.931 68.9321 126.254 67.8832 126.254C67.2849 126.254 66.7481 126.123 66.2728 125.861C65.7975 125.599 65.4246 125.23 65.1542 124.755C64.8837 124.279 64.7485 123.734 64.7485 123.12C64.7485 122.497 64.8796 121.952 65.1419 121.485C65.4123 121.009 65.7811 120.641 66.2482 120.378C66.7235 120.116 67.2562 119.985 67.8463 119.985C68.3954 119.985 68.8584 120.067 69.2354 120.231C69.6205 120.387 69.977 120.649 70.3048 121.018V120.169H71.5095V125.775C71.5095 126.783 71.2268 127.553 70.6613 128.086C70.1041 128.627 69.2436 128.897 68.0798 128.897ZM68.129 125.271C68.6371 125.271 69.0838 125.136 69.4689 124.865C69.8623 124.595 70.1286 124.234 70.268 123.783V122.456C70.1123 121.997 69.8418 121.636 69.4566 121.374C69.0797 121.112 68.6371 120.981 68.129 120.981C67.7275 120.981 67.3628 121.071 67.035 121.251C66.7153 121.423 66.4613 121.673 66.2728 122.001C66.0925 122.329 66.0024 122.702 66.0024 123.12C66.0024 123.546 66.0925 123.923 66.2728 124.251C66.4613 124.57 66.7153 124.82 67.035 125C67.3628 125.181 67.7275 125.271 68.129 125.271Z" fill="white"/>
<path d="M76.3548 126.254C75.2649 126.254 74.4085 125.984 73.7856 125.443C73.171 124.894 72.8637 124.124 72.8637 123.132C72.8637 122.165 73.1382 121.399 73.6873 120.833C74.2446 120.268 75.0354 119.985 76.0598 119.985C76.74 119.985 77.3178 120.116 77.7931 120.378C78.2684 120.632 78.6249 120.989 78.8626 121.448C79.1084 121.899 79.2314 122.415 79.2314 122.997V123.611H74.0438C74.0848 124.169 74.3183 124.587 74.7445 124.865C75.1788 125.136 75.7648 125.271 76.5023 125.271C76.8793 125.271 77.2604 125.238 77.6456 125.173C78.0308 125.099 78.3709 125.005 78.6659 124.89V125.886C78.4036 125.992 78.0553 126.078 77.621 126.144C77.1948 126.217 76.7728 126.254 76.3548 126.254ZM78.0635 122.739C78.0471 122.181 77.8627 121.751 77.5104 121.448C77.1662 121.136 76.6744 120.981 76.0352 120.981C75.4124 120.981 74.9289 121.141 74.5847 121.46C74.2405 121.78 74.0602 122.206 74.0438 122.739H78.0635Z" fill="white"/>
</svg>
